{
	"asset":{
		"generator":"Khronos glTF Blender I/O v4.0.44",
		"version":"2.0"
	},
	"scene":0,
	"scenes":[
		{
			"extras":{
				"vs":{
					"export_list":[
						{
							"name":"Collection.dmx",
							"collection":{
								"name":"Collection",
								"type":"Collection"
							},
							"ob_type":"COLLECTION",
							"icon":"GROUP"
						}
					]
				}
			},
			"name":"Scene",
			"nodes":[
				0,
				1,
				2,
				3
			]
		}
	],
	"nodes":[
		{
			"camera":0,
			"name":"T_play-bathroom-hallway.fspy",
			"rotation":[
				-0.024373764172196388,
				-0.6936768889427185,
				-0.052892956882715225,
				0.7179280519485474
			],
			"translation":[
				-9.86927318572998,
				2.013079881668091,
				-0.6236349940299988
			]
		},
		{
			"mesh":0,
			"name":"Plane"
		},
		{
			"mesh":1,
			"name":"Cube",
			"rotation":[
				0.49041691422462463,
				-0.5279046893119812,
				0.45310264825820923,
				0.5248866677284241
			],
			"scale":[
				0.5904460549354553,
				1,
				0.44308534264564514
			],
			"translation":[
				-9.869270324707031,
				2.013079881668091,
				-0.6236349940299988
			]
		},
		{
			"camera":1,
			"name":"Camera",
			"rotation":[
				0.00886857882142067,
				-0.7138608694076538,
				-0.021186739206314087,
				0.6999108791351318
			]
		}
	],
	"cameras":[
		{
			"name":"Camera.001",
			"perspective":{
				"aspectRatio":1.3333333333333333,
				"yfov":0.8322585628708394,
				"zfar":1000,
				"znear":0.10000000149011612
			},
			"type":"perspective"
		},
		{
			"name":"Camera.002",
			"perspective":{
				"aspectRatio":1.3333333333333333,
				"yfov":0.5274237051253257,
				"zfar":1000,
				"znear":0.10000000149011612
			},
			"type":"perspective"
		}
	],
	"materials":[
		{
			"doubleSided":true,
			"name":"Material.001",
			"pbrMetallicRoughness":{
				"baseColorTexture":{
					"index":0
				},
				"metallicFactor":0,
				"roughnessFactor":0.5
			}
		}
	],
	"meshes":[
		{
			"name":"Plane",
			"primitives":[
				{
					"attributes":{
						"POSITION":0,
						"NORMAL":1,
						"TEXCOORD_0":2
					},
					"indices":3,
					"material":0
				}
			]
		},
		{
			"name":"Cube.001",
			"primitives":[
				{
					"attributes":{
						"POSITION":4,
						"NORMAL":5,
						"TEXCOORD_0":6,
						"TANGENT":7
					},
					"indices":8
				}
			]
		}
	],
	"textures":[
		{
			"sampler":0,
			"source":0
		}
	],
	"images":[
		{
			"mimeType":"image/png",
			"name":"T_play-bathroom-hallway.fspy",
			"uri":"../../src/3d/textures/fspy-temp-image-f5bfeb71ebb842869cb100883c307af7"
		}
	],
	"accessors":[
		{
			"bufferView":0,
			"componentType":5126,
			"count":3548,
			"max":[
				5.537396430969238,
				3.3393521308898926,
				1.4184281826019287
			],
			"min":[
				-8.441228866577148,
				0,
				-2.3945746421813965
			],
			"type":"VEC3"
		},
		{
			"bufferView":1,
			"componentType":5126,
			"count":3548,
			"type":"VEC3"
		},
		{
			"bufferView":2,
			"componentType":5126,
			"count":3548,
			"type":"VEC2"
		},
		{
			"bufferView":3,
			"componentType":5123,
			"count":19200,
			"type":"SCALAR"
		},
		{
			"bufferView":4,
			"componentType":5126,
			"count":24,
			"max":[
				16.399999618530273,
				-1,
				16.399999618530273
			],
			"min":[
				-16.39999771118164,
				-15.989080429077148,
				-16.399999618530273
			],
			"type":"VEC3"
		},
		{
			"bufferView":5,
			"componentType":5126,
			"count":24,
			"type":"VEC3"
		},
		{
			"bufferView":6,
			"componentType":5126,
			"count":24,
			"type":"VEC2"
		},
		{
			"bufferView":7,
			"componentType":5126,
			"count":24,
			"type":"VEC4"
		},
		{
			"bufferView":8,
			"componentType":5123,
			"count":36,
			"type":"SCALAR"
		}
	],
	"bufferViews":[
		{
			"buffer":0,
			"byteLength":42576,
			"byteOffset":0,
			"target":34962
		},
		{
			"buffer":0,
			"byteLength":42576,
			"byteOffset":42576,
			"target":34962
		},
		{
			"buffer":0,
			"byteLength":28384,
			"byteOffset":85152,
			"target":34962
		},
		{
			"buffer":0,
			"byteLength":38400,
			"byteOffset":113536,
			"target":34963
		},
		{
			"buffer":0,
			"byteLength":288,
			"byteOffset":151936,
			"target":34962
		},
		{
			"buffer":0,
			"byteLength":288,
			"byteOffset":152224,
			"target":34962
		},
		{
			"buffer":0,
			"byteLength":192,
			"byteOffset":152512,
			"target":34962
		},
		{
			"buffer":0,
			"byteLength":384,
			"byteOffset":152704,
			"target":34962
		},
		{
			"buffer":0,
			"byteLength":72,
			"byteOffset":153088,
			"target":34963
		}
	],
	"samplers":[
		{
			"magFilter":9729,
			"minFilter":9987
		}
	],
	"buffers":[
		{
			"byteLength":153160,
			"uri":"bathroom-4bd525e0ba7d4010e2a5ad1f793bda6a.bin"
		}
	]
}
