{
	"asset":{
		"generator":"Khronos glTF Blender I/O v4.0.44",
		"version":"2.0"
	},
	"scene":0,
	"scenes":[
		{
			"name":"Scene",
			"nodes":[
				0,
				1,
				2,
				3,
				4,
				5,
				6,
				7
			]
		}
	],
	"nodes":[
		{
			"mesh":0,
			"name":"corridor-near"
		},
		{
			"camera":0,
			"name":"_camera-blender",
			"rotation":[
				-0.0017236709827557206,
				-0.5694360136985779,
				-0.007332943845540285,
				0.8220011591911316
			],
			"translation":[
				-7.6100897789001465,
				0.23883800208568573,
				2.784440040588379
			]
		},
		{
			"mesh":1,
			"name":"arch"
		},
		{
			"mesh":2,
			"name":"corridor-far"
		},
		{
			"name":"_origin"
		},
		{
			"name":"_camera",
			"rotation":[
				0.5800236463546753,
				-0.40783730149269104,
				0.39746665954589844,
				0.5824617147445679
			],
			"translation":[
				-7.610093116760254,
				0.23883795738220215,
				2.784437417984009
			]
		},
		{
			"mesh":3,
			"name":"_camera-clip",
			"rotation":[
				0.5800236463546753,
				-0.40783730149269104,
				0.39746665954589844,
				0.5824617147445679
			],
			"translation":[
				-7.610093116760254,
				0.23883795738220215,
				2.784437417984009
			]
		},
		{
			"mesh":4,
			"name":"corridor-near-front"
		}
	],
	"cameras":[
		{
			"name":"Camera.001",
			"perspective":{
				"aspectRatio":1.334096109839817,
				"yfov":0.5418367515053406,
				"zfar":1000,
				"znear":0.10000000149011612
			},
			"type":"perspective"
		}
	],
	"materials":[
		{
			"doubleSided":true,
			"emissiveFactor":[
				1,
				1,
				1
			],
			"emissiveTexture":{
				"index":0
			},
			"name":"Material",
			"pbrMetallicRoughness":{
				"baseColorFactor":[
					0,
					0,
					0,
					1
				]
			}
		}
	],
	"meshes":[
		{
			"name":"Cube",
			"primitives":[
				{
					"attributes":{
						"POSITION":0,
						"NORMAL":1,
						"TEXCOORD_0":2
					},
					"indices":3,
					"material":0
				}
			]
		},
		{
			"name":"Cube.001",
			"primitives":[
				{
					"attributes":{
						"POSITION":4,
						"NORMAL":5,
						"TEXCOORD_0":6
					},
					"indices":7,
					"material":0
				}
			]
		},
		{
			"name":"Cube.004",
			"primitives":[
				{
					"attributes":{
						"POSITION":8,
						"NORMAL":9,
						"TEXCOORD_0":10
					},
					"indices":11,
					"material":0
				}
			]
		},
		{
			"name":"Cube.005",
			"primitives":[
				{
					"attributes":{
						"POSITION":12,
						"NORMAL":13,
						"TEXCOORD_0":14,
						"TANGENT":15
					},
					"indices":16
				}
			]
		},
		{
			"name":"Cube.006",
			"primitives":[
				{
					"attributes":{
						"POSITION":17,
						"NORMAL":18,
						"TEXCOORD_0":19,
						"TANGENT":20
					},
					"indices":21,
					"material":0
				}
			]
		}
	],
	"textures":[
		{
			"sampler":0,
			"source":0
		}
	],
	"images":[
		{
			"mimeType":"image/png",
			"name":"hospital-long.fspy",
			"uri":"../../src/3d/textures/fspy-temp-image-124d04cb01614308b403bb619e1eff22"
		}
	],
	"accessors":[
		{
			"bufferView":0,
			"componentType":5126,
			"count":741,
			"max":[
				21.000001907348633,
				4.000000476837158,
				2.678266763687134
			],
			"min":[
				-4.373044013977051,
				-2.000000238418579,
				-0.8303442001342773
			],
			"type":"VEC3"
		},
		{
			"bufferView":1,
			"componentType":5126,
			"count":741,
			"type":"VEC3"
		},
		{
			"bufferView":2,
			"componentType":5126,
			"count":741,
			"type":"VEC2"
		},
		{
			"bufferView":3,
			"componentType":5123,
			"count":3270,
			"type":"SCALAR"
		},
		{
			"bufferView":4,
			"componentType":5126,
			"count":169,
			"max":[
				98.80340576171875,
				4.000000476837158,
				2.4824061393737793
			],
			"min":[
				21,
				-2,
				0
			],
			"type":"VEC3"
		},
		{
			"bufferView":5,
			"componentType":5126,
			"count":169,
			"type":"VEC3"
		},
		{
			"bufferView":6,
			"componentType":5126,
			"count":169,
			"type":"VEC2"
		},
		{
			"bufferView":7,
			"componentType":5123,
			"count":393,
			"type":"SCALAR"
		},
		{
			"bufferView":8,
			"componentType":5126,
			"count":93,
			"max":[
				162.60354614257812,
				4.000000476837158,
				2.4824061393737793
			],
			"min":[
				21.000001907348633,
				-2.000000238418579,
				0
			],
			"type":"VEC3"
		},
		{
			"bufferView":9,
			"componentType":5126,
			"count":93,
			"type":"VEC3"
		},
		{
			"bufferView":10,
			"componentType":5126,
			"count":93,
			"type":"VEC2"
		},
		{
			"bufferView":11,
			"componentType":5123,
			"count":306,
			"type":"SCALAR"
		},
		{
			"bufferView":12,
			"componentType":5126,
			"count":24,
			"max":[
				79.38851928710938,
				-0.9999998807907104,
				59.52462387084961
			],
			"min":[
				-79.38834381103516,
				-218.99945068359375,
				-59.52462387084961
			],
			"type":"VEC3"
		},
		{
			"bufferView":13,
			"componentType":5126,
			"count":24,
			"type":"VEC3"
		},
		{
			"bufferView":14,
			"componentType":5126,
			"count":24,
			"type":"VEC2"
		},
		{
			"bufferView":15,
			"componentType":5126,
			"count":24,
			"type":"VEC4"
		},
		{
			"bufferView":16,
			"componentType":5123,
			"count":36,
			"type":"SCALAR"
		},
		{
			"bufferView":17,
			"componentType":5126,
			"count":312,
			"max":[
				21.000001907348633,
				4.000000476837158,
				3.000000476837158
			],
			"min":[
				-5.000000476837158,
				-2.000000238418579,
				0
			],
			"type":"VEC3"
		},
		{
			"bufferView":18,
			"componentType":5126,
			"count":312,
			"type":"VEC3"
		},
		{
			"bufferView":19,
			"componentType":5126,
			"count":312,
			"type":"VEC2"
		},
		{
			"bufferView":20,
			"componentType":5126,
			"count":312,
			"type":"VEC4"
		},
		{
			"bufferView":21,
			"componentType":5123,
			"count":852,
			"type":"SCALAR"
		}
	],
	"bufferViews":[
		{
			"buffer":0,
			"byteLength":8892,
			"byteOffset":0,
			"target":34962
		},
		{
			"buffer":0,
			"byteLength":8892,
			"byteOffset":8892,
			"target":34962
		},
		{
			"buffer":0,
			"byteLength":5928,
			"byteOffset":17784,
			"target":34962
		},
		{
			"buffer":0,
			"byteLength":6540,
			"byteOffset":23712,
			"target":34963
		},
		{
			"buffer":0,
			"byteLength":2028,
			"byteOffset":30252,
			"target":34962
		},
		{
			"buffer":0,
			"byteLength":2028,
			"byteOffset":32280,
			"target":34962
		},
		{
			"buffer":0,
			"byteLength":1352,
			"byteOffset":34308,
			"target":34962
		},
		{
			"buffer":0,
			"byteLength":786,
			"byteOffset":35660,
			"target":34963
		},
		{
			"buffer":0,
			"byteLength":1116,
			"byteOffset":36448,
			"target":34962
		},
		{
			"buffer":0,
			"byteLength":1116,
			"byteOffset":37564,
			"target":34962
		},
		{
			"buffer":0,
			"byteLength":744,
			"byteOffset":38680,
			"target":34962
		},
		{
			"buffer":0,
			"byteLength":612,
			"byteOffset":39424,
			"target":34963
		},
		{
			"buffer":0,
			"byteLength":288,
			"byteOffset":40036,
			"target":34962
		},
		{
			"buffer":0,
			"byteLength":288,
			"byteOffset":40324,
			"target":34962
		},
		{
			"buffer":0,
			"byteLength":192,
			"byteOffset":40612,
			"target":34962
		},
		{
			"buffer":0,
			"byteLength":384,
			"byteOffset":40804,
			"target":34962
		},
		{
			"buffer":0,
			"byteLength":72,
			"byteOffset":41188,
			"target":34963
		},
		{
			"buffer":0,
			"byteLength":3744,
			"byteOffset":41260,
			"target":34962
		},
		{
			"buffer":0,
			"byteLength":3744,
			"byteOffset":45004,
			"target":34962
		},
		{
			"buffer":0,
			"byteLength":2496,
			"byteOffset":48748,
			"target":34962
		},
		{
			"buffer":0,
			"byteLength":4992,
			"byteOffset":51244,
			"target":34962
		},
		{
			"buffer":0,
			"byteLength":1704,
			"byteOffset":56236,
			"target":34963
		}
	],
	"samplers":[
		{
			"magFilter":9729,
			"minFilter":9987,
			"wrapS":33071,
			"wrapT":33071
		}
	],
	"buffers":[
		{
			"byteLength":57940,
			"uri":"hospital-corridor-2-2a05878363b890dd3ef1b0ec8139d70c.bin"
		}
	]
}
