{
	"asset":{
		"generator":"Khronos glTF Blender I/O v4.0.44",
		"version":"2.0"
	},
	"scene":0,
	"scenes":[
		{
			"name":"Scene",
			"nodes":[
				0,
				1,
				2,
				3,
				4,
				5,
				6,
				7,
				8,
				9
			]
		}
	],
	"nodes":[
		{
			"mesh":0,
			"name":"corridor",
			"rotation":[
				-1,
				0,
				0,
				1.6292068494294654e-07
			]
		},
		{
			"camera":0,
			"name":"_camera-blender",
			"rotation":[
				-0.005036294925957918,
				-0.9406738877296448,
				-0.016121717169880867,
				0.3388913571834564
			],
			"translation":[
				-7.271587371826172,
				0.5601069927215576,
				-8.513344764709473
			]
		},
		{
			"mesh":1,
			"name":"door",
			"rotation":[
				-1,
				0,
				0,
				1.6292068494294654e-07
			],
			"scale":[
				1.0000027418136597,
				1,
				1
			]
		},
		{
			"mesh":2,
			"name":"bed",
			"rotation":[
				-1,
				0,
				0,
				1.6292068494294654e-07
			]
		},
		{
			"mesh":3,
			"name":"fireext",
			"rotation":[
				-1,
				0,
				0,
				1.6292068494294654e-07
			]
		},
		{
			"mesh":4,
			"name":"signs",
			"rotation":[
				-1,
				0,
				0,
				1.6292068494294654e-07
			],
			"translation":[
				-2,
				-2,
				0
			]
		},
		{
			"mesh":5,
			"name":"_walls",
			"rotation":[
				-1,
				0,
				0,
				1.6292068494294654e-07
			]
		},
		{
			"name":"_origin"
		},
		{
			"name":"_camera",
			"rotation":[
				0.23607121407985687,
				-0.6765566468238831,
				0.6537571549415588,
				0.2431936264038086
			],
			"translation":[
				-7.271587371826172,
				0.5601069927215576,
				-8.513344764709473
			]
		},
		{
			"mesh":6,
			"name":"corridor-clip",
			"rotation":[
				0.23607121407985687,
				-0.6765566468238831,
				0.6537571549415588,
				0.2431936264038086
			],
			"translation":[
				-7.271587371826172,
				0.5601069927215576,
				-8.513344764709473
			]
		}
	],
	"cameras":[
		{
			"name":"Camera.001",
			"perspective":{
				"aspectRatio":1.3333333333333333,
				"yfov":0.5939405498821608,
				"zfar":1000,
				"znear":0.10000000149011612
			},
			"type":"perspective"
		}
	],
	"materials":[
		{
			"doubleSided":true,
			"emissiveFactor":[
				1,
				1,
				1
			],
			"emissiveTexture":{
				"index":0
			},
			"name":"emptied",
			"pbrMetallicRoughness":{
				"baseColorFactor":[
					0,
					0,
					0,
					1
				]
			}
		},
		{
			"doubleSided":true,
			"emissiveFactor":[
				1,
				1,
				1
			],
			"emissiveTexture":{
				"index":1
			},
			"name":"main",
			"pbrMetallicRoughness":{
				"baseColorFactor":[
					0,
					0,
					0,
					1
				]
			}
		}
	],
	"meshes":[
		{
			"name":"Cube",
			"primitives":[
				{
					"attributes":{
						"POSITION":0,
						"NORMAL":1,
						"TEXCOORD_0":2
					},
					"indices":3,
					"material":0
				}
			]
		},
		{
			"name":"Cube.001",
			"primitives":[
				{
					"attributes":{
						"POSITION":4,
						"NORMAL":5,
						"TEXCOORD_0":6,
						"TANGENT":7
					},
					"indices":8,
					"material":1
				}
			]
		},
		{
			"name":"Cube.002",
			"primitives":[
				{
					"attributes":{
						"POSITION":9,
						"NORMAL":10,
						"TEXCOORD_0":11
					},
					"indices":12,
					"material":1
				}
			]
		},
		{
			"name":"Cube.003",
			"primitives":[
				{
					"attributes":{
						"POSITION":13,
						"NORMAL":14,
						"TEXCOORD_0":15,
						"TANGENT":16
					},
					"indices":17,
					"material":1
				}
			]
		},
		{
			"name":"Cube.004",
			"primitives":[
				{
					"attributes":{
						"POSITION":18,
						"NORMAL":19,
						"TEXCOORD_0":20
					},
					"indices":21,
					"material":1
				}
			]
		},
		{
			"name":"Cube.005",
			"primitives":[
				{
					"attributes":{
						"POSITION":22,
						"NORMAL":23,
						"TEXCOORD_0":24,
						"TANGENT":25
					},
					"indices":26,
					"material":0
				}
			]
		},
		{
			"name":"Cube.006",
			"primitives":[
				{
					"attributes":{
						"POSITION":27,
						"NORMAL":28,
						"TEXCOORD_0":29,
						"TANGENT":30
					},
					"indices":31
				}
			]
		}
	],
	"textures":[
		{
			"sampler":0,
			"source":0
		},
		{
			"sampler":1,
			"source":1
		}
	],
	"images":[
		{
			"mimeType":"image/jpeg",
			"name":"hospital-corner-empty.jpg",
			"uri":"../../src/textures/trial/hospital-corner-empty.jpg"
		},
		{
			"mimeType":"image/png",
			"name":"hospital-corner.fspy",
			"uri":"../../src/3d/textures/fspy-temp-image-d4afe03b805649f1a2116b02eeca859c"
		}
	],
	"accessors":[
		{
			"bufferView":0,
			"componentType":5126,
			"count":942,
			"max":[
				8.572047233581543,
				2.000000476837158,
				5.739892482757568
			],
			"min":[
				-5.492924690246582,
				-2.000000238418579,
				-8.188389778137207
			],
			"type":"VEC3"
		},
		{
			"bufferView":1,
			"componentType":5126,
			"count":942,
			"type":"VEC3"
		},
		{
			"bufferView":2,
			"componentType":5126,
			"count":942,
			"type":"VEC2"
		},
		{
			"bufferView":3,
			"componentType":5123,
			"count":4632,
			"type":"SCALAR"
		},
		{
			"bufferView":4,
			"componentType":5126,
			"count":47,
			"max":[
				4.175005912780762,
				2,
				2.408069610595703
			],
			"min":[
				2.5655200481414795,
				-2,
				-6.516827397717861e-07
			],
			"type":"VEC3"
		},
		{
			"bufferView":5,
			"componentType":5126,
			"count":47,
			"type":"VEC3"
		},
		{
			"bufferView":6,
			"componentType":5126,
			"count":47,
			"type":"VEC2"
		},
		{
			"bufferView":7,
			"componentType":5126,
			"count":47,
			"type":"VEC4"
		},
		{
			"bufferView":8,
			"componentType":5123,
			"count":114,
			"type":"SCALAR"
		},
		{
			"bufferView":9,
			"componentType":5126,
			"count":39,
			"max":[
				8,
				2.008291244506836,
				1.2866274118423462
			],
			"min":[
				5,
				0.20579227805137634,
				-6.516827397717861e-07
			],
			"type":"VEC3"
		},
		{
			"bufferView":10,
			"componentType":5126,
			"count":39,
			"type":"VEC3"
		},
		{
			"bufferView":11,
			"componentType":5126,
			"count":39,
			"type":"VEC2"
		},
		{
			"bufferView":12,
			"componentType":5123,
			"count":69,
			"type":"SCALAR"
		},
		{
			"bufferView":13,
			"componentType":5126,
			"count":119,
			"max":[
				-1.5243360996246338,
				1.4031144380569458,
				0.21230553090572357
			],
			"min":[
				-1.904335618019104,
				0.46952491998672485,
				-6.584988909708045e-07
			],
			"type":"VEC3"
		},
		{
			"bufferView":14,
			"componentType":5126,
			"count":119,
			"type":"VEC3"
		},
		{
			"bufferView":15,
			"componentType":5126,
			"count":119,
			"type":"VEC2"
		},
		{
			"bufferView":16,
			"componentType":5126,
			"count":119,
			"type":"VEC4"
		},
		{
			"bufferView":17,
			"componentType":5123,
			"count":192,
			"type":"SCALAR"
		},
		{
			"bufferView":18,
			"componentType":5126,
			"count":76,
			"max":[
				4.039918899536133,
				-3.2218196392059326,
				4.762914657592773
			],
			"min":[
				-2.798738718032837,
				-4.000001430511475,
				-0.7429584264755249
			],
			"type":"VEC3"
		},
		{
			"bufferView":19,
			"componentType":5126,
			"count":76,
			"type":"VEC3"
		},
		{
			"bufferView":20,
			"componentType":5126,
			"count":76,
			"type":"VEC2"
		},
		{
			"bufferView":21,
			"componentType":5123,
			"count":132,
			"type":"SCALAR"
		},
		{
			"bufferView":22,
			"componentType":5126,
			"count":413,
			"max":[
				11,
				0,
				6.000000953674316
			],
			"min":[
				-4.00029993057251,
				-4.000000476837158,
				-9
			],
			"type":"VEC3"
		},
		{
			"bufferView":23,
			"componentType":5126,
			"count":413,
			"type":"VEC3"
		},
		{
			"bufferView":24,
			"componentType":5126,
			"count":413,
			"type":"VEC2"
		},
		{
			"bufferView":25,
			"componentType":5126,
			"count":413,
			"type":"VEC4"
		},
		{
			"bufferView":26,
			"componentType":5123,
			"count":1092,
			"type":"SCALAR"
		},
		{
			"bufferView":27,
			"componentType":5126,
			"count":24,
			"max":[
				7.334697723388672,
				-0.9999997019767761,
				5.499180793762207
			],
			"min":[
				-7.334697723388672,
				-18.133224487304688,
				-5.499180793762207
			],
			"type":"VEC3"
		},
		{
			"bufferView":28,
			"componentType":5126,
			"count":24,
			"type":"VEC3"
		},
		{
			"bufferView":29,
			"componentType":5126,
			"count":24,
			"type":"VEC2"
		},
		{
			"bufferView":30,
			"componentType":5126,
			"count":24,
			"type":"VEC4"
		},
		{
			"bufferView":31,
			"componentType":5123,
			"count":36,
			"type":"SCALAR"
		}
	],
	"bufferViews":[
		{
			"buffer":0,
			"byteLength":11304,
			"byteOffset":0,
			"target":34962
		},
		{
			"buffer":0,
			"byteLength":11304,
			"byteOffset":11304,
			"target":34962
		},
		{
			"buffer":0,
			"byteLength":7536,
			"byteOffset":22608,
			"target":34962
		},
		{
			"buffer":0,
			"byteLength":9264,
			"byteOffset":30144,
			"target":34963
		},
		{
			"buffer":0,
			"byteLength":564,
			"byteOffset":39408,
			"target":34962
		},
		{
			"buffer":0,
			"byteLength":564,
			"byteOffset":39972,
			"target":34962
		},
		{
			"buffer":0,
			"byteLength":376,
			"byteOffset":40536,
			"target":34962
		},
		{
			"buffer":0,
			"byteLength":752,
			"byteOffset":40912,
			"target":34962
		},
		{
			"buffer":0,
			"byteLength":228,
			"byteOffset":41664,
			"target":34963
		},
		{
			"buffer":0,
			"byteLength":468,
			"byteOffset":41892,
			"target":34962
		},
		{
			"buffer":0,
			"byteLength":468,
			"byteOffset":42360,
			"target":34962
		},
		{
			"buffer":0,
			"byteLength":312,
			"byteOffset":42828,
			"target":34962
		},
		{
			"buffer":0,
			"byteLength":138,
			"byteOffset":43140,
			"target":34963
		},
		{
			"buffer":0,
			"byteLength":1428,
			"byteOffset":43280,
			"target":34962
		},
		{
			"buffer":0,
			"byteLength":1428,
			"byteOffset":44708,
			"target":34962
		},
		{
			"buffer":0,
			"byteLength":952,
			"byteOffset":46136,
			"target":34962
		},
		{
			"buffer":0,
			"byteLength":1904,
			"byteOffset":47088,
			"target":34962
		},
		{
			"buffer":0,
			"byteLength":384,
			"byteOffset":48992,
			"target":34963
		},
		{
			"buffer":0,
			"byteLength":912,
			"byteOffset":49376,
			"target":34962
		},
		{
			"buffer":0,
			"byteLength":912,
			"byteOffset":50288,
			"target":34962
		},
		{
			"buffer":0,
			"byteLength":608,
			"byteOffset":51200,
			"target":34962
		},
		{
			"buffer":0,
			"byteLength":264,
			"byteOffset":51808,
			"target":34963
		},
		{
			"buffer":0,
			"byteLength":4956,
			"byteOffset":52072,
			"target":34962
		},
		{
			"buffer":0,
			"byteLength":4956,
			"byteOffset":57028,
			"target":34962
		},
		{
			"buffer":0,
			"byteLength":3304,
			"byteOffset":61984,
			"target":34962
		},
		{
			"buffer":0,
			"byteLength":6608,
			"byteOffset":65288,
			"target":34962
		},
		{
			"buffer":0,
			"byteLength":2184,
			"byteOffset":71896,
			"target":34963
		},
		{
			"buffer":0,
			"byteLength":288,
			"byteOffset":74080,
			"target":34962
		},
		{
			"buffer":0,
			"byteLength":288,
			"byteOffset":74368,
			"target":34962
		},
		{
			"buffer":0,
			"byteLength":192,
			"byteOffset":74656,
			"target":34962
		},
		{
			"buffer":0,
			"byteLength":384,
			"byteOffset":74848,
			"target":34962
		},
		{
			"buffer":0,
			"byteLength":72,
			"byteOffset":75232,
			"target":34963
		}
	],
	"samplers":[
		{
			"magFilter":9729,
			"minFilter":9987
		},
		{
			"magFilter":9729,
			"minFilter":9987,
			"wrapS":33071,
			"wrapT":33071
		}
	],
	"buffers":[
		{
			"byteLength":75304,
			"uri":"hospital-corridor-v2-d3d5adac3d170f80526a918538562f66.bin"
		}
	]
}
