{
	"asset":{
		"generator":"Khronos glTF Blender I/O v4.0.44",
		"version":"2.0"
	},
	"extensionsUsed":[
		"KHR_materials_emissive_strength",
		"KHR_lights_punctual"
	],
	"extensionsRequired":[
		"KHR_lights_punctual"
	],
	"extensions":{
		"KHR_lights_punctual":{
			"lights":[
				{
					"color":[
						0.5754706859588623,
						0.39217692613601685,
						0
					],
					"intensity":-38562.33420493744,
					"type":"point",
					"name":"Point"
				},
				{
					"color":[
						1,
						0.4605618119239807,
						0
					],
					"intensity":-14908.600233869578,
					"type":"point",
					"name":"Point.001"
				}
			]
		}
	},
	"scene":0,
	"scenes":[
		{
			"name":"Scene",
			"nodes":[
				0,
				1,
				2,
				4,
				5
			]
		}
	],
	"nodes":[
		{
			"mesh":0,
			"name":"Plane",
			"scale":[
				2.9452428817749023,
				2.9452428817749023,
				2.9452428817749023
			]
		},
		{
			"mesh":1,
			"name":"Cube",
			"rotation":[
				0.6712732911109924,
				-0.18385249376296997,
				0.17689038813114166,
				0.6959169507026672
			],
			"scale":[
				1.1830946207046509,
				0.887976348400116,
				0.8879762887954712
			],
			"translation":[
				-3.3752007484436035,
				3.2234084606170654,
				5.430549621582031
			]
		},
		{
			"extensions":{
				"KHR_lights_punctual":{
					"light":0
				}
			},
			"name":"Point",
			"rotation":[
				-0.7071068286895752,
				0,
				0,
				0.7071068286895752
			],
			"translation":[
				-1.1236424446105957,
				2.494924545288086,
				-0.9537551999092102
			]
		},
		{
			"camera":0,
			"name":"vending-machine.fspy",
			"rotation":[
				-0.01742609776556492,
				-0.2550837993621826,
				-0.004923047497868538,
				0.9667494297027588
			],
			"translation":[
				-4,
				3,
				8
			]
		},
		{
			"children":[
				3
			],
			"name":"Empty",
			"translation":[
				-1.1014471054077148,
				0.3557448387145996,
				0.4708242416381836
			]
		},
		{
			"extensions":{
				"KHR_lights_punctual":{
					"light":1
				}
			},
			"name":"Point.001",
			"rotation":[
				-0.7071068286895752,
				0,
				0,
				0.7071068286895752
			],
			"translation":[
				3.28165864944458,
				2.494924545288086,
				4.110531330108643
			]
		}
	],
	"cameras":[
		{
			"name":"Camera.004",
			"perspective":{
				"aspectRatio":1.3333333333333333,
				"yfov":0.7543461352426177,
				"zfar":1000,
				"znear":0.10000000149011612
			},
			"type":"perspective"
		}
	],
	"materials":[
		{
			"doubleSided":true,
			"emissiveFactor":[
				1,
				1,
				1
			],
			"extensions":{
				"KHR_materials_emissive_strength":{
					"emissiveStrength":1.0999999046325684
				}
			},
			"name":"scene",
			"pbrMetallicRoughness":{
				"metallicFactor":0,
				"roughnessFactor":0.5
			}
		}
	],
	"meshes":[
		{
			"name":"Plane.002",
			"primitives":[
				{
					"attributes":{
						"POSITION":0,
						"NORMAL":1,
						"TEXCOORD_0":2
					},
					"indices":3,
					"material":0
				}
			]
		},
		{
			"name":"Cube.001",
			"primitives":[
				{
					"attributes":{
						"POSITION":4,
						"NORMAL":5,
						"TEXCOORD_0":6,
						"TANGENT":7
					},
					"indices":8
				}
			]
		}
	],
	"accessors":[
		{
			"bufferView":0,
			"componentType":5126,
			"count":113,
			"max":[
				2.8345084190368652,
				2.9414877891540527,
				1.6777753829956055
			],
			"min":[
				-1.61240816116333,
				-2.023760004021824e-08,
				-1.0458534955978394
			],
			"type":"VEC3"
		},
		{
			"bufferView":1,
			"componentType":5126,
			"count":113,
			"type":"VEC3"
		},
		{
			"bufferView":2,
			"componentType":5126,
			"count":113,
			"type":"VEC2"
		},
		{
			"bufferView":3,
			"componentType":5123,
			"count":198,
			"type":"SCALAR"
		},
		{
			"bufferView":4,
			"componentType":5126,
			"count":24,
			"max":[
				8.555169105529785,
				1,
				8.555167198181152
			],
			"min":[
				-8.555169105529785,
				-18.032846450805664,
				-8.555168151855469
			],
			"type":"VEC3"
		},
		{
			"bufferView":5,
			"componentType":5126,
			"count":24,
			"type":"VEC3"
		},
		{
			"bufferView":6,
			"componentType":5126,
			"count":24,
			"type":"VEC2"
		},
		{
			"bufferView":7,
			"componentType":5126,
			"count":24,
			"type":"VEC4"
		},
		{
			"bufferView":8,
			"componentType":5123,
			"count":36,
			"type":"SCALAR"
		}
	],
	"bufferViews":[
		{
			"buffer":0,
			"byteLength":1356,
			"byteOffset":0,
			"target":34962
		},
		{
			"buffer":0,
			"byteLength":1356,
			"byteOffset":1356,
			"target":34962
		},
		{
			"buffer":0,
			"byteLength":904,
			"byteOffset":2712,
			"target":34962
		},
		{
			"buffer":0,
			"byteLength":396,
			"byteOffset":3616,
			"target":34963
		},
		{
			"buffer":0,
			"byteLength":288,
			"byteOffset":4012,
			"target":34962
		},
		{
			"buffer":0,
			"byteLength":288,
			"byteOffset":4300,
			"target":34962
		},
		{
			"buffer":0,
			"byteLength":192,
			"byteOffset":4588,
			"target":34962
		},
		{
			"buffer":0,
			"byteLength":384,
			"byteOffset":4780,
			"target":34962
		},
		{
			"buffer":0,
			"byteLength":72,
			"byteOffset":5164,
			"target":34963
		}
	],
	"buffers":[
		{
			"byteLength":5236,
			"uri":"vending-5f1caacd6ee8d3c412971f5530618dd8.bin"
		}
	]
}
