{
	"asset":{
		"generator":"Khronos glTF Blender I/O v4.0.44",
		"version":"2.0"
	},
	"extensionsUsed":[
		"KHR_materials_emissive_strength",
		"KHR_materials_specular",
		"KHR_materials_ior",
		"KHR_lights_punctual"
	],
	"extensionsRequired":[
		"KHR_lights_punctual"
	],
	"extensions":{
		"KHR_lights_punctual":{
			"lights":[
				{
					"color":[
						0.5754706859588623,
						0.39217692613601685,
						0
					],
					"intensity":-38562.33420493744,
					"type":"point",
					"name":"Point"
				},
				{
					"color":[
						1,
						0.4605618119239807,
						0
					],
					"intensity":-14908.600233869578,
					"type":"point",
					"name":"Point.001"
				}
			]
		}
	},
	"scene":0,
	"scenes":[
		{
			"name":"Scene",
			"nodes":[
				0,
				1,
				2,
				4,
				5,
				6,
				7
			]
		}
	],
	"nodes":[
		{
			"mesh":0,
			"name":"Plane",
			"scale":[
				2.9452428817749023,
				2.9452428817749023,
				2.9452428817749023
			]
		},
		{
			"mesh":1,
			"name":"Cube",
			"rotation":[
				0.6712732911109924,
				-0.18385249376296997,
				0.17689038813114166,
				0.6959169507026672
			],
			"scale":[
				1.1830946207046509,
				0.887976348400116,
				0.8879762887954712
			],
			"translation":[
				-3.3752007484436035,
				3.2234084606170654,
				5.430549621582031
			]
		},
		{
			"extensions":{
				"KHR_lights_punctual":{
					"light":0
				}
			},
			"name":"Point",
			"rotation":[
				-0.7071068286895752,
				0,
				0,
				0.7071068286895752
			],
			"translation":[
				-1.1236424446105957,
				2.494924545288086,
				-0.9537551999092102
			]
		},
		{
			"camera":0,
			"name":"vending-machine.fspy",
			"rotation":[
				-0.01742609776556492,
				-0.2550837993621826,
				-0.004923047497868538,
				0.9667494297027588
			],
			"translation":[
				-8.965997695922852,
				3.364668846130371,
				16.75546646118164
			]
		},
		{
			"children":[
				3
			],
			"name":"Empty",
			"rotation":[
				-0.03333356976509094,
				-0.04257950186729431,
				-0.02972923405468464,
				0.9980942606925964
			],
			"translation":[
				-0.3300234079360962,
				1.236448884010315,
				0.7729796171188354
			]
		},
		{
			"extensions":{
				"KHR_lights_punctual":{
					"light":1
				}
			},
			"name":"Point.001",
			"rotation":[
				-0.7071068286895752,
				0,
				0,
				0.7071068286895752
			],
			"translation":[
				3.28165864944458,
				2.494924545288086,
				4.110531330108643
			]
		},
		{
			"name":"Empty.001",
			"translation":[
				-2.227478504180908,
				3.9934418201446533,
				0.1311168670654297
			]
		},
		{
			"name":"Empty.002",
			"translation":[
				0.5317397117614746,
				2.1066598892211914,
				1.239419937133789
			]
		}
	],
	"cameras":[
		{
			"name":"Camera.004",
			"perspective":{
				"aspectRatio":1.3333333333333333,
				"yfov":0.5631965149907171,
				"zfar":1000,
				"znear":0.10000000149011612
			},
			"type":"perspective"
		}
	],
	"animations":[
		{
			"channels":[
				{
					"sampler":0,
					"target":{
						"node":6,
						"path":"translation"
					}
				},
				{
					"sampler":1,
					"target":{
						"node":6,
						"path":"rotation"
					}
				},
				{
					"sampler":2,
					"target":{
						"node":6,
						"path":"scale"
					}
				}
			],
			"name":"Empty.001Action",
			"samplers":[
				{
					"input":9,
					"interpolation":"STEP",
					"output":10
				},
				{
					"input":11,
					"interpolation":"LINEAR",
					"output":12
				},
				{
					"input":9,
					"interpolation":"STEP",
					"output":13
				}
			]
		}
	],
	"materials":[
		{
			"doubleSided":true,
			"emissiveFactor":[
				1,
				1,
				1
			],
			"extensions":{
				"KHR_materials_emissive_strength":{
					"emissiveStrength":1.5
				},
				"KHR_materials_specular":{
					"specularFactor":0.5
				},
				"KHR_materials_ior":{
					"ior":1.4500000476837158
				}
			},
			"name":"scene",
			"pbrMetallicRoughness":{
				"metallicFactor":0,
				"roughnessFactor":0
			}
		}
	],
	"meshes":[
		{
			"name":"Plane.002",
			"primitives":[
				{
					"attributes":{
						"POSITION":0,
						"NORMAL":1,
						"TEXCOORD_0":2
					},
					"indices":3,
					"material":0
				}
			]
		},
		{
			"name":"Cube.001",
			"primitives":[
				{
					"attributes":{
						"POSITION":4,
						"NORMAL":5,
						"TEXCOORD_0":6,
						"TANGENT":7
					},
					"indices":8
				}
			]
		}
	],
	"accessors":[
		{
			"bufferView":0,
			"componentType":5126,
			"count":120,
			"max":[
				2.8345084190368652,
				2.8879642486572266,
				1.677775502204895
			],
			"min":[
				-1.61240816116333,
				-2.023760004021824e-08,
				-1.0458534955978394
			],
			"type":"VEC3"
		},
		{
			"bufferView":1,
			"componentType":5126,
			"count":120,
			"type":"VEC3"
		},
		{
			"bufferView":2,
			"componentType":5126,
			"count":120,
			"type":"VEC2"
		},
		{
			"bufferView":3,
			"componentType":5123,
			"count":228,
			"type":"SCALAR"
		},
		{
			"bufferView":4,
			"componentType":5126,
			"count":24,
			"max":[
				8.052743911743164,
				1,
				8.555167198181152
			],
			"min":[
				-8.555169105529785,
				-18.032846450805664,
				-8.555168151855469
			],
			"type":"VEC3"
		},
		{
			"bufferView":5,
			"componentType":5126,
			"count":24,
			"type":"VEC3"
		},
		{
			"bufferView":6,
			"componentType":5126,
			"count":24,
			"type":"VEC2"
		},
		{
			"bufferView":7,
			"componentType":5126,
			"count":24,
			"type":"VEC4"
		},
		{
			"bufferView":8,
			"componentType":5123,
			"count":36,
			"type":"SCALAR"
		},
		{
			"bufferView":9,
			"componentType":5126,
			"count":2,
			"max":[
				10.416666666666666
			],
			"min":[
				0.041666666666666664
			],
			"type":"SCALAR"
		},
		{
			"bufferView":10,
			"componentType":5126,
			"count":2,
			"type":"VEC3"
		},
		{
			"bufferView":11,
			"componentType":5126,
			"count":250,
			"max":[
				10.416666666666666
			],
			"min":[
				0.041666666666666664
			],
			"type":"SCALAR"
		},
		{
			"bufferView":12,
			"componentType":5126,
			"count":250,
			"type":"VEC4"
		},
		{
			"bufferView":13,
			"componentType":5126,
			"count":2,
			"type":"VEC3"
		}
	],
	"bufferViews":[
		{
			"buffer":0,
			"byteLength":1440,
			"byteOffset":0,
			"target":34962
		},
		{
			"buffer":0,
			"byteLength":1440,
			"byteOffset":1440,
			"target":34962
		},
		{
			"buffer":0,
			"byteLength":960,
			"byteOffset":2880,
			"target":34962
		},
		{
			"buffer":0,
			"byteLength":456,
			"byteOffset":3840,
			"target":34963
		},
		{
			"buffer":0,
			"byteLength":288,
			"byteOffset":4296,
			"target":34962
		},
		{
			"buffer":0,
			"byteLength":288,
			"byteOffset":4584,
			"target":34962
		},
		{
			"buffer":0,
			"byteLength":192,
			"byteOffset":4872,
			"target":34962
		},
		{
			"buffer":0,
			"byteLength":384,
			"byteOffset":5064,
			"target":34962
		},
		{
			"buffer":0,
			"byteLength":72,
			"byteOffset":5448,
			"target":34963
		},
		{
			"buffer":0,
			"byteLength":8,
			"byteOffset":5520
		},
		{
			"buffer":0,
			"byteLength":24,
			"byteOffset":5528
		},
		{
			"buffer":0,
			"byteLength":1000,
			"byteOffset":5552
		},
		{
			"buffer":0,
			"byteLength":4000,
			"byteOffset":6552
		},
		{
			"buffer":0,
			"byteLength":24,
			"byteOffset":10552
		}
	],
	"buffers":[
		{
			"byteLength":10576,
			"uri":"vending-fuckery-ed76e89da3a507d6fa6563a3565206dd.bin"
		}
	]
}
