{
	"asset":{
		"generator":"Khronos glTF Blender I/O v4.0.44",
		"version":"2.0"
	},
	"extensionsUsed":[
		"KHR_materials_emissive_strength"
	],
	"scene":0,
	"scenes":[
		{
			"name":"Scene",
			"nodes":[
				0,
				1,
				3
			]
		}
	],
	"nodes":[
		{
			"mesh":0,
			"name":"Plane",
			"translation":[
				-0.00027401477564126253,
				0.02701178751885891,
				0.0005668313824571669
			]
		},
		{
			"mesh":1,
			"name":"Cube",
			"rotation":[
				-0.48671385645866394,
				0.5123873353004456,
				0.4854587912559509,
				0.514682948589325
			],
			"translation":[
				-7.1899003982543945,
				-3.7686100006103516,
				-2.937999963760376
			]
		},
		{
			"camera":0,
			"name":"washing.fspy",
			"rotation":[
				0.6834363341331482,
				0.027599988505244255,
				-0.7289131879806519,
				0.02895832434296608
			],
			"translation":[
				-13.046008110046387,
				-2.5634593963623047,
				0.17378735542297363
			]
		},
		{
			"children":[
				2
			],
			"name":"Empty",
			"rotation":[
				0.07964960485696793,
				-0.2649904191493988,
				-0.2000807821750641,
				0.9398955702781677
			],
			"translation":[
				-3.933542251586914,
				-1.159178376197815,
				-4.87273645401001
			]
		}
	],
	"cameras":[
		{
			"name":"Camera.001",
			"perspective":{
				"aspectRatio":1.3333333333333333,
				"yfov":0.6728698579813144,
				"zfar":1000,
				"znear":0.10000000149011612
			},
			"type":"perspective"
		}
	],
	"materials":[
		{
			"doubleSided":true,
			"emissiveFactor":[
				1,
				1,
				1
			],
			"emissiveTexture":{
				"index":0
			},
			"extensions":{
				"KHR_materials_emissive_strength":{
					"emissiveStrength":2
				}
			},
			"name":"Material.001",
			"pbrMetallicRoughness":{
				"baseColorFactor":[
					0,
					0,
					0,
					1
				],
				"metallicFactor":0,
				"roughnessFactor":0.5
			}
		}
	],
	"meshes":[
		{
			"name":"Plane",
			"primitives":[
				{
					"attributes":{
						"POSITION":0,
						"NORMAL":1,
						"TEXCOORD_0":2
					},
					"indices":3,
					"material":0
				}
			]
		},
		{
			"name":"Cube.001",
			"primitives":[
				{
					"attributes":{
						"POSITION":4,
						"NORMAL":5,
						"TEXCOORD_0":6,
						"TANGENT":7
					},
					"indices":8
				}
			]
		}
	],
	"textures":[
		{
			"sampler":0,
			"source":0
		}
	],
	"images":[
		{
			"mimeType":"image/png",
			"name":"washing.fspy",
			"uri":"../../src/3d/textures/fspy-temp-image-279a07e9a52c434da2af343f5ad18880"
		}
	],
	"accessors":[
		{
			"bufferView":0,
			"componentType":5126,
			"count":108,
			"max":[
				2.852304220199585,
				1.862645149230957e-09,
				4.936195373535156
			],
			"min":[
				-4.845802307128906,
				-6.925430774688721,
				-9.255539894104004
			],
			"type":"VEC3"
		},
		{
			"bufferView":1,
			"componentType":5126,
			"count":108,
			"type":"VEC3"
		},
		{
			"bufferView":2,
			"componentType":5126,
			"count":108,
			"type":"VEC2"
		},
		{
			"bufferView":3,
			"componentType":5123,
			"count":210,
			"type":"SCALAR"
		},
		{
			"bufferView":4,
			"componentType":5126,
			"count":24,
			"max":[
				8.958333969116211,
				1.4768455028533936,
				10.10869026184082
			],
			"min":[
				-8.977460861206055,
				-11.728841781616211,
				-7.827103614807129
			],
			"type":"VEC3"
		},
		{
			"bufferView":5,
			"componentType":5126,
			"count":24,
			"type":"VEC3"
		},
		{
			"bufferView":6,
			"componentType":5126,
			"count":24,
			"type":"VEC2"
		},
		{
			"bufferView":7,
			"componentType":5126,
			"count":24,
			"type":"VEC4"
		},
		{
			"bufferView":8,
			"componentType":5123,
			"count":36,
			"type":"SCALAR"
		}
	],
	"bufferViews":[
		{
			"buffer":0,
			"byteLength":1296,
			"byteOffset":0,
			"target":34962
		},
		{
			"buffer":0,
			"byteLength":1296,
			"byteOffset":1296,
			"target":34962
		},
		{
			"buffer":0,
			"byteLength":864,
			"byteOffset":2592,
			"target":34962
		},
		{
			"buffer":0,
			"byteLength":420,
			"byteOffset":3456,
			"target":34963
		},
		{
			"buffer":0,
			"byteLength":288,
			"byteOffset":3876,
			"target":34962
		},
		{
			"buffer":0,
			"byteLength":288,
			"byteOffset":4164,
			"target":34962
		},
		{
			"buffer":0,
			"byteLength":192,
			"byteOffset":4452,
			"target":34962
		},
		{
			"buffer":0,
			"byteLength":384,
			"byteOffset":4644,
			"target":34962
		},
		{
			"buffer":0,
			"byteLength":72,
			"byteOffset":5028,
			"target":34963
		}
	],
	"samplers":[
		{
			"magFilter":9728,
			"minFilter":9984,
			"wrapS":33071,
			"wrapT":33071
		}
	],
	"buffers":[
		{
			"byteLength":5100,
			"uri":"washing-a873a7a07891f15fe52d120ccdc6fbeb.bin"
		}
	]
}
