# Blender 4.0.2
# www.blender.org
mtllib 250201-sphere-doublesided.mtl
o Icosphere
v 0.000000 -1.000000 0.000000
v 0.723607 -0.447220 0.525725
v -0.276388 -0.447220 0.850649
v -0.894426 -0.447216 0.000000
v -0.276388 -0.447220 -0.850649
v 0.723607 -0.447220 -0.525725
v 0.276388 0.447220 0.850649
v -0.723607 0.447220 0.525725
v -0.723607 0.447220 -0.525725
v 0.276388 0.447220 -0.850649
v 0.894426 0.447216 0.000000
v 0.000000 1.000000 0.000000
v -0.232822 -0.657519 0.716563
v -0.162456 -0.850654 0.499995
v -0.077607 -0.967950 0.238853
v 0.203181 -0.967950 0.147618
v 0.425323 -0.850654 0.309011
v 0.609547 -0.657519 0.442856
v 0.531941 -0.502302 0.681712
v 0.262869 -0.525738 0.809012
v -0.029639 -0.502302 0.864184
v 0.812729 -0.502301 -0.295238
v 0.850648 -0.525736 0.000000
v 0.812729 -0.502301 0.295238
v 0.203181 -0.967950 -0.147618
v 0.425323 -0.850654 -0.309011
v 0.609547 -0.657519 -0.442856
v -0.753442 -0.657515 0.000000
v -0.525730 -0.850652 0.000000
v -0.251147 -0.967949 0.000000
v -0.483971 -0.502302 0.716565
v -0.688189 -0.525736 0.499997
v -0.831051 -0.502299 0.238853
v -0.232822 -0.657519 -0.716563
v -0.162456 -0.850654 -0.499995
v -0.077607 -0.967950 -0.238853
v -0.831051 -0.502299 -0.238853
v -0.688189 -0.525736 -0.499997
v -0.483971 -0.502302 -0.716565
v -0.029639 -0.502302 -0.864184
v 0.262869 -0.525738 -0.809012
v 0.531941 -0.502302 -0.681712
v 0.956626 0.251149 0.147618
v 0.951058 -0.000000 0.309013
v 0.860698 -0.251151 0.442858
v 0.860698 -0.251151 -0.442858
v 0.951058 0.000000 -0.309013
v 0.956626 0.251149 -0.147618
v 0.155215 0.251152 0.955422
v 0.000000 -0.000000 1.000000
v -0.155215 -0.251152 0.955422
v 0.687159 -0.251152 0.681715
v 0.587786 0.000000 0.809017
v 0.436007 0.251152 0.864188
v -0.860698 0.251151 0.442858
v -0.951058 -0.000000 0.309013
v -0.956626 -0.251149 0.147618
v -0.436007 -0.251152 0.864188
v -0.587786 0.000000 0.809017
v -0.687159 0.251152 0.681715
v -0.687159 0.251152 -0.681715
v -0.587786 -0.000000 -0.809017
v -0.436007 -0.251152 -0.864188
v -0.956626 -0.251149 -0.147618
v -0.951058 0.000000 -0.309013
v -0.860698 0.251151 -0.442858
v 0.436007 0.251152 -0.864188
v 0.587786 -0.000000 -0.809017
v 0.687159 -0.251152 -0.681715
v -0.155215 -0.251152 -0.955422
v 0.000000 0.000000 -1.000000
v 0.155215 0.251152 -0.955422
v 0.831051 0.502299 0.238853
v 0.688189 0.525736 0.499997
v 0.483971 0.502302 0.716565
v 0.029639 0.502302 0.864184
v -0.262869 0.525738 0.809012
v -0.531941 0.502302 0.681712
v -0.812729 0.502301 0.295238
v -0.850648 0.525736 0.000000
v -0.812729 0.502301 -0.295238
v -0.531941 0.502302 -0.681712
v -0.262869 0.525738 -0.809012
v 0.029639 0.502302 -0.864184
v 0.483971 0.502302 -0.716565
v 0.688189 0.525736 -0.499997
v 0.831051 0.502299 -0.238853
v 0.077607 0.967950 0.238853
v 0.162456 0.850654 0.499995
v 0.232822 0.657519 0.716563
v 0.753442 0.657515 0.000000
v 0.525730 0.850652 0.000000
v 0.251147 0.967949 0.000000
v -0.203181 0.967950 0.147618
v -0.425323 0.850654 0.309011
v -0.609547 0.657519 0.442856
v -0.203181 0.967950 -0.147618
v -0.425323 0.850654 -0.309011
v -0.609547 0.657519 -0.442856
v 0.077607 0.967950 -0.238853
v 0.162456 0.850654 -0.499995
v 0.232822 0.657519 -0.716563
v 0.361800 0.894429 -0.262863
v 0.638194 0.723610 -0.262864
v 0.447209 0.723612 -0.525728
v -0.138197 0.894430 -0.425319
v -0.052790 0.723612 -0.688185
v -0.361804 0.723612 -0.587778
v -0.447210 0.894429 0.000000
v -0.670817 0.723611 -0.162457
v -0.670817 0.723611 0.162457
v -0.138197 0.894430 0.425319
v -0.361804 0.723612 0.587778
v -0.052790 0.723612 0.688185
v 0.361800 0.894429 0.262863
v 0.447209 0.723612 0.525728
v 0.638194 0.723610 0.262864
v 0.861804 0.276396 -0.425322
v 0.809019 0.000000 -0.587782
v 0.670821 0.276397 -0.688189
v -0.138199 0.276397 -0.951055
v -0.309016 -0.000000 -0.951057
v -0.447215 0.276397 -0.850649
v -0.947213 0.276396 -0.162458
v -1.000000 0.000001 0.000000
v -0.947213 0.276397 0.162458
v -0.447216 0.276397 0.850648
v -0.309017 -0.000001 0.951056
v -0.138199 0.276397 0.951055
v 0.670820 0.276396 0.688190
v 0.809019 -0.000002 0.587783
v 0.861804 0.276394 0.425323
v 0.309017 -0.000000 -0.951056
v 0.447216 -0.276398 -0.850648
v 0.138199 -0.276398 -0.951055
v -0.809018 -0.000000 -0.587783
v -0.670819 -0.276397 -0.688191
v -0.861803 -0.276396 -0.425324
v -0.809018 0.000000 0.587783
v -0.861803 -0.276396 0.425324
v -0.670819 -0.276397 0.688191
v 0.309017 0.000000 0.951056
v 0.138199 -0.276398 0.951055
v 0.447216 -0.276398 0.850648
v 1.000000 0.000000 0.000000
v 0.947213 -0.276396 0.162458
v 0.947213 -0.276396 -0.162458
v 0.361803 -0.723612 -0.587779
v 0.138197 -0.894429 -0.425321
v 0.052789 -0.723611 -0.688186
v -0.447211 -0.723612 -0.525727
v -0.361801 -0.894429 -0.262863
v -0.638195 -0.723609 -0.262863
v -0.638195 -0.723609 0.262864
v -0.361801 -0.894428 0.262864
v -0.447211 -0.723610 0.525729
v 0.670817 -0.723611 -0.162457
v 0.670818 -0.723610 0.162458
v 0.447211 -0.894428 0.000001
v 0.052790 -0.723612 0.688185
v 0.138199 -0.894429 0.425321
v 0.361805 -0.723611 0.587779
v 0.000000 -1.000000 0.000000
v 0.723607 -0.447220 0.525725
v -0.276388 -0.447220 0.850649
v -0.894426 -0.447216 0.000000
v -0.276388 -0.447220 -0.850649
v 0.723607 -0.447220 -0.525725
v 0.276388 0.447220 0.850649
v -0.723607 0.447220 0.525725
v -0.723607 0.447220 -0.525725
v 0.276388 0.447220 -0.850649
v 0.894426 0.447216 0.000000
v 0.000000 1.000000 0.000000
v -0.232822 -0.657519 0.716563
v -0.162456 -0.850654 0.499995
v -0.077607 -0.967950 0.238853
v 0.203181 -0.967950 0.147618
v 0.425323 -0.850654 0.309011
v 0.609547 -0.657519 0.442856
v 0.531941 -0.502302 0.681712
v 0.262869 -0.525738 0.809012
v -0.029639 -0.502302 0.864184
v 0.812729 -0.502301 -0.295238
v 0.850648 -0.525736 0.000000
v 0.812729 -0.502301 0.295238
v 0.203181 -0.967950 -0.147618
v 0.425323 -0.850654 -0.309011
v 0.609547 -0.657519 -0.442856
v -0.753442 -0.657515 0.000000
v -0.525730 -0.850652 0.000000
v -0.251147 -0.967949 0.000000
v -0.483971 -0.502302 0.716565
v -0.688189 -0.525736 0.499997
v -0.831051 -0.502299 0.238853
v -0.232822 -0.657519 -0.716563
v -0.162456 -0.850654 -0.499995
v -0.077607 -0.967950 -0.238853
v -0.831051 -0.502299 -0.238853
v -0.688189 -0.525736 -0.499997
v -0.483971 -0.502302 -0.716565
v -0.029639 -0.502302 -0.864184
v 0.262869 -0.525738 -0.809012
v 0.531941 -0.502302 -0.681712
v 0.956626 0.251149 0.147618
v 0.951058 -0.000000 0.309013
v 0.860698 -0.251151 0.442858
v 0.860698 -0.251151 -0.442858
v 0.951058 0.000000 -0.309013
v 0.956626 0.251149 -0.147618
v 0.155215 0.251152 0.955422
v 0.000000 -0.000000 1.000000
v -0.155215 -0.251152 0.955422
v 0.687159 -0.251152 0.681715
v 0.587786 0.000000 0.809017
v 0.436007 0.251152 0.864188
v -0.860698 0.251151 0.442858
v -0.951058 -0.000000 0.309013
v -0.956626 -0.251149 0.147618
v -0.436007 -0.251152 0.864188
v -0.587786 0.000000 0.809017
v -0.687159 0.251152 0.681715
v -0.687159 0.251152 -0.681715
v -0.587786 -0.000000 -0.809017
v -0.436007 -0.251152 -0.864188
v -0.956626 -0.251149 -0.147618
v -0.951058 0.000000 -0.309013
v -0.860698 0.251151 -0.442858
v 0.436007 0.251152 -0.864188
v 0.587786 -0.000000 -0.809017
v 0.687159 -0.251152 -0.681715
v -0.155215 -0.251152 -0.955422
v 0.000000 0.000000 -1.000000
v 0.155215 0.251152 -0.955422
v 0.831051 0.502299 0.238853
v 0.688189 0.525736 0.499997
v 0.483971 0.502302 0.716565
v 0.029639 0.502302 0.864184
v -0.262869 0.525738 0.809012
v -0.531941 0.502302 0.681712
v -0.812729 0.502301 0.295238
v -0.850648 0.525736 0.000000
v -0.812729 0.502301 -0.295238
v -0.531941 0.502302 -0.681712
v -0.262869 0.525738 -0.809012
v 0.029639 0.502302 -0.864184
v 0.483971 0.502302 -0.716565
v 0.688189 0.525736 -0.499997
v 0.831051 0.502299 -0.238853
v 0.077607 0.967950 0.238853
v 0.162456 0.850654 0.499995
v 0.232822 0.657519 0.716563
v 0.753442 0.657515 0.000000
v 0.525730 0.850652 0.000000
v 0.251147 0.967949 0.000000
v -0.203181 0.967950 0.147618
v -0.425323 0.850654 0.309011
v -0.609547 0.657519 0.442856
v -0.203181 0.967950 -0.147618
v -0.425323 0.850654 -0.309011
v -0.609547 0.657519 -0.442856
v 0.077607 0.967950 -0.238853
v 0.162456 0.850654 -0.499995
v 0.232822 0.657519 -0.716563
v 0.361800 0.894429 -0.262863
v 0.638194 0.723610 -0.262864
v 0.447209 0.723612 -0.525728
v -0.138197 0.894430 -0.425319
v -0.052790 0.723612 -0.688185
v -0.361804 0.723612 -0.587778
v -0.447210 0.894429 0.000000
v -0.670817 0.723611 -0.162457
v -0.670817 0.723611 0.162457
v -0.138197 0.894430 0.425319
v -0.361804 0.723612 0.587778
v -0.052790 0.723612 0.688185
v 0.361800 0.894429 0.262863
v 0.447209 0.723612 0.525728
v 0.638194 0.723610 0.262864
v 0.861804 0.276396 -0.425322
v 0.809019 0.000000 -0.587782
v 0.670821 0.276397 -0.688189
v -0.138199 0.276397 -0.951055
v -0.309016 -0.000000 -0.951057
v -0.447215 0.276397 -0.850649
v -0.947213 0.276396 -0.162458
v -1.000000 0.000001 0.000000
v -0.947213 0.276397 0.162458
v -0.447216 0.276397 0.850648
v -0.309017 -0.000001 0.951056
v -0.138199 0.276397 0.951055
v 0.670820 0.276396 0.688190
v 0.809019 -0.000002 0.587783
v 0.861804 0.276394 0.425323
v 0.309017 -0.000000 -0.951056
v 0.447216 -0.276398 -0.850648
v 0.138199 -0.276398 -0.951055
v -0.809018 -0.000000 -0.587783
v -0.670819 -0.276397 -0.688191
v -0.861803 -0.276396 -0.425324
v -0.809018 0.000000 0.587783
v -0.861803 -0.276396 0.425324
v -0.670819 -0.276397 0.688191
v 0.309017 0.000000 0.951056
v 0.138199 -0.276398 0.951055
v 0.447216 -0.276398 0.850648
v 1.000000 0.000000 0.000000
v 0.947213 -0.276396 0.162458
v 0.947213 -0.276396 -0.162458
v 0.361803 -0.723612 -0.587779
v 0.138197 -0.894429 -0.425321
v 0.052789 -0.723611 -0.688186
v -0.447211 -0.723612 -0.525727
v -0.361801 -0.894429 -0.262863
v -0.638195 -0.723609 -0.262863
v -0.638195 -0.723609 0.262864
v -0.361801 -0.894428 0.262864
v -0.447211 -0.723610 0.525729
v 0.670817 -0.723611 -0.162457
v 0.670818 -0.723610 0.162458
v 0.447211 -0.894428 0.000001
v 0.052790 -0.723612 0.688185
v 0.138199 -0.894429 0.425321
v 0.361805 -0.723611 0.587779
vn -0.0000 -1.0000 -0.0000
vn 0.2110 -0.9654 0.1533
vn -0.0806 -0.9654 0.2480
vn 0.7236 -0.4472 0.5257
vn 0.6042 -0.6650 0.4390
vn 0.8152 -0.5038 0.2857
vn -0.2608 -0.9654 -0.0000
vn -0.0806 -0.9654 -0.2480
vn 0.2110 -0.9654 -0.1533
vn 0.8650 -0.2431 0.4390
vn -0.2764 -0.4472 0.8506
vn -0.0198 -0.5038 0.8636
vn -0.1502 -0.2431 0.9583
vn -0.8944 -0.4472 -0.0000
vn -0.8274 -0.5038 0.2480
vn -0.9578 -0.2431 0.1533
vn -0.2764 -0.4472 -0.8506
vn -0.4915 -0.5038 -0.7103
vn -0.4417 -0.2431 -0.8636
vn 0.7236 -0.4472 -0.5257
vn 0.5237 -0.5038 -0.6870
vn 0.6848 -0.2431 -0.6870
vn 0.6848 -0.2431 0.6870
vn -0.4417 -0.2431 0.8636
vn -0.9578 -0.2431 -0.1533
vn -0.1502 -0.2431 -0.9583
vn 0.8650 -0.2431 -0.4390
vn 0.2764 0.4472 0.8506
vn 0.4915 0.5038 0.7103
vn 0.2308 0.6650 0.7103
vn -0.7236 0.4472 0.5257
vn -0.5237 0.5038 0.6870
vn -0.6042 0.6650 0.4390
vn -0.7236 0.4472 -0.5257
vn -0.8152 0.5038 -0.2857
vn -0.6042 0.6650 -0.4390
vn 0.2764 0.4472 -0.8506
vn 0.0198 0.5038 -0.8636
vn 0.2308 0.6650 -0.7103
vn 0.8944 0.4472 -0.0000
vn 0.8274 0.5038 -0.2480
vn 0.7469 0.6650 -0.0000
vn 0.2608 0.9654 -0.0000
vn 0.0806 0.9654 -0.2480
vn -0.0000 1.0000 -0.0000
vn 0.5257 0.8507 -0.0000
vn 0.3682 0.8904 -0.2675
vn 0.6317 0.7275 -0.2675
vn 0.1625 0.8507 -0.5000
vn 0.4496 0.7276 -0.5182
vn 0.6882 0.5257 -0.5000
vn 0.4915 0.5038 -0.7103
vn -0.2110 0.9654 -0.1533
vn -0.1406 0.8904 -0.4329
vn -0.0592 0.7276 -0.6835
vn -0.4253 0.8507 -0.3090
vn -0.3539 0.7276 -0.5878
vn -0.2629 0.5257 -0.8090
vn -0.5237 0.5038 -0.6870
vn -0.2110 0.9654 0.1533
vn -0.4551 0.8904 -0.0000
vn -0.6683 0.7276 -0.1549
vn -0.4253 0.8507 0.3090
vn -0.6683 0.7276 0.1549
vn -0.8506 0.5257 -0.0000
vn -0.8152 0.5038 0.2857
vn 0.0806 0.9654 0.2480
vn -0.1406 0.8904 0.4329
vn -0.3539 0.7276 0.5878
vn 0.1625 0.8507 0.5000
vn -0.0592 0.7276 0.6835
vn -0.2629 0.5257 0.8090
vn 0.0198 0.5038 0.8636
vn 0.3682 0.8904 0.2675
vn 0.4496 0.7276 0.5182
vn 0.6317 0.7275 0.2675
vn 0.6882 0.5257 0.5000
vn 0.8274 0.5038 0.2480
vn 0.9578 0.2431 -0.1533
vn 0.9511 -0.0000 -0.3090
vn 0.8593 0.2724 -0.4329
vn 0.8090 0.0089 -0.5878
vn 0.6772 0.2724 -0.6835
vn 0.5878 -0.0000 -0.8090
vn 0.4417 0.2431 -0.8636
vn 0.1502 0.2431 -0.9583
vn -0.0000 -0.0000 -1.0000
vn -0.1461 0.2724 -0.9510
vn -0.3090 0.0089 -0.9510
vn -0.4408 0.2724 -0.8553
vn -0.5878 -0.0000 -0.8090
vn -0.6848 0.2431 -0.6870
vn -0.8650 0.2431 -0.4390
vn -0.9511 -0.0000 -0.3090
vn -0.9496 0.2724 -0.1549
vn -1.0000 0.0089 -0.0000
vn -0.9496 0.2724 0.1549
vn -0.9511 -0.0000 0.3090
vn -0.8650 0.2431 0.4390
vn -0.6848 0.2431 0.6870
vn -0.5878 -0.0000 0.8090
vn -0.4408 0.2724 0.8553
vn -0.3090 0.0089 0.9510
vn -0.1461 0.2724 0.9510
vn -0.0000 -0.0000 1.0000
vn 0.1502 0.2431 0.9583
vn 0.4417 0.2431 0.8636
vn 0.5878 -0.0000 0.8090
vn 0.6772 0.2724 0.6835
vn 0.8090 0.0089 0.5878
vn 0.8593 0.2724 0.4329
vn 0.9511 -0.0000 0.3090
vn 0.9578 0.2431 0.1533
vn 0.3090 -0.0089 -0.9510
vn 0.4408 -0.2724 -0.8553
vn 0.1461 -0.2724 -0.9510
vn 0.2629 -0.5257 -0.8090
vn -0.0198 -0.5038 -0.8636
vn -0.8090 -0.0089 -0.5878
vn -0.6772 -0.2724 -0.6835
vn -0.8593 -0.2724 -0.4329
vn -0.6882 -0.5257 -0.5000
vn -0.8274 -0.5038 -0.2480
vn -0.8090 -0.0089 0.5878
vn -0.8593 -0.2724 0.4329
vn -0.6772 -0.2724 0.6835
vn -0.6882 -0.5257 0.5000
vn -0.4915 -0.5038 0.7103
vn 0.3090 -0.0089 0.9510
vn 0.1461 -0.2724 0.9510
vn 0.4408 -0.2724 0.8553
vn 0.2629 -0.5257 0.8090
vn 0.5237 -0.5038 0.6870
vn 1.0000 -0.0089 -0.0000
vn 0.9496 -0.2724 0.1549
vn 0.9496 -0.2724 -0.1549
vn 0.8506 -0.5257 -0.0000
vn 0.8152 -0.5038 -0.2857
vn 0.6042 -0.6650 -0.4390
vn 0.4253 -0.8507 -0.3090
vn 0.3539 -0.7276 -0.5878
vn 0.1406 -0.8904 -0.4329
vn 0.0592 -0.7276 -0.6835
vn -0.1625 -0.8507 -0.5000
vn -0.2308 -0.6650 -0.7103
vn -0.4496 -0.7276 -0.5182
vn -0.3682 -0.8904 -0.2675
vn -0.6317 -0.7275 -0.2675
vn -0.5257 -0.8507 -0.0000
vn -0.7469 -0.6650 -0.0000
vn -0.6317 -0.7275 0.2675
vn -0.3682 -0.8904 0.2675
vn -0.4496 -0.7275 0.5182
vn -0.1625 -0.8507 0.5000
vn -0.2308 -0.6650 0.7103
vn 0.6683 -0.7275 -0.1549
vn 0.6683 -0.7275 0.1549
vn 0.4551 -0.8904 -0.0000
vn 0.4253 -0.8507 0.3090
vn 0.0592 -0.7276 0.6835
vn 0.1406 -0.8904 0.4329
vn 0.3539 -0.7276 0.5878
vn -0.4496 -0.7276 0.5182
vn 0.6683 -0.7276 0.1549
vn 0.6683 -0.7276 -0.1549
vn 0.4496 0.7275 -0.5182
vn -0.6683 0.7275 0.1549
vn -0.6683 0.7275 -0.1549
vt 0.181819 0.000000
vt 0.204546 0.039365
vt 0.159092 0.039365
vt 0.272728 0.157461
vt 0.295455 0.118096
vt 0.318182 0.157461
vt 0.909091 0.000000
vt 0.931818 0.039365
vt 0.886364 0.039365
vt 0.727273 0.000000
vt 0.750000 0.039365
vt 0.704546 0.039365
vt 0.545455 0.000000
vt 0.568182 0.039365
vt 0.522728 0.039365
vt 0.295455 0.196826
vt 0.090910 0.157461
vt 0.136364 0.157461
vt 0.113637 0.196826
vt 0.818182 0.157461
vt 0.863636 0.157461
vt 0.840909 0.196826
vt 0.636364 0.157461
vt 0.681818 0.157461
vt 0.659091 0.196826
vt 0.454546 0.157461
vt 0.500000 0.157461
vt 0.477273 0.196826
vt 0.250001 0.196826
vt 0.068182 0.196826
vt 0.795455 0.196826
vt 0.613637 0.196826
vt 0.431819 0.196826
vt 0.181819 0.314921
vt 0.227273 0.314921
vt 0.204546 0.354286
vt 0.000000 0.314921
vt 0.045455 0.314921
vt 0.022727 0.354286
vt 0.727273 0.314921
vt 0.772727 0.314921
vt 0.750000 0.354286
vt 0.545455 0.314921
vt 0.590909 0.314921
vt 0.568182 0.354286
vt 0.363637 0.314921
vt 0.409091 0.314921
vt 0.386364 0.354286
vt 0.431819 0.433017
vt 0.477273 0.433017
vt 0.454546 0.472382
vt 0.409091 0.393651
vt 0.454546 0.393651
vt 0.431819 0.354286
vt 0.500000 0.393651
vt 0.477273 0.354286
vt 0.522728 0.354286
vt 0.454546 0.314921
vt 0.500000 0.314921
vt 0.613637 0.433017
vt 0.659091 0.433017
vt 0.636364 0.472382
vt 0.590909 0.393651
vt 0.636364 0.393651
vt 0.613637 0.354286
vt 0.681818 0.393651
vt 0.659091 0.354286
vt 0.704546 0.354286
vt 0.636364 0.314921
vt 0.681818 0.314921
vt 0.795455 0.433017
vt 0.840909 0.433017
vt 0.818182 0.472382
vt 0.772727 0.393651
vt 0.818182 0.393651
vt 0.795455 0.354286
vt 0.863636 0.393651
vt 0.840909 0.354286
vt 0.886364 0.354286
vt 0.818182 0.314921
vt 0.863636 0.314921
vt 0.909091 0.314921
vt 0.068182 0.433017
vt 0.113637 0.433017
vt 0.090910 0.472382
vt 0.045455 0.393651
vt 0.090910 0.393651
vt 0.068182 0.354286
vt 0.136365 0.393651
vt 0.113637 0.354286
vt 0.159092 0.354286
vt 0.090909 0.314921
vt 0.136364 0.314921
vt 0.250001 0.433017
vt 0.295455 0.433017
vt 0.272728 0.472382
vt 0.227273 0.393651
vt 0.272728 0.393651
vt 0.250001 0.354286
vt 0.318182 0.393651
vt 0.295455 0.354286
vt 0.340910 0.354286
vt 0.272728 0.314921
vt 0.318182 0.314921
vt 0.386364 0.275556
vt 0.409091 0.236191
vt 0.431819 0.275556
vt 0.454546 0.236191
vt 0.477273 0.275556
vt 0.500000 0.236191
vt 0.522728 0.275556
vt 0.568182 0.275556
vt 0.590909 0.236191
vt 0.613637 0.275556
vt 0.636364 0.236191
vt 0.659091 0.275556
vt 0.681818 0.236191
vt 0.704546 0.275556
vt 0.750000 0.275556
vt 0.772727 0.236191
vt 0.795455 0.275556
vt 0.818182 0.236191
vt 0.840909 0.275556
vt 0.863636 0.236191
vt 0.886364 0.275556
vt 0.022727 0.275556
vt 0.045455 0.236191
vt 0.068182 0.275556
vt 0.090910 0.236191
vt 0.113637 0.275556
vt 0.136364 0.236191
vt 0.159092 0.275556
vt 0.204546 0.275556
vt 0.227273 0.236191
vt 0.250001 0.275556
vt 0.272728 0.236191
vt 0.295455 0.275556
vt 0.318182 0.236191
vt 0.340910 0.275556
vt 0.545455 0.236191
vt 0.522728 0.196826
vt 0.568182 0.196826
vt 0.545455 0.157461
vt 0.590909 0.157461
vt 0.727273 0.236191
vt 0.704546 0.196826
vt 0.750000 0.196826
vt 0.727273 0.157461
vt 0.772727 0.157461
vt 0.931818 0.275556
vt 0.909091 0.236191
vt 0.886364 0.196826
vt 0.954545 0.236191
vt 0.931818 0.196826
vt 0.977273 0.196826
vt 0.909091 0.157461
vt 0.954545 0.157461
vt 1.000000 0.157461
vt 0.181819 0.236191
vt 0.159092 0.196826
vt 0.204546 0.196826
vt 0.181819 0.157461
vt 0.227274 0.157461
vt 0.363637 0.236191
vt 0.340910 0.196826
vt 0.386364 0.196826
vt 0.363637 0.157461
vt 0.409092 0.157461
vt 0.477273 0.118096
vt 0.500000 0.078731
vt 0.522728 0.118096
vt 0.545455 0.078731
vt 0.568182 0.118096
vt 0.590909 0.078731
vt 0.613637 0.118096
vt 0.659091 0.118096
vt 0.681818 0.078731
vt 0.704546 0.118096
vt 0.727273 0.078731
vt 0.750000 0.118096
vt 0.772727 0.078731
vt 0.795455 0.118096
vt 0.840909 0.118096
vt 0.863636 0.078731
vt 0.886364 0.118096
vt 0.909091 0.078731
vt 0.931818 0.118096
vt 0.954545 0.078731
vt 0.977273 0.118096
vt 0.431819 0.118096
vt 0.386364 0.118096
vt 0.340910 0.118096
vt 0.409091 0.078731
vt 0.363637 0.078730
vt 0.386364 0.039365
vt 0.318182 0.078731
vt 0.340910 0.039365
vt 0.363637 0.000000
vt 0.113637 0.118096
vt 0.136365 0.078731
vt 0.159092 0.118096
vt 0.181819 0.078731
vt 0.204546 0.118096
vt 0.227273 0.078731
vt 0.250001 0.118096
s 1
f 1/1/1 16/2/2 15/3/3
f 2/4/4 18/5/5 24/6/6
f 1/7/1 15/8/3 30/9/7
f 1/10/1 30/11/7 36/12/8
f 1/13/1 36/14/8 25/15/9
f 2/4/4 24/6/6 45/16/10
f 3/17/11 21/18/12 51/19/13
f 4/20/14 33/21/15 57/22/16
f 5/23/17 39/24/18 63/25/19
f 6/26/20 42/27/21 69/28/22
f 2/4/4 45/16/10 52/29/23
f 3/17/11 51/19/13 58/30/24
f 4/20/14 57/22/16 64/31/25
f 5/23/17 63/25/19 70/32/26
f 6/26/20 69/28/22 46/33/27
f 7/34/28 75/35/29 90/36/30
f 8/37/31 78/38/32 96/39/33
f 9/40/34 81/41/35 99/42/36
f 10/43/37 84/44/38 102/45/39
f 11/46/40 87/47/41 91/48/42
f 93/49/43 100/50/44 12/51/45
f 92/52/46 103/53/47 93/49/43
f 91/48/42 104/54/48 92/52/46
f 93/49/43 103/53/47 100/50/44
f 103/53/47 101/55/49 100/50/44
f 92/52/46 104/54/48 103/53/47
f 104/54/48 105/56/50 103/53/47
f 103/53/47 105/56/50 101/55/49
f 105/56/50 102/57/39 101/55/49
f 91/48/42 87/47/41 104/54/48
f 87/47/41 86/58/51 104/54/48
f 104/54/48 86/58/51 105/56/50
f 86/58/51 85/59/52 105/56/50
f 105/56/50 85/59/52 102/57/39
f 85/59/52 10/43/37 102/57/39
f 100/60/44 97/61/53 12/62/45
f 101/63/49 106/64/54 100/60/44
f 102/45/39 107/65/55 101/63/49
f 100/60/44 106/64/54 97/61/53
f 106/64/54 98/66/56 97/61/53
f 101/63/49 107/65/55 106/64/54
f 107/65/55 108/67/57 106/64/54
f 106/64/54 108/67/57 98/66/56
f 108/67/57 99/68/36 98/66/56
f 102/45/39 84/44/38 107/65/55
f 84/44/38 83/69/58 107/65/55
f 107/65/55 83/69/58 108/67/57
f 83/69/58 82/70/59 108/67/57
f 108/67/57 82/70/59 99/68/36
f 82/70/59 9/40/34 99/68/36
f 97/71/53 94/72/60 12/73/45
f 98/74/56 109/75/61 97/71/53
f 99/42/36 110/76/62 98/74/56
f 97/71/53 109/75/61 94/72/60
f 109/75/61 95/77/63 94/72/60
f 98/74/56 110/76/62 109/75/61
f 110/76/62 111/78/64 109/75/61
f 109/75/61 111/78/64 95/77/63
f 111/78/64 96/79/33 95/77/63
f 99/42/36 81/41/35 110/76/62
f 81/41/35 80/80/65 110/76/62
f 110/76/62 80/80/65 111/78/64
f 80/80/65 79/81/66 111/78/64
f 111/78/64 79/81/66 96/79/33
f 79/81/66 8/82/31 96/79/33
f 94/83/60 88/84/67 12/85/45
f 95/86/63 112/87/68 94/83/60
f 96/39/33 113/88/69 95/86/63
f 94/83/60 112/87/68 88/84/67
f 112/87/68 89/89/70 88/84/67
f 95/86/63 113/88/69 112/87/68
f 113/88/69 114/90/71 112/87/68
f 112/87/68 114/90/71 89/89/70
f 114/90/71 90/91/30 89/89/70
f 96/39/33 78/38/32 113/88/69
f 78/38/32 77/92/72 113/88/69
f 113/88/69 77/92/72 114/90/71
f 77/92/72 76/93/73 114/90/71
f 114/90/71 76/93/73 90/91/30
f 76/93/73 7/34/28 90/91/30
f 88/94/67 93/95/43 12/96/45
f 89/97/70 115/98/74 88/94/67
f 90/36/30 116/99/75 89/97/70
f 88/94/67 115/98/74 93/95/43
f 115/98/74 92/100/46 93/95/43
f 89/97/70 116/99/75 115/98/74
f 116/99/75 117/101/76 115/98/74
f 115/98/74 117/101/76 92/100/46
f 117/101/76 91/102/42 92/100/46
f 90/36/30 75/35/29 116/99/75
f 75/35/29 74/103/77 116/99/75
f 116/99/75 74/103/77 117/101/76
f 74/103/77 73/104/78 117/101/76
f 117/101/76 73/104/78 91/102/42
f 73/104/78 11/46/40 91/102/42
f 48/105/79 87/47/41 11/46/40
f 47/106/80 118/107/81 48/105/79
f 46/33/27 119/108/82 47/106/80
f 48/105/79 118/107/81 87/47/41
f 118/107/81 86/58/51 87/47/41
f 47/106/80 119/108/82 118/107/81
f 119/108/82 120/109/83 118/107/81
f 118/107/81 120/109/83 86/58/51
f 120/109/83 85/59/52 86/58/51
f 46/33/27 69/28/22 119/108/82
f 69/28/22 68/110/84 119/108/82
f 119/108/82 68/110/84 120/109/83
f 68/110/84 67/111/85 120/109/83
f 120/109/83 67/111/85 85/59/52
f 67/111/85 10/43/37 85/59/52
f 72/112/86 84/44/38 10/43/37
f 71/113/87 121/114/88 72/112/86
f 70/32/26 122/115/89 71/113/87
f 72/112/86 121/114/88 84/44/38
f 121/114/88 83/69/58 84/44/38
f 71/113/87 122/115/89 121/114/88
f 122/115/89 123/116/90 121/114/88
f 121/114/88 123/116/90 83/69/58
f 123/116/90 82/70/59 83/69/58
f 70/32/26 63/25/19 122/115/89
f 63/25/19 62/117/91 122/115/89
f 122/115/89 62/117/91 123/116/90
f 62/117/91 61/118/92 123/116/90
f 123/116/90 61/118/92 82/70/59
f 61/118/92 9/40/34 82/70/59
f 66/119/93 81/41/35 9/40/34
f 65/120/94 124/121/95 66/119/93
f 64/31/25 125/122/96 65/120/94
f 66/119/93 124/121/95 81/41/35
f 124/121/95 80/80/65 81/41/35
f 65/120/94 125/122/96 124/121/95
f 125/122/96 126/123/97 124/121/95
f 124/121/95 126/123/97 80/80/65
f 126/123/97 79/81/66 80/80/65
f 64/31/25 57/22/16 125/122/96
f 57/22/16 56/124/98 125/122/96
f 125/122/96 56/124/98 126/123/97
f 56/124/98 55/125/99 126/123/97
f 126/123/97 55/125/99 79/81/66
f 55/125/99 8/82/31 79/81/66
f 60/126/100 78/38/32 8/37/31
f 59/127/101 127/128/102 60/126/100
f 58/30/24 128/129/103 59/127/101
f 60/126/100 127/128/102 78/38/32
f 127/128/102 77/92/72 78/38/32
f 59/127/101 128/129/103 127/128/102
f 128/129/103 129/130/104 127/128/102
f 127/128/102 129/130/104 77/92/72
f 129/130/104 76/93/73 77/92/72
f 58/30/24 51/19/13 128/129/103
f 51/19/13 50/131/105 128/129/103
f 128/129/103 50/131/105 129/130/104
f 50/131/105 49/132/106 129/130/104
f 129/130/104 49/132/106 76/93/73
f 49/132/106 7/34/28 76/93/73
f 54/133/107 75/35/29 7/34/28
f 53/134/108 130/135/109 54/133/107
f 52/29/23 131/136/110 53/134/108
f 54/133/107 130/135/109 75/35/29
f 130/135/109 74/103/77 75/35/29
f 53/134/108 131/136/110 130/135/109
f 131/136/110 132/137/111 130/135/109
f 130/135/109 132/137/111 74/103/77
f 132/137/111 73/104/78 74/103/77
f 52/29/23 45/16/10 131/136/110
f 45/16/10 44/138/112 131/136/110
f 131/136/110 44/138/112 132/137/111
f 44/138/112 43/139/113 132/137/111
f 132/137/111 43/139/113 73/104/78
f 43/139/113 11/46/40 73/104/78
f 67/111/85 72/112/86 10/43/37
f 68/110/84 133/140/114 67/111/85
f 69/28/22 134/141/115 68/110/84
f 67/111/85 133/140/114 72/112/86
f 133/140/114 71/113/87 72/112/86
f 68/110/84 134/141/115 133/140/114
f 134/141/115 135/142/116 133/140/114
f 133/140/114 135/142/116 71/113/87
f 135/142/116 70/32/26 71/113/87
f 69/28/22 42/27/21 134/141/115
f 42/27/21 41/143/117 134/141/115
f 134/141/115 41/143/117 135/142/116
f 41/143/117 40/144/118 135/142/116
f 135/142/116 40/144/118 70/32/26
f 40/144/118 5/23/17 70/32/26
f 61/118/92 66/119/93 9/40/34
f 62/117/91 136/145/119 61/118/92
f 63/25/19 137/146/120 62/117/91
f 61/118/92 136/145/119 66/119/93
f 136/145/119 65/120/94 66/119/93
f 62/117/91 137/146/120 136/145/119
f 137/146/120 138/147/121 136/145/119
f 136/145/119 138/147/121 65/120/94
f 138/147/121 64/31/25 65/120/94
f 63/25/19 39/24/18 137/146/120
f 39/24/18 38/148/122 137/146/120
f 137/146/120 38/148/122 138/147/121
f 38/148/122 37/149/123 138/147/121
f 138/147/121 37/149/123 64/31/25
f 37/149/123 4/20/14 64/31/25
f 55/125/99 60/150/100 8/82/31
f 56/124/98 139/151/124 55/125/99
f 57/22/16 140/152/125 56/124/98
f 55/125/99 139/151/124 60/150/100
f 139/151/124 59/153/101 60/150/100
f 56/124/98 140/152/125 139/151/124
f 140/152/125 141/154/126 139/151/124
f 139/151/124 141/154/126 59/153/101
f 141/154/126 58/155/24 59/153/101
f 57/22/16 33/21/15 140/152/125
f 33/21/15 32/156/127 140/152/125
f 140/152/125 32/156/127 141/154/126
f 32/156/127 31/157/128 141/154/126
f 141/154/126 31/157/128 58/155/24
f 31/157/128 3/158/11 58/155/24
f 49/132/106 54/133/107 7/34/28
f 50/131/105 142/159/129 49/132/106
f 51/19/13 143/160/130 50/131/105
f 49/132/106 142/159/129 54/133/107
f 142/159/129 53/134/108 54/133/107
f 50/131/105 143/160/130 142/159/129
f 143/160/130 144/161/131 142/159/129
f 142/159/129 144/161/131 53/134/108
f 144/161/131 52/29/23 53/134/108
f 51/19/13 21/18/12 143/160/130
f 21/18/12 20/162/132 143/160/130
f 143/160/130 20/162/132 144/161/131
f 20/162/132 19/163/133 144/161/131
f 144/161/131 19/163/133 52/29/23
f 19/163/133 2/4/4 52/29/23
f 43/139/113 48/105/79 11/46/40
f 44/138/112 145/164/134 43/139/113
f 45/16/10 146/165/135 44/138/112
f 43/139/113 145/164/134 48/105/79
f 145/164/134 47/106/80 48/105/79
f 44/138/112 146/165/135 145/164/134
f 146/165/135 147/166/136 145/164/134
f 145/164/134 147/166/136 47/106/80
f 147/166/136 46/33/27 47/106/80
f 45/16/10 24/6/6 146/165/135
f 24/6/6 23/167/137 146/165/135
f 146/165/135 23/167/137 147/166/136
f 23/167/137 22/168/138 147/166/136
f 147/166/136 22/168/138 46/33/27
f 22/168/138 6/26/20 46/33/27
f 27/169/139 42/27/21 6/26/20
f 26/170/140 148/171/141 27/169/139
f 25/15/9 149/172/142 26/170/140
f 27/169/139 148/171/141 42/27/21
f 148/171/141 41/143/117 42/27/21
f 26/170/140 149/172/142 148/171/141
f 149/172/142 150/173/143 148/171/141
f 148/171/141 150/173/143 41/143/117
f 150/173/143 40/144/118 41/143/117
f 25/15/9 36/14/8 149/172/142
f 36/14/8 35/174/144 149/172/142
f 149/172/142 35/174/144 150/173/143
f 35/174/144 34/175/145 150/173/143
f 150/173/143 34/175/145 40/144/118
f 34/175/145 5/23/17 40/144/118
f 34/176/145 39/24/18 5/23/17
f 35/177/144 151/178/146 34/176/145
f 36/12/8 152/179/147 35/177/144
f 34/176/145 151/178/146 39/24/18
f 151/178/146 38/148/122 39/24/18
f 35/177/144 152/179/147 151/178/146
f 152/179/147 153/180/148 151/178/146
f 151/178/146 153/180/148 38/148/122
f 153/180/148 37/149/123 38/148/122
f 36/12/8 30/11/7 152/179/147
f 30/11/7 29/181/149 152/179/147
f 152/179/147 29/181/149 153/180/148
f 29/181/149 28/182/150 153/180/148
f 153/180/148 28/182/150 37/149/123
f 28/182/150 4/20/14 37/149/123
f 28/183/150 33/21/15 4/20/14
f 29/184/149 154/185/151 28/183/150
f 30/9/7 155/186/152 29/184/149
f 28/183/150 154/185/151 33/21/15
f 154/185/151 32/156/127 33/21/15
f 29/184/149 155/186/152 154/185/151
f 155/186/152 156/187/153 154/185/151
f 154/185/151 156/187/153 32/156/127
f 156/187/153 31/157/128 32/156/127
f 30/9/7 15/8/3 155/186/152
f 15/8/3 14/188/154 155/186/152
f 155/186/152 14/188/154 156/187/153
f 14/188/154 13/189/155 156/187/153
f 156/187/153 13/189/155 31/157/128
f 13/189/155 3/158/11 31/157/128
f 22/168/138 27/190/139 6/26/20
f 23/167/137 157/191/156 22/168/138
f 24/6/6 158/192/157 23/167/137
f 22/168/138 157/191/156 27/190/139
f 157/191/156 26/193/140 27/190/139
f 23/167/137 158/192/157 157/191/156
f 158/192/157 159/194/158 157/191/156
f 157/191/156 159/194/158 26/193/140
f 159/194/158 25/195/9 26/193/140
f 24/6/6 18/5/5 158/192/157
f 18/5/5 17/196/159 158/192/157
f 158/192/157 17/196/159 159/194/158
f 17/196/159 16/197/2 159/194/158
f 159/194/158 16/197/2 25/195/9
f 16/197/2 1/198/1 25/195/9
f 13/199/155 21/18/12 3/17/11
f 14/200/154 160/201/160 13/199/155
f 15/3/3 161/202/161 14/200/154
f 13/199/155 160/201/160 21/18/12
f 160/201/160 20/162/132 21/18/12
f 14/200/154 161/202/161 160/201/160
f 161/202/161 162/203/162 160/201/160
f 160/201/160 162/203/162 20/162/132
f 162/203/162 19/163/133 20/162/132
f 15/3/3 16/2/2 161/202/161
f 16/2/2 17/204/159 161/202/161
f 161/202/161 17/204/159 162/203/162
f 17/204/159 18/205/5 162/203/162
f 162/203/162 18/205/5 19/163/133
f 18/205/5 2/4/4 19/163/133
f 163/1/45 177/3/44 178/2/53
f 164/4/34 186/6/35 180/5/36
f 163/7/45 192/9/43 177/8/44
f 163/10/45 198/12/67 192/11/43
f 163/13/45 187/15/60 198/14/67
f 164/4/34 207/16/93 186/6/35
f 165/17/37 213/19/86 183/18/38
f 166/20/40 219/22/79 195/21/41
f 167/23/28 225/25/107 201/24/29
f 168/26/31 231/28/100 204/27/32
f 164/4/34 214/29/92 207/16/93
f 165/17/37 220/30/85 213/19/86
f 166/20/40 226/31/113 219/22/79
f 167/23/28 232/32/106 225/25/107
f 168/26/31 208/33/99 231/28/100
f 169/34/17 252/36/145 237/35/18
f 170/37/20 258/39/139 240/38/21
f 171/40/4 261/42/5 243/41/6
f 172/43/11 264/45/155 246/44/12
f 173/46/14 253/48/150 249/47/15
f 255/49/7 174/51/1 262/50/3
f 254/52/149 255/49/7 265/53/152
f 253/48/150 254/52/149 266/54/151
f 255/49/7 262/50/3 265/53/152
f 265/53/152 262/50/3 263/55/154
f 254/52/149 265/53/152 266/54/151
f 266/54/151 265/53/152 267/56/163
f 265/53/152 263/55/154 267/56/163
f 267/56/163 263/55/154 264/57/155
f 253/48/150 266/54/151 249/47/15
f 249/47/15 266/54/151 248/58/127
f 266/54/151 267/56/163 248/58/127
f 248/58/127 267/56/163 247/59/128
f 267/56/163 264/57/155 247/59/128
f 247/59/128 264/57/155 172/43/11
f 262/60/3 174/62/1 259/61/2
f 263/63/154 262/60/3 268/64/161
f 264/45/155 263/63/154 269/65/160
f 262/60/3 259/61/2 268/64/161
f 268/64/161 259/61/2 260/66/159
f 263/63/154 268/64/161 269/65/160
f 269/65/160 268/64/161 270/67/162
f 268/64/161 260/66/159 270/67/162
f 270/67/162 260/66/159 261/68/5
f 264/45/155 269/65/160 246/44/12
f 246/44/12 269/65/160 245/69/132
f 269/65/160 270/67/162 245/69/132
f 245/69/132 270/67/162 244/70/133
f 270/67/162 261/68/5 244/70/133
f 244/70/133 261/68/5 171/40/4
f 259/71/2 174/73/1 256/72/9
f 260/74/159 259/71/2 271/75/158
f 261/42/5 260/74/159 272/76/164
f 259/71/2 256/72/9 271/75/158
f 271/75/158 256/72/9 257/77/140
f 260/74/159 271/75/158 272/76/164
f 272/76/164 271/75/158 273/78/165
f 271/75/158 257/77/140 273/78/165
f 273/78/165 257/77/140 258/79/139
f 261/42/5 272/76/164 243/41/6
f 243/41/6 272/76/164 242/80/137
f 272/76/164 273/78/165 242/80/137
f 242/80/137 273/78/165 241/81/138
f 273/78/165 258/79/139 241/81/138
f 241/81/138 258/79/139 170/82/20
f 256/83/9 174/85/1 250/84/8
f 257/86/140 256/83/9 274/87/142
f 258/39/139 257/86/140 275/88/141
f 256/83/9 250/84/8 274/87/142
f 274/87/142 250/84/8 251/89/144
f 257/86/140 274/87/142 275/88/141
f 275/88/141 274/87/142 276/90/143
f 274/87/142 251/89/144 276/90/143
f 276/90/143 251/89/144 252/91/145
f 258/39/139 275/88/141 240/38/21
f 240/38/21 275/88/141 239/92/117
f 275/88/141 276/90/143 239/92/117
f 239/92/117 276/90/143 238/93/118
f 276/90/143 252/91/145 238/93/118
f 238/93/118 252/91/145 169/34/17
f 250/94/8 174/96/1 255/95/7
f 251/97/144 250/94/8 277/98/147
f 252/36/145 251/97/144 278/99/146
f 250/94/8 255/95/7 277/98/147
f 277/98/147 255/95/7 254/100/149
f 251/97/144 277/98/147 278/99/146
f 278/99/146 277/98/147 279/101/148
f 277/98/147 254/100/149 279/101/148
f 279/101/148 254/100/149 253/102/150
f 252/36/145 278/99/146 237/35/18
f 237/35/18 278/99/146 236/103/122
f 278/99/146 279/101/148 236/103/122
f 236/103/122 279/101/148 235/104/123
f 279/101/148 253/102/150 235/104/123
f 235/104/123 253/102/150 173/46/14
f 210/105/16 173/46/14 249/47/15
f 209/106/98 210/105/16 280/107/125
f 208/33/99 209/106/98 281/108/124
f 210/105/16 249/47/15 280/107/125
f 280/107/125 249/47/15 248/58/127
f 209/106/98 280/107/125 281/108/124
f 281/108/124 280/107/125 282/109/126
f 280/107/125 248/58/127 282/109/126
f 282/109/126 248/58/127 247/59/128
f 208/33/99 281/108/124 231/28/100
f 231/28/100 281/108/124 230/110/101
f 281/108/124 282/109/126 230/110/101
f 230/110/101 282/109/126 229/111/24
f 282/109/126 247/59/128 229/111/24
f 229/111/24 247/59/128 172/43/11
f 234/112/13 172/43/11 246/44/12
f 233/113/105 234/112/13 283/114/130
f 232/32/106 233/113/105 284/115/129
f 234/112/13 246/44/12 283/114/130
f 283/114/130 246/44/12 245/69/132
f 233/113/105 283/114/130 284/115/129
f 284/115/129 283/114/130 285/116/131
f 283/114/130 245/69/132 285/116/131
f 285/116/131 245/69/132 244/70/133
f 232/32/106 284/115/129 225/25/107
f 225/25/107 284/115/129 224/117/108
f 284/115/129 285/116/131 224/117/108
f 224/117/108 285/116/131 223/118/23
f 285/116/131 244/70/133 223/118/23
f 223/118/23 244/70/133 171/40/4
f 228/119/10 171/40/4 243/41/6
f 227/120/112 228/119/10 286/121/135
f 226/31/113 227/120/112 287/122/134
f 228/119/10 243/41/6 286/121/135
f 286/121/135 243/41/6 242/80/137
f 227/120/112 286/121/135 287/122/134
f 287/122/134 286/121/135 288/123/136
f 286/121/135 242/80/137 288/123/136
f 288/123/136 242/80/137 241/81/138
f 226/31/113 287/122/134 219/22/79
f 219/22/79 287/122/134 218/124/80
f 287/122/134 288/123/136 218/124/80
f 218/124/80 288/123/136 217/125/27
f 288/123/136 241/81/138 217/125/27
f 217/125/27 241/81/138 170/82/20
f 222/126/22 170/37/20 240/38/21
f 221/127/84 222/126/22 289/128/115
f 220/30/85 221/127/84 290/129/114
f 222/126/22 240/38/21 289/128/115
f 289/128/115 240/38/21 239/92/117
f 221/127/84 289/128/115 290/129/114
f 290/129/114 289/128/115 291/130/116
f 289/128/115 239/92/117 291/130/116
f 291/130/116 239/92/117 238/93/118
f 220/30/85 290/129/114 213/19/86
f 213/19/86 290/129/114 212/131/87
f 290/129/114 291/130/116 212/131/87
f 212/131/87 291/130/116 211/132/26
f 291/130/116 238/93/118 211/132/26
f 211/132/26 238/93/118 169/34/17
f 216/133/19 169/34/17 237/35/18
f 215/134/91 216/133/19 292/135/120
f 214/29/92 215/134/91 293/136/119
f 216/133/19 237/35/18 292/135/120
f 292/135/120 237/35/18 236/103/122
f 215/134/91 292/135/120 293/136/119
f 293/136/119 292/135/120 294/137/121
f 292/135/120 236/103/122 294/137/121
f 294/137/121 236/103/122 235/104/123
f 214/29/92 293/136/119 207/16/93
f 207/16/93 293/136/119 206/138/94
f 293/136/119 294/137/121 206/138/94
f 206/138/94 294/137/121 205/139/25
f 294/137/121 235/104/123 205/139/25
f 205/139/25 235/104/123 173/46/14
f 229/111/24 172/43/11 234/112/13
f 230/110/101 229/111/24 295/140/103
f 231/28/100 230/110/101 296/141/102
f 229/111/24 234/112/13 295/140/103
f 295/140/103 234/112/13 233/113/105
f 230/110/101 295/140/103 296/141/102
f 296/141/102 295/140/103 297/142/104
f 295/140/103 233/113/105 297/142/104
f 297/142/104 233/113/105 232/32/106
f 231/28/100 296/141/102 204/27/32
f 204/27/32 296/141/102 203/143/72
f 296/141/102 297/142/104 203/143/72
f 203/143/72 297/142/104 202/144/73
f 297/142/104 232/32/106 202/144/73
f 202/144/73 232/32/106 167/23/28
f 223/118/23 171/40/4 228/119/10
f 224/117/108 223/118/23 298/145/110
f 225/25/107 224/117/108 299/146/109
f 223/118/23 228/119/10 298/145/110
f 298/145/110 228/119/10 227/120/112
f 224/117/108 298/145/110 299/146/109
f 299/146/109 298/145/110 300/147/111
f 298/145/110 227/120/112 300/147/111
f 300/147/111 227/120/112 226/31/113
f 225/25/107 299/146/109 201/24/29
f 201/24/29 299/146/109 200/148/77
f 299/146/109 300/147/111 200/148/77
f 200/148/77 300/147/111 199/149/78
f 300/147/111 226/31/113 199/149/78
f 199/149/78 226/31/113 166/20/40
f 217/125/27 170/82/20 222/150/22
f 218/124/80 217/125/27 301/151/82
f 219/22/79 218/124/80 302/152/81
f 217/125/27 222/150/22 301/151/82
f 301/151/82 222/150/22 221/153/84
f 218/124/80 301/151/82 302/152/81
f 302/152/81 301/151/82 303/154/83
f 301/151/82 221/153/84 303/154/83
f 303/154/83 221/153/84 220/155/85
f 219/22/79 302/152/81 195/21/41
f 195/21/41 302/152/81 194/156/51
f 302/152/81 303/154/83 194/156/51
f 194/156/51 303/154/83 193/157/52
f 303/154/83 220/155/85 193/157/52
f 193/157/52 220/155/85 165/158/37
f 211/132/26 169/34/17 216/133/19
f 212/131/87 211/132/26 304/159/89
f 213/19/86 212/131/87 305/160/88
f 211/132/26 216/133/19 304/159/89
f 304/159/89 216/133/19 215/134/91
f 212/131/87 304/159/89 305/160/88
f 305/160/88 304/159/89 306/161/90
f 304/159/89 215/134/91 306/161/90
f 306/161/90 215/134/91 214/29/92
f 213/19/86 305/160/88 183/18/38
f 183/18/38 305/160/88 182/162/58
f 305/160/88 306/161/90 182/162/58
f 182/162/58 306/161/90 181/163/59
f 306/161/90 214/29/92 181/163/59
f 181/163/59 214/29/92 164/4/34
f 205/139/25 173/46/14 210/105/16
f 206/138/94 205/139/25 307/164/96
f 207/16/93 206/138/94 308/165/95
f 205/139/25 210/105/16 307/164/96
f 307/164/96 210/105/16 209/106/98
f 206/138/94 307/164/96 308/165/95
f 308/165/95 307/164/96 309/166/97
f 307/164/96 209/106/98 309/166/97
f 309/166/97 209/106/98 208/33/99
f 207/16/93 308/165/95 186/6/35
f 186/6/35 308/165/95 185/167/65
f 308/165/95 309/166/97 185/167/65
f 185/167/65 309/166/97 184/168/66
f 309/166/97 208/33/99 184/168/66
f 184/168/66 208/33/99 168/26/31
f 189/169/33 168/26/31 204/27/32
f 188/170/63 189/169/33 310/171/69
f 187/15/60 188/170/63 311/172/68
f 189/169/33 204/27/32 310/171/69
f 310/171/69 204/27/32 203/143/72
f 188/170/63 310/171/69 311/172/68
f 311/172/68 310/171/69 312/173/71
f 310/171/69 203/143/72 312/173/71
f 312/173/71 203/143/72 202/144/73
f 187/15/60 311/172/68 198/14/67
f 198/14/67 311/172/68 197/174/70
f 311/172/68 312/173/71 197/174/70
f 197/174/70 312/173/71 196/175/30
f 312/173/71 202/144/73 196/175/30
f 196/175/30 202/144/73 167/23/28
f 196/176/30 167/23/28 201/24/29
f 197/177/70 196/176/30 313/178/75
f 198/12/67 197/177/70 314/179/74
f 196/176/30 201/24/29 313/178/75
f 313/178/75 201/24/29 200/148/77
f 197/177/70 313/178/75 314/179/74
f 314/179/74 313/178/75 315/180/76
f 313/178/75 200/148/77 315/180/76
f 315/180/76 200/148/77 199/149/78
f 198/12/67 314/179/74 192/11/43
f 192/11/43 314/179/74 191/181/46
f 314/179/74 315/180/76 191/181/46
f 191/181/46 315/180/76 190/182/42
f 315/180/76 199/149/78 190/182/42
f 190/182/42 199/149/78 166/20/40
f 190/183/42 166/20/40 195/21/41
f 191/184/46 190/183/42 316/185/48
f 192/9/43 191/184/46 317/186/47
f 190/183/42 195/21/41 316/185/48
f 316/185/48 195/21/41 194/156/51
f 191/184/46 316/185/48 317/186/47
f 317/186/47 316/185/48 318/187/166
f 316/185/48 194/156/51 318/187/166
f 318/187/166 194/156/51 193/157/52
f 192/9/43 317/186/47 177/8/44
f 177/8/44 317/186/47 176/188/49
f 317/186/47 318/187/166 176/188/49
f 176/188/49 318/187/166 175/189/39
f 318/187/166 193/157/52 175/189/39
f 175/189/39 193/157/52 165/158/37
f 184/168/66 168/26/31 189/190/33
f 185/167/65 184/168/66 319/191/167
f 186/6/35 185/167/65 320/192/168
f 184/168/66 189/190/33 319/191/167
f 319/191/167 189/190/33 188/193/63
f 185/167/65 319/191/167 320/192/168
f 320/192/168 319/191/167 321/194/61
f 319/191/167 188/193/63 321/194/61
f 321/194/61 188/193/63 187/195/60
f 186/6/35 320/192/168 180/5/36
f 180/5/36 320/192/168 179/196/56
f 320/192/168 321/194/61 179/196/56
f 179/196/56 321/194/61 178/197/53
f 321/194/61 187/195/60 178/197/53
f 178/197/53 187/195/60 163/198/45
f 175/199/39 165/17/37 183/18/38
f 176/200/49 175/199/39 322/201/55
f 177/3/44 176/200/49 323/202/54
f 175/199/39 183/18/38 322/201/55
f 322/201/55 183/18/38 182/162/58
f 176/200/49 322/201/55 323/202/54
f 323/202/54 322/201/55 324/203/57
f 322/201/55 182/162/58 324/203/57
f 324/203/57 182/162/58 181/163/59
f 177/3/44 323/202/54 178/2/53
f 178/2/53 323/202/54 179/204/56
f 323/202/54 324/203/57 179/204/56
f 179/204/56 324/203/57 180/205/36
f 324/203/57 181/163/59 180/205/36
f 180/205/36 181/163/59 164/4/34
