# Blender 4.0.2
# www.blender.org
o room
v 2.020484 -1.500000 -2.000000
v 2.020484 2.872655 -2.000000
v 2.020484 1.738994 -2.000000
v -1.264885 2.872655 -2.000000
v -1.264885 -1.500000 -2.000000
v -1.264885 1.738994 -2.000000
v 2.020484 -1.500000 1.101685
v 2.020484 2.872655 1.101685
v 2.020484 1.738994 1.101685
v -0.022957 2.872655 -2.000000
v -0.022957 1.738994 -2.000000
v -0.022957 -1.500000 -2.000000
v -0.022957 2.872655 1.101685
v 1.233204 2.872655 -2.000000
v 1.233204 1.738994 -2.000000
v 1.233204 -1.500000 1.101685
v 1.233204 2.872655 1.101685
v 1.233204 -1.500000 -2.000000
v 2.020484 -1.500000 -0.461207
v 2.020484 1.738994 -0.461207
v -1.264885 -1.500000 -0.461207
v 2.020484 2.872655 -0.461207
v -1.264885 2.872655 -0.461207
v -0.022957 -1.500000 -0.461207
v -0.022957 2.872655 -0.461207
v 1.233204 -1.500000 -0.461207
v 1.233204 2.872655 -0.461207
v 2.020484 -1.500000 -0.845905
v 2.020484 -1.500000 -1.230603
v 2.020484 -1.500000 -1.615302
v 1.430024 2.872655 -2.000000
v 1.626844 2.872655 -2.000000
v 1.823664 2.872655 -2.000000
v 2.020484 2.872655 1.476263
v 2.020484 2.872655 1.850842
v 2.020484 2.872655 2.225421
v 2.020484 2.022409 -2.000000
v 2.020484 2.305825 -2.000000
v 2.020484 2.589240 -2.000000
v -1.693543 -1.500000 -2.000000
v -2.122200 -1.500000 -2.000000
v -2.550858 -1.500000 -2.000000
v 2.020484 -0.690252 -2.000000
v 2.020484 0.119497 -2.000000
v 2.020484 0.929245 -2.000000
v 2.020484 1.738994 -0.845905
v 2.020484 1.738994 -1.230603
v 2.020484 1.738993 -1.615302
v 1.430024 1.738994 -2.000000
v 1.626844 1.738994 -2.000000
v 1.823664 1.738993 -2.000000
v -2.550858 2.872655 -2.000000
v -2.122200 2.872655 -2.000000
v -1.693542 2.872655 -2.000000
v -0.333439 -1.500000 -2.000000
v -0.643921 -1.500000 -2.000000
v -0.954403 -1.500000 -2.000000
v -2.550858 1.738994 -2.000000
v -2.122200 1.738994 -2.000000
v -1.693542 1.738994 -2.000000
v -1.264885 2.022409 -2.000000
v -1.264885 2.305825 -2.000000
v -1.264885 2.589240 -2.000000
v -1.264884 -1.500000 -0.845905
v -1.264885 -1.500000 -1.230603
v -1.264885 -1.500000 -1.615302
v -1.264885 -0.690252 -2.000000
v -1.264885 0.119497 -2.000000
v -1.264885 0.929245 -2.000000
v 2.020484 -1.500000 2.225421
v 2.020484 -1.500000 1.850842
v 2.020484 -1.500000 1.476263
v 2.020484 2.872655 -0.070484
v 2.020484 2.872655 0.320239
v 2.020484 2.872655 0.710961
v 2.020484 1.738994 2.225421
v 2.020484 1.738994 1.850842
v 2.020484 1.738994 1.476263
v -1.264884 2.872655 -0.070484
v 2.020484 0.929245 1.101684
v 2.020484 0.119497 1.101685
v 2.020484 -0.690252 1.101684
v 2.020484 2.589240 1.101684
v 2.020484 2.305825 1.101685
v 2.020484 2.022409 1.101684
v 1.430024 -1.500000 1.101685
v 1.626844 -1.500000 1.101685
v 1.823664 -1.500000 1.101684
v 1.430024 2.872655 1.101684
v 1.626844 2.872655 1.101685
v 1.823664 2.872655 1.101684
v -0.954403 2.872655 -2.000000
v -0.643921 2.872655 -2.000000
v -0.333439 2.872655 -2.000000
v -0.954403 1.738994 -2.000000
v -0.643921 1.738994 -2.000000
v -0.333439 1.738994 -2.000000
v 0.919164 -1.500000 -2.000000
v 0.605123 -1.500000 -2.000000
v 0.291083 -1.500000 -2.000000
v -0.022957 -1.500000 -0.845905
v -0.022957 -1.500000 -1.230603
v -0.022957 -1.500000 -1.615302
v -0.022957 2.022409 -2.000000
v -0.022957 2.305825 -2.000000
v -0.022957 2.589240 -2.000000
v -0.022957 -0.690252 -2.000000
v -0.022957 0.119497 -2.000000
v -0.022957 0.929245 -2.000000
v -0.022957 2.872655 -0.070484
v -0.022957 2.872655 0.320239
v -0.022957 2.872655 0.710961
v 0.291083 2.872655 -2.000000
v 0.605124 2.872655 -2.000000
v 0.919164 2.872655 -2.000000
v 0.291083 1.738994 -2.000000
v 0.605124 1.738994 -2.000000
v 0.919164 1.738994 -2.000000
v 0.605124 -1.500000 1.101685
v 0.919164 -1.500000 1.101684
v 0.291083 2.872655 1.101684
v 0.605124 2.872655 1.101685
v 0.919164 2.872655 1.101684
v 1.823664 -1.500000 -2.000000
v 1.626844 -1.500000 -2.000000
v 1.430024 -1.500000 -2.000000
v 1.233204 2.872655 1.476263
v 1.233204 2.872655 1.850842
v 1.233204 2.872655 2.225421
v 1.233204 -1.500000 -0.845905
v 1.233204 -1.500000 -1.230603
v 1.233204 -1.500000 -1.615302
v 1.233204 2.022409 -2.000000
v 1.233204 2.305825 -2.000000
v 1.233204 2.589240 -2.000000
v 1.233204 -1.500000 1.476263
v 1.233204 -0.690252 -2.000000
v 1.233204 0.119497 -2.000000
v 1.233204 0.929245 -2.000000
v 1.233204 2.872655 -0.070484
v 1.233204 2.872655 0.320239
v 1.233204 2.872655 0.710961
v 2.020484 -1.500000 0.710961
v 2.020484 -1.500000 0.320239
v 2.020484 -1.500000 -0.070484
v 2.020484 1.738994 0.710961
v 2.020484 1.738994 0.320239
v 2.020484 1.738994 -0.070484
v 2.020484 2.872655 -1.615302
v 2.020484 2.872655 -1.230603
v 2.020484 2.872655 -0.845905
v -1.264885 2.872655 -1.615302
v -1.264885 2.872655 -1.230603
v -1.264885 2.872655 -0.845905
v -0.022957 -1.500000 0.710961
v -0.022957 -1.500000 0.320239
v -0.022957 -1.500000 -0.070484
v -0.022957 2.872655 -1.615302
v -0.022957 2.872655 -1.230603
v -0.022957 2.872655 -0.845905
v 1.233204 -1.500000 0.710961
v 1.233204 -1.500000 0.320239
v 1.233204 -1.500000 -0.070484
v 1.233204 2.872655 -1.615302
v 1.233204 2.872655 -1.230603
v 1.233204 2.872655 -0.845905
v 0.291083 2.872655 -0.461207
v 0.605124 2.872655 -0.461207
v 0.919164 2.872655 -0.461207
v 0.291083 -1.500000 -0.461207
v 0.605124 -1.500000 -0.461207
v 0.919164 -1.500000 -0.461207
v -0.954403 2.872655 -0.461207
v -0.643921 2.872655 -0.461207
v -0.333439 2.872655 -0.461207
v -0.954403 -1.500000 -0.461207
v -0.643921 -1.500000 -0.461207
v -0.333439 -1.500000 -0.461207
v 1.430024 -1.500000 -0.461207
v 1.626844 -1.500000 -0.461207
v 1.823664 -1.500000 -0.461207
v -2.122200 2.872655 -0.461207
v -1.693542 2.872655 -0.461207
v 2.020484 0.929245 -0.461207
v 2.020484 0.119497 -0.461207
v 2.020484 -0.690252 -0.461207
v 2.020484 2.589240 -0.461207
v 2.020484 2.305825 -0.461207
v 2.020484 2.022409 -0.461207
v 1.430024 2.872655 -0.461207
v 1.626844 2.872655 -0.461207
v 1.823664 2.872655 -0.461207
v 1.430024 2.872655 -0.845905
v 1.430024 2.872655 -1.230604
v 1.430024 2.872655 -1.615302
v 1.626844 2.872655 -0.845905
v 1.626844 2.872655 -1.230604
v 1.626844 2.872655 -1.615302
v 1.823664 2.872655 -0.845905
v 1.823664 2.872655 -1.230603
v 1.823664 2.872655 -1.615302
v 1.430024 0.929245 -2.000000
v 1.430024 0.119497 -2.000000
v 1.430024 -0.690251 -2.000000
v 1.626844 0.929245 -2.000000
v 1.626844 0.119497 -2.000000
v 1.626844 -0.690252 -2.000000
v 1.823664 0.929245 -2.000000
v 1.823664 0.119497 -2.000000
v 1.823664 -0.690251 -2.000000
v 1.430024 -1.500000 1.476263
v 1.430024 -1.500000 1.850842
v 1.626844 -1.500000 1.476263
v 1.626844 -1.500000 1.850842
v 1.823664 -1.500000 1.476264
v 1.823664 -1.500000 1.850842
v 1.823664 -1.500000 2.225421
v 2.020484 2.022409 -0.845905
v 2.020484 2.305825 -0.845905
v 2.020484 2.589240 -0.845905
v 2.020484 2.022409 -1.230603
v 2.020484 2.305825 -1.230603
v 2.020484 2.589240 -1.230603
v 2.020484 2.022409 -1.615302
v 2.020484 2.305825 -1.615302
v 2.020484 2.589240 -1.615302
v 2.020484 -0.690252 -0.845905
v 2.020484 0.119497 -0.845905
v 2.020484 0.929245 -0.845905
v 2.020484 -0.690252 -1.230603
v 2.020484 0.119497 -1.230603
v 2.020484 0.929245 -1.230603
v 2.020484 -0.690251 -1.615302
v 2.020484 0.119497 -1.615302
v 2.020484 0.929245 -1.615302
v 1.430024 2.589240 -2.000000
v 1.430024 2.305825 -2.000000
v 1.430024 2.022409 -2.000000
v 1.626844 2.589240 -2.000000
v 1.626844 2.305825 -2.000000
v 1.626844 2.022409 -2.000000
v 1.823664 2.589240 -2.000000
v 1.823664 2.305825 -2.000000
v 1.823664 2.022409 -2.000000
v -2.550858 2.589240 -2.000000
v -2.550858 2.305825 -2.000000
v -2.550858 2.022409 -2.000000
v -2.122200 2.589240 -2.000000
v -2.122200 2.305825 -2.000000
v -2.122200 2.022409 -2.000000
v -1.693542 2.589240 -2.000000
v -1.693542 2.305825 -2.000000
v -1.693542 2.022409 -2.000000
v -2.550858 0.929245 -2.000000
v -2.550858 0.119497 -2.000000
v -2.550858 -0.690251 -2.000000
v -2.122200 0.929245 -2.000000
v -2.122200 0.119497 -2.000000
v -2.122200 -0.690252 -2.000000
v -1.693542 0.929245 -2.000000
v -1.693543 0.119497 -2.000000
v -1.693542 -0.690251 -2.000000
v -2.550858 2.872655 -0.845905
v -2.550858 2.872655 -1.230604
v -2.550858 2.872655 -1.615302
v -2.122200 2.872655 -0.845905
v -2.122200 2.872655 -1.230604
v -2.122200 2.872655 -1.615302
v -1.693542 2.872655 -0.845905
v -1.693542 2.872655 -1.230603
v -1.693542 2.872655 -1.615302
v 2.020484 -0.690252 2.225421
v 2.020484 0.119497 2.225421
v 2.020484 0.929245 2.225421
v 2.020484 -0.690252 1.850842
v 2.020484 0.119497 1.850842
v 2.020484 0.929245 1.850842
v 2.020484 -0.690251 1.476263
v 2.020484 0.119497 1.476264
v 2.020484 0.929245 1.476263
v 2.020484 2.022409 2.225421
v 2.020484 2.305825 2.225421
v 2.020484 2.589240 2.225421
v 2.020484 2.022409 1.850842
v 2.020484 2.305825 1.850842
v 2.020484 2.589240 1.850842
v 2.020484 2.022409 1.476263
v 2.020484 2.305825 1.476264
v 2.020484 2.589240 1.476263
v 1.430024 -1.500000 -0.070484
v 1.430024 -1.500000 0.320239
v 1.430024 -1.500000 0.710961
v 1.626844 -1.500000 -0.070484
v 1.626844 -1.500000 0.320239
v 1.626844 -1.500000 0.710961
v 1.823664 -1.500000 -0.070484
v 1.823664 -1.500000 0.320239
v 1.823664 -1.500000 0.710961
v 1.430024 2.872655 2.225421
v 1.430024 2.872655 1.850842
v 1.430024 2.872655 1.476264
v 1.626844 2.872655 2.225421
v 1.626844 2.872655 1.850842
v 1.626844 2.872655 1.476264
v 1.823664 2.872655 2.225421
v 1.823664 2.872655 1.850842
v 1.823664 2.872655 1.476263
v -0.954403 -1.500000 -0.070484
v -0.643921 -1.500000 -0.070484
v -0.333439 -1.500000 -0.070484
v -0.333439 -1.500000 0.320239
v -0.954403 2.589240 -2.000000
v -0.954402 2.305825 -2.000000
v -0.954403 2.022409 -2.000000
v -0.643921 2.589240 -2.000000
v -0.643921 2.305825 -2.000000
v -0.643921 2.022409 -2.000000
v -0.333439 2.589240 -2.000000
v -0.333439 2.305825 -2.000000
v -0.333439 2.022409 -2.000000
v -0.954403 0.929245 -2.000000
v -0.954403 0.119497 -2.000000
v -0.954403 -0.690251 -2.000000
v -0.643921 0.929245 -2.000000
v -0.643921 0.119497 -2.000000
v -0.643921 -0.690252 -2.000000
v -0.333439 0.929245 -2.000000
v -0.333439 0.119497 -2.000000
v -0.333439 -0.690251 -2.000000
v -0.954403 2.872655 -0.845905
v -0.954402 2.872655 -1.230604
v -0.954403 2.872655 -1.615302
v -0.643921 2.872655 -0.845905
v -0.643921 2.872655 -1.230604
v -0.643921 2.872655 -1.615302
v -0.333439 2.872655 -0.845905
v -0.333439 2.872655 -1.230603
v -0.333439 2.872655 -1.615302
v 0.291083 2.872655 1.476264
v 0.605124 2.872655 1.476264
v 0.919164 2.872655 1.850842
v 0.919164 2.872655 1.476263
v 0.291083 -1.500000 -0.070484
v 0.291083 -1.500000 0.320239
v 0.291083 -1.500000 0.710961
v 0.605124 -1.500000 -0.070484
v 0.605124 -1.500000 0.320239
v 0.605124 -1.500000 0.710961
v 0.919164 -1.500000 -0.070484
v 0.919164 -1.500000 0.320239
v 0.919164 -1.500000 0.710961
v 0.291083 2.589240 -2.000000
v 0.291083 2.305825 -2.000000
v 0.291083 2.022409 -2.000000
v 0.605124 2.589240 -2.000000
v 0.605124 2.305825 -2.000000
v 0.605124 2.022409 -2.000000
v 0.919164 2.589240 -2.000000
v 0.919164 2.305825 -2.000000
v 0.919164 2.022409 -2.000000
v 0.919164 -1.500000 1.476264
v 0.291083 0.929245 -2.000000
v 0.291083 0.119497 -2.000000
v 0.291083 -0.690251 -2.000000
v 0.605124 0.929245 -2.000000
v 0.605123 0.119497 -2.000000
v 0.605123 -0.690252 -2.000000
v 0.919164 0.929245 -2.000000
v 0.919164 0.119497 -2.000000
v 0.919164 -0.690251 -2.000000
v 0.291083 2.872655 -0.845905
v 0.291083 2.872655 -1.230604
v 0.291083 2.872655 -1.615302
v 0.605124 2.872655 -0.845905
v 0.605124 2.872655 -1.230604
v 0.605124 2.872655 -1.615302
v 0.919164 2.872655 -0.845905
v 0.919164 2.872655 -1.230603
v 0.919164 2.872655 -1.615302
v 0.291083 2.872655 0.710961
v 0.291083 2.872655 0.320239
v 0.291083 2.872655 -0.070484
v 0.605124 2.872655 0.710962
v 0.605124 2.872655 0.320239
v 0.605124 2.872655 -0.070484
v 0.919164 2.872655 0.710961
v 0.919164 2.872655 0.320239
v 0.919164 2.872655 -0.070484
v 0.291083 -1.500000 -1.615302
v 0.291083 -1.500000 -1.230603
v 0.291083 -1.500000 -0.845905
v 0.605123 -1.500000 -1.615302
v 0.605123 -1.500000 -1.230603
v 0.605124 -1.500000 -0.845905
v 0.919164 -1.500000 -1.615302
v 0.919164 -1.500000 -1.230603
v 0.919164 -1.500000 -0.845905
v -0.954402 2.872655 0.320239
v -0.954403 2.872655 -0.070484
v -0.643921 2.872655 0.710962
v -0.643921 2.872655 0.320239
v -0.643921 2.872655 -0.070484
v -0.333439 2.872655 0.710961
v -0.333439 2.872655 0.320239
v -0.333439 2.872655 -0.070484
v -0.954403 -1.500000 -1.615302
v -0.954403 -1.500000 -1.230603
v -0.954403 -1.500000 -0.845905
v -0.643921 -1.500000 -1.615302
v -0.643921 -1.500000 -1.230603
v -0.643921 -1.500000 -0.845905
v -0.333439 -1.500000 -1.615302
v -0.333439 -1.500000 -1.230603
v -0.333439 -1.500000 -0.845905
v 1.430024 -1.500000 -1.615302
v 1.430024 -1.500000 -1.230603
v 1.430024 -1.500000 -0.845905
v 1.626844 -1.500000 -1.615302
v 1.626844 -1.500000 -1.230603
v 1.626844 -1.500000 -0.845905
v 1.823664 -1.500000 -1.615302
v 1.823664 -1.500000 -1.230603
v 1.823664 -1.500000 -0.845905
v -2.550858 -1.500000 -1.615302
v -2.122200 -1.500000 -1.615302
v -2.122200 -1.500000 -1.230603
v -1.693542 -1.500000 -1.615302
v -1.693543 -1.500000 -1.230603
v -1.693542 -1.500000 -0.845905
v -1.693542 2.872655 -0.070484
v 2.020484 -0.690252 0.710961
v 2.020484 0.119497 0.710961
v 2.020484 0.929245 0.710961
v 2.020484 -0.690252 0.320239
v 2.020484 0.119497 0.320239
v 2.020484 0.929245 0.320239
v 2.020484 -0.690251 -0.070484
v 2.020484 0.119497 -0.070484
v 2.020484 0.929245 -0.070484
v 2.020484 2.022409 0.710961
v 2.020484 2.305825 0.710961
v 2.020484 2.589240 0.710961
v 2.020484 2.022409 0.320239
v 2.020484 2.305825 0.320239
v 2.020484 2.589240 0.320239
v 2.020484 2.022409 -0.070484
v 2.020484 2.305825 -0.070484
v 2.020484 2.589240 -0.070484
v 1.430024 2.872655 0.710961
v 1.430024 2.872655 0.320239
v 1.430024 2.872655 -0.070484
v 1.626844 2.872655 0.710962
v 1.626844 2.872655 0.320239
v 1.626844 2.872655 -0.070484
v 1.823664 2.872655 0.710961
v 1.823664 2.872655 0.320239
v 1.823664 2.872655 -0.070484
v -2.557823 2.872655 -2.000000
v -2.586946 0.929245 -2.000000
v -2.611216 -0.690251 -2.000000
v -2.623351 -1.500000 -2.000000
v -2.562070 2.589240 -2.000000
v -2.566318 2.305825 -2.000000
v -2.570564 2.022409 -2.000000
v -2.574811 1.738994 -2.000000
v -2.725661 -1.500000 -1.615302
v -2.599082 0.119497 -2.000000
v -2.737092 -1.500000 -1.572324
v -2.840602 2.872655 -0.936724
v -2.725277 2.872655 -0.845905
v -2.550858 2.872655 -0.708548
v 1.549361 2.872656 2.520427
v 1.430024 2.872655 2.426449
v -0.022957 2.872655 1.282207
v 0.223458 2.872655 1.476264
v 1.233204 2.872655 2.271451
v 0.605123 2.872655 1.776829
v 0.291083 2.872655 1.529520
v 0.699107 2.872655 1.850842
v 0.919164 2.872655 2.024140
v 1.174753 2.872655 2.225421
v -2.236780 2.872655 -0.461207
v -1.264885 2.872655 0.304173
v -1.693542 2.872655 -0.033399
v -1.244484 2.872656 0.320239
v -1.740634 2.872655 -0.070484
v -2.122200 2.872655 -0.370974
v -0.954402 2.872655 0.548682
v -0.333439 2.872655 1.037699
v -0.252189 2.872655 1.101684
v -0.643921 2.872655 0.793190
v -0.748336 2.872655 0.710962
v -2.660134 2.872655 -1.615302
v -2.762444 2.872655 -1.230604
v 1.850368 -1.500000 2.378757
v 1.823664 -1.500000 2.355758
v 1.626844 -1.500000 2.186241
v 1.672335 -1.500000 2.225421
v 1.430024 -1.500000 2.016724
v 0.367604 -1.500000 1.101684
v -0.022957 -1.500000 0.765303
v 0.291083 -1.500000 1.035779
v 0.802515 -1.500000 1.476264
v 0.919164 -1.500000 1.576730
v 0.605124 -1.500000 1.306254
v 1.233204 -1.500000 1.847207
v 1.237426 -1.500000 1.850842
v -2.340333 -1.500000 -1.230603
v -1.693542 -1.500000 -0.673538
v -1.447013 -1.500000 -0.461207
v -1.893672 -1.500000 -0.845905
v -2.122200 -1.500000 -1.042732
v -1.264885 -1.500000 -0.304344
v -0.954403 -1.500000 -0.036932
v -0.993359 -1.500000 -0.070484
v -0.643921 -1.500000 0.230479
v -0.539705 -1.500000 0.320239
v -0.333439 -1.500000 0.497890
v -0.086051 -1.500000 0.710961
v -2.550858 -1.500000 -1.411925
v 2.020484 2.872655 2.292798
v 1.823664 2.872655 2.387895
v 1.626844 2.872655 2.482990
v 2.020484 -1.500000 2.296564
v 2.020484 2.589240 2.293043
v 2.020484 2.305825 2.293287
v 2.020484 2.022409 2.293531
v 2.020484 0.119497 2.295169
v 2.020484 -0.690252 2.295867
v 2.020484 1.738994 2.293775
v 2.020484 0.929245 2.294472
vn -0.0000 -1.0000 -0.0000
vn -0.0000 -0.0000 1.0000
vn -0.0000 1.0000 -0.0000
vn -1.0000 -0.0000 -0.0000
vt 0.573242 0.857006
vt 0.541268 0.845769
vt 0.558752 0.841548
vt 0.590860 0.852482
vt 0.511343 0.835252
vt 0.528674 0.831304
vt 0.575760 0.837441
vt 0.607983 0.848086
vt 0.545548 0.827460
vt 0.589214 0.874047
vt 0.555107 0.861663
vt 0.607481 0.869040
vt 0.523289 0.850110
vt 0.493537 0.839307
vt 0.465656 0.829184
vt 0.483275 0.825387
vt 0.500438 0.821688
vt 0.517163 0.818083
vt 0.533465 0.814570
vt 0.561983 0.823717
vt 0.592313 0.833445
vt 0.624631 0.843811
vt 0.642422 0.859463
vt 0.659141 0.854880
vt 0.625209 0.864181
vt 0.484989 0.532155
vt 0.485699 0.410616
vt 0.502742 0.412276
vt 0.502067 0.532250
vt 0.486407 0.289451
vt 0.503416 0.292665
vt 0.519352 0.413893
vt 0.518711 0.532343
vt 0.519992 0.295798
vt 0.466709 0.655588
vt 0.467459 0.532057
vt 0.484276 0.654070
vt 0.468206 0.408913
vt 0.468950 0.286152
vt 0.469693 0.163773
vt 0.487113 0.168658
vt 0.504087 0.173418
vt 0.520630 0.178057
vt 0.536759 0.182580
vt 0.536153 0.298853
vt 0.535545 0.415470
vt 0.534936 0.532433
vt 0.518067 0.651149
vt 0.534324 0.649745
vt 0.501390 0.652591
vt 0.826206 0.034315
vt 0.879013 0.013394
vt 0.896176 0.023098
vt 0.843604 0.043253
vt 0.904516 0.003290
vt 0.947429 0.003448
vt 0.912718 0.032450
vt 0.860397 0.051880
vt 0.957157 0.003504
vt 0.969597 0.011327
vt 0.759450 0.045017
vt 0.808171 0.025049
vt 0.777609 0.053568
vt 0.860678 0.003530
vt 0.861575 0.003535
vt 0.991191 0.003308
vt 0.997086 0.003273
vt 0.996868 0.016914
vt 0.985177 0.021124
vt 0.928671 0.041469
vt 0.876615 0.060212
vt 0.812107 0.069813
vt 0.828505 0.077535
vt 0.795151 0.061829
vt 0.625183 0.707929
vt 0.624999 0.753171
vt 0.592704 0.745691
vt 0.592900 0.701888
vt 0.624815 0.798465
vt 0.592509 0.789544
vt 0.562396 0.738672
vt 0.562602 0.696218
vt 0.562190 0.781171
vt 0.659820 0.667656
vt 0.659650 0.714379
vt 0.625366 0.662738
vt 0.659481 0.761157
vt 0.659311 0.807990
vt 0.533680 0.773299
vt 0.533895 0.732071
vt 0.534110 0.690886
vt 0.562808 0.653810
vt 0.593096 0.658132
vt 0.626929 0.277505
vt 0.626410 0.405498
vt 0.594208 0.409032
vt 0.594762 0.285070
vt 0.625889 0.533908
vt 0.593653 0.533386
vt 0.563979 0.412349
vt 0.564562 0.292172
vt 0.563394 0.532895
vt 0.661740 0.137580
vt 0.661262 0.269431
vt 0.627447 0.149927
vt 0.660783 0.401726
vt 0.660302 0.534467
vt 0.565143 0.172361
vt 0.595314 0.161497
vt 0.483526 0.782488
vt 0.483776 0.739635
vt 0.500915 0.737049
vt 0.500677 0.779346
vt 0.484026 0.696829
vt 0.501152 0.694797
vt 0.517615 0.734528
vt 0.517389 0.776284
vt 0.517841 0.692817
vt 0.465920 0.785714
vt 0.466183 0.742291
vt 0.466446 0.698916
vt 0.005372 0.870092
vt 0.006065 0.811735
vt 0.073425 0.801569
vt 0.072806 0.857737
vt 0.006757 0.753464
vt 0.074043 0.745479
vt 0.135935 0.792134
vt 0.135381 0.846273
vt 0.136488 0.738069
vt 0.007447 0.695278
vt 0.074661 0.689470
vt 0.137041 0.684079
vt 0.195091 0.679062
vt 0.194596 0.731174
vt 0.194100 0.783356
vt 0.193603 0.835606
vt 0.134826 0.900486
vt 0.193106 0.887925
vt 0.072186 0.913986
vt 0.004678 0.928535
vt 0.009416 0.529507
vt 0.011376 0.364429
vt 0.078172 0.370933
vt 0.076420 0.529880
vt 0.013328 0.200041
vt 0.079918 0.212626
vt 0.140184 0.376972
vt 0.138616 0.530226
vt 0.141747 0.224312
vt 0.015272 0.036338
vt 0.081656 0.054954
vt 0.143303 0.072242
vt 0.200704 0.088339
vt 0.199308 0.235190
vt 0.197908 0.382593
vt 0.196502 0.530549
vt 0.062385 0.988184
vt 0.041375 0.966467
vt 0.113363 0.949086
vt 0.136811 0.969073
vt 0.022217 0.946665
vt 0.091902 0.930792
vt 0.179719 0.933064
vt 0.205156 0.951524
vt 0.156357 0.916110
vt 0.216150 0.902491
vt 0.241079 0.918249
vt 0.268135 0.935352
vt 0.232957 0.971699
vt 0.297603 0.953979
vt 0.162536 0.991001
vt 0.985263 0.193237
vt 0.985350 0.366107
vt 0.928598 0.372335
vt 0.928634 0.206554
vt 0.985436 0.539740
vt 0.928561 0.538818
vt 0.876334 0.378071
vt 0.876475 0.218820
vt 0.876193 0.537968
vt 0.985523 0.714141
vt 0.928524 0.706006
vt 0.876050 0.698517
vt 0.827585 0.691600
vt 0.827816 0.537184
vt 0.828047 0.383370
vt 0.828276 0.230155
vt 0.985554 0.775365
vt 0.985585 0.836683
vt 0.928498 0.823462
vt 0.928511 0.764690
vt 0.985615 0.898096
vt 0.928485 0.882320
vt 0.875951 0.811292
vt 0.876001 0.754864
vt 0.875901 0.867800
vt 0.985646 0.959605
vt 0.928472 0.941266
vt 0.875850 0.924388
vt 0.827259 0.908803
vt 0.827341 0.854390
vt 0.827422 0.800052
vt 0.827504 0.745789
vt 0.647787 0.105002
vt 0.687739 0.089174
vt 0.705368 0.096250
vt 0.665379 0.111581
vt 0.730880 0.072082
vt 0.748497 0.079715
vt 0.722451 0.103108
vt 0.682446 0.117964
vt 0.765547 0.087104
vt 0.592640 0.113384
vt 0.629646 0.098217
vt 0.610683 0.119702
vt 0.669538 0.081867
vt 0.712669 0.064190
vt 0.782058 0.094258
vt 0.739014 0.109757
vt 0.699011 0.124160
vt 0.645211 0.131792
vt 0.628199 0.125835
vt 0.936481 0.984670
vt 0.878200 0.964187
vt 0.895583 0.956261
vt 0.953509 0.975989
vt 0.824814 0.945423
vt 0.842435 0.938161
vt 0.912328 0.948627
vt 0.969885 0.967640
vt 0.859436 0.931153
vt 0.918763 0.993703
vt 0.860143 0.972419
vt 0.806538 0.952956
vt 0.757331 0.935089
vt 0.775730 0.928173
vt 0.793497 0.921494
vt 0.810663 0.915041
vt 0.381858 0.005543
vt 0.385025 0.003451
vt 0.452194 0.003353
vt 0.423179 0.020997
vt 0.474151 0.003432
vt 0.500483 0.014003
vt 0.462176 0.035582
vt 0.305299 0.012765
vt 0.318426 0.003280
vt 0.376355 0.003485
vt 0.348185 0.027783
vt 0.519534 0.003271
vt 0.572520 0.003459
vt 0.580206 0.006790
vt 0.537857 0.029006
vt 0.499040 0.049369
vt 0.427019 0.055388
vt 0.463330 0.068103
vt 0.388695 0.041968
vt 0.233308 0.828331
vt 0.233767 0.777369
vt 0.271533 0.771669
vt 0.271109 0.821406
vt 0.234225 0.726472
vt 0.271956 0.721994
vt 0.307530 0.766236
vt 0.307139 0.814804
vt 0.307922 0.717727
vt 0.232849 0.879359
vt 0.234682 0.675640
vt 0.272379 0.672382
vt 0.308313 0.669277
vt 0.342605 0.666313
vt 0.342244 0.713654
vt 0.341882 0.761051
vt 0.341520 0.808505
vt 0.306746 0.863433
vt 0.341157 0.856017
vt 0.270684 0.871205
vt 0.235987 0.530768
vt 0.237286 0.386427
vt 0.274785 0.390078
vt 0.273584 0.530978
vt 0.238580 0.242613
vt 0.275982 0.249681
vt 0.310538 0.393560
vt 0.309427 0.531177
vt 0.311645 0.256422
vt 0.239870 0.099323
vt 0.277175 0.109784
vt 0.312748 0.119760
vt 0.346706 0.129283
vt 0.345686 0.262855
vt 0.344663 0.396883
vt 0.343636 0.531368
vt 0.310750 0.924409
vt 0.282714 0.908196
vt 0.322196 0.898664
vt 0.351071 0.914055
vt 0.256826 0.893226
vt 0.295478 0.884421
vt 0.359688 0.889611
vt 0.389280 0.904244
vt 0.332252 0.876045
vt 0.341212 0.942026
vt 0.367282 0.868066
vt 0.395336 0.881004
vt 0.425539 0.894934
vt 0.421295 0.920074
vt 0.458148 0.909973
vt 0.382376 0.930742
vt 0.708751 0.993260
vt 0.659347 0.971922
vt 0.693975 0.958905
vt 0.743399 0.978979
vt 0.726579 0.946649
vt 0.775932 0.965570
vt 0.829836 0.986237
vt 0.534329 0.062568
vt 0.573549 0.043334
vt 0.607292 0.056880
vt 0.567767 0.075074
vt 0.616233 0.022401
vt 0.650209 0.037124
vt 0.639242 0.069705
vt 0.599497 0.086941
vt 0.682304 0.051032
vt 0.498167 0.080302
vt 0.586657 0.003405
vt 0.654996 0.003392
vt 0.671173 0.003449
vt 0.696973 0.015598
vt 0.729114 0.030732
vt 0.562698 0.102899
vt 0.531247 0.091885
vt 0.374730 0.802421
vt 0.375065 0.756043
vt 0.406781 0.751256
vt 0.406471 0.796605
vt 0.375399 0.709720
vt 0.407089 0.705959
vt 0.437124 0.746677
vt 0.436839 0.791042
vt 0.437409 0.702361
vt 0.374395 0.848853
vt 0.375733 0.663450
vt 0.407398 0.660714
vt 0.437694 0.658095
vt 0.436553 0.835456
vt 0.406162 0.842007
vt 0.777982 0.009540
vt 0.792283 0.003339
vt 0.723703 0.003293
vt 0.766072 0.003422
vt 0.376685 0.531552
vt 0.377634 0.400093
vt 0.409154 0.403162
vt 0.408277 0.531728
vt 0.378580 0.269072
vt 0.410027 0.275015
vt 0.439315 0.406099
vt 0.438506 0.531896
vt 0.440122 0.280703
vt 0.379522 0.138486
vt 0.410898 0.147285
vt 0.440927 0.155706
vt 0.460377 0.885988
vt 0.429653 0.872718
vt 0.462344 0.864825
vt 0.493504 0.877482
vt 0.401064 0.860371
vt 0.433299 0.853028
vt 0.493521 0.857298
vt 0.525044 0.869383
vt 0.464092 0.846014
vt 0.493484 0.900287
vt 0.558890 0.882359
vt 0.527021 0.891095
vt 0.612323 0.951613
vt 0.569322 0.933041
vt 0.603554 0.922180
vt 0.646803 0.939746
vt 0.529848 0.915992
vt 0.563759 0.906017
vt 0.635948 0.911902
vt 0.679352 0.928543
vt 0.595920 0.896556
vt 0.622500 0.985773
vt 0.575736 0.964205
vt 0.533089 0.944536
vt 0.494039 0.926526
vt 0.626462 0.887572
vt 0.666647 0.902162
vt 0.710129 0.917950
vt 0.406120 0.125442
vt 0.434614 0.111468
vt 0.466882 0.121514
vt 0.437948 0.134833
vt 0.465216 0.096461
vt 0.497903 0.107234
vt 0.497670 0.131099
vt 0.468365 0.143807
vt 0.529039 0.117495
vt 0.372780 0.115605
vt 0.400758 0.100928
vt 0.430857 0.085138
vt 0.558731 0.127281
vt 0.527078 0.140254
vt 0.497462 0.152392
vt 0.411992 0.982957
vt 0.374975 0.961550
vt 0.416987 0.949192
vt 0.454832 0.969365
vt 0.496387 0.991516
vt 0.495124 0.956582
vt 0.537297 0.977435
vt 0.456609 0.937536
vt 0.330348 0.974678
vt 0.263869 0.083472
vt 0.289759 0.066372
vt 0.328652 0.078480
vt 0.301962 0.094711
vt 0.317774 0.047869
vt 0.357475 0.060953
vt 0.365605 0.089984
vt 0.338222 0.105409
vt 0.395117 0.073359
vt 0.223801 0.071650
vt 0.248768 0.053611
vt 0.275841 0.034049
vt 0.515063 0.157585
vt 0.544846 0.145785
vt 0.562128 0.151166
vt 0.532198 0.162640
vt 0.576648 0.133186
vt 0.594059 0.138924
vt 0.578945 0.156401
vt 0.548886 0.167564
vt 0.610986 0.144502
vt 0.033067 0.015376
vt 0.043332 0.003284
vt 0.087202 0.003312
vt 0.123176 0.014512
vt 0.101546 0.035580
vt 0.188401 0.034817
vt 0.164942 0.054285
vt 0.134705 0.003282
vt 0.182575 0.003312
vt 0.213918 0.013642
vt 0.226400 0.003283
vt 0.278310 0.003314
vt 0.263969 0.994204
vt 0.781751 0.241096
vt 0.781443 0.388484
vt 0.738266 0.393223
vt 0.738640 0.251234
vt 0.781134 0.536426
vt 0.737890 0.535725
vt 0.698151 0.397625
vt 0.698582 0.260655
vt 0.697718 0.535073
vt 0.780823 0.684926
vt 0.737513 0.678744
vt 0.697284 0.673003
vt 0.780714 0.737033
vt 0.780605 0.789209
vt 0.737248 0.779168
vt 0.737380 0.728924
vt 0.780496 0.841455
vt 0.737115 0.829475
vt 0.696979 0.769841
vt 0.697131 0.721392
vt 0.696826 0.818350
vt 0.780387 0.893769
vt 0.736982 0.879847
vt 0.696674 0.866918
vt 0.728577 0.911600
vt 0.685081 0.896313
vt 0.702931 0.890650
vt 0.746417 0.905460
vt 0.644833 0.882168
vt 0.662641 0.876929
vt 0.720222 0.885164
vt 0.763678 0.899520
vt 0.679914 0.871848
vt 0.070649 0.996727
vt 0.029281 0.996685
vt 0.003201 0.198127
vt 0.003148 0.032938
vt 0.913214 0.996532
vt 0.857186 0.996722
vt 0.002951 0.951053
vt 0.003492 0.928791
vt 0.002691 0.975807
vt 0.970765 0.996719
vt 0.926673 0.996576
vt 0.996867 0.190508
vt 0.002809 0.006448
vt 0.002862 0.003205
vt 0.002885 0.996880
vt 0.003439 0.812131
vt 0.003414 0.753860
vt 0.169191 0.996674
vt 0.141953 0.996643
vt 0.996864 0.539926
vt 0.996862 0.715760
vt 0.003389 0.695629
vt 0.003321 0.529473
vt 0.786835 0.996621
vt 0.716467 0.996592
vt 0.506033 0.996658
vt 0.481714 0.996566
vt 0.003466 0.870441
vt 0.996861 0.901202
vt 0.996860 0.963202
vt 0.807199 0.996558
vt 0.003258 0.363639
vt 0.997089 0.990831
vt 0.996874 0.996671
vt 0.700789 0.996541
vt 0.646248 0.996725
vt 0.996865 0.364843
vt 0.364873 0.996501
vt 0.267220 0.996563
vt 0.255992 0.996551
vt 0.996862 0.777481
vt 0.369352 0.996486
vt 0.997153 0.976648
vt 0.996861 0.839295
vt 0.576080 0.996612
vt 0.593835 0.996548
vt 0.435826 0.996741
s 0
f 193/1/1 194/2/1 197/3/1 196/4/1
f 194/2/1 195/5/1 198/6/1 197/3/1
f 196/4/1 197/3/1 200/7/1 199/8/1
f 197/3/1 198/6/1 201/9/1 200/7/1
f 27/10/1 166/11/1 193/1/1 190/12/1
f 166/11/1 165/13/1 194/2/1 193/1/1
f 165/13/1 164/14/1 195/5/1 194/2/1
f 164/14/1 14/15/1 31/16/1 195/5/1
f 195/5/1 31/16/1 32/17/1 198/6/1
f 198/6/1 32/17/1 33/18/1 201/9/1
f 201/9/1 33/18/1 2/19/1 149/20/1
f 200/7/1 201/9/1 149/20/1 150/21/1
f 199/8/1 200/7/1 150/21/1 151/22/1
f 192/23/1 199/8/1 151/22/1 22/24/1
f 191/25/1 196/4/1 199/8/1 192/23/1
f 190/12/1 193/1/1 196/4/1 191/25/1
f 202/26/2 203/27/2 206/28/2 205/29/2
f 203/27/2 204/30/2 207/31/2 206/28/2
f 205/29/2 206/28/2 209/32/2 208/33/2
f 206/28/2 207/31/2 210/34/2 209/32/2
f 15/35/2 139/36/2 202/26/2 49/37/2
f 139/36/2 138/38/2 203/27/2 202/26/2
f 138/38/2 137/39/2 204/30/2 203/27/2
f 137/39/2 18/40/2 126/41/2 204/30/2
f 204/30/2 126/41/2 125/42/2 207/31/2
f 207/31/2 125/42/2 124/43/2 210/34/2
f 210/34/2 124/43/2 1/44/2 43/45/2
f 209/32/2 210/34/2 43/45/2 44/46/2
f 208/33/2 209/32/2 44/46/2 45/47/2
f 51/48/2 208/33/2 45/47/2 3/49/2
f 50/50/2 205/29/2 208/33/2 51/48/2
f 49/37/2 202/26/2 205/29/2 50/50/2
f 211/51/3 212/52/3 214/53/3 213/54/3
f 212/52/3 499/55/3 497/56/3 214/53/3
f 213/54/3 214/53/3 216/57/3 215/58/3
f 214/53/3 497/56/3 498/59/3 217/60/3 216/57/3
f 16/61/3 136/62/3 211/51/3 86/63/3
f 136/62/3 506/64/3 507/65/3 212/52/3 211/51/3
f 217/60/3 496/66/3 495/67/3 524/68/3 70/69/3
f 216/57/3 217/60/3 70/69/3 71/70/3
f 215/58/3 216/57/3 71/70/3 72/71/3
f 88/72/3 215/58/3 72/71/3 7/73/3
f 87/74/3 213/54/3 215/58/3 88/72/3
f 86/63/3 211/51/3 213/54/3 87/74/3
f 218/75/4 219/76/4 222/77/4 221/78/4
f 219/76/4 220/79/4 223/80/4 222/77/4
f 221/78/4 222/77/4 225/81/4 224/82/4
f 222/77/4 223/80/4 226/83/4 225/81/4
f 20/84/4 189/85/4 218/75/4 46/86/4
f 189/85/4 188/87/4 219/76/4 218/75/4
f 188/87/4 187/88/4 220/79/4 219/76/4
f 187/88/4 22/24/4 151/22/4 220/79/4
f 220/79/4 151/22/4 150/21/4 223/80/4
f 223/80/4 150/21/4 149/20/4 226/83/4
f 226/83/4 149/20/4 2/19/4 39/89/4
f 225/81/4 226/83/4 39/89/4 38/90/4
f 224/82/4 225/81/4 38/90/4 37/91/4
f 48/92/4 224/82/4 37/91/4 3/49/4
f 47/93/4 221/78/4 224/82/4 48/92/4
f 46/86/4 218/75/4 221/78/4 47/93/4
f 227/94/4 228/95/4 231/96/4 230/97/4
f 228/95/4 229/98/4 232/99/4 231/96/4
f 230/97/4 231/96/4 234/100/4 233/101/4
f 231/96/4 232/99/4 235/102/4 234/100/4
f 19/103/4 186/104/4 227/94/4 28/105/4
f 186/104/4 185/106/4 228/95/4 227/94/4
f 185/106/4 184/107/4 229/98/4 228/95/4
f 184/107/4 20/84/4 46/86/4 229/98/4
f 229/98/4 46/86/4 47/93/4 232/99/4
f 232/99/4 47/93/4 48/92/4 235/102/4
f 235/102/4 48/92/4 3/49/4 45/47/4
f 234/100/4 235/102/4 45/47/4 44/46/4
f 233/101/4 234/100/4 44/46/4 43/45/4
f 30/108/4 233/101/4 43/45/4 1/44/4
f 29/109/4 230/97/4 233/101/4 30/108/4
f 28/105/4 227/94/4 230/97/4 29/109/4
f 236/110/2 237/111/2 240/112/2 239/113/2
f 237/111/2 238/114/2 241/115/2 240/112/2
f 239/113/2 240/112/2 243/116/2 242/117/2
f 240/112/2 241/115/2 244/118/2 243/116/2
f 14/15/2 135/119/2 236/110/2 31/16/2
f 135/119/2 134/120/2 237/111/2 236/110/2
f 134/120/2 133/121/2 238/114/2 237/111/2
f 133/121/2 15/35/2 49/37/2 238/114/2
f 238/114/2 49/37/2 50/50/2 241/115/2
f 241/115/2 50/50/2 51/48/2 244/118/2
f 244/118/2 51/48/2 3/49/2 37/91/2
f 243/116/2 244/118/2 37/91/2 38/90/2
f 242/117/2 243/116/2 38/90/2 39/89/2
f 33/18/2 242/117/2 39/89/2 2/19/2
f 32/17/2 239/113/2 242/117/2 33/18/2
f 31/16/2 236/110/2 239/113/2 32/17/2
f 245/122/2 246/123/2 249/124/2 248/125/2
f 246/123/2 247/126/2 250/127/2 249/124/2
f 248/125/2 249/124/2 252/128/2 251/129/2
f 249/124/2 250/127/2 253/130/2 252/128/2
f 247/126/2 58/131/2 59/132/2 250/127/2
f 250/127/2 59/132/2 60/133/2 253/130/2
f 253/130/2 60/133/2 6/134/2 61/135/2
f 252/128/2 253/130/2 61/135/2 62/136/2
f 251/129/2 252/128/2 62/136/2 63/137/2
f 54/138/2 251/129/2 63/137/2 4/139/2
f 53/140/2 248/125/2 251/129/2 54/138/2
f 52/141/2 245/122/2 248/125/2 53/140/2
f 254/142/2 255/143/2 258/144/2 257/145/2
f 255/143/2 256/146/2 259/147/2 258/144/2
f 257/145/2 258/144/2 261/148/2 260/149/2
f 258/144/2 259/147/2 262/150/2 261/148/2
f 256/146/2 42/151/2 41/152/2 259/147/2
f 259/147/2 41/152/2 40/153/2 262/150/2
f 262/150/2 40/153/2 5/154/2 67/155/2
f 261/148/2 262/150/2 67/155/2 68/156/2
f 260/149/2 261/148/2 68/156/2 69/157/2
f 60/133/2 260/149/2 69/157/2 6/134/2
f 59/132/2 257/145/2 260/149/2 60/133/2
f 58/131/2 254/142/2 257/145/2 59/132/2
f 263/158/1 264/159/1 267/160/1 266/161/1
f 264/159/1 265/162/1 268/163/1 267/160/1
f 266/161/1 267/160/1 270/164/1 269/165/1
f 267/160/1 268/163/1 271/166/1 270/164/1
f 265/162/1 52/141/1 53/140/1 268/163/1
f 268/163/1 53/140/1 54/138/1 271/166/1
f 271/166/1 54/138/1 4/139/1 152/167/1
f 270/164/1 271/166/1 152/167/1 153/168/1
f 269/165/1 270/164/1 153/168/1 154/169/1
f 183/170/1 269/165/1 154/169/1 23/171/1
f 182/172/1 266/161/1 269/165/1 183/170/1
f 272/173/4 273/174/4 276/175/4 275/176/4
f 273/174/4 274/177/4 277/178/4 276/175/4
f 275/176/4 276/175/4 279/179/4 278/180/4
f 276/175/4 277/178/4 280/181/4 279/179/4
f 274/177/4 76/182/4 77/183/4 277/178/4
f 277/178/4 77/183/4 78/184/4 280/181/4
f 280/181/4 78/184/4 9/185/4 80/186/4
f 279/179/4 280/181/4 80/186/4 81/187/4
f 278/180/4 279/179/4 81/187/4 82/188/4
f 72/71/4 278/180/4 82/188/4 7/73/4
f 71/70/4 275/176/4 278/180/4 72/71/4
f 70/69/4 272/173/4 275/176/4 71/70/4
f 281/189/4 282/190/4 285/191/4 284/192/4
f 282/190/4 283/193/4 286/194/4 285/191/4
f 284/192/4 285/191/4 288/195/4 287/196/4
f 285/191/4 286/194/4 289/197/4 288/195/4
f 283/193/4 36/198/4 35/199/4 286/194/4
f 286/194/4 35/199/4 34/200/4 289/197/4
f 289/197/4 34/200/4 8/201/4 83/202/4
f 288/195/4 289/197/4 83/202/4 84/203/4
f 287/196/4 288/195/4 84/203/4 85/204/4
f 78/184/4 287/196/4 85/204/4 9/185/4
f 77/183/4 284/192/4 287/196/4 78/184/4
f 76/182/4 281/189/4 284/192/4 77/183/4
f 290/205/3 291/206/3 294/207/3 293/208/3
f 291/206/3 292/209/3 295/210/3 294/207/3
f 293/208/3 294/207/3 297/211/3 296/212/3
f 294/207/3 295/210/3 298/213/3 297/211/3
f 26/214/3 163/215/3 290/205/3 179/216/3
f 163/215/3 162/217/3 291/206/3 290/205/3
f 162/217/3 161/218/3 292/209/3 291/206/3
f 161/218/3 16/61/3 86/63/3 292/209/3
f 292/209/3 86/63/3 87/74/3 295/210/3
f 295/210/3 87/74/3 88/72/3 298/213/3
f 298/213/3 88/72/3 7/73/3 143/219/3
f 297/211/3 298/213/3 143/219/3 144/220/3
f 296/212/3 297/211/3 144/220/3 145/221/3
f 181/222/3 296/212/3 145/221/3 19/103/3
f 180/223/3 293/208/3 296/212/3 181/222/3
f 179/216/3 290/205/3 293/208/3 180/223/3
f 299/224/1 300/225/1 303/226/1 302/227/1
f 300/225/1 301/228/1 304/229/1 303/226/1
f 302/227/1 303/226/1 306/230/1 305/231/1
f 303/226/1 304/229/1 307/232/1 306/230/1
f 129/233/1 128/234/1 300/225/1 299/224/1
f 128/234/1 127/235/1 301/228/1 300/225/1
f 127/235/1 17/236/1 89/237/1 301/228/1
f 301/228/1 89/237/1 90/238/1 304/229/1
f 304/229/1 90/238/1 91/239/1 307/232/1
f 307/232/1 91/239/1 8/201/1 34/200/1
f 306/230/1 307/232/1 34/200/1 35/199/1
f 305/231/1 306/230/1 35/199/1 36/198/1
f 308/240/3 514/241/3 516/242/3 309/243/3
f 309/243/3 516/242/3 517/244/3 311/245/3 310/246/3
f 21/247/3 513/248/3 515/249/3 308/240/3 176/250/3
f 311/245/3 518/251/3 519/252/3 155/253/3 156/254/3
f 310/246/3 311/245/3 156/254/3 157/255/3
f 178/256/3 310/246/3 157/255/3 24/257/3
f 177/258/3 309/243/3 310/246/3 178/256/3
f 176/250/3 308/240/3 309/243/3 177/258/3
f 312/259/2 313/260/2 316/261/2 315/262/2
f 313/260/2 314/263/2 317/264/2 316/261/2
f 315/262/2 316/261/2 319/265/2 318/266/2
f 316/261/2 317/264/2 320/267/2 319/265/2
f 4/139/2 63/137/2 312/259/2 92/268/2
f 63/137/2 62/136/2 313/260/2 312/259/2
f 62/136/2 61/135/2 314/263/2 313/260/2
f 61/135/2 6/134/2 95/269/2 314/263/2
f 314/263/2 95/269/2 96/270/2 317/264/2
f 317/264/2 96/270/2 97/271/2 320/267/2
f 320/267/2 97/271/2 11/272/2 104/273/2
f 319/265/2 320/267/2 104/273/2 105/274/2
f 318/266/2 319/265/2 105/274/2 106/275/2
f 94/276/2 318/266/2 106/275/2 10/277/2
f 93/278/2 315/262/2 318/266/2 94/276/2
f 92/268/2 312/259/2 315/262/2 93/278/2
f 321/279/2 322/280/2 325/281/2 324/282/2
f 322/280/2 323/283/2 326/284/2 325/281/2
f 324/282/2 325/281/2 328/285/2 327/286/2
f 325/281/2 326/284/2 329/287/2 328/285/2
f 6/134/2 69/157/2 321/279/2 95/269/2
f 69/157/2 68/156/2 322/280/2 321/279/2
f 68/156/2 67/155/2 323/283/2 322/280/2
f 67/155/2 5/154/2 57/288/2 323/283/2
f 323/283/2 57/288/2 56/289/2 326/284/2
f 326/284/2 56/289/2 55/290/2 329/287/2
f 329/287/2 55/290/2 12/291/2 107/292/2
f 328/285/2 329/287/2 107/292/2 108/293/2
f 327/286/2 328/285/2 108/293/2 109/294/2
f 97/271/2 327/286/2 109/294/2 11/272/2
f 96/270/2 324/282/2 327/286/2 97/271/2
f 95/269/2 321/279/2 324/282/2 96/270/2
f 330/295/1 331/296/1 334/297/1 333/298/1
f 331/296/1 332/299/1 335/300/1 334/297/1
f 333/298/1 334/297/1 337/301/1 336/302/1
f 334/297/1 335/300/1 338/303/1 337/301/1
f 23/171/1 154/169/1 330/295/1 173/304/1
f 154/169/1 153/168/1 331/296/1 330/295/1
f 153/168/1 152/167/1 332/299/1 331/296/1
f 152/167/1 4/139/1 92/268/1 332/299/1
f 332/299/1 92/268/1 93/278/1 335/300/1
f 335/300/1 93/278/1 94/276/1 338/303/1
f 338/303/1 94/276/1 10/277/1 158/305/1
f 337/301/1 338/303/1 158/305/1 159/306/1
f 336/302/1 337/301/1 159/306/1 160/307/1
f 175/308/1 336/302/1 160/307/1 25/309/1
f 174/310/1 333/298/1 336/302/1 175/308/1
f 173/304/1 330/295/1 333/298/1 174/310/1
f 339/311/1 121/312/1 122/313/1 340/314/1
f 340/314/1 122/313/1 123/315/1 342/316/1
f 342/316/1 123/315/1 17/236/1 127/235/1
f 341/317/1 342/316/1 127/235/1 128/234/1
f 343/318/3 344/319/3 347/320/3 346/321/3
f 344/319/3 345/322/3 348/323/3 347/320/3
f 346/321/3 347/320/3 350/324/3 349/325/3
f 347/320/3 348/323/3 351/326/3 350/324/3
f 24/257/3 157/255/3 343/318/3 170/327/3
f 157/255/3 156/254/3 344/319/3 343/318/3
f 156/254/3 155/253/3 345/322/3 344/319/3
f 155/253/3 501/328/3 502/329/3 345/322/3
f 345/322/3 502/329/3 500/330/3 119/331/3 348/323/3
f 348/323/3 119/331/3 120/332/3 351/326/3
f 351/326/3 120/332/3 16/61/3 161/218/3
f 350/324/3 351/326/3 161/218/3 162/217/3
f 349/325/3 350/324/3 162/217/3 163/215/3
f 172/333/3 349/325/3 163/215/3 26/214/3
f 171/334/3 346/321/3 349/325/3 172/333/3
f 170/327/3 343/318/3 346/321/3 171/334/3
f 352/335/2 353/336/2 356/337/2 355/338/2
f 353/336/2 354/339/2 357/340/2 356/337/2
f 355/338/2 356/337/2 359/341/2 358/342/2
f 356/337/2 357/340/2 360/343/2 359/341/2
f 10/277/2 106/275/2 352/335/2 113/344/2
f 106/275/2 105/274/2 353/336/2 352/335/2
f 105/274/2 104/273/2 354/339/2 353/336/2
f 104/273/2 11/272/2 116/345/2 354/339/2
f 354/339/2 116/345/2 117/346/2 357/340/2
f 357/340/2 117/346/2 118/347/2 360/343/2
f 360/343/2 118/347/2 15/35/2 133/121/2
f 359/341/2 360/343/2 133/121/2 134/120/2
f 358/342/2 359/341/2 134/120/2 135/119/2
f 115/348/2 358/342/2 135/119/2 14/15/2
f 114/349/2 355/338/2 358/342/2 115/348/2
f 113/344/2 352/335/2 355/338/2 114/349/2
f 361/350/3 504/351/3 506/64/3 136/62/3
f 120/332/3 361/350/3 136/62/3 16/61/3
f 119/331/3 505/352/3 503/353/3 361/350/3 120/332/3
f 362/354/2 363/355/2 366/356/2 365/357/2
f 363/355/2 364/358/2 367/359/2 366/356/2
f 365/357/2 366/356/2 369/360/2 368/361/2
f 366/356/2 367/359/2 370/362/2 369/360/2
f 11/272/2 109/294/2 362/354/2 116/345/2
f 109/294/2 108/293/2 363/355/2 362/354/2
f 108/293/2 107/292/2 364/358/2 363/355/2
f 107/292/2 12/291/2 100/363/2 364/358/2
f 364/358/2 100/363/2 99/364/2 367/359/2
f 367/359/2 99/364/2 98/365/2 370/362/2
f 370/362/2 98/365/2 18/40/2 137/39/2
f 369/360/2 370/362/2 137/39/2 138/38/2
f 368/361/2 369/360/2 138/38/2 139/36/2
f 118/347/2 368/361/2 139/36/2 15/35/2
f 117/346/2 365/357/2 368/361/2 118/347/2
f 116/345/2 362/354/2 365/357/2 117/346/2
f 371/366/1 372/367/1 375/368/1 374/369/1
f 372/367/1 373/370/1 376/371/1 375/368/1
f 374/369/1 375/368/1 378/372/1 377/373/1
f 375/368/1 376/371/1 379/374/1 378/372/1
f 25/309/1 160/307/1 371/366/1 167/375/1
f 160/307/1 159/306/1 372/367/1 371/366/1
f 159/306/1 158/305/1 373/370/1 372/367/1
f 158/305/1 10/277/1 113/344/1 373/370/1
f 373/370/1 113/344/1 114/349/1 376/371/1
f 376/371/1 114/349/1 115/348/1 379/374/1
f 379/374/1 115/348/1 14/15/1 164/14/1
f 378/372/1 379/374/1 164/14/1 165/13/1
f 377/373/1 378/372/1 165/13/1 166/11/1
f 169/376/1 377/373/1 166/11/1 27/10/1
f 168/377/1 374/369/1 377/373/1 169/376/1
f 167/375/1 371/366/1 374/369/1 168/377/1
f 380/378/1 381/379/1 384/380/1 383/381/1
f 381/379/1 382/382/1 385/383/1 384/380/1
f 383/381/1 384/380/1 387/384/1 386/385/1
f 384/380/1 385/383/1 388/386/1 387/384/1
f 13/387/1 112/388/1 380/378/1 121/312/1
f 112/388/1 111/389/1 381/379/1 380/378/1
f 111/389/1 110/390/1 382/382/1 381/379/1
f 110/390/1 25/309/1 167/375/1 382/382/1
f 382/382/1 167/375/1 168/377/1 385/383/1
f 385/383/1 168/377/1 169/376/1 388/386/1
f 388/386/1 169/376/1 27/10/1 140/391/1
f 387/384/1 388/386/1 140/391/1 141/392/1
f 386/385/1 387/384/1 141/392/1 142/393/1
f 123/315/1 386/385/1 142/393/1 17/236/1
f 122/313/1 383/381/1 386/385/1 123/315/1
f 121/312/1 380/378/1 383/381/1 122/313/1
f 389/394/3 390/395/3 393/396/3 392/397/3
f 390/395/3 391/398/3 394/399/3 393/396/3
f 392/397/3 393/396/3 396/400/3 395/401/3
f 393/396/3 394/399/3 397/402/3 396/400/3
f 12/291/3 103/403/3 389/394/3 100/363/3
f 103/403/3 102/404/3 390/395/3 389/394/3
f 102/404/3 101/405/3 391/398/3 390/395/3
f 101/405/3 24/257/3 170/327/3 391/398/3
f 391/398/3 170/327/3 171/334/3 394/399/3
f 394/399/3 171/334/3 172/333/3 397/402/3
f 397/402/3 172/333/3 26/214/3 130/406/3
f 396/400/3 397/402/3 130/406/3 131/407/3
f 395/401/3 396/400/3 131/407/3 132/408/3
f 98/365/3 395/401/3 132/408/3 18/40/3
f 99/364/3 392/397/3 395/401/3 98/365/3
f 100/363/3 389/394/3 392/397/3 99/364/3
f 398/409/1 399/410/1 402/411/1 401/412/1
f 400/413/1 401/412/1 404/414/1 403/415/1
f 401/412/1 402/411/1 405/416/1 404/414/1
f 79/417/1 23/171/1 173/304/1 399/410/1
f 399/410/1 173/304/1 174/310/1 402/411/1
f 402/411/1 174/310/1 175/308/1 405/416/1
f 405/416/1 175/308/1 25/309/1 110/390/1
f 404/414/1 405/416/1 110/390/1 111/389/1
f 403/415/1 404/414/1 111/389/1 112/388/1
f 406/418/3 407/419/3 410/420/3 409/421/3
f 407/419/3 408/422/3 411/423/3 410/420/3
f 409/421/3 410/420/3 413/424/3 412/425/3
f 410/420/3 411/423/3 414/426/3 413/424/3
f 5/154/3 66/427/3 406/418/3 57/288/3
f 66/427/3 65/428/3 407/419/3 406/418/3
f 65/428/3 64/429/3 408/422/3 407/419/3
f 64/429/3 21/247/3 176/250/3 408/422/3
f 408/422/3 176/250/3 177/258/3 411/423/3
f 411/423/3 177/258/3 178/256/3 414/426/3
f 414/426/3 178/256/3 24/257/3 101/405/3
f 413/424/3 414/426/3 101/405/3 102/404/3
f 412/425/3 413/424/3 102/404/3 103/403/3
f 55/290/3 412/425/3 103/403/3 12/291/3
f 56/289/3 409/421/3 412/425/3 55/290/3
f 57/288/3 406/418/3 409/421/3 56/289/3
f 415/430/3 416/431/3 419/432/3 418/433/3
f 416/431/3 417/434/3 420/435/3 419/432/3
f 418/433/3 419/432/3 422/436/3 421/437/3
f 419/432/3 420/435/3 423/438/3 422/436/3
f 18/40/3 132/408/3 415/430/3 126/41/3
f 132/408/3 131/407/3 416/431/3 415/430/3
f 131/407/3 130/406/3 417/434/3 416/431/3
f 130/406/3 26/214/3 179/216/3 417/434/3
f 417/434/3 179/216/3 180/223/3 420/435/3
f 420/435/3 180/223/3 181/222/3 423/438/3
f 423/438/3 181/222/3 19/103/3 28/105/3
f 422/436/3 423/438/3 28/105/3 29/109/3
f 421/437/3 422/436/3 29/109/3 30/108/3
f 124/43/3 421/437/3 30/108/3 1/44/3
f 125/42/3 418/433/3 421/437/3 124/43/3
f 126/41/3 415/430/3 418/433/3 125/42/3
f 424/439/3 520/440/3 508/441/3 426/442/3 425/443/3
f 425/443/3 426/442/3 428/444/3 427/445/3
f 426/442/3 512/446/3 511/447/3 429/448/3 428/444/3
f 429/448/3 509/449/3 510/450/3 21/247/3 64/429/3
f 428/444/3 429/448/3 64/429/3 65/428/3
f 427/445/3 428/444/3 65/428/3 66/427/3
f 40/153/3 427/445/3 66/427/3 5/154/3
f 41/152/3 425/443/3 427/445/3 40/153/3
f 42/151/3 424/439/3 425/443/3 41/152/3
f 430/451/1 183/170/1 23/171/1 79/417/1
f 431/452/4 432/453/4 435/454/4 434/455/4
f 432/453/4 433/456/4 436/457/4 435/454/4
f 434/455/4 435/454/4 438/458/4 437/459/4
f 435/454/4 436/457/4 439/460/4 438/458/4
f 7/73/4 82/188/4 431/452/4 143/219/4
f 82/188/4 81/187/4 432/453/4 431/452/4
f 81/187/4 80/186/4 433/456/4 432/453/4
f 80/186/4 9/185/4 146/461/4 433/456/4
f 433/456/4 146/461/4 147/462/4 436/457/4
f 436/457/4 147/462/4 148/463/4 439/460/4
f 439/460/4 148/463/4 20/84/4 184/107/4
f 438/458/4 439/460/4 184/107/4 185/106/4
f 437/459/4 438/458/4 185/106/4 186/104/4
f 145/221/4 437/459/4 186/104/4 19/103/4
f 144/220/4 434/455/4 437/459/4 145/221/4
f 143/219/4 431/452/4 434/455/4 144/220/4
f 440/464/4 441/465/4 444/466/4 443/467/4
f 441/465/4 442/468/4 445/469/4 444/466/4
f 443/467/4 444/466/4 447/470/4 446/471/4
f 444/466/4 445/469/4 448/472/4 447/470/4
f 9/185/4 85/204/4 440/464/4 146/461/4
f 85/204/4 84/203/4 441/465/4 440/464/4
f 84/203/4 83/202/4 442/468/4 441/465/4
f 83/202/4 8/201/4 75/473/4 442/468/4
f 442/468/4 75/473/4 74/474/4 445/469/4
f 445/469/4 74/474/4 73/475/4 448/472/4
f 448/472/4 73/475/4 22/24/4 187/88/4
f 447/470/4 448/472/4 187/88/4 188/87/4
f 446/471/4 447/470/4 188/87/4 189/85/4
f 148/463/4 446/471/4 189/85/4 20/84/4
f 147/462/4 443/467/4 446/471/4 148/463/4
f 146/461/4 440/464/4 443/467/4 147/462/4
f 449/476/1 450/477/1 453/478/1 452/479/1
f 450/477/1 451/480/1 454/481/1 453/478/1
f 452/479/1 453/478/1 456/482/1 455/483/1
f 453/478/1 454/481/1 457/484/1 456/482/1
f 17/236/1 142/393/1 449/476/1 89/237/1
f 142/393/1 141/392/1 450/477/1 449/476/1
f 141/392/1 140/391/1 451/480/1 450/477/1
f 140/391/1 27/10/1 190/12/1 451/480/1
f 451/480/1 190/12/1 191/25/1 454/481/1
f 454/481/1 191/25/1 192/23/1 457/484/1
f 457/484/1 192/23/1 22/24/1 73/475/1
f 456/482/1 457/484/1 73/475/1 74/474/1
f 455/483/1 456/482/1 74/474/1 75/473/1
f 91/239/1 455/483/1 75/473/1 8/201/1
f 90/238/1 452/479/1 455/483/1 91/239/1
f 89/237/1 449/476/1 452/479/1 90/238/1
f 471/485/1 470/486/1 263/158/1
f 460/487/2 461/488/2 42/151/2 256/146/2
f 481/489/1 480/490/1 341/317/1 128/234/1 129/233/1
f 493/491/1 458/492/1 52/141/1 265/162/1
f 494/493/1 493/491/1 265/162/1 264/159/1
f 473/494/1 476/495/1 129/233/1 299/224/1
f 524/68/4 529/496/4 272/173/4 70/69/4
f 466/497/3 468/498/3 520/440/3 424/439/3
f 470/486/1 469/499/1 494/493/1 264/159/1 263/158/1
f 463/500/2 464/501/2 247/126/2 246/123/2
f 511/447/3 509/449/3 429/448/3
f 487/502/1 482/503/1 182/172/1
f 531/504/4 530/505/4 76/182/4 274/177/4
f 465/506/2 459/507/2 254/142/2 58/131/2
f 477/508/1 478/509/1 339/311/1 340/314/1
f 491/510/1 492/511/1 400/413/1
f 462/512/2 463/500/2 246/123/2 245/122/2
f 525/513/4 521/514/4 36/198/4 283/193/4
f 479/515/1 477/508/1 340/314/1 342/316/1 341/317/1
f 459/507/2 467/516/2 255/143/2 254/142/2
f 523/517/1 472/518/1 473/494/1 299/224/1 302/227/1
f 475/519/1 474/520/1 13/387/1 121/312/1 339/311/1
f 529/496/4 528/521/4 273/174/4 272/173/4
f 480/490/1 479/515/1 341/317/1
f 483/522/1 484/523/1 430/451/1 79/417/1
f 484/523/1 486/524/1 430/451/1
f 530/505/4 527/525/4 281/189/4 76/182/4
f 500/330/3 505/352/3 119/331/3
f 485/526/1 483/522/1 79/417/1 399/410/1 398/409/1
f 522/527/1 523/517/1 302/227/1 305/231/1
f 476/495/1 481/489/1 129/233/1
f 526/528/4 525/513/4 283/193/4 282/190/4
f 489/529/1 491/510/1 400/413/1 403/415/1
f 490/530/1 489/529/1 403/415/1 112/388/1 13/387/1
f 515/249/3 514/241/3 308/240/3
f 464/501/2 465/506/2 58/131/2 247/126/2
f 507/65/3 499/55/3 212/52/3
f 478/509/1 475/519/1 339/311/1
f 527/525/4 526/528/4 282/190/4 281/189/4
f 508/441/3 512/446/3 426/442/3
f 467/516/2 460/487/2 256/146/2 255/143/2
f 486/524/1 487/502/1 182/172/1 183/170/1 430/451/1
f 517/244/3 518/251/3 311/245/3
f 528/521/4 531/504/4 274/177/4 273/174/4
f 488/531/1 485/526/1 398/409/1
f 492/511/1 488/531/1 398/409/1 401/412/1 400/413/1
f 482/503/1 471/485/1 263/158/1 266/161/1 182/172/1
f 521/514/1 522/527/1 305/231/1 36/198/1
f 510/450/3 513/248/3 21/247/3
f 503/353/3 504/351/3 361/350/3
f 458/492/2 462/512/2 245/122/2 52/141/2
f 474/520/1 490/530/1 13/387/1
f 519/252/3 501/328/3 155/253/3
f 498/59/3 496/66/3 217/60/3
f 461/488/3 466/497/3 424/439/3 42/151/3
o chairs
v -0.870233 -0.896195 -1.631945
v -1.106441 -0.880300 -1.416731
v -0.857829 -0.304134 -1.808369
v -0.519284 -0.896195 -1.631945
v -1.014353 -0.927339 -1.430291
v -1.014353 -0.880300 -1.128662
v -1.106441 -0.880300 -1.128662
v -1.014353 -1.503636 -0.940113
v -1.106441 -1.503636 -0.940113
v -1.106441 -1.500998 -1.595672
v -1.014353 -1.500998 -1.595672
v -0.804014 -0.926727 -1.110753
v -0.168335 -0.896195 -1.631945
v -0.189078 -0.304134 -1.808369
v -0.105407 -0.926727 -1.110753
v -0.834757 -0.888254 -1.145623
v -0.084429 -0.888254 -1.145623
v -0.824329 -0.273553 -1.900856
v -0.222578 -0.273553 -1.900856
v -0.523453 -0.304134 -1.808369
v -0.454710 -0.946525 -1.110753
v -0.459593 -0.888254 -1.145623
v -0.523453 -0.273553 -1.900856
v -0.053439 -0.896195 -1.631945
v -0.041035 -0.304134 -1.808369
v 0.297510 -0.896195 -1.631945
v 0.012780 -0.926727 -1.110753
v 0.648459 -0.896195 -1.631945
v 0.627717 -0.304134 -1.808369
v 0.711387 -0.926727 -1.110753
v -0.017963 -0.888254 -1.145623
v 0.732365 -0.888254 -1.145623
v -0.007535 -0.282637 -1.900856
v 0.594216 -0.282637 -1.900856
v 0.293341 -0.304134 -1.808369
v 0.362084 -0.946525 -1.110753
v 0.357201 -0.888254 -1.145623
v 0.293341 -0.273553 -1.900856
v 0.760236 -0.917897 -1.631945
v 0.772639 -0.304134 -1.808369
v 1.111185 -0.917897 -1.631945
v 0.866172 -0.926727 -1.110753
v 1.462133 -0.917897 -1.631945
v 1.441391 -0.304134 -1.808369
v 1.564779 -0.926727 -1.110753
v 0.835429 -0.888254 -1.145623
v 1.585757 -0.888254 -1.145623
v 0.806140 -0.273553 -1.900856
v 1.407890 -0.273553 -1.900856
v 1.107015 -0.304134 -1.808369
v 1.215476 -0.946525 -1.110753
v 1.210593 -0.888254 -1.145623
v 1.107015 -0.273553 -1.900856
v -1.014353 -0.880300 -1.416731
v 1.471456 -1.041175 -1.463109
v 1.563544 -1.043325 -1.463729
v 1.565291 -0.927186 -1.114480
v 1.473405 -0.932613 -1.112839
v 1.586766 -1.503636 -0.940113
v 1.494677 -1.503636 -0.940113
v 1.471456 -1.500998 -1.595672
v 1.563544 -1.500998 -1.595672
v 1.600106 -1.035085 -0.188383
v 1.816346 -0.896195 0.200289
v 1.257808 -0.912057 -0.096294
v 1.257808 -0.912057 -0.188383
v 1.078866 -1.503636 -0.096294
v 1.078866 -1.503636 -0.188383
v 1.734424 -1.500998 -0.188383
v 1.734424 -1.500998 -0.096294
v 2.085258 -0.273553 -0.083103
v 1.330024 -0.888254 -0.207813
v 1.304461 -0.930974 -0.168481
v 1.992771 -0.304134 -0.099711
v 1.816346 -0.896195 -0.125154
v 1.992771 -0.304134 0.200289
v 1.296565 -0.944168 0.144397
v 1.330024 -0.888254 0.174201
v 2.085258 -0.273553 0.200289
v 1.600106 -1.035085 -0.096295
v 1.816346 -0.896195 0.544621
v 1.992771 -0.304134 0.521711
v 1.304461 -0.930974 0.460956
v 1.330024 -0.888254 0.500289
v 2.085258 -0.273553 0.483681
v 1.655988 -1.049418 1.409972
v 1.291817 -0.970708 1.558669
v 1.291817 -0.970708 1.466580
v 1.130615 -1.503636 1.558669
v 1.130615 -1.503636 1.466580
v 1.786174 -1.500998 1.409972
v 1.786174 -1.500998 1.502061
v 1.657774 -1.055616 1.502061
v 1.816346 -0.896195 1.011201
v 2.085258 -0.273553 0.711201
v 1.330024 -0.888254 0.638867
v 1.309897 -0.921889 0.638867
v 1.992771 -0.304134 0.711201
v 1.816346 -0.896195 0.687984
v 1.992771 -0.304134 1.011201
v 1.295155 -0.946525 0.931183
v 1.330024 -0.888254 0.931183
v 2.085258 -0.273553 1.011201
v 1.816346 -0.896195 1.340602
v 1.992771 -0.304134 1.327102
v 1.309897 -0.921889 1.311201
v 1.330024 -0.888254 1.311201
v 2.085258 -0.273553 1.311201
v 1.872902 -0.896195 1.813977
v 2.085258 -0.273553 1.513977
v 1.330024 -0.888254 1.449904
v 1.300362 -0.915740 1.464568
v 1.992771 -0.304134 1.511333
v 1.872902 -0.896195 1.459939
v 1.992771 -0.304134 1.813977
v 1.295155 -0.946525 1.712542
v 1.330024 -0.888254 1.712542
v 2.085258 -0.273553 1.813977
v 1.872902 -0.896195 2.129563
v 1.992771 -0.304134 2.138268
v 1.305476 -0.911001 2.137173
v 1.356392 -0.888685 2.129563
v 2.085258 -0.273553 2.096211
v 1.364688 -0.888820 2.257291
v 1.316319 -0.911157 2.284229
v 1.992771 -0.304134 2.307734
v 1.891397 -0.896195 2.267291
v 1.303919 -0.931880 2.549175
v 1.330024 -0.888254 2.549175
v 1.494512 -0.987756 1.433794
v 1.454049 -0.984353 1.532427
v 1.316510 -0.912429 -0.188383
v 1.257808 -0.912057 -0.096294
v -1.106441 -0.905447 -1.332843
v -1.106441 -0.905447 -1.212550
v -1.106441 -0.955462 -1.332843
v -1.106441 -0.955462 -1.212550
v -1.053865 -0.955462 -1.212550
v -1.056422 -0.905447 -1.212550
v -1.056557 -0.905447 -1.332843
v -0.968875 -0.905447 -1.212550
v -0.964381 -0.905447 -1.332843
v -0.961765 -0.955462 -1.212550
v -0.797487 -0.905447 -1.212550
v -0.812071 -0.905447 -1.332843
v -0.744622 -0.955462 -1.212550
v -0.044198 -0.905447 -1.212550
v -0.069851 -0.905447 -1.332843
v -0.036885 -0.955462 -1.212550
v 0.027743 -0.905447 -1.212550
v 0.012561 -0.905447 -1.332843
v 0.086130 -0.955462 -1.212550
v 0.781337 -0.905447 -1.212550
v 0.752998 -0.905447 -1.332843
v 0.791740 -0.955462 -1.212550
v 0.890033 -0.905447 -1.212550
v 0.843918 -0.905447 -1.332843
v 0.954919 -0.955462 -1.212550
v 1.469610 -0.909369 0.448447
v 1.510460 -0.932518 2.178998
v 1.366119 -0.951546 0.405587
v 1.438738 -0.921267 0.408852
v 1.568923 -0.909369 2.227364
v 1.466013 -0.951541 2.203668
v 1.502744 -0.932649 2.046452
v 1.561441 -0.909369 2.093339
v 1.457588 -0.951541 2.052759
v 1.523264 -0.909369 1.409515
v 1.469656 -0.930363 1.355124
v 1.420228 -0.951534 1.383237
v 1.515612 -0.909369 1.272444
v 1.465641 -0.928766 1.214297
v 1.412362 -0.951449 1.238698
v 1.477799 -0.909369 0.595134
v 1.442073 -0.923092 0.547318
v 1.387344 -0.946696 0.576519
v 1.353632 -0.972608 0.319614
v -2.248102 2.091259 -2.000000
v -2.248102 2.492183 -1.787111
v -2.248102 2.103481 -1.846058
v -0.694758 -0.896195 -1.631945
v -1.060397 -0.880300 -1.416731
v -0.690641 -0.304134 -1.808369
v -0.864031 -0.600165 -1.720157
v -1.106441 -0.880300 -1.272696
v -0.343810 -0.896195 -1.631945
v -1.014353 -0.880300 -1.272696
v -1.060397 -0.880300 -1.128662
v -1.060397 -1.503636 -0.940113
v -1.106441 -1.191968 -1.034388
v -1.014353 -1.191968 -1.034388
v -1.060397 -1.500998 -1.595672
v -1.014353 -1.214169 -1.512982
v -1.106441 -1.190649 -1.506201
v -0.819386 -0.907491 -1.128188
v -0.280059 -0.936626 -1.110753
v -0.126382 -0.892225 -1.388784
v -0.178706 -0.600165 -1.720157
v -0.852495 -0.892225 -1.388784
v -0.094918 -0.907491 -1.128188
v -0.647175 -0.888254 -1.145623
v -0.673891 -0.273553 -1.900856
v -0.205828 -0.288843 -1.854613
v -0.841079 -0.288843 -1.854613
v -0.356266 -0.304134 -1.808369
v -0.629362 -0.936626 -1.110753
v -0.272011 -0.888254 -1.145623
v -0.373016 -0.273553 -1.900856
v -0.523453 -0.288843 -1.854613
v -0.457152 -0.917390 -1.128188
v -0.521369 -0.600165 -1.720157
v -0.489439 -0.892225 -1.388784
v 0.122036 -0.896195 -1.631945
v 0.126153 -0.304134 -1.808369
v -0.047237 -0.600165 -1.720157
v 0.472985 -0.896195 -1.631945
v -0.002591 -0.907491 -1.128188
v 0.536736 -0.936626 -1.110753
v 0.690412 -0.892225 -1.388784
v 0.638088 -0.600165 -1.720157
v -0.035701 -0.892225 -1.388784
v 0.721876 -0.907491 -1.128188
v 0.169619 -0.888254 -1.145623
v 0.142903 -0.278095 -1.900856
v 0.610966 -0.293386 -1.854613
v -0.024285 -0.293386 -1.854613
v 0.460529 -0.304134 -1.808369
v 0.187432 -0.936626 -1.110753
v 0.544783 -0.888254 -1.145623
v 0.443778 -0.278095 -1.900856
v 0.293341 -0.288843 -1.854613
v 0.359642 -0.917390 -1.128188
v 0.295425 -0.600165 -1.720157
v 0.327356 -0.892225 -1.388784
v 0.935710 -0.917897 -1.631945
v 0.939827 -0.304134 -1.808369
v 0.766437 -0.611016 -1.720157
v 1.286659 -0.917897 -1.631945
v 0.850801 -0.907491 -1.128188
v 1.390127 -0.936626 -1.110753
v 1.523945 -0.903076 -1.388784
v 1.451762 -0.611016 -1.720157
v 0.797832 -0.903076 -1.388784
v 1.575268 -0.907491 -1.128188
v 1.023011 -0.888254 -1.145623
v 0.956577 -0.273553 -1.900856
v 1.424641 -0.288843 -1.854613
v 0.789389 -0.288843 -1.854613
v 1.274203 -0.304134 -1.808369
v 1.040824 -0.936626 -1.110753
v 1.398175 -0.888254 -1.145623
v 1.257453 -0.273553 -1.900856
v 1.107015 -0.288843 -1.854613
v 1.213034 -0.917390 -1.128188
v 1.109100 -0.611016 -1.720157
v 1.160889 -0.903076 -1.388784
v -1.060397 -0.903819 -1.423511
v 1.519348 -0.929899 -1.113659
v 1.540721 -1.503636 -0.940113
v 1.484041 -1.218124 -1.026476
v 1.576028 -1.215411 -1.027297
v 1.517500 -1.500998 -1.595672
v 1.563544 -1.272162 -1.529701
v 1.471456 -1.271087 -1.529391
v 1.517500 -1.042250 -1.463419
v 1.287159 -0.912243 -0.142339
v 1.287159 -0.912243 -0.188383
v 1.257808 -0.912057 -0.096294
v 1.257808 -0.912057 -0.142339
v 1.078866 -1.503636 -0.142339
v 1.168337 -1.207847 -0.188383
v 1.168337 -1.207847 -0.096294
v 1.734424 -1.500998 -0.142339
v 1.667265 -1.268041 -0.188383
v 1.330024 -0.888254 -0.016806
v 2.085258 -0.273553 0.058593
v 1.816346 -0.896195 0.037567
v 1.573185 -0.892225 -0.166484
v 1.317243 -0.909614 -0.188147
v 1.992771 -0.304134 0.050289
v 1.300513 -0.937571 -0.012042
v 1.904558 -0.600165 -0.112433
v 2.039014 -0.288843 -0.091407
v 2.039014 -0.288843 0.200289
v 1.313295 -0.916211 0.159299
v 1.904558 -0.600165 0.200289
v 1.573185 -0.892225 0.187245
v 1.667265 -1.268041 -0.096294
v 2.039014 -0.288843 0.502696
v 1.317243 -0.909614 0.480622
v 1.904558 -0.600165 0.533166
v 1.573185 -0.892225 0.522455
v 1.300513 -0.937571 0.302677
v 1.330024 -0.888254 0.337245
v 1.816346 -0.896195 0.372455
v 1.992771 -0.304134 0.361000
v 2.085258 -0.273553 0.341985
v 1.474280 -0.986054 1.483110
v 1.393164 -0.979232 1.450187
v 1.372933 -0.977530 1.545548
v 1.291817 -0.970708 1.512625
v 1.130615 -1.503636 1.512625
v 1.211216 -1.237172 1.466580
v 1.211216 -1.237172 1.558669
v 1.786174 -1.500998 1.456017
v 1.721081 -1.275208 1.409972
v 1.721974 -1.278307 1.502061
v 1.330024 -0.888254 0.785025
v 2.085258 -0.273553 0.861201
v 1.816346 -0.896195 0.849593
v 1.573185 -0.892225 0.663426
v 1.319961 -0.905072 0.638867
v 1.992771 -0.304134 0.861201
v 1.302526 -0.934207 0.785025
v 1.904558 -0.600165 0.699593
v 2.039014 -0.288843 0.711201
v 2.039014 -0.288843 1.011201
v 1.312590 -0.917390 0.931183
v 1.904558 -0.600165 1.011201
v 1.573185 -0.892225 0.971192
v 2.039014 -0.288843 1.319152
v 1.319961 -0.905072 1.311201
v 1.904558 -0.600165 1.333852
v 1.573185 -0.892225 1.325902
v 1.302526 -0.934207 1.121192
v 1.330024 -0.888254 1.121192
v 1.816346 -0.896195 1.175902
v 1.992771 -0.304134 1.169152
v 2.085258 -0.273553 1.161201
v 1.330024 -0.888254 1.581223
v 2.085258 -0.273553 1.663977
v 1.872902 -0.896195 1.636958
v 1.601463 -0.892225 1.454922
v 1.315193 -0.901997 1.457236
v 1.992771 -0.304134 1.662655
v 1.297758 -0.931133 1.588555
v 1.932836 -0.600165 1.485636
v 2.039014 -0.288843 1.512655
v 2.039014 -0.288843 1.813977
v 1.312590 -0.917390 1.712542
v 1.932836 -0.600165 1.813977
v 1.601463 -0.892225 1.763259
v 2.039014 -0.288843 2.117240
v 1.330934 -0.899843 2.133368
v 1.932836 -0.600165 2.133916
v 1.614647 -0.892440 2.129563
v 1.300315 -0.928763 1.924858
v 1.343208 -0.888470 1.921052
v 1.872902 -0.896195 1.971770
v 1.992771 -0.304134 1.976123
v 2.085258 -0.273553 1.955094
v 1.347356 -0.888537 2.403234
v 1.628042 -0.892508 2.262291
v 1.340504 -0.899989 2.270761
v 1.310119 -0.921519 2.416702
v 1.942084 -0.600165 2.287512
v 1.316972 -0.910067 2.549175
v 1.656881 -1.052517 1.456017
v 1.600106 -1.035085 -0.142339
v -1.106441 -0.905447 -1.272696
v -1.106441 -0.955462 -1.272696
v -1.106441 -0.930455 -1.332843
v -1.106441 -0.930455 -1.212550
v -1.080153 -0.955462 -1.212550
v -1.081432 -0.905447 -1.212550
v -1.081499 -0.905447 -1.332843
v -1.056489 -0.905447 -1.272696
v -1.055144 -0.930455 -1.212550
v -0.853194 -0.955462 -1.212550
v -0.966628 -0.905447 -1.272696
v -0.965320 -0.930455 -1.212550
v -0.883181 -0.905447 -1.212550
v -0.888226 -0.905447 -1.332843
v -0.804779 -0.905447 -1.272696
v -0.771055 -0.930455 -1.212550
v 0.024623 -0.955462 -1.212550
v -0.057024 -0.905447 -1.272696
v -0.040542 -0.930455 -1.212550
v -0.008228 -0.905447 -1.212550
v -0.028645 -0.905447 -1.332843
v 0.020152 -0.905447 -1.272696
v 0.056937 -0.930455 -1.212550
v 0.873330 -0.955462 -1.212550
v 0.767168 -0.905447 -1.272696
v 0.786539 -0.930455 -1.212550
v 0.835685 -0.905447 -1.212550
v 0.798458 -0.905447 -1.332843
v 0.866976 -0.905447 -1.272696
v 0.922476 -0.930455 -1.212550
v 1.506602 -0.932584 2.112725
v 1.539691 -0.920943 2.203180
v 1.402428 -0.936407 0.407219
v 1.454174 -0.915318 0.428649
v 1.488236 -0.942029 2.191333
v 1.473704 -0.909369 0.521791
v 1.461801 -0.951541 2.128213
v 1.565182 -0.909369 2.160352
v 1.480166 -0.942095 2.049605
v 1.532092 -0.921009 2.069896
v 1.467648 -0.929564 1.284710
v 1.416295 -0.951491 1.310968
v 1.496460 -0.919866 1.382319
v 1.444942 -0.940948 1.369180
v 1.519438 -0.909369 1.340980
v 1.439001 -0.940108 1.226498
v 1.490626 -0.919067 1.243371
v 1.440405 -0.922180 0.478085
v 1.376731 -0.949121 0.491053
v 1.459936 -0.916230 0.571226
v 1.414708 -0.934894 0.561919
v 1.370488 -0.959652 0.448067
v 1.359876 -0.962077 0.362600
v -2.508540 2.091259 -2.000000
v -2.508540 2.492183 -1.787111
v -2.508540 2.103481 -1.846058
v -2.248102 2.297832 -1.816584
v -2.248102 2.097370 -1.923029
v -1.060397 -0.880300 -1.272696
v -1.060397 -1.191968 -1.034388
v -1.060397 -1.202409 -1.509592
v -0.307910 -0.892225 -1.388784
v -0.350038 -0.600165 -1.720157
v -0.276035 -0.912440 -1.128188
v -0.364641 -0.288843 -1.854613
v -0.682266 -0.288843 -1.854613
v -0.638268 -0.912440 -1.128188
v -0.692700 -0.600165 -1.720157
v -0.670967 -0.892225 -1.388784
v 0.508884 -0.892225 -1.388784
v 0.466757 -0.600165 -1.720157
v 0.540759 -0.912440 -1.128188
v 0.452154 -0.291115 -1.854613
v 0.134528 -0.291115 -1.854613
v 0.178526 -0.912440 -1.128188
v 0.124094 -0.600165 -1.720157
v 0.145828 -0.892225 -1.388784
v 1.342417 -0.903076 -1.388784
v 1.280431 -0.611016 -1.720157
v 1.394151 -0.912440 -1.128188
v 1.265828 -0.288843 -1.854613
v 0.948202 -0.288843 -1.854613
v 1.031918 -0.912440 -1.128188
v 0.937769 -0.611016 -1.720157
v 0.979361 -0.903076 -1.388784
v 1.530035 -1.216768 -1.026886
v 1.517500 -1.271624 -1.529546
v 1.272484 -0.912150 -0.142339
v 1.168337 -1.207847 -0.142339
v 1.667265 -1.268041 -0.142339
v 1.904558 -0.600165 0.043928
v 2.039014 -0.288843 0.054441
v 1.573185 -0.892225 0.010380
v 1.315269 -0.912913 -0.014424
v 1.315269 -0.912913 0.319961
v 1.904558 -0.600165 0.366727
v 2.039014 -0.288843 0.351492
v 1.573185 -0.892225 0.354850
v 1.383049 -0.978381 1.497867
v 1.211216 -1.237172 1.512625
v 1.721528 -1.276758 1.456016
v 1.904558 -0.600165 0.855397
v 2.039014 -0.288843 0.861201
v 1.573185 -0.892225 0.817309
v 1.316275 -0.911231 0.785025
v 1.316275 -0.911231 1.121192
v 1.904558 -0.600165 1.172526
v 2.039014 -0.288843 1.165176
v 1.573185 -0.892225 1.148547
v 1.932836 -0.600165 1.649806
v 2.039014 -0.288843 1.663316
v 1.601463 -0.892225 1.609090
v 1.313891 -0.909694 1.584889
v 1.321762 -0.908616 1.922955
v 1.932836 -0.600165 1.973946
v 2.039014 -0.288843 1.965608
v 1.608055 -0.892332 1.946411
v 1.619377 -0.892366 2.405733
v 1.328738 -0.905028 2.409968
v -1.106441 -0.930455 -1.272696
v -1.081465 -0.905447 -1.272696
v -1.080792 -0.930455 -1.212550
v -0.885703 -0.905447 -1.272696
v -0.868187 -0.930455 -1.212550
v -0.018436 -0.905447 -1.272696
v 0.008198 -0.930455 -1.212550
v 0.817072 -0.905447 -1.272696
v 0.854507 -0.930455 -1.212550
v 1.535892 -0.920976 2.136538
v 1.484201 -0.942062 2.120469
v 1.493543 -0.919467 1.312845
v 1.441972 -0.940528 1.297839
v 1.457055 -0.915774 0.499938
v 1.408568 -0.935650 0.484569
v 1.369032 -0.956950 0.433907
v -2.508540 2.297832 -1.816584
v -2.508540 2.097370 -1.923029
v -2.615217 2.297832 -1.816584
v -2.620142 2.492183 -1.787111
v -2.610291 2.103481 -1.846058
v -2.589912 2.097370 -1.923029
v -2.569533 2.091259 -2.000000
v 1.995234 -0.303320 2.307734
v 1.992771 -0.304134 2.308924
v 1.942084 -0.600165 2.333669
v 1.891397 -0.896195 2.358414
v 1.790208 -0.894771 2.407303
v 1.614143 -0.892281 2.492369
v 1.496566 -0.890610 2.549175
v 1.330024 -0.888254 2.629640
v 1.318511 -0.907495 2.635220
v 1.307308 -0.926216 2.640648
vn -0.0000 1.0000 -0.0000
vn -0.0000 0.2895 0.9572
vn -0.0000 -0.2770 0.9609
vn -0.0000 0.9999 -0.0163
vn -0.0000 0.2856 0.9584
vn -0.0229 0.5476 0.8364
vn -0.0263 0.6313 0.7751
vn -0.0084 0.6278 0.7783
vn -0.0073 0.5474 0.8368
vn -0.0000 0.9494 0.3139
vn 0.0265 0.6349 0.7722
vn 0.0230 0.5506 0.8345
vn 0.0074 0.5484 0.8362
vn 0.0084 0.6290 0.7774
vn 0.0067 0.9564 0.2921
vn 0.0068 0.9689 0.2472
vn 0.0214 0.9697 0.2434
vn 0.0211 0.9565 0.2909
vn -0.0068 0.9689 0.2472
vn -0.0067 0.9564 0.2921
vn -0.0211 0.9565 0.2909
vn -0.0214 0.9697 0.2434
vn -0.0000 0.9981 -0.0608
vn -0.0000 0.2763 0.9611
vn 0.0063 1.0000 -0.0000
vn -0.9572 0.2895 -0.0000
vn -0.9609 -0.2770 -0.0000
vn -0.9584 0.2856 -0.0000
vn -0.3139 0.9494 -0.0000
vn 0.0163 0.9999 -0.0000
vn -0.8581 0.5135 -0.0000
vn 0.0838 0.9965 -0.0000
vn -0.9801 0.1984 -0.0000
vn 0.0146 0.9999 -0.0000
vn -0.8313 0.5545 0.0380
vn -0.8327 0.5536 0.0123
vn -0.7481 0.6634 0.0160
vn -0.7420 0.6686 0.0498
vn -0.7842 0.6198 0.0292
vn -0.7853 0.6191 -0.0122
vn -0.5576 0.8294 -0.0332
vn -0.5540 0.8324 0.0126
vn 0.0146 0.9999 0.0001
vn 0.0141 0.9999 -0.0002
vn 0.0140 0.9999 -0.0001
vn 0.0140 0.9999 -0.0002
vn -0.7719 0.6356 -0.0150
vn -0.7747 0.6285 -0.0686
vn -0.5565 0.8298 -0.0429
vn -0.5387 0.8424 0.0121
vn 1.0000 -0.0000 -0.0000
vn -0.0000 -1.0000 -0.0000
vn -0.0000 -0.0000 -1.0000
vn -0.3833 0.9234 0.0214
vn -0.3857 0.9224 0.0215
vn -0.3857 0.9224 0.0217
vn -0.3860 0.9223 0.0217
vn -0.3860 0.9222 0.0215
vn -0.9881 0.0961 0.1200
vn -0.0000 -0.1499 0.9887
vn -0.0000 -0.9969 0.0791
vn 0.0141 0.9999 -0.0001
vn -0.3142 0.9494 -0.0000
vn -0.9857 0.1688 -0.0000
vn 0.0141 0.9999 -0.0000
vt 0.288168 0.179221
vt 0.278093 0.184222
vt 0.272092 0.182830
vt 0.282116 0.177788
vt 0.268312 0.189077
vt 0.262360 0.187724
vt 0.256363 0.186360
vt 0.266043 0.181426
vt 0.276016 0.176343
vt 0.289356 0.113131
vt 0.295434 0.114836
vt 0.283228 0.111412
vt 0.290575 0.045274
vt 0.296729 0.047277
vt 0.302834 0.049263
vt 0.251008 0.130999
vt 0.256766 0.130492
vt 0.261948 0.183505
vt 0.245758 0.076710
vt 0.251680 0.078463
vt 0.257557 0.080202
vt 0.262475 0.129990
vt 0.267482 0.180677
vt 0.356235 0.194708
vt 0.378249 0.199931
vt 0.356223 0.205653
vt 0.335051 0.200789
vt 0.399606 0.204998
vt 0.376795 0.210379
vt 0.354866 0.215552
vt 0.335080 0.211145
vt 0.314749 0.206617
vt 0.327987 0.264903
vt 0.308190 0.261234
vt 0.347269 0.268477
vt 0.339772 0.320701
vt 0.320993 0.317905
vt 0.301728 0.315037
vt 0.359502 0.182918
vt 0.380020 0.189777
vt 0.379133 0.194864
vt 0.357866 0.188822
vt 0.399966 0.196445
vt 0.399785 0.200732
vt 0.316978 0.321245
vt 0.298707 0.318573
vt 0.334812 0.323853
vt 0.329880 0.326986
vt 0.312991 0.324560
vt 0.295712 0.322078
vt 0.261663 0.309072
vt 0.281958 0.312093
vt 0.279984 0.315834
vt 0.260790 0.313028
vt 0.278029 0.319538
vt 0.259928 0.316938
vt 0.316588 0.176152
vt 0.338358 0.179585
vt 0.335943 0.184458
vt 0.313348 0.179960
vt 0.333533 0.189322
vt 0.310111 0.183765
vt 0.272356 0.197176
vt 0.293849 0.201963
vt 0.287856 0.257465
vt 0.266965 0.253593
vt 0.313254 0.195782
vt 0.290802 0.190624
vt 0.447456 0.216351
vt 0.466812 0.220943
vt 0.444420 0.225914
vt 0.425756 0.221626
vt 0.485625 0.225407
vt 0.462587 0.230087
vt 0.440387 0.234598
vt 0.422873 0.230697
vt 0.404905 0.226696
vt 0.415614 0.281146
vt 0.398103 0.277900
vt 0.432695 0.284312
vt 0.425100 0.333404
vt 0.408450 0.330926
vt 0.391396 0.328387
vt 0.450768 0.205363
vt 0.468802 0.211498
vt 0.467805 0.216229
vt 0.449110 0.210864
vt 0.486364 0.217473
vt 0.485993 0.221449
vt 0.404377 0.333658
vt 0.388192 0.331659
vt 0.420197 0.335611
vt 0.415321 0.337806
vt 0.400331 0.336371
vt 0.385014 0.334905
vt 0.356009 0.323118
vt 0.373920 0.325785
vt 0.371636 0.328861
vt 0.354689 0.325997
vt 0.369372 0.331908
vt 0.353383 0.328845
vt 0.413159 0.199656
vt 0.432220 0.202548
vt 0.429875 0.207091
vt 0.410089 0.203208
vt 0.427534 0.211625
vt 0.407021 0.206758
vt 0.367536 0.218373
vt 0.386466 0.222589
vt 0.380146 0.274572
vt 0.361727 0.271158
vt 0.406576 0.217220
vt 0.386855 0.212690
vt 0.531285 0.236240
vt 0.548347 0.240288
vt 0.524042 0.242489
vt 0.507505 0.238669
vt 0.564959 0.244229
vt 0.540164 0.246215
vt 0.516155 0.248137
vt 0.500537 0.244618
vt 0.484538 0.241014
vt 0.493183 0.293846
vt 0.477578 0.290934
vt 0.508427 0.296691
vt 0.500790 0.344673
vt 0.485921 0.342459
vt 0.470710 0.340195
vt 0.534609 0.225981
vt 0.550500 0.231486
vt 0.549422 0.235895
vt 0.532945 0.231117
vt 0.566001 0.236855
vt 0.565478 0.240550
vt 0.481822 0.345352
vt 0.467383 0.343240
vt 0.495953 0.347418
vt 0.491141 0.350149
vt 0.477749 0.348226
vt 0.464082 0.346262
vt 0.439215 0.335506
vt 0.455146 0.337878
vt 0.452627 0.341082
vt 0.437544 0.338876
vt 0.450131 0.344259
vt 0.435889 0.342213
vt 0.501556 0.221171
vt 0.518294 0.223607
vt 0.516023 0.227847
vt 0.498647 0.224490
vt 0.513756 0.232081
vt 0.495739 0.227806
vt 0.451336 0.233534
vt 0.468142 0.237320
vt 0.461598 0.287951
vt 0.445231 0.284897
vt 0.490538 0.234748
vt 0.473122 0.230724
vt 0.565741 0.236883
vt 0.561768 0.235446
vt 0.570083 0.187498
vt 0.574092 0.188875
vt 0.557769 0.234000
vt 0.566048 0.186112
vt 0.574429 0.137633
vt 0.578501 0.138958
vt 0.582547 0.140275
vt 0.529898 0.225364
vt 0.525012 0.191445
vt 0.529038 0.192460
vt 0.533921 0.226198
vt 0.520185 0.157927
vt 0.524213 0.159119
vt 0.528217 0.160304
vt 0.533039 0.193469
vt 0.537918 0.227027
vt 0.628991 0.204867
vt 0.625871 0.206607
vt 0.624503 0.206239
vt 0.627236 0.206974
vt 0.625504 0.209054
vt 0.622785 0.208328
vt 0.620054 0.207599
vt 0.616317 0.150996
vt 0.620797 0.149370
vt 0.611875 0.152608
vt 0.603591 0.096911
vt 0.608024 0.095040
vt 0.612497 0.093154
vt 0.651222 0.195087
vt 0.657276 0.156961
vt 0.661741 0.155429
vt 0.655686 0.193709
vt 0.663263 0.119260
vt 0.667728 0.117577
vt 0.672231 0.115880
vt 0.666243 0.153884
vt 0.660188 0.192320
vt 0.708911 0.213467
vt 0.716269 0.267375
vt 0.700247 0.270986
vt 0.692257 0.218060
vt 0.723536 0.320623
vt 0.708150 0.323334
vt 0.693182 0.325972
vt 0.684681 0.274494
vt 0.676098 0.222516
vt 0.727378 0.324046
vt 0.712412 0.326629
vt 0.731193 0.327446
vt 0.716648 0.329903
vt 0.702475 0.332297
vt 0.697841 0.329143
vt 0.662885 0.202888
vt 0.686313 0.208273
vt 0.668291 0.213433
vt 0.643527 0.208653
vt 0.650862 0.218425
vt 0.624867 0.214210
vt 0.656750 0.192716
vt 0.659817 0.197801
vt 0.642416 0.203780
vt 0.641302 0.198895
vt 0.625592 0.209562
vt 0.626322 0.204887
vt 0.676797 0.193368
vt 0.679990 0.197793
vt 0.673608 0.188948
vt 0.690994 0.185062
vt 0.694323 0.188793
vt 0.697658 0.192531
vt 0.733848 0.263414
vt 0.740506 0.317633
vt 0.727098 0.208451
vt 0.745896 0.203267
vt 0.751992 0.259325
vt 0.757999 0.314551
vt 0.743327 0.321294
vt 0.746123 0.324923
vt 0.759737 0.318463
vt 0.761456 0.322333
vt 0.703965 0.203218
vt 0.722205 0.197994
vt 0.824703 0.134863
vt 0.830325 0.137047
vt 0.824722 0.139272
vt 0.818375 0.136851
vt 0.835847 0.139192
vt 0.830943 0.141644
vt 0.826110 0.144061
vt 0.819189 0.141469
vt 0.812112 0.138818
vt 0.810970 0.077456
vt 0.817303 0.075142
vt 0.804703 0.079745
vt 0.797193 0.019863
vt 0.803464 0.017242
vt 0.809801 0.014593
vt 0.837147 0.138325
vt 0.842814 0.095574
vt 0.848986 0.093188
vt 0.843369 0.135839
vt 0.848411 0.053362
vt 0.854532 0.051074
vt 0.860715 0.048763
vt 0.855218 0.090779
vt 0.849652 0.133328
vt 0.800160 0.188302
vt 0.807514 0.246813
vt 0.788836 0.251022
vt 0.780789 0.193644
vt 0.814770 0.304547
vt 0.796787 0.307716
vt 0.779331 0.310792
vt 0.770730 0.255102
vt 0.762037 0.198816
vt 0.818578 0.308310
vt 0.800606 0.311411
vt 0.822357 0.312045
vt 0.804396 0.315079
vt 0.786958 0.318025
vt 0.783158 0.314422
vt 0.747280 0.177753
vt 0.774162 0.183115
vt 0.755808 0.188371
vt 0.729950 0.182914
vt 0.738022 0.193465
vt 0.713139 0.187921
vt 0.744071 0.165161
vt 0.745678 0.171466
vt 0.728687 0.178039
vt 0.727420 0.173153
vt 0.712215 0.184411
vt 0.711289 0.180896
vt 0.769364 0.165734
vt 0.770626 0.170800
vt 0.768099 0.160656
vt 0.793102 0.155969
vt 0.794025 0.159766
vt 0.794947 0.163557
vt 0.827486 0.242312
vt 0.834303 0.301105
vt 0.820571 0.182673
vt 0.841693 0.176848
vt 0.848135 0.237658
vt 0.854479 0.297550
vt 0.837598 0.305028
vt 0.840866 0.308918
vt 0.857226 0.301642
vt 0.859946 0.305694
vt 0.796057 0.176845
vt 0.818789 0.170336
vt 0.911373 0.160885
vt 0.916242 0.223643
vt 0.892988 0.228860
vt 0.886312 0.167733
vt 0.921066 0.285817
vt 0.899621 0.289596
vt 0.878866 0.293253
vt 0.870546 0.233895
vt 0.862196 0.174324
vt 0.924768 0.289987
vt 0.903443 0.293667
vt 0.928441 0.294123
vt 0.907235 0.297706
vt 0.886698 0.301175
vt 0.882797 0.297229
vt 0.849814 0.147216
vt 0.881196 0.154184
vt 0.859411 0.160393
vt 0.831312 0.152726
vt 0.838358 0.166394
vt 0.813353 0.158075
vt 0.846640 0.133392
vt 0.848229 0.140315
vt 0.830348 0.147457
vt 0.829381 0.142168
vt 0.812982 0.154394
vt 0.812610 0.150696
vt 0.879911 0.133235
vt 0.881561 0.138583
vt 0.878254 0.127863
vt 0.911466 0.122055
vt 0.913148 0.125808
vt 0.914819 0.129539
vt 0.939724 0.218375
vt 0.944847 0.281627
vt 0.934554 0.154549
vt 0.958574 0.147985
vt 0.964064 0.212915
vt 0.969506 0.277282
vt 0.946951 0.286160
vt 0.949032 0.290644
vt 0.969893 0.282201
vt 0.970276 0.287055
vt 0.908647 0.146744
vt 0.937245 0.138993
vt 0.982220 0.107783
vt 0.996291 0.114584
vt 0.996563 0.122123
vt 0.982268 0.126512
vt 0.958651 0.115947
vt 0.996320 0.132798
vt 0.996546 0.138728
vt 0.981734 0.142764
vt 0.959450 0.133518
vt 0.936007 0.123792
vt 0.979938 0.096234
vt 0.981081 0.102016
vt 0.958153 0.110955
vt 0.957652 0.105936
vt 0.936063 0.119568
vt 0.936120 0.115310
vt 0.996629 0.098054
vt 0.996640 0.103488
vt 0.996615 0.092746
vt 0.262008 0.178689
vt 0.266085 0.176581
vt 0.266126 0.171763
vt 0.262049 0.173901
vt 0.270213 0.174447
vt 0.270255 0.169599
vt 0.270296 0.164751
vt 0.266168 0.166946
vt 0.262091 0.169113
vt 0.269372 0.177354
vt 0.273516 0.175230
vt 0.265278 0.179451
vt 0.268535 0.180211
vt 0.272644 0.178123
vt 0.276804 0.176010
vt 0.273641 0.170413
vt 0.273767 0.165596
vt 0.277013 0.171223
vt 0.277222 0.166438
vt 0.288207 0.178714
vt 0.284305 0.180865
vt 0.294656 0.183299
vt 0.299205 0.181322
vt 0.280453 0.182990
vt 0.290161 0.185253
vt 0.299747 0.187488
vt 0.304867 0.185700
vt 0.310044 0.183893
vt 0.289205 0.169355
vt 0.288706 0.174033
vt 0.301152 0.177024
vt 0.303093 0.172736
vt 0.313395 0.179966
vt 0.316730 0.176057
vt 0.399034 0.204998
vt 0.393091 0.206446
vt 0.397364 0.207450
vt 0.403020 0.205943
vt 0.387204 0.207880
vt 0.391763 0.208943
vt 0.396294 0.209999
vt 0.401611 0.208449
vt 0.406983 0.206883
vt 0.399908 0.196308
vt 0.399471 0.200651
vt 0.404863 0.201947
vt 0.406701 0.197962
vt 0.410214 0.203233
vt 0.413429 0.199600
vt 0.485169 0.225426
vt 0.479075 0.226664
vt 0.483948 0.227810
vt 0.490472 0.226683
vt 0.473034 0.227892
vt 0.477475 0.228928
vt 0.481886 0.229956
vt 0.488785 0.228947
vt 0.495733 0.227931
vt 0.486237 0.217327
vt 0.485703 0.221374
vt 0.492323 0.222965
vt 0.494168 0.219258
vt 0.498877 0.224540
vt 0.502006 0.221166
vt 0.927069 0.134830
vt 0.920913 0.132183
vt 0.931622 0.129299
vt 0.937877 0.131939
vt 0.914756 0.129535
vt 0.925367 0.126658
vt 0.936138 0.123737
vt 0.942494 0.126371
vt 0.948851 0.129005
vt 0.913275 0.126417
vt 0.924637 0.123293
vt 0.911788 0.123282
vt 0.923902 0.119908
vt 0.936227 0.116476
vt 0.936182 0.120120
vt 0.806743 0.167005
vt 0.800766 0.165332
vt 0.810020 0.162698
vt 0.816007 0.164528
vt 0.794801 0.163661
vt 0.804043 0.160870
vt 0.813423 0.158037
vt 0.819410 0.160025
vt 0.825403 0.162016
vt 0.793960 0.160025
vt 0.803437 0.157269
vt 0.793114 0.156362
vt 0.802828 0.153642
vt 0.812690 0.150881
vt 0.813058 0.154472
vt 0.704782 0.194270
vt 0.701231 0.193369
vt 0.709290 0.191058
vt 0.713208 0.192017
vt 0.697685 0.192469
vt 0.705378 0.190101
vt 0.713176 0.187701
vt 0.717460 0.188716
vt 0.721752 0.189732
vt 0.694202 0.188683
vt 0.703192 0.186456
vt 0.690700 0.184877
vt 0.700991 0.182787
vt 0.711443 0.180665
vt 0.712312 0.184196
vt 0.694040 0.183014
vt 0.695717 0.182080
vt 0.685505 0.184167
vt 0.680350 0.183462
vt 0.021265 0.815019
vt 0.020382 0.773548
vt 0.062097 0.768092
vt 0.063114 0.808573
vt 0.022154 0.856807
vt 0.064138 0.849355
vt 0.013465 0.766742
vt 0.054652 0.761532
vt 0.058344 0.764785
vt 0.016894 0.770116
vt 0.003281 0.817790
vt 0.003287 0.775784
vt 0.996462 0.272532
vt 0.996459 0.272804
vt 0.996268 0.272566
vt 0.003315 0.771863
vt 0.996534 0.206091
vt 0.989013 0.207775
vt 0.003276 0.860158
vt 0.003355 0.768021
s 0
f 537/532/5 718/533/5 949/534/5 719/535/5
f 718/533/5 585/536/5 713/537/5 949/534/5
f 949/534/5 713/537/5 533/538/5 716/539/5
f 719/535/5 949/534/5 716/539/5 538/540/5
f 537/532/6 719/535/6 950/541/6 722/542/6
f 719/535/6 538/540/6 721/543/6 950/541/6
f 950/541/6 721/543/6 540/544/6 720/545/6
f 722/542/6 950/541/6 720/545/6 539/546/6
f 533/538/7 725/547/7 951/548/7 788/549/7
f 725/547/7 541/550/7 723/551/7 951/548/7
f 951/548/7 723/551/7 542/552/7 724/553/7
f 788/549/7 951/548/7 724/553/7 536/554/7
f 553/555/8 738/556/8 952/557/8 743/558/8
f 738/556/8 548/559/8 728/560/8 952/557/8
f 952/557/8 728/560/8 544/561/8 717/562/8
f 743/558/8 952/557/8 717/562/8 535/563/8
f 535/563/9 717/562/9 953/564/9 742/565/9
f 717/562/9 544/561/9 729/566/9 953/564/9
f 953/564/9 729/566/9 545/567/9 736/568/9
f 742/565/9 953/564/9 736/568/9 551/569/9
f 552/570/10 727/571/10 954/572/10 741/573/10
f 727/571/11 546/574/11 731/575/11 954/572/11
f 954/572/12 731/575/12 548/559/12 738/556/12
f 741/573/13 954/572/13 738/556/13 553/555/13
f 551/569/14 736/568/14 955/576/14 740/577/14
f 736/568/14 545/567/14 734/578/14 955/576/14
f 955/576/14 734/578/14 550/579/14 739/580/14
f 740/577/14 955/576/14 739/580/14 554/581/14
f 534/582/14 714/583/14 956/584/14 735/585/14
f 714/583/14 551/569/14 740/577/14 956/584/14
f 956/584/14 740/577/14 554/581/14 733/586/14
f 735/585/14 956/584/14 733/586/14 549/587/14
f 543/588/15 737/589/15 957/590/15 726/591/15
f 737/589/16 552/570/16 741/573/16 957/590/16
f 957/590/17 741/573/17 553/555/17 732/592/17
f 726/591/18 957/590/18 732/592/18 547/593/18
f 532/594/9 712/595/9 958/596/9 715/597/9
f 712/595/9 535/563/9 742/565/9 958/596/9
f 958/596/9 742/565/9 551/569/9 714/583/9
f 715/597/9 958/596/9 714/583/9 534/582/9
f 547/593/8 732/592/8 959/598/8 730/599/8
f 732/592/8 553/555/8 743/558/8 959/598/8
f 959/598/8 743/558/8 535/563/8 712/595/8
f 730/599/8 959/598/8 712/595/8 532/594/8
f 568/600/8 760/601/8 960/602/8 765/603/8
f 760/601/8 563/604/8 750/605/8 960/602/8
f 960/602/8 750/605/8 559/606/8 747/607/8
f 765/603/8 960/602/8 747/607/8 557/608/8
f 557/608/9 747/607/9 961/609/9 764/610/9
f 747/607/9 559/606/9 751/611/9 961/609/9
f 961/609/9 751/611/9 560/612/9 758/613/9
f 764/610/9 961/609/9 758/613/9 566/614/9
f 567/615/10 749/616/10 962/617/10 763/618/10
f 749/616/11 561/619/11 753/620/11 962/617/11
f 962/617/12 753/620/12 563/604/12 760/601/12
f 763/618/13 962/617/13 760/601/13 568/600/13
f 566/614/19 758/613/19 963/621/19 762/622/19
f 758/613/20 560/612/20 756/623/20 963/621/20
f 963/621/21 756/623/21 565/624/21 761/625/21
f 762/622/22 963/621/22 761/625/22 569/626/22
f 556/627/23 745/628/23 964/629/23 757/630/23
f 745/628/24 566/614/24 762/622/24 964/629/24
f 964/629/25 762/622/25 569/626/25 755/631/25
f 757/630/26 964/629/26 755/631/26 564/632/26
f 558/633/15 759/634/15 965/635/15 748/636/15
f 759/634/16 567/615/16 763/618/16 965/635/16
f 965/635/17 763/618/17 568/600/17 754/637/17
f 748/636/18 965/635/18 754/637/18 562/638/18
f 555/639/9 744/640/9 966/641/9 746/642/9
f 744/640/9 557/608/9 764/610/9 966/641/9
f 966/641/9 764/610/9 566/614/9 745/628/9
f 746/642/9 966/641/9 745/628/9 556/627/9
f 562/638/8 754/637/8 967/643/8 752/644/8
f 754/637/8 568/600/8 765/603/8 967/643/8
f 967/643/8 765/603/8 557/608/8 744/640/8
f 752/644/8 967/643/8 744/640/8 555/639/8
f 583/645/27 782/646/27 968/647/27 787/648/27
f 782/646/27 578/649/27 772/650/27 968/647/27
f 968/647/27 772/650/27 574/651/27 769/652/27
f 787/648/27 968/647/27 769/652/27 572/653/27
f 572/653/28 769/652/28 969/654/28 786/655/28
f 769/652/28 574/651/28 773/656/28 969/654/28
f 969/654/28 773/656/28 575/657/28 780/658/28
f 786/655/28 969/654/28 780/658/28 581/659/28
f 582/660/10 771/661/10 970/662/10 785/663/10
f 771/661/11 576/664/11 775/665/11 970/662/11
f 970/662/12 775/665/12 578/649/12 782/646/12
f 785/663/13 970/662/13 782/646/13 583/645/13
f 581/659/14 780/658/14 971/666/14 784/667/14
f 780/658/14 575/657/14 778/668/14 971/666/14
f 971/666/14 778/668/14 580/669/14 783/670/14
f 784/667/14 971/666/14 783/670/14 584/671/14
f 571/672/14 767/673/14 972/674/14 779/675/14
f 767/673/14 581/659/14 784/667/14 972/674/14
f 972/674/14 784/667/14 584/671/14 777/676/14
f 779/675/14 972/674/14 777/676/14 579/677/14
f 573/678/15 781/679/15 973/680/15 770/681/15
f 781/679/16 582/660/16 785/663/16 973/680/16
f 973/680/17 785/663/17 583/645/17 776/682/17
f 770/681/18 973/680/18 776/682/18 577/683/18
f 570/684/28 766/685/28 974/686/28 768/687/28
f 766/685/28 572/653/28 786/655/28 974/686/28
f 974/686/28 786/655/28 581/659/28 767/673/28
f 768/687/28 974/686/28 767/673/28 571/672/28
f 577/683/27 776/682/27 975/688/27 774/689/27
f 776/682/27 583/645/27 787/648/27 975/688/27
f 975/688/27 787/648/27 572/653/27 766/685/27
f 774/689/27 975/688/27 766/685/27 570/684/27
f 588/690/6 789/691/6 976/692/6 792/693/6
f 789/691/6 589/694/6 791/695/6 976/692/6
f 976/692/6 791/695/6 591/696/6 790/697/6
f 792/693/6 976/692/6 790/697/6 590/698/6
f 586/699/7 795/700/7 977/701/7 796/702/7
f 795/700/7 592/703/7 793/704/7 977/701/7
f 977/701/7 793/704/7 593/705/7 794/706/7
f 796/702/7 977/701/7 794/706/7 587/707/7
f 596/708/29 799/708/29 978/709/29 800/710/29
f 799/708/29 664/708/29 797/711/29 978/709/29
f 978/709/29 797/711/29 663/712/29 798/713/29
f 800/710/29 978/709/29 798/713/29 597/714/29
f 596/708/30 800/710/30 979/715/30 803/716/30
f 800/710/30 597/714/30 802/717/30 979/715/30
f 979/715/30 802/717/30 599/718/30 801/719/30
f 803/716/30 979/715/30 801/719/30 598/720/30
f 594/721/31 805/722/31 980/723/31 890/724/31
f 805/722/31 600/725/31 804/726/31 980/723/31
f 980/723/31 804/726/31 601/727/31 819/728/31
f 890/724/31 980/723/31 819/728/31 611/729/31
f 595/730/32 817/731/32 981/732/32 808/733/32
f 817/731/32 607/734/32 811/735/32 981/732/32
f 981/732/32 811/735/32 605/736/32 813/737/32
f 808/733/32 981/732/32 813/737/32 606/738/32
f 607/734/33 815/739/33 982/740/33 811/735/33
f 815/739/33 610/741/33 807/742/33 982/740/33
f 982/740/33 807/742/33 602/743/33 814/744/33
f 811/735/33 982/740/33 814/744/33 605/736/33
f 609/745/34 818/746/34 983/747/34 806/748/34
f 818/746/34 595/730/34 808/733/34 983/747/34
f 983/747/34 808/733/34 606/738/34 809/749/34
f 806/748/34 983/747/34 809/749/34 603/750/34
f 608/751/35 816/752/35 984/753/35 812/754/35
f 816/752/35 609/745/35 806/748/35 984/753/35
f 984/753/35 806/748/35 603/750/35 810/755/35
f 812/754/35 984/753/35 810/755/35 604/756/35
f 609/745/35 816/752/35 985/757/35 825/758/35
f 816/752/35 608/751/35 824/759/35 985/757/35
f 985/757/35 824/759/35 614/760/35 821/761/35
f 825/758/35 985/757/35 821/761/35 615/762/35
f 607/734/32 817/731/32 986/763/32 827/764/32
f 817/731/32 595/730/32 826/765/32 986/763/32
f 986/763/32 826/765/32 612/766/32 822/767/32
f 827/764/32 986/763/32 822/767/32 613/768/32
f 610/741/33 815/739/33 987/769/33 828/770/33
f 815/739/33 607/734/33 827/764/33 987/769/33
f 987/769/33 827/764/33 613/768/33 820/771/33
f 828/770/33 987/769/33 820/771/33 616/772/33
f 595/730/34 818/746/34 988/773/34 826/765/34
f 818/746/34 609/745/34 825/758/34 988/773/34
f 988/773/34 825/758/34 615/762/34 823/774/34
f 826/765/34 988/773/34 823/774/34 612/766/34
f 618/775/36 831/776/36 989/777/36 832/778/36
f 831/776/36 662/779/36 829/780/36 989/777/36
f 989/777/36 829/780/36 661/781/36 830/782/36
f 832/778/36 989/777/36 830/782/36 619/783/36
f 618/775/30 832/778/30 990/784/30 835/785/30
f 832/778/30 619/783/30 834/786/30 990/784/30
f 990/784/30 834/786/30 621/787/30 833/788/30
f 835/785/30 990/784/30 833/788/30 620/789/30
f 617/790/31 837/791/31 991/792/31 889/793/31
f 837/791/31 622/794/31 836/795/31 991/792/31
f 991/792/31 836/795/31 623/796/31 838/797/31
f 889/793/31 991/792/31 838/797/31 624/798/31
f 625/799/32 850/800/32 992/801/32 841/802/32
f 850/800/32 631/803/32 844/804/32 992/801/32
f 992/801/32 844/804/32 629/805/32 846/806/32
f 841/802/32 992/801/32 846/806/32 630/807/32
f 631/803/33 848/808/33 993/809/33 844/804/33
f 848/808/33 634/810/33 840/811/33 993/809/33
f 993/809/33 840/811/33 626/812/33 847/813/33
f 844/804/33 993/809/33 847/813/33 629/805/33
f 633/814/34 851/815/34 994/816/34 839/817/34
f 851/815/34 625/799/34 841/802/34 994/816/34
f 994/816/34 841/802/34 630/807/34 842/818/34
f 839/817/34 994/816/34 842/818/34 627/819/34
f 632/820/35 849/821/35 995/822/35 845/823/35
f 849/821/35 633/814/35 839/817/35 995/822/35
f 995/822/35 839/817/35 627/819/35 843/824/35
f 845/823/35 995/822/35 843/824/35 628/825/35
f 633/814/35 849/821/35 996/826/35 857/827/35
f 849/821/35 632/820/35 856/828/35 996/826/35
f 996/826/35 856/828/35 637/829/35 853/830/35
f 857/827/35 996/826/35 853/830/35 638/831/35
f 631/803/32 850/800/32 997/832/32 859/833/32
f 850/800/32 625/799/32 858/834/32 997/832/32
f 997/832/32 858/834/32 635/835/32 854/836/32
f 859/833/32 997/832/32 854/836/32 636/837/32
f 634/810/33 848/808/33 998/838/33 860/839/33
f 848/808/33 631/803/33 859/833/33 998/838/33
f 998/838/33 859/833/33 636/837/33 852/840/33
f 860/839/33 998/838/33 852/840/33 639/841/33
f 625/799/34 851/815/34 999/842/34 858/834/34
f 851/815/34 633/814/34 857/827/34 999/842/34
f 999/842/34 857/827/34 638/831/34 855/843/34
f 858/834/34 999/842/34 855/843/34 635/835/34
f 640/844/37 872/845/37 1000/846/37 863/847/37
f 872/845/37 646/848/37 866/849/37 1000/846/37
f 1000/846/37 866/849/37 644/850/37 868/851/37
f 863/847/37 1000/846/37 868/851/37 645/852/37
f 646/848/33 870/853/33 1001/854/33 866/849/33
f 870/853/33 649/855/33 862/856/33 1001/854/33
f 1001/854/33 862/856/33 641/857/33 869/858/33
f 866/849/33 1001/854/33 869/858/33 644/850/33
f 648/859/38 873/860/38 1002/861/38 861/862/38
f 873/860/38 640/844/38 863/847/38 1002/861/38
f 1002/861/38 863/847/38 645/852/38 864/863/38
f 861/862/38 1002/861/38 864/863/38 642/864/38
f 647/865/39 871/866/39 1003/867/39 867/868/39
f 871/866/40 648/859/40 861/862/40 1003/867/40
f 1003/867/41 861/862/41 642/864/41 865/869/41
f 867/868/42 1003/867/42 865/869/42 643/870/42
f 648/859/43 871/866/43 1004/871/43 879/872/43
f 871/866/44 647/865/44 878/873/44 1004/871/44
f 1004/871/45 878/873/45 652/874/45 875/875/45
f 879/872/46 1004/871/46 875/875/46 653/876/46
f 646/848/37 872/845/37 1005/877/37 881/878/37
f 872/845/37 640/844/37 880/879/37 1005/877/37
f 1005/877/37 880/879/37 650/880/37 876/881/37
f 881/878/37 1005/877/37 876/881/37 651/882/37
f 649/855/33 870/853/33 1006/883/33 882/884/33
f 870/853/33 646/848/33 881/878/33 1006/883/33
f 1006/883/33 881/878/33 651/882/33 874/885/33
f 882/884/33 1006/883/33 874/885/33 654/886/33
f 640/844/38 873/860/38 1007/887/38 880/879/38
f 873/860/47 648/859/47 879/872/47 1007/887/47
f 1007/887/47 879/872/47 653/876/47 877/888/47
f 880/879/38 1007/887/38 877/888/38 650/880/38
f 660/889/48 1039/890/48 1038/891/48 1008/892/48 883/893/48
f 1008/892/49 1037/894/49 1036/895/49 658/896/49 884/897/49
f 883/893/50 1008/892/50 884/897/50 655/898/50
f 659/899/51 888/900/51 1009/901/51 886/902/51
f 888/900/52 660/889/52 883/893/52 1009/901/52
f 1009/901/53 883/893/53 655/898/53 885/903/53
f 886/902/54 1009/901/54 885/903/54 656/904/54
f 660/889/35 888/900/35 1041/905/35 1040/906/35
f 888/900/35 659/899/35 1042/907/35 1041/905/35
f 665/908/55 891/909/55 1010/910/55 893/911/55
f 891/909/55 666/912/55 894/913/55 1010/910/55
f 1010/910/55 894/913/55 668/914/55 892/915/55
f 893/911/55 1010/910/55 892/915/55 667/916/55
f 666/912/56 891/909/56 1011/917/56 896/918/56
f 891/909/56 665/908/56 897/919/56 1011/917/56
f 1011/917/56 897/919/56 671/920/56 898/921/56
f 896/918/56 1011/917/56 898/921/56 670/922/56
f 668/914/57 894/913/57 1012/923/57 895/924/57
f 894/913/57 666/912/57 896/918/57 1012/923/57
f 1012/923/57 896/918/57 670/922/57 899/925/57
f 895/924/57 1012/923/57 899/925/57 669/926/57
f 672/927/56 901/928/56 1013/929/56 903/930/56
f 901/928/56 673/931/56 904/932/56 1013/929/56
f 1013/929/56 904/932/56 676/933/56 905/934/56
f 903/930/56 1013/929/56 905/934/56 675/935/56
f 674/936/57 902/937/57 1014/938/57 900/939/57
f 902/937/57 672/927/57 903/930/57 1014/938/57
f 1014/938/57 903/930/57 675/935/57 906/940/57
f 900/939/57 1014/938/57 906/940/57 677/941/57
f 678/942/56 908/943/56 1015/944/56 910/945/56
f 908/943/56 679/946/56 911/947/56 1015/944/56
f 1015/944/56 911/947/56 682/948/56 912/949/56
f 910/945/56 1015/944/56 912/949/56 681/950/56
f 680/951/57 909/952/57 1016/953/57 907/954/57
f 909/952/57 678/942/57 910/945/57 1016/953/57
f 1016/953/57 910/945/57 681/950/57 913/955/57
f 907/954/57 1016/953/57 913/955/57 683/956/57
f 684/957/56 915/958/56 1017/959/56 917/960/56
f 915/958/56 685/961/56 918/962/56 1017/959/56
f 1017/959/56 918/962/56 688/963/56 919/964/56
f 917/960/56 1017/959/56 919/964/56 687/965/56
f 686/966/57 916/967/57 1018/968/57 914/969/57
f 916/967/57 684/957/57 917/960/57 1018/968/57
f 1018/968/57 917/960/57 687/965/57 920/970/57
f 914/969/57 1018/968/57 920/970/57 689/971/57
f 697/972/58 930/973/58 1019/974/58 928/975/58
f 930/973/58 696/976/58 921/977/58 1019/974/58
f 1019/974/58 921/977/58 691/978/58 922/979/58
f 928/975/58 1019/974/58 922/979/58 694/980/58
f 696/976/58 929/981/58 1020/982/58 921/977/58
f 929/981/58 698/983/58 927/984/58 1020/982/58
f 1020/982/58 927/984/58 695/985/58 925/986/58
f 921/977/58 1020/982/58 925/986/58 691/978/58
f 702/987/58 937/988/58 1021/989/58 935/990/58
f 937/988/58 703/991/58 931/992/58 1021/989/58
f 1021/989/58 931/992/58 700/993/58 933/994/58
f 935/990/58 1021/989/58 933/994/58 699/995/58
f 703/991/58 936/996/58 1022/997/58 931/992/58
f 936/996/58 704/998/58 932/999/58 1022/997/58
f 1022/997/58 932/999/58 701/1000/58 934/1001/58
f 931/992/58 1022/997/58 934/1001/58 700/993/58
f 690/1002/58 924/1003/58 1023/1004/58 926/1005/58
f 924/1003/58 693/1006/58 938/1007/58 1023/1004/58
f 1023/1004/58 938/1007/58 706/1008/58 940/1009/58
f 926/1005/58 1023/1004/58 940/1009/58 705/1010/58
f 693/1006/59 923/1011/59 1024/1012/59 938/1007/59
f 923/1011/60 692/1013/60 939/1014/60 1024/1012/60
f 1024/1012/61 939/1014/61 707/1015/61 941/1016/61
f 938/1007/62 1024/1012/62 941/1016/62 706/1008/62
f 707/1015/63 939/1014/63 1025/1017/63 942/1018/63
f 692/1013/63 943/1019/63 1025/1017/63 939/1014/63
f 708/1020/63 942/1018/63 1025/1017/63 943/1019/63
f 1026/1021/64 946/1022/64 711/1023/64 947/1024/64
f 945/1025/64 1026/1021/64 947/1024/64 710/1026/64
f 944/1027/65 709/1028/65 948/1029/65 1027/1030/65
f 1027/1030/65 948/1029/65 711/1023/65 946/1022/65
f 1038/891/66 1037/894/66 1008/892/66
f 1028/1031/64 1030/1032/64 946/1022/64 1026/1021/64
f 1034/1033/67 1033/1034/67 657/1035/67
f 1030/1032/65 1031/1036/65 1027/1030/65 946/1022/65
f 1035/1037/68 1034/1033/68 657/1035/68 887/1038/68
f 1029/1039/64 1028/1031/64 1026/1021/64 945/1025/64
f 1040/906/69 1039/890/69 660/889/69
f 1036/895/68 1035/1037/68 887/1038/68 658/896/68
f 1031/1036/65 1032/1040/65 944/1027/65 1027/1030/65
