# Blender 4.0.2
# www.blender.org
o room
v -1.500000 -2.500000 -1.500000
v -1.500000 -1.141812 -1.500000
v -1.500000 0.015807 -1.500000
v 0.210225 -2.500000 -1.500000
v 0.210225 -0.322509 -1.500000
v 0.210225 -0.031526 -1.500000
v -1.500000 -2.500000 -0.875000
v -1.500000 -2.500000 -0.250000
v -1.500000 -1.311585 -1.500000
v -1.500000 -1.481359 -1.500000
v -1.500000 -1.651132 -1.500000
v -1.500000 -1.820906 -1.500000
v -1.500000 -1.990679 -1.500000
v -1.500000 -2.160453 -1.500000
v -1.500000 -2.330226 -1.500000
v -0.003553 -2.500000 -1.500000
v -0.217331 -2.500000 -1.500000
v -0.431109 -2.500000 -1.500000
v -0.644887 -2.500000 -1.500000
v -0.858666 -2.500000 -1.500000
v -1.072444 -2.500000 -1.500000
v -1.286222 -2.500000 -1.500000
v 0.210225 -0.322509 2.875000
v 0.210225 -0.322509 2.250000
v 0.210225 -0.322509 1.625000
v 0.210225 -0.322509 1.000000
v 0.210225 -0.322509 0.375000
v 0.210225 -0.322509 -0.250000
v 0.210225 -0.322509 -0.875000
v 0.746447 -0.322509 -1.500000
v 1.282669 -0.322509 -1.500000
v 1.818891 -0.322509 -1.500000
v 2.355113 -0.322509 -1.500000
v 2.891335 -0.322509 -1.500000
v -1.500000 -1.141812 1.625000
v -1.500000 -1.141812 1.000000
v -1.500000 -1.141812 0.375000
v -1.500000 -1.141812 -0.250000
v -1.500000 -1.141812 -0.875000
v -1.500000 2.969457 -1.500000
v -1.500000 2.547507 -1.500000
v -1.500000 2.125557 -1.500000
v -1.500000 1.703607 -1.500000
v -1.500000 1.281657 -1.500000
v -1.500000 0.859707 -1.500000
v -1.500000 0.437757 -1.500000
v 0.746447 -0.025610 -1.500000
v 1.282669 -0.019693 -1.500000
v 1.818891 -0.013777 -1.500000
v 2.355113 -0.007860 -1.500000
v 2.891335 -0.001943 -1.500000
v -1.286222 -1.039399 -1.500000
v -1.072444 -0.936986 -1.500000
v -0.858666 -0.834573 -1.500000
v -0.644887 -0.732160 -1.500000
v -0.431109 -0.629748 -1.500000
v -0.217331 -0.527335 -1.500000
v -0.003553 -0.424922 -1.500000
v -1.286222 0.009890 -1.500000
v -1.072444 0.003974 -1.500000
v -0.858666 -0.001943 -1.500000
v -0.644887 -0.007860 -1.500000
v -0.431109 -0.013777 -1.500000
v -0.217331 -0.019693 -1.500000
v -0.003553 -0.025610 -1.500000
v 0.210225 -0.594695 -1.500000
v 0.210225 -0.866882 -1.500000
v 0.210225 -1.139068 -1.500000
v 0.210225 -1.411255 -1.500000
v 0.210225 -1.683441 -1.500000
v 0.210225 -1.955627 -1.500000
v 0.210225 -2.227814 -1.500000
v 0.210225 -0.067899 -1.500000
v 0.210225 -0.104272 -1.500000
v 0.210225 -0.140645 -1.500000
v 0.210225 -0.177018 -1.500000
v 0.210225 -0.213391 -1.500000
v 0.210225 -0.249763 -1.500000
v 0.210225 -0.286136 -1.500000
v 0.210225 2.963541 -1.500000
v 0.210225 2.535674 -1.500000
v 0.210225 2.107807 -1.500000
v 0.210225 1.679941 -1.500000
v 0.210225 1.252074 -1.500000
v 0.210225 0.824207 -1.500000
v 0.210225 0.396340 -1.500000
v 0.210225 -0.031527 2.875000
v 0.210225 -0.031526 2.250000
v 0.210225 -0.031527 1.625000
v 0.210225 -0.031526 1.000000
v 0.210225 -0.031526 0.375000
v 0.210225 -0.031526 -0.250000
v 0.210225 -0.031526 -0.875000
v -1.500000 0.015807 1.625000
v -1.500000 0.015807 1.000000
v -1.500000 0.015807 0.375000
v -1.500000 0.015807 -0.250000
v -1.500000 0.015807 -0.875000
v -1.500000 0.437757 1.625000
v -1.500000 0.437757 1.000000
v -1.500000 0.437757 0.375000
v -1.500000 0.437757 -0.250000
v -1.500000 0.437757 -0.875000
v -1.500000 0.859707 1.625000
v -1.500000 0.859707 1.000000
v -1.500000 0.859707 0.375000
v -1.500000 0.859707 -0.250000
v -1.500000 0.859707 -0.875000
v -1.500000 1.281657 1.625000
v -1.500000 1.281657 1.000000
v -1.500000 1.281657 0.375000
v -1.500000 1.281657 -0.250000
v -1.500000 1.281657 -0.875000
v -1.500000 1.703607 1.625000
v -1.500000 1.703607 1.000000
v -1.500000 1.703607 0.375000
v -1.500000 1.703607 -0.250000
v -1.500000 1.703607 -0.875000
v -1.500000 2.125557 1.625000
v -1.500000 2.125557 1.000000
v -1.500000 2.125557 0.375000
v -1.500000 2.125557 -0.250000
v -1.500000 2.125557 -0.875000
v -1.500000 2.547507 1.625000
v -1.500000 2.547507 1.000000
v -1.500000 2.547507 0.375000
v -1.500000 2.547507 -0.250000
v -1.500000 2.547507 -0.875000
v -1.500000 2.969457 1.000000
v -1.500000 2.969457 0.375000
v -1.500000 2.969457 -0.250000
v -1.500000 2.969457 -0.875000
v 0.746447 0.401518 -1.500000
v 1.282669 0.406695 -1.500000
v 1.818891 0.411872 -1.500000
v 2.355113 0.417049 -1.500000
v 2.891335 0.422226 -1.500000
v 0.746447 0.828645 -1.500000
v 1.282669 0.833082 -1.500000
v 1.818891 0.837520 -1.500000
v 2.355113 0.841957 -1.500000
v 2.891335 0.846395 -1.500000
v 0.746447 1.255771 -1.500000
v 1.282669 1.259470 -1.500000
v 1.818891 1.263167 -1.500000
v 2.355113 1.266865 -1.500000
v 2.891335 1.270563 -1.500000
v 0.746447 1.682899 -1.500000
v 1.282669 1.685857 -1.500000
v 1.818891 1.688816 -1.500000
v 2.355113 1.691773 -1.500000
v 2.891335 1.694732 -1.500000
v 0.746447 2.110025 -1.500000
v 1.282669 2.112245 -1.500000
v 1.818891 2.114463 -1.500000
v 2.355113 2.116682 -1.500000
v 2.891335 2.118901 -1.500000
v 0.746447 2.537153 -1.500000
v 1.282669 2.538632 -1.500000
v 1.818891 2.540111 -1.500000
v 2.355113 2.541591 -1.500000
v 2.891335 2.543069 -1.500000
v 0.746447 -0.285397 -1.500000
v 1.282669 -0.284657 -1.500000
v 1.818891 -0.283918 -1.500000
v 2.355113 -0.283178 -1.500000
v 2.891335 -0.282439 -1.500000
v 0.746447 -0.248284 -1.500000
v 1.282669 -0.246805 -1.500000
v 1.818891 -0.245326 -1.500000
v 2.355113 -0.243847 -1.500000
v 2.891335 -0.242368 -1.500000
v 0.746447 -0.211172 -1.500000
v 1.282669 -0.208953 -1.500000
v 1.818891 -0.206734 -1.500000
v 2.355113 -0.204515 -1.500000
v 2.891335 -0.202297 -1.500000
v 0.746447 -0.174059 -1.500000
v 1.282669 -0.171101 -1.500000
v 1.818891 -0.168143 -1.500000
v 2.355113 -0.165184 -1.500000
v 2.891335 -0.162226 -1.500000
v 0.746447 -0.136947 -1.500000
v 1.282669 -0.133249 -1.500000
v 1.818891 -0.129551 -1.500000
v 2.355113 -0.125853 -1.500000
v 2.891335 -0.122155 -1.500000
v 0.746447 -0.099834 -1.500000
v 1.282669 -0.095397 -1.500000
v 1.818891 -0.090960 -1.500000
v 2.355113 -0.086522 -1.500000
v 2.891335 -0.082084 -1.500000
v 0.746447 -0.062722 -1.500000
v 1.282669 -0.057545 -1.500000
v 1.818891 -0.052368 -1.500000
v 2.355113 -0.047191 -1.500000
v 2.891335 -0.042014 -1.500000
v -1.500000 -2.330226 0.375000
v -1.500000 -2.330226 -0.250000
v -1.500000 -2.330226 -0.875000
v -1.500000 -2.160453 0.375000
v -1.500000 -2.160453 -0.250000
v -1.500000 -2.160453 -0.875000
v -1.500000 -1.990679 1.000000
v -1.500000 -1.990679 0.375000
v -1.500000 -1.990679 -0.250000
v -1.500000 -1.990679 -0.875000
v -1.500000 -1.820906 1.625000
v -1.500000 -1.820906 1.000000
v -1.500000 -1.820906 0.375000
v -1.500000 -1.820906 -0.250000
v -1.500000 -1.820906 -0.875000
v -1.500000 -1.651132 1.625000
v -1.500000 -1.651132 1.000000
v -1.500000 -1.651132 0.375000
v -1.500000 -1.651132 -0.250000
v -1.500000 -1.651132 -0.875000
v -1.500000 -1.481359 2.250000
v -1.500000 -1.481359 1.625000
v -1.500000 -1.481359 1.000000
v -1.500000 -1.481359 0.375000
v -1.500000 -1.481359 -0.250000
v -1.500000 -1.481359 -0.875000
v -1.500000 -1.311585 1.625000
v -1.500000 -1.311585 1.000000
v -1.500000 -1.311585 0.375000
v -1.500000 -1.311585 -0.250000
v -1.500000 -1.311585 -0.875000
v 0.746447 -2.227813 -1.500000
v 1.282669 -2.227814 -1.500000
v 0.746447 -1.955627 -1.500000
v 1.282669 -1.955627 -1.500000
v 1.818891 -1.955627 -1.500000
v 0.746447 -1.683441 -1.500000
v 1.282669 -1.683441 -1.500000
v 1.818891 -1.683441 -1.500000
v 2.355113 -1.683441 -1.500000
v 2.891335 -1.683441 -1.500000
v 0.746447 -1.411255 -1.500000
v 1.282669 -1.411255 -1.500000
v 1.818891 -1.411255 -1.500000
v 2.355113 -1.411255 -1.500000
v 2.891335 -1.411255 -1.500000
v 0.746447 -1.139068 -1.500000
v 1.282669 -1.139068 -1.500000
v 1.818891 -1.139068 -1.500000
v 2.355113 -1.139068 -1.500000
v 2.891335 -1.139068 -1.500000
v 0.746447 -0.866882 -1.500000
v 1.282669 -0.866882 -1.500000
v 1.818891 -0.866882 -1.500000
v 2.355113 -0.866882 -1.500000
v 2.891335 -0.866882 -1.500000
v 0.746447 -0.594696 -1.500000
v 1.282669 -0.594695 -1.500000
v 1.818891 -0.594695 -1.500000
v 2.355113 -0.594695 -1.500000
v 2.891335 -0.594696 -1.500000
v -1.286222 -2.317425 -1.500000
v -1.072444 -2.304623 -1.500000
v -0.858666 -2.291822 -1.500000
v -0.644888 -2.279020 -1.500000
v -0.431109 -2.266218 -1.500000
v -0.217331 -2.253417 -1.500000
v -0.003553 -2.240615 -1.500000
v -1.286222 -2.134850 -1.500000
v -1.072444 -2.109246 -1.500000
v -0.858666 -2.083643 -1.500000
v -0.644887 -2.058040 -1.500000
v -0.431109 -2.032437 -1.500000
v -0.217331 -2.006834 -1.500000
v -0.003553 -1.981230 -1.500000
v -1.286222 -1.952275 -1.500000
v -1.072444 -1.913870 -1.500000
v -0.858666 -1.875465 -1.500000
v -0.644887 -1.837060 -1.500000
v -0.431109 -1.798655 -1.500000
v -0.217331 -1.760251 -1.500000
v -0.003553 -1.721846 -1.500000
v -1.286222 -1.769699 -1.500000
v -1.072444 -1.718493 -1.500000
v -0.858666 -1.667287 -1.500000
v -0.644887 -1.616080 -1.500000
v -0.431109 -1.564874 -1.500000
v -0.217331 -1.513667 -1.500000
v -0.003553 -1.462461 -1.500000
v -1.286222 -1.587124 -1.500000
v -1.072444 -1.523116 -1.500000
v -0.858666 -1.459108 -1.500000
v -0.644887 -1.395100 -1.500000
v -0.431109 -1.331092 -1.500000
v -0.217331 -1.267084 -1.500000
v -0.003553 -1.203076 -1.500000
v -1.286222 -1.404549 -1.500000
v -1.072444 -1.327739 -1.500000
v -0.858666 -1.250930 -1.500000
v -0.644887 -1.174120 -1.500000
v -0.431109 -1.097311 -1.500000
v -0.217331 -1.020501 -1.500000
v -0.003553 -0.943691 -1.500000
v -1.286222 -1.221974 -1.500000
v -1.072444 -1.132363 -1.500000
v -0.858666 -1.042752 -1.500000
v -0.644887 -0.953140 -1.500000
v -0.431109 -0.863529 -1.500000
v -0.217331 -0.773918 -1.500000
v -0.003553 -0.684307 -1.500000
v -1.286222 -2.500000 -0.875000
v -1.286222 -2.500000 -0.250000
v -1.072444 -2.500000 -0.875000
v -1.072444 -2.500000 -0.250000
v -0.858666 -2.500000 -0.875000
v -0.644887 -2.500000 -0.875000
v -0.431109 -2.500000 -0.875000
v -0.217331 -2.500000 -0.875000
v -1.286222 0.432580 -1.500000
v -1.072444 0.427403 -1.500000
v -0.858666 0.422225 -1.500000
v -0.644888 0.417049 -1.500000
v -0.431109 0.411872 -1.500000
v -0.217331 0.406695 -1.500000
v -0.003553 0.401517 -1.500000
v -1.286222 0.855270 -1.500000
v -1.072444 0.850832 -1.500000
v -0.858666 0.846395 -1.500000
v -0.644887 0.841957 -1.500000
v -0.431109 0.837520 -1.500000
v -0.217331 0.833082 -1.500000
v -0.003553 0.828645 -1.500000
v -1.286222 1.277959 -1.500000
v -1.072444 1.274261 -1.500000
v -0.858666 1.270563 -1.500000
v -0.644887 1.266865 -1.500000
v -0.431109 1.263167 -1.500000
v -0.217331 1.259470 -1.500000
v -0.003553 1.255772 -1.500000
v -1.286222 1.700649 -1.500000
v -1.072444 1.697690 -1.500000
v -0.858666 1.694732 -1.500000
v -0.644887 1.691774 -1.500000
v -0.431109 1.688815 -1.500000
v -0.217331 1.685857 -1.500000
v -0.003553 1.682899 -1.500000
v -1.286222 2.123338 -1.500000
v -1.072444 2.121119 -1.500000
v -0.858666 2.118901 -1.500000
v -0.644887 2.116682 -1.500000
v -0.431109 2.114463 -1.500000
v -0.217331 2.112245 -1.500000
v -0.003553 2.110026 -1.500000
v -1.286222 2.546028 -1.500000
v -1.072444 2.544549 -1.500000
v -0.858666 2.543069 -1.500000
v -0.644887 2.541591 -1.500000
v -0.431109 2.540111 -1.500000
v -0.217331 2.538632 -1.500000
v -0.003553 2.537153 -1.500000
v -1.286222 2.968717 -1.500000
v -1.072444 2.967978 -1.500000
v -0.858666 2.967238 -1.500000
v -0.644887 2.966498 -1.500000
v -0.431109 2.965759 -1.500000
v -0.217331 2.965019 -1.500000
v -0.003553 2.964280 -1.500000
v 0.210225 -0.067899 2.875000
v 0.210225 -0.104272 2.875000
v 0.210225 -0.140645 2.875000
v 0.210225 -0.177018 2.875000
v 0.210225 -0.213391 2.875000
v 0.210225 -0.249763 2.875000
v 0.210225 -0.286136 2.875000
v 0.210225 -0.067899 2.250000
v 0.210225 -0.104272 2.250000
v 0.210225 -0.140645 2.250000
v 0.210225 -0.177018 2.250001
v 0.210225 -0.213391 2.250000
v 0.210225 -0.249763 2.250000
v 0.210225 -0.286136 2.250000
v 0.210225 -0.067899 1.625000
v 0.210225 -0.104272 1.625000
v 0.210225 -0.140645 1.625000
v 0.210225 -0.177018 1.625000
v 0.210225 -0.213391 1.625000
v 0.210225 -0.249763 1.625000
v 0.210225 -0.286136 1.625000
v 0.210225 -0.067899 1.000000
v 0.210225 -0.104272 1.000000
v 0.210225 -0.140645 1.000000
v 0.210225 -0.177018 1.000000
v 0.210225 -0.213391 1.000000
v 0.210225 -0.249763 1.000000
v 0.210225 -0.286136 1.000000
v 0.210225 -0.067899 0.375000
v 0.210225 -0.104272 0.375000
v 0.210225 -0.140645 0.375000
v 0.210225 -0.177018 0.375000
v 0.210225 -0.213391 0.375000
v 0.210225 -0.249763 0.375000
v 0.210225 -0.286136 0.375000
v 0.210225 -0.067899 -0.250000
v 0.210225 -0.104272 -0.250000
v 0.210225 -0.140645 -0.250000
v 0.210225 -0.177018 -0.250000
v 0.210225 -0.213391 -0.250000
v 0.210225 -0.249763 -0.250000
v 0.210225 -0.286136 -0.250000
v 0.210225 -0.067899 -0.875000
v 0.210225 -0.104272 -0.875000
v 0.210225 -0.140645 -0.875000
v 0.210225 -0.177018 -0.875000
v 0.210225 -0.213391 -0.875000
v 0.210225 -0.249763 -0.875000
v 0.210225 -0.286136 -0.875000
v -1.286222 0.009890 -0.875000
v -1.286222 0.009890 -0.250000
v -1.286222 0.009890 0.375000
v -1.286222 0.009890 1.000000
v -1.286222 0.009890 1.625000
v -1.072444 0.003974 -0.875000
v -1.072444 0.003974 -0.250000
v -1.072444 0.003973 0.375000
v -1.072444 0.003974 1.000000
v -1.072444 0.003973 1.625000
v -1.072444 0.003974 2.250000
v -0.858666 -0.001943 -0.875000
v -0.858666 -0.001943 -0.250000
v -0.858666 -0.001943 0.375000
v -0.858666 -0.001943 1.000000
v -0.858666 -0.001943 1.625000
v -0.858666 -0.001943 2.250000
v -0.644887 -0.007859 -0.875000
v -0.644887 -0.007859 -0.250000
v -0.644887 -0.007860 0.375000
v -0.644887 -0.007860 1.000000
v -0.644887 -0.007860 1.625000
v -0.644887 -0.007859 2.250001
v -0.431109 -0.013777 -0.875000
v -0.431109 -0.013776 -0.250000
v -0.431109 -0.013777 0.375000
v -0.431109 -0.013777 1.000000
v -0.431109 -0.013777 1.625000
v -0.431109 -0.013777 2.250000
v -0.217331 -0.019693 -0.875000
v -0.217331 -0.019693 -0.250000
v -0.217331 -0.019693 0.375000
v -0.217331 -0.019693 1.000000
v -0.217331 -0.019693 1.625000
v -0.217331 -0.019693 2.250000
v -0.003553 -0.025610 -0.875000
v -0.003553 -0.025609 -0.250000
v -0.003553 -0.025610 0.375000
v -0.003553 -0.025610 1.000000
v -0.003553 -0.025610 1.625000
v -0.003553 -0.025610 2.250000
v 3.027797 2.736602 -1.500001
v 2.891335 2.750015 -1.500000
v 2.355113 2.802721 -1.500000
v 1.818891 2.855428 -1.500000
v 1.282669 2.908134 -1.500000
v 0.711938 2.964232 -1.500000
v 0.210225 3.013546 -1.500000
v -0.003553 3.034559 -1.500000
v -0.217331 3.055572 -1.500000
v -0.431109 3.076584 -1.500000
v -0.644887 3.097597 -1.500000
v 0.746447 2.960840 -1.500000
v -1.500000 3.181648 -1.500000
v -1.072444 3.139622 -1.500000
v -1.286222 3.160635 -1.500000
v -0.858666 3.118609 -1.500000
v -1.500000 3.131193 -0.875000
v -1.500000 3.080739 -0.250000
v -1.500000 3.030284 0.375000
v -1.500000 2.979829 1.000000
v -1.500000 2.969457 1.128492
v 3.065076 2.119619 -1.500000
v 3.090683 1.695832 -1.500000
v 3.116284 1.272114 -1.500000
v 3.141882 0.848468 -1.500000
v 3.167476 0.424892 -1.500000
v 3.193065 0.001386 -1.500000
v 3.200401 -0.120024 -1.500000
v 3.197955 -0.079547 -1.500000
v 3.195509 -0.039077 -1.500000
v 3.202847 -0.160507 -1.500000
v 3.205293 -0.200998 -1.500000
v 3.210187 -0.281999 -1.500000
v 3.207740 -0.241495 -1.500000
v 3.212635 -0.322509 -1.500000
v 3.229081 -0.594695 -1.500000
v 3.245527 -0.866882 -1.500000
v 3.261973 -1.139068 -1.500000
v 3.278419 -1.411255 -1.500000
v 3.289616 -1.596561 -1.500000
v 3.039467 2.543478 -1.500000
v 2.891335 -1.735364 -1.500000
v 2.355113 -1.922240 -1.500000
v 2.259313 -1.955627 -1.500000
v 1.818891 -2.109117 -1.500000
v 1.478302 -2.227814 -1.500000
v 1.282669 -2.295993 -1.500000
v 0.746447 -2.482869 -1.500000
v -0.003553 -2.500000 -0.958187
v 0.210225 -2.500000 -1.123455
v 0.697292 -2.500000 -1.500000
v -0.111156 -2.500000 -0.875000
v -0.217331 -2.500000 -0.792917
v -0.431109 -2.500000 -0.627648
v -0.644887 -2.500000 -0.462379
v -1.499999 -1.562982 2.277275
v -1.500000 -1.575278 2.250000
v -1.500000 -1.990679 1.328519
v -1.500000 -1.857026 1.625000
v -1.500000 -2.138774 1.000000
v -1.500000 -1.651132 2.081733
v -1.500000 -1.820906 1.705125
v -1.500000 -2.500000 0.198696
v -1.500000 -2.420523 0.375000
v -1.500000 -2.160453 0.951910
v -1.500000 -2.330226 0.575304
v -0.858666 -2.500000 -0.297111
v -0.919604 -2.500000 -0.250000
v -1.072444 -2.500000 -0.131841
v -1.286222 -2.500000 0.033427
v 3.040323 -1.683441 -1.500000
v -1.500000 2.929375 1.625000
v -1.500000 2.917467 1.772508
v -0.431109 -0.013776 2.633558
v -0.217331 -0.019693 2.740388
v -0.644887 -0.007859 2.526728
v -0.003553 -0.025610 2.847218
v 0.052042 -0.027148 2.875000
v 0.210225 -0.067899 2.958146
v 0.210225 -0.031527 2.954048
v 0.210225 -0.213391 2.974536
v 0.210225 -0.177018 2.970439
v 0.210225 -0.140645 2.966341
v 0.210225 -0.104272 2.962243
v 0.210225 -0.286136 2.982732
v 0.210225 -0.249763 2.978634
v 0.210225 -0.322509 2.986830
v -1.500000 2.547507 1.814187
v -1.500000 2.125557 1.861724
v -1.500000 1.703607 1.909261
v -1.500000 1.281657 1.956798
v -1.500000 0.859707 2.004334
v -1.500000 0.015807 2.099408
v -1.500000 0.437757 2.051872
v -1.286222 0.009890 2.206238
v -1.198649 0.007467 2.250000
v -0.858666 -0.001943 2.419898
v -1.072444 0.003973 2.313068
v -1.500000 -1.141812 2.229825
v -1.500000 -1.311585 2.248952
v -1.500000 -1.320889 2.250000
v -1.500000 -1.481359 2.268079
vn 1.0000 -0.0000 -0.0000
vn -0.0000 -0.0000 1.0000
vn -0.0000 1.0000 -0.0000
vn 0.0277 0.9996 -0.0000
vt 0.071279 0.447106
vt 0.157222 0.470600
vt 0.151976 0.552709
vt 0.064673 0.534416
vt 0.233154 0.491357
vt 0.229004 0.568850
vt 0.300727 0.509829
vt 0.297469 0.583196
vt 0.361249 0.526374
vt 0.358725 0.596031
vt 0.146613 0.636649
vt 0.057909 0.623803
vt 0.224767 0.647967
vt 0.294148 0.658014
vt 0.356154 0.666993
vt 0.141129 0.722480
vt 0.050983 0.715343
vt 0.220440 0.728759
vt 0.290760 0.734327
vt 0.353534 0.739297
vt 0.135520 0.810268
vt 0.043887 0.809113
vt 0.216021 0.811282
vt 0.287303 0.812181
vt 0.350864 0.812982
vt 0.129782 0.900080
vt 0.036617 0.905197
vt 0.211506 0.895591
vt 0.283776 0.891621
vt 0.348142 0.888086
vt 0.123910 0.991987
vt 0.104431 0.994391
vt 0.029873 0.994326
vt 0.206893 0.981744
vt 0.280176 0.972699
vt 0.345367 0.964652
vt 0.077734 0.361801
vt 0.162355 0.390261
vt 0.237219 0.415439
vt 0.303921 0.437872
vt 0.363727 0.457986
vt 0.417654 0.476123
vt 0.415770 0.541278
vt 0.413853 0.607583
vt 0.411902 0.675066
vt 0.409915 0.743761
vt 0.407893 0.813700
vt 0.405833 0.884917
vt 0.403736 0.957448
vt 0.402662 0.994602
vt 0.344283 0.994578
vt 0.279207 0.994527
vt 0.206213 0.994438
vt 0.123762 0.994299
vt 0.640761 0.496790
vt 0.706794 0.486366
vt 0.707602 0.568319
vt 0.640840 0.575461
vt 0.778981 0.474971
vt 0.780653 0.560505
vt 0.858222 0.462462
vt 0.860926 0.551917
vt 0.945604 0.448667
vt 0.949547 0.542437
vt 0.995478 0.440794
vt 0.995497 0.537521
vt 0.708427 0.652092
vt 0.640920 0.655806
vt 0.782364 0.648024
vt 0.863695 0.643549
vt 0.953590 0.638604
vt 0.995493 0.636298
vt 0.709270 0.737745
vt 0.641003 0.737878
vt 0.784115 0.737599
vt 0.866534 0.737439
vt 0.957739 0.737261
vt 0.995464 0.737188
vt 0.710133 0.825342
vt 0.641087 0.821733
vt 0.785907 0.829303
vt 0.869442 0.833670
vt 0.961996 0.838507
vt 0.995406 0.840254
vt 0.711016 0.914951
vt 0.641173 0.907431
vt 0.787743 0.923212
vt 0.872425 0.932331
vt 0.966366 0.942446
vt 0.995319 0.945563
vt 0.711799 0.994408
vt 0.641260 0.994326
vt 0.789136 0.994473
vt 0.874305 0.994514
vt 0.968556 0.994522
vt 0.995289 0.994680
vt 0.580651 0.432209
vt 0.640683 0.419740
vt 0.580125 0.506362
vt 0.706005 0.406173
vt 0.777346 0.391355
vt 0.855581 0.375106
vt 0.941758 0.357207
vt 0.995437 0.346058
vt 0.576732 0.984430
vt 0.637108 0.994349
vt 0.576661 0.994443
vt 0.577328 0.900556
vt 0.577910 0.818431
vt 0.578481 0.738000
vt 0.579040 0.659211
vt 0.579588 0.582014
vt 0.640637 0.373649
vt 0.705522 0.357202
vt 0.705591 0.364158
vt 0.640644 0.380198
vt 0.776328 0.339254
vt 0.776472 0.346652
vt 0.853903 0.319591
vt 0.854141 0.327470
vt 0.939267 0.297953
vt 0.939620 0.306359
vt 0.995393 0.283726
vt 0.995400 0.292583
vt 0.705659 0.371127
vt 0.640650 0.386759
vt 0.776617 0.354065
vt 0.854380 0.335366
vt 0.939975 0.314784
vt 0.995406 0.301456
vt 0.705728 0.378110
vt 0.640657 0.393332
vt 0.776762 0.361493
vt 0.854619 0.343280
vt 0.940330 0.323230
vt 0.995412 0.310344
vt 0.705797 0.385105
vt 0.640663 0.399916
vt 0.776908 0.368936
vt 0.854859 0.351211
vt 0.940686 0.331695
vt 0.995419 0.319249
vt 0.705866 0.392114
vt 0.640670 0.406512
vt 0.777054 0.376394
vt 0.855099 0.359158
vt 0.941042 0.340179
vt 0.995425 0.328169
vt 0.705935 0.399137
vt 0.640677 0.413120
vt 0.777200 0.383867
vt 0.855340 0.367123
vt 0.941400 0.348683
vt 0.995431 0.337106
vt 0.581003 0.382612
vt 0.640630 0.367111
vt 0.580960 0.388775
vt 0.705454 0.350259
vt 0.776183 0.331871
vt 0.853665 0.311728
vt 0.938914 0.289566
vt 0.995386 0.274885
vt 0.580696 0.425973
vt 0.580740 0.419747
vt 0.580784 0.413532
vt 0.580828 0.407327
vt 0.580872 0.401133
vt 0.580916 0.394949
vt 0.258397 0.019970
vt 0.320621 0.061730
vt 0.319470 0.087665
vt 0.256941 0.047164
vt 0.376722 0.099381
vt 0.375824 0.124167
vt 0.318310 0.113792
vt 0.255474 0.074569
vt 0.374919 0.149128
vt 0.185323 0.030781
vt 0.253994 0.102189
vt 0.183467 0.059834
vt 0.317141 0.140112
vt 0.374009 0.174264
vt 0.104185 0.012221
vt 0.181595 0.089129
vt 0.101846 0.043132
vt 0.252504 0.130027
vt 0.315964 0.166629
vt 0.373091 0.199578
vt 0.179708 0.118668
vt 0.099487 0.074316
vt 0.251001 0.158084
vt 0.314778 0.193344
vt 0.372167 0.225072
vt 0.008548 0.024039
vt 0.097106 0.105780
vt 0.005728 0.057456
vt 0.005737 0.055548
vt 0.177805 0.148455
vt 0.249487 0.186363
vt 0.313583 0.220259
vt 0.371237 0.250748
vt 0.321764 0.035985
vt 0.377614 0.074767
vt 0.428243 0.109924
vt 0.427561 0.133501
vt 0.426875 0.157234
vt 0.426184 0.181127
vt 0.425489 0.205180
vt 0.424789 0.229396
vt 0.424084 0.253775
vt 0.423374 0.278320
vt 0.422659 0.303031
vt 0.370300 0.276608
vt 0.312379 0.247377
vt 0.247960 0.214867
vt 0.175886 0.178494
vt 0.094704 0.137524
vt 0.583495 0.031534
vt 0.554249 0.005018
vt 0.635061 0.005497
vt 0.640308 0.046412
vt 0.702171 0.016988
vt 0.702622 0.062730
vt 0.640353 0.090501
vt 0.726700 0.005321
vt 0.769808 0.005734
vt 0.770332 0.032533
vt 0.703078 0.109075
vt 0.640397 0.135147
vt 0.771274 0.080709
vt 0.831027 0.005464
vt 0.844415 0.005728
vt 0.845746 0.049732
vt 0.703541 0.156034
vt 0.640443 0.180361
vt 0.772228 0.129551
vt 0.847284 0.100614
vt 0.927402 0.015767
vt 0.929634 0.068864
vt 0.952389 0.005373
vt 0.995104 0.005487
vt 0.995155 0.043603
vt 0.704009 0.203618
vt 0.640489 0.226152
vt 0.773197 0.179074
vt 0.848844 0.152238
vt 0.931901 0.122774
vt 0.995223 0.100310
vt 0.704484 0.251842
vt 0.640536 0.272534
vt 0.774178 0.229292
vt 0.850428 0.204621
vt 0.934203 0.177514
vt 0.995285 0.157750
vt 0.704966 0.300718
vt 0.640583 0.319516
vt 0.775174 0.280219
vt 0.852034 0.257778
vt 0.936540 0.233105
vt 0.995339 0.215937
vt 0.640267 0.005609
vt 0.583196 0.073576
vt 0.581328 0.336817
vt 0.581649 0.291587
vt 0.581966 0.246913
vt 0.582280 0.202785
vt 0.582589 0.159193
vt 0.582895 0.116126
vt 0.445102 0.126747
vt 0.463142 0.119801
vt 0.462470 0.147856
vt 0.444417 0.152613
vt 0.481704 0.112654
vt 0.481057 0.142959
vt 0.500811 0.105297
vt 0.500201 0.137914
vt 0.520487 0.097721
vt 0.519930 0.132716
vt 0.540758 0.089916
vt 0.540268 0.127358
vt 0.561652 0.081872
vt 0.561246 0.121830
vt 0.461792 0.176133
vt 0.443727 0.178667
vt 0.480404 0.173523
vt 0.499586 0.170833
vt 0.519367 0.168059
vt 0.539773 0.165197
vt 0.560837 0.162243
vt 0.461109 0.204636
vt 0.443032 0.204912
vt 0.479745 0.204352
vt 0.498965 0.204058
vt 0.518798 0.203755
vt 0.539273 0.203442
vt 0.560422 0.203119
vt 0.460421 0.233367
vt 0.442332 0.231351
vt 0.479080 0.235447
vt 0.498338 0.237593
vt 0.518223 0.239809
vt 0.538767 0.242099
vt 0.560003 0.244466
vt 0.459727 0.262329
vt 0.441627 0.257985
vt 0.478410 0.266812
vt 0.497705 0.271443
vt 0.517643 0.276227
vt 0.538256 0.281174
vt 0.559579 0.286291
vt 0.459027 0.291524
vt 0.440917 0.284816
vt 0.477734 0.298451
vt 0.497067 0.305611
vt 0.517057 0.313014
vt 0.537739 0.320674
vt 0.559150 0.328603
vt 0.445781 0.101069
vt 0.463809 0.091966
vt 0.482346 0.082606
vt 0.501415 0.072978
vt 0.521039 0.063069
vt 0.541243 0.052868
vt 0.562052 0.042360
vt 0.558716 0.371411
vt 0.537217 0.360606
vt 0.516465 0.350176
vt 0.496422 0.340103
vt 0.477052 0.330368
vt 0.458322 0.320955
vt 0.440201 0.311848
vt 0.395294 0.064964
vt 0.339521 0.025079
vt 0.357826 0.013837
vt 0.413492 0.054873
vt 0.311435 0.004994
vt 0.346120 0.005208
vt 0.371322 0.005548
vt 0.380889 0.005426
vt 0.432230 0.044482
vt 0.414992 0.005060
vt 0.451534 0.033778
vt 0.449609 0.005009
vt 0.471430 0.022746
vt 0.484737 0.005303
vt 0.491945 0.011370
vt 0.502456 0.005542
vt 0.277310 0.005116
vt 0.519623 0.005322
vt 0.434231 0.537357
vt 0.453234 0.533319
vt 0.451594 0.601760
vt 0.432447 0.604714
vt 0.472804 0.529162
vt 0.471318 0.598717
vt 0.492968 0.524878
vt 0.491646 0.595581
vt 0.513752 0.520463
vt 0.512606 0.592348
vt 0.535185 0.515909
vt 0.534229 0.589012
vt 0.557298 0.511211
vt 0.556544 0.585569
vt 0.449924 0.671459
vt 0.430632 0.673290
vt 0.469804 0.669573
vt 0.490300 0.667629
vt 0.511439 0.665624
vt 0.533253 0.663554
vt 0.555775 0.661418
vt 0.448223 0.742452
vt 0.428783 0.743116
vt 0.468262 0.741767
vt 0.488927 0.741061
vt 0.510249 0.740332
vt 0.532259 0.739580
vt 0.554991 0.738802
vt 0.446490 0.814774
vt 0.426900 0.814229
vt 0.466690 0.815336
vt 0.487528 0.815916
vt 0.509035 0.816514
vt 0.531244 0.817132
vt 0.554190 0.817771
vt 0.444725 0.888464
vt 0.424983 0.886664
vt 0.465087 0.890321
vt 0.486101 0.892237
vt 0.507797 0.894216
vt 0.530209 0.896259
vt 0.553373 0.898372
vt 0.442925 0.963560
vt 0.423029 0.960457
vt 0.463454 0.966762
vt 0.484646 0.970067
vt 0.506534 0.973481
vt 0.529152 0.977009
vt 0.552539 0.980656
vt 0.435982 0.471185
vt 0.454844 0.466103
vt 0.474264 0.460871
vt 0.494265 0.455483
vt 0.514876 0.449930
vt 0.536123 0.444205
vt 0.558038 0.438301
vt 0.552398 0.994481
vt 0.528923 0.994513
vt 0.506198 0.994539
vt 0.484188 0.994560
vt 0.462860 0.994576
vt 0.442182 0.994589
vt 0.422125 0.994597
vt 0.023523 0.172127
vt 0.024360 0.162314
vt 0.143344 0.217367
vt 0.142727 0.226435
vt 0.025194 0.152528
vt 0.143960 0.208321
vt 0.026026 0.142769
vt 0.144574 0.199298
vt 0.026856 0.133036
vt 0.145186 0.190298
vt 0.027684 0.123330
vt 0.145797 0.181320
vt 0.028509 0.113651
vt 0.146407 0.172365
vt 0.244125 0.263998
vt 0.243672 0.272426
vt 0.244576 0.255589
vt 0.245027 0.247200
vt 0.245477 0.238830
vt 0.245925 0.230480
vt 0.246373 0.222149
vt 0.330583 0.304001
vt 0.330256 0.311873
vt 0.330909 0.296146
vt 0.331235 0.288308
vt 0.331560 0.280487
vt 0.331884 0.272683
vt 0.332208 0.264895
vt 0.405570 0.338697
vt 0.405340 0.346081
vt 0.405799 0.331328
vt 0.406028 0.323973
vt 0.406256 0.316634
vt 0.406484 0.309309
vt 0.406711 0.301998
vt 0.471225 0.369075
vt 0.471072 0.376028
vt 0.471378 0.362135
vt 0.471531 0.355209
vt 0.471683 0.348295
vt 0.471835 0.341394
vt 0.471987 0.334506
vt 0.529190 0.395895
vt 0.529097 0.402464
vt 0.529282 0.389337
vt 0.529375 0.382792
vt 0.529467 0.376257
vt 0.529559 0.369734
vt 0.529651 0.363223
vt 0.029332 0.103997
vt 0.147015 0.163432
vt 0.246819 0.213837
vt 0.332531 0.257124
vt 0.406938 0.294703
vt 0.472139 0.327632
vt 0.529742 0.356723
vt 0.529004 0.409045
vt 0.470918 0.382995
vt 0.405110 0.353480
vt 0.329928 0.319762
vt 0.243218 0.280874
vt 0.142108 0.235527
vt 0.022684 0.181967
vt 0.382203 0.452515
vt 0.322467 0.431778
vt 0.341614 0.425486
vt 0.401246 0.446877
vt 0.255727 0.408609
vt 0.274870 0.401544
vt 0.180674 0.382554
vt 0.199662 0.374566
vt 0.095652 0.353039
vt 0.114268 0.343935
vt 0.005333 0.321685
vt 0.005881 0.315035
vt 0.016472 0.308854
vt 0.361391 0.418987
vt 0.420881 0.441062
vt 0.294682 0.394233
vt 0.219355 0.366281
vt 0.133625 0.334469
vt 0.035176 0.297937
vt 0.005057 0.304760
vt 0.004126 0.286415
vt 0.381830 0.412271
vt 0.441137 0.435064
vt 0.315198 0.386662
vt 0.239794 0.357682
vt 0.153766 0.324619
vt 0.054697 0.286544
vt 0.003638 0.266921
vt 0.402965 0.405325
vt 0.462045 0.428873
vt 0.336456 0.378817
vt 0.261023 0.348751
vt 0.174741 0.314362
vt 0.075088 0.274643
vt 0.003658 0.246173
vt 0.424831 0.398140
vt 0.483636 0.422480
vt 0.358497 0.370682
vt 0.283087 0.339469
vt 0.196602 0.303671
vt 0.096409 0.262199
vt 0.004262 0.224058
vt 0.447469 0.390701
vt 0.505943 0.415874
vt 0.381366 0.362243
vt 0.306037 0.329813
vt 0.219407 0.292518
vt 0.118725 0.249174
vt 0.005537 0.200446
vt 0.004546 0.337187
vt 0.006100 0.193963
vt 0.004286 0.122114
vt 0.004233 0.111817
vt 0.005541 0.022377
vt 0.005443 0.005611
vt 0.010177 0.005772
vt 0.004025 0.808610
vt 0.003971 0.711620
vt 0.236153 0.005042
vt 0.259166 0.005619
vt 0.004396 0.142757
vt 0.004340 0.132428
vt 0.143893 0.004921
vt 0.186929 0.005647
vt 0.035819 0.005049
vt 0.092676 0.005310
vt 0.192533 0.005445
vt 0.702060 0.005678
vt 0.104678 0.005703
vt 0.004295 0.428794
vt 0.004182 0.101535
vt 0.004131 0.091270
vt 0.926982 0.005789
vt 0.004001 0.615996
vt 0.004453 0.153103
vt 0.004111 0.521726
vt 0.004171 0.906979
vt 0.004388 0.994439
vt 0.004512 0.163465
vt 0.004572 0.173843
vt 0.005547 0.092530
s 0
f 99/1/1 100/2/1 105/3/1 104/4/1
f 100/2/1 101/5/1 106/6/1 105/3/1
f 101/5/1 102/7/1 107/8/1 106/6/1
f 102/7/1 103/9/1 108/10/1 107/8/1
f 104/4/1 105/3/1 110/11/1 109/12/1
f 105/3/1 106/6/1 111/13/1 110/11/1
f 106/6/1 107/8/1 112/14/1 111/13/1
f 107/8/1 108/10/1 113/15/1 112/14/1
f 109/12/1 110/11/1 115/16/1 114/17/1
f 110/11/1 111/13/1 116/18/1 115/16/1
f 111/13/1 112/14/1 117/19/1 116/18/1
f 112/14/1 113/15/1 118/20/1 117/19/1
f 114/17/1 115/16/1 120/21/1 119/22/1
f 115/16/1 116/18/1 121/23/1 120/21/1
f 116/18/1 117/19/1 122/24/1 121/23/1
f 117/19/1 118/20/1 123/25/1 122/24/1
f 119/22/1 120/21/1 125/26/1 124/27/1
f 120/21/1 121/23/1 126/28/1 125/26/1
f 121/23/1 122/24/1 127/29/1 126/28/1
f 122/24/1 123/25/1 128/30/1 127/29/1
f 124/27/1 125/26/1 129/31/1 475/32/1 526/33/1
f 125/26/1 126/28/1 130/34/1 129/31/1
f 126/28/1 127/29/1 131/35/1 130/34/1
f 127/29/1 128/30/1 132/36/1 131/35/1
f 94/37/1 95/38/1 100/2/1 99/1/1
f 95/38/1 96/39/1 101/5/1 100/2/1
f 96/39/1 97/40/1 102/7/1 101/5/1
f 97/40/1 98/41/1 103/9/1 102/7/1
f 98/41/1 3/42/1 46/43/1 103/9/1
f 103/9/1 46/43/1 45/44/1 108/10/1
f 108/10/1 45/44/1 44/45/1 113/15/1
f 113/15/1 44/45/1 43/46/1 118/20/1
f 118/20/1 43/46/1 42/47/1 123/25/1
f 123/25/1 42/47/1 41/48/1 128/30/1
f 128/30/1 41/48/1 40/49/1 132/36/1
f 132/36/1 40/49/1 467/50/1 471/51/1
f 131/35/1 132/36/1 471/51/1 472/52/1
f 130/34/1 131/35/1 472/52/1 473/53/1
f 129/31/1 130/34/1 473/53/1 474/54/1
f 133/55/2 134/56/2 139/57/2 138/58/2
f 134/56/2 135/59/2 140/60/2 139/57/2
f 135/59/2 136/61/2 141/62/2 140/60/2
f 136/61/2 137/63/2 142/64/2 141/62/2
f 137/63/2 480/65/2 479/66/2 142/64/2
f 138/58/2 139/57/2 144/67/2 143/68/2
f 139/57/2 140/60/2 145/69/2 144/67/2
f 140/60/2 141/62/2 146/70/2 145/69/2
f 141/62/2 142/64/2 147/71/2 146/70/2
f 142/64/2 479/66/2 478/72/2 147/71/2
f 143/68/2 144/67/2 149/73/2 148/74/2
f 144/67/2 145/69/2 150/75/2 149/73/2
f 145/69/2 146/70/2 151/76/2 150/75/2
f 146/70/2 147/71/2 152/77/2 151/76/2
f 147/71/2 478/72/2 477/78/2 152/77/2
f 148/74/2 149/73/2 154/79/2 153/80/2
f 149/73/2 150/75/2 155/81/2 154/79/2
f 150/75/2 151/76/2 156/82/2 155/81/2
f 151/76/2 152/77/2 157/83/2 156/82/2
f 152/77/2 477/78/2 476/84/2 157/83/2
f 153/80/2 154/79/2 159/85/2 158/86/2
f 154/79/2 155/81/2 160/87/2 159/85/2
f 155/81/2 156/82/2 161/88/2 160/87/2
f 156/82/2 157/83/2 162/89/2 161/88/2
f 157/83/2 476/84/2 495/90/2 162/89/2
f 158/86/2 159/85/2 459/91/2 466/92/2
f 159/85/2 160/87/2 458/93/2 459/91/2
f 160/87/2 161/88/2 457/94/2 458/93/2
f 161/88/2 162/89/2 456/95/2 457/94/2
f 162/89/2 495/90/2 455/96/2 456/95/2
f 6/97/2 47/98/2 133/55/2 86/99/2
f 47/98/2 48/100/2 134/56/2 133/55/2
f 48/100/2 49/101/2 135/59/2 134/56/2
f 49/101/2 50/102/2 136/61/2 135/59/2
f 50/102/2 51/103/2 137/63/2 136/61/2
f 51/103/2 481/104/2 480/65/2 137/63/2
f 80/105/2 460/106/2 461/107/2
f 81/108/2 158/86/2 466/92/2 460/106/2 80/105/2
f 82/109/2 153/80/2 158/86/2 81/108/2
f 83/110/2 148/74/2 153/80/2 82/109/2
f 84/111/2 143/68/2 148/74/2 83/110/2
f 85/112/2 138/58/2 143/68/2 84/111/2
f 86/99/2 133/55/2 138/58/2 85/112/2
f 163/113/2 164/114/2 169/115/2 168/116/2
f 164/114/2 165/117/2 170/118/2 169/115/2
f 165/117/2 166/119/2 171/120/2 170/118/2
f 166/119/2 167/121/2 172/122/2 171/120/2
f 167/121/2 487/123/2 488/124/2 172/122/2
f 168/116/2 169/115/2 174/125/2 173/126/2
f 169/115/2 170/118/2 175/127/2 174/125/2
f 170/118/2 171/120/2 176/128/2 175/127/2
f 171/120/2 172/122/2 177/129/2 176/128/2
f 172/122/2 488/124/2 486/130/2 177/129/2
f 173/126/2 174/125/2 179/131/2 178/132/2
f 174/125/2 175/127/2 180/133/2 179/131/2
f 175/127/2 176/128/2 181/134/2 180/133/2
f 176/128/2 177/129/2 182/135/2 181/134/2
f 177/129/2 486/130/2 485/136/2 182/135/2
f 178/132/2 179/131/2 184/137/2 183/138/2
f 179/131/2 180/133/2 185/139/2 184/137/2
f 180/133/2 181/134/2 186/140/2 185/139/2
f 181/134/2 182/135/2 187/141/2 186/140/2
f 182/135/2 485/136/2 482/142/2 187/141/2
f 183/138/2 184/137/2 189/143/2 188/144/2
f 184/137/2 185/139/2 190/145/2 189/143/2
f 185/139/2 186/140/2 191/146/2 190/145/2
f 186/140/2 187/141/2 192/147/2 191/146/2
f 187/141/2 482/142/2 483/148/2 192/147/2
f 188/144/2 189/143/2 194/149/2 193/150/2
f 189/143/2 190/145/2 195/151/2 194/149/2
f 190/145/2 191/146/2 196/152/2 195/151/2
f 191/146/2 192/147/2 197/153/2 196/152/2
f 192/147/2 483/148/2 484/154/2 197/153/2
f 5/155/2 30/156/2 163/113/2 79/157/2
f 30/156/2 31/158/2 164/114/2 163/113/2
f 31/158/2 32/159/2 165/117/2 164/114/2
f 32/159/2 33/160/2 166/119/2 165/117/2
f 33/160/2 34/161/2 167/121/2 166/119/2
f 34/161/2 489/162/2 487/123/2 167/121/2
f 197/153/2 484/154/2 481/104/2 51/103/2
f 196/152/2 197/153/2 51/103/2 50/102/2
f 195/151/2 196/152/2 50/102/2 49/101/2
f 194/149/2 195/151/2 49/101/2 48/100/2
f 193/150/2 194/149/2 48/100/2 47/98/2
f 73/163/2 193/150/2 47/98/2 6/97/2
f 74/164/2 188/144/2 193/150/2 73/163/2
f 75/165/2 183/138/2 188/144/2 74/164/2
f 76/166/2 178/132/2 183/138/2 75/165/2
f 77/167/2 173/126/2 178/132/2 76/166/2
f 78/168/2 168/116/2 173/126/2 77/167/2
f 79/157/2 163/113/2 168/116/2 78/168/2
f 198/169/1 199/170/1 202/171/1 201/172/1
f 199/170/1 200/173/1 203/174/1 202/171/1
f 201/172/1 202/171/1 206/175/1 205/176/1
f 202/171/1 203/174/1 207/177/1 206/175/1
f 204/178/1 205/176/1 210/179/1 209/180/1
f 205/176/1 206/175/1 211/181/1 210/179/1
f 206/175/1 207/177/1 212/182/1 211/181/1
f 208/183/1 209/180/1 214/184/1 213/185/1
f 209/180/1 210/179/1 215/186/1 214/184/1
f 210/179/1 211/181/1 216/187/1 215/186/1
f 211/181/1 212/182/1 217/188/1 216/187/1
f 213/185/1 214/184/1 220/189/1 219/190/1
f 214/184/1 215/186/1 221/191/1 220/189/1
f 215/186/1 216/187/1 222/192/1 221/191/1
f 216/187/1 217/188/1 223/193/1 222/192/1
f 218/194/1 219/190/1 224/195/1 554/196/1 555/197/1
f 219/190/1 220/189/1 225/198/1 224/195/1
f 220/189/1 221/191/1 226/199/1 225/198/1
f 221/191/1 222/192/1 227/200/1 226/199/1
f 222/192/1 223/193/1 228/201/1 227/200/1
f 8/202/1 7/203/1 200/173/1 199/170/1
f 7/203/1 1/204/1 15/205/1 200/173/1
f 200/173/1 15/205/1 14/206/1 203/174/1
f 203/174/1 14/206/1 13/207/1 207/177/1
f 207/177/1 13/207/1 12/208/1 212/182/1
f 212/182/1 12/208/1 11/209/1 217/188/1
f 217/188/1 11/209/1 10/210/1 223/193/1
f 223/193/1 10/210/1 9/211/1 228/201/1
f 228/201/1 9/211/1 2/212/1 39/213/1
f 227/200/1 228/201/1 39/213/1 38/214/1
f 226/199/1 227/200/1 38/214/1 37/215/1
f 225/198/1 226/199/1 37/215/1 36/216/1
f 224/195/1 225/198/1 36/216/1 35/217/1
f 4/218/3 504/219/3 505/220/3
f 229/221/2 230/222/2 232/223/2 231/224/2
f 230/222/2 500/225/2 499/226/2 233/227/2 232/223/2
f 231/224/2 232/223/2 235/228/2 234/229/2
f 232/223/2 233/227/2 236/230/2 235/228/2
f 233/227/2 498/231/2 497/232/2 237/233/2 236/230/2
f 234/229/2 235/228/2 240/234/2 239/235/2
f 235/228/2 236/230/2 241/236/2 240/234/2
f 236/230/2 237/233/2 242/237/2 241/236/2
f 237/233/2 238/238/2 243/239/2 242/237/2
f 238/238/2 525/240/2 494/241/2 493/242/2 243/239/2
f 239/235/2 240/234/2 245/243/2 244/244/2
f 240/234/2 241/236/2 246/245/2 245/243/2
f 241/236/2 242/237/2 247/246/2 246/245/2
f 242/237/2 243/239/2 248/247/2 247/246/2
f 243/239/2 493/242/2 492/248/2 248/247/2
f 244/244/2 245/243/2 250/249/2 249/250/2
f 245/243/2 246/245/2 251/251/2 250/249/2
f 246/245/2 247/246/2 252/252/2 251/251/2
f 247/246/2 248/247/2 253/253/2 252/252/2
f 248/247/2 492/248/2 491/254/2 253/253/2
f 249/250/2 250/249/2 255/255/2 254/256/2
f 250/249/2 251/251/2 256/257/2 255/255/2
f 251/251/2 252/252/2 257/258/2 256/257/2
f 252/252/2 253/253/2 258/259/2 257/258/2
f 253/253/2 491/254/2 490/260/2 258/259/2
f 4/218/2 505/220/2 502/261/2 229/221/2 72/262/2
f 258/259/2 490/260/2 489/162/2 34/161/2
f 257/258/2 258/259/2 34/161/2 33/160/2
f 256/257/2 257/258/2 33/160/2 32/159/2
f 255/255/2 256/257/2 32/159/2 31/158/2
f 254/256/2 255/255/2 31/158/2 30/156/2
f 66/263/2 254/256/2 30/156/2 5/155/2
f 67/264/2 249/250/2 254/256/2 66/263/2
f 68/265/2 244/244/2 249/250/2 67/264/2
f 69/266/2 239/235/2 244/244/2 68/265/2
f 70/267/2 234/229/2 239/235/2 69/266/2
f 71/268/2 231/224/2 234/229/2 70/267/2
f 72/262/2 229/221/2 231/224/2 71/268/2
f 259/269/2 260/270/2 267/271/2 266/272/2
f 260/270/2 261/273/2 268/274/2 267/271/2
f 261/273/2 262/275/2 269/276/2 268/274/2
f 262/275/2 263/277/2 270/278/2 269/276/2
f 263/277/2 264/279/2 271/280/2 270/278/2
f 264/279/2 265/281/2 272/282/2 271/280/2
f 266/272/2 267/271/2 274/283/2 273/284/2
f 267/271/2 268/274/2 275/285/2 274/283/2
f 268/274/2 269/276/2 276/286/2 275/285/2
f 269/276/2 270/278/2 277/287/2 276/286/2
f 270/278/2 271/280/2 278/288/2 277/287/2
f 271/280/2 272/282/2 279/289/2 278/288/2
f 273/284/2 274/283/2 281/290/2 280/291/2
f 274/283/2 275/285/2 282/292/2 281/290/2
f 275/285/2 276/286/2 283/293/2 282/292/2
f 276/286/2 277/287/2 284/294/2 283/293/2
f 277/287/2 278/288/2 285/295/2 284/294/2
f 278/288/2 279/289/2 286/296/2 285/295/2
f 280/291/2 281/290/2 288/297/2 287/298/2
f 281/290/2 282/292/2 289/299/2 288/297/2
f 282/292/2 283/293/2 290/300/2 289/299/2
f 283/293/2 284/294/2 291/301/2 290/300/2
f 284/294/2 285/295/2 292/302/2 291/301/2
f 285/295/2 286/296/2 293/303/2 292/302/2
f 287/298/2 288/297/2 295/304/2 294/305/2
f 288/297/2 289/299/2 296/306/2 295/304/2
f 289/299/2 290/300/2 297/307/2 296/306/2
f 290/300/2 291/301/2 298/308/2 297/307/2
f 291/301/2 292/302/2 299/309/2 298/308/2
f 292/302/2 293/303/2 300/310/2 299/309/2
f 294/305/2 295/304/2 302/311/2 301/312/2
f 295/304/2 296/306/2 303/313/2 302/311/2
f 296/306/2 297/307/2 304/314/2 303/313/2
f 297/307/2 298/308/2 305/315/2 304/314/2
f 298/308/2 299/309/2 306/316/2 305/315/2
f 299/309/2 300/310/2 307/317/2 306/316/2
f 1/204/2 22/318/2 259/269/2 15/205/2
f 22/318/2 21/319/2 260/270/2 259/269/2
f 21/319/2 20/320/2 261/273/2 260/270/2
f 20/320/2 19/321/2 262/275/2 261/273/2
f 19/321/2 18/322/2 263/277/2 262/275/2
f 18/322/2 17/323/2 264/279/2 263/277/2
f 17/323/2 16/324/2 265/281/2 264/279/2
f 16/324/2 4/218/2 72/262/2 265/281/2
f 265/281/2 72/262/2 71/268/2 272/282/2
f 272/282/2 71/268/2 70/267/2 279/289/2
f 279/289/2 70/267/2 69/266/2 286/296/2
f 286/296/2 69/266/2 68/265/2 293/303/2
f 293/303/2 68/265/2 67/264/2 300/310/2
f 300/310/2 67/264/2 66/263/2 307/317/2
f 307/317/2 66/263/2 5/155/2 58/325/2
f 306/316/2 307/317/2 58/325/2 57/326/2
f 305/315/2 306/316/2 57/326/2 56/327/2
f 304/314/2 305/315/2 56/327/2 55/328/2
f 303/313/2 304/314/2 55/328/2 54/329/2
f 302/311/2 303/313/2 54/329/2 53/330/2
f 301/312/2 302/311/2 53/330/2 52/331/2
f 9/211/2 301/312/2 52/331/2 2/212/2
f 10/210/2 294/305/2 301/312/2 9/211/2
f 11/209/2 287/298/2 294/305/2 10/210/2
f 12/208/2 280/291/2 287/298/2 11/209/2
f 13/207/2 273/284/2 280/291/2 12/208/2
f 14/206/2 266/272/2 273/284/2 13/207/2
f 15/205/2 259/269/2 266/272/2 14/206/2
f 308/332/3 309/333/3 311/334/3 310/335/3
f 309/333/3 524/336/3 523/337/3 311/334/3
f 310/335/3 311/334/3 522/338/3 521/339/3 312/340/3
f 311/334/3 523/337/3 522/338/3
f 312/340/3 521/339/3 509/341/3 313/342/3
f 313/342/3 509/341/3 508/343/3 314/344/3
f 314/344/3 508/343/3 507/345/3 315/346/3
f 315/346/3 507/345/3 506/347/3
f 1/204/3 7/203/3 308/332/3 22/318/3
f 7/203/3 8/202/3 309/333/3 308/332/3
f 8/202/3 517/348/3 524/336/3 309/333/3
f 16/324/3 503/349/3 504/219/3 4/218/3
f 17/323/3 315/346/3 506/347/3 503/349/3 16/324/3
f 18/322/3 314/344/3 315/346/3 17/323/3
f 19/321/3 313/342/3 314/344/3 18/322/3
f 20/320/3 312/340/3 313/342/3 19/321/3
f 21/319/3 310/335/3 312/340/3 20/320/3
f 22/318/3 308/332/3 310/335/3 21/319/3
f 316/350/2 317/351/2 324/352/2 323/353/2
f 317/351/2 318/354/2 325/355/2 324/352/2
f 318/354/2 319/356/2 326/357/2 325/355/2
f 319/356/2 320/358/2 327/359/2 326/357/2
f 320/358/2 321/360/2 328/361/2 327/359/2
f 321/360/2 322/362/2 329/363/2 328/361/2
f 323/353/2 324/352/2 331/364/2 330/365/2
f 324/352/2 325/355/2 332/366/2 331/364/2
f 325/355/2 326/357/2 333/367/2 332/366/2
f 326/357/2 327/359/2 334/368/2 333/367/2
f 327/359/2 328/361/2 335/369/2 334/368/2
f 328/361/2 329/363/2 336/370/2 335/369/2
f 330/365/2 331/364/2 338/371/2 337/372/2
f 331/364/2 332/366/2 339/373/2 338/371/2
f 332/366/2 333/367/2 340/374/2 339/373/2
f 333/367/2 334/368/2 341/375/2 340/374/2
f 334/368/2 335/369/2 342/376/2 341/375/2
f 335/369/2 336/370/2 343/377/2 342/376/2
f 337/372/2 338/371/2 345/378/2 344/379/2
f 338/371/2 339/373/2 346/380/2 345/378/2
f 339/373/2 340/374/2 347/381/2 346/380/2
f 340/374/2 341/375/2 348/382/2 347/381/2
f 341/375/2 342/376/2 349/383/2 348/382/2
f 342/376/2 343/377/2 350/384/2 349/383/2
f 344/379/2 345/378/2 352/385/2 351/386/2
f 345/378/2 346/380/2 353/387/2 352/385/2
f 346/380/2 347/381/2 354/388/2 353/387/2
f 347/381/2 348/382/2 355/389/2 354/388/2
f 348/382/2 349/383/2 356/390/2 355/389/2
f 349/383/2 350/384/2 357/391/2 356/390/2
f 351/386/2 352/385/2 359/392/2 358/393/2
f 352/385/2 353/387/2 360/394/2 359/392/2
f 353/387/2 354/388/2 361/395/2 360/394/2
f 354/388/2 355/389/2 362/396/2 361/395/2
f 355/389/2 356/390/2 363/397/2 362/396/2
f 356/390/2 357/391/2 364/398/2 363/397/2
f 3/42/2 59/399/2 316/350/2 46/43/2
f 59/399/2 60/400/2 317/351/2 316/350/2
f 60/400/2 61/401/2 318/354/2 317/351/2
f 61/401/2 62/402/2 319/356/2 318/354/2
f 62/402/2 63/403/2 320/358/2 319/356/2
f 63/403/2 64/404/2 321/360/2 320/358/2
f 64/404/2 65/405/2 322/362/2 321/360/2
f 65/405/2 6/97/2 86/99/2 322/362/2
f 322/362/2 86/99/2 85/112/2 329/363/2
f 329/363/2 85/112/2 84/111/2 336/370/2
f 336/370/2 84/111/2 83/110/2 343/377/2
f 343/377/2 83/110/2 82/109/2 350/384/2
f 350/384/2 82/109/2 81/108/2 357/391/2
f 357/391/2 81/108/2 80/105/2 364/398/2
f 364/398/2 80/105/2 461/107/2 462/406/2
f 363/397/2 364/398/2 462/406/2 463/407/2
f 362/396/2 363/397/2 463/407/2 464/408/2
f 361/395/2 362/396/2 464/408/2 465/409/2
f 360/394/2 361/395/2 465/409/2 470/410/2
f 359/392/2 360/394/2 470/410/2 468/411/2
f 358/393/2 359/392/2 468/411/2 469/412/2
f 40/49/2 358/393/2 469/412/2 467/50/2
f 41/48/2 351/386/2 358/393/2 40/49/2
f 42/47/2 344/379/2 351/386/2 41/48/2
f 43/46/2 337/372/2 344/379/2 42/47/2
f 44/45/2 330/365/2 337/372/2 43/46/2
f 45/44/2 323/353/2 330/365/2 44/45/2
f 46/43/2 316/350/2 323/353/2 45/44/2
f 365/413/1 366/414/1 373/415/1 372/416/1
f 366/414/1 367/417/1 374/418/1 373/415/1
f 367/417/1 368/419/1 375/420/1 374/418/1
f 368/419/1 369/421/1 376/422/1 375/420/1
f 369/421/1 370/423/1 377/424/1 376/422/1
f 370/423/1 371/425/1 378/426/1 377/424/1
f 372/416/1 373/415/1 380/427/1 379/428/1
f 373/415/1 374/418/1 381/429/1 380/427/1
f 374/418/1 375/420/1 382/430/1 381/429/1
f 375/420/1 376/422/1 383/431/1 382/430/1
f 376/422/1 377/424/1 384/432/1 383/431/1
f 377/424/1 378/426/1 385/433/1 384/432/1
f 379/428/1 380/427/1 387/434/1 386/435/1
f 380/427/1 381/429/1 388/436/1 387/434/1
f 381/429/1 382/430/1 389/437/1 388/436/1
f 382/430/1 383/431/1 390/438/1 389/437/1
f 383/431/1 384/432/1 391/439/1 390/438/1
f 384/432/1 385/433/1 392/440/1 391/439/1
f 386/435/1 387/434/1 394/441/1 393/442/1
f 387/434/1 388/436/1 395/443/1 394/441/1
f 388/436/1 389/437/1 396/444/1 395/443/1
f 389/437/1 390/438/1 397/445/1 396/444/1
f 390/438/1 391/439/1 398/446/1 397/445/1
f 391/439/1 392/440/1 399/447/1 398/446/1
f 393/442/1 394/441/1 401/448/1 400/449/1
f 394/441/1 395/443/1 402/450/1 401/448/1
f 395/443/1 396/444/1 403/451/1 402/450/1
f 396/444/1 397/445/1 404/452/1 403/451/1
f 397/445/1 398/446/1 405/453/1 404/452/1
f 398/446/1 399/447/1 406/454/1 405/453/1
f 400/449/1 401/448/1 408/455/1 407/456/1
f 401/448/1 402/450/1 409/457/1 408/455/1
f 402/450/1 403/451/1 410/458/1 409/457/1
f 403/451/1 404/452/1 411/459/1 410/458/1
f 404/452/1 405/453/1 412/460/1 411/459/1
f 405/453/1 406/454/1 413/461/1 412/460/1
f 371/425/1 23/462/1 24/463/1 378/426/1
f 378/426/1 24/463/1 25/464/1 385/433/1
f 385/433/1 25/464/1 26/465/1 392/440/1
f 392/440/1 26/465/1 27/466/1 399/447/1
f 399/447/1 27/466/1 28/467/1 406/454/1
f 406/454/1 28/467/1 29/468/1 413/461/1
f 413/461/1 29/468/1 5/155/1 79/157/1
f 412/460/1 413/461/1 79/157/1 78/168/1
f 411/459/1 412/460/1 78/168/1 77/167/1
f 410/458/1 411/459/1 77/167/1 76/166/1
f 409/457/1 410/458/1 76/166/1 75/165/1
f 408/455/1 409/457/1 75/165/1 74/164/1
f 407/456/1 408/455/1 74/164/1 73/163/1
f 93/469/1 407/456/1 73/163/1 6/97/1
f 92/470/1 400/449/1 407/456/1 93/469/1
f 91/471/1 393/442/1 400/449/1 92/470/1
f 90/472/1 386/435/1 393/442/1 91/471/1
f 89/473/1 379/428/1 386/435/1 90/472/1
f 88/474/1 372/416/1 379/428/1 89/473/1
f 87/475/1 365/413/1 372/416/1 88/474/1
f 414/476/4 415/477/4 420/478/4 419/479/4
f 415/477/4 416/480/4 421/481/4 420/478/4
f 416/480/4 417/482/4 422/483/4 421/481/4
f 417/482/4 418/484/4 423/485/4 422/483/4
f 418/484/4 549/486/4 550/487/4 424/488/4 423/485/4
f 419/479/4 420/478/4 426/489/4 425/490/4
f 420/478/4 421/481/4 427/491/4 426/489/4
f 421/481/4 422/483/4 428/492/4 427/491/4
f 422/483/4 423/485/4 429/493/4 428/492/4
f 423/485/4 424/488/4 430/494/4 429/493/4
f 424/488/4 552/495/4 551/496/4 430/494/4
f 425/490/4 426/489/4 432/497/4 431/498/4
f 426/489/4 427/491/4 433/499/4 432/497/4
f 427/491/4 428/492/4 434/500/4 433/499/4
f 428/492/4 429/493/4 435/501/4 434/500/4
f 429/493/4 430/494/4 436/502/4 435/501/4
f 430/494/4 551/496/4 530/503/4 436/502/4
f 431/498/4 432/497/4 438/504/4 437/505/4
f 432/497/4 433/499/4 439/506/4 438/504/4
f 433/499/4 434/500/4 440/507/4 439/506/4
f 434/500/4 435/501/4 441/508/4 440/507/4
f 435/501/4 436/502/4 442/509/4 441/508/4
f 436/502/4 530/503/4 528/510/4 442/509/4
f 437/505/4 438/504/4 444/511/4 443/512/4
f 438/504/4 439/506/4 445/513/4 444/511/4
f 439/506/4 440/507/4 446/514/4 445/513/4
f 440/507/4 441/508/4 447/515/4 446/514/4
f 441/508/4 442/509/4 448/516/4 447/515/4
f 442/509/4 528/510/4 529/517/4 448/516/4
f 443/512/4 444/511/4 450/518/4 449/519/4
f 444/511/4 445/513/4 451/520/4 450/518/4
f 445/513/4 446/514/4 452/521/4 451/520/4
f 446/514/4 447/515/4 453/522/4 452/521/4
f 447/515/4 448/516/4 454/523/4 453/522/4
f 448/516/4 529/517/4 531/524/4 454/523/4
f 3/42/4 98/41/4 414/476/4 59/399/4
f 98/41/4 97/40/4 415/477/4 414/476/4
f 97/40/4 96/39/4 416/480/4 415/477/4
f 96/39/4 95/38/4 417/482/4 416/480/4
f 95/38/4 94/37/4 418/484/4 417/482/4
f 94/37/4 547/525/4 549/486/4 418/484/4
f 454/523/4 531/524/4 532/526/4 87/475/4 88/474/4
f 453/522/4 454/523/4 88/474/4 89/473/4
f 452/521/4 453/522/4 89/473/4 90/472/4
f 451/520/4 452/521/4 90/472/4 91/471/4
f 450/518/4 451/520/4 91/471/4 92/470/4
f 449/519/4 450/518/4 92/470/4 93/469/4
f 65/405/4 449/519/4 93/469/4 6/97/4
f 64/404/4 443/512/4 449/519/4 65/405/4
f 63/403/4 437/505/4 443/512/4 64/404/4
f 62/402/4 431/498/4 437/505/4 63/403/4
f 61/401/4 425/490/4 431/498/4 62/402/4
f 60/400/4 419/479/4 425/490/4 61/401/4
f 59/399/4 414/476/4 419/479/4 60/400/4
f 535/527/1 540/528/1 370/423/1 369/421/1
f 556/529/1 510/530/1 511/531/1 218/194/1
f 543/532/1 544/533/1 114/17/1 119/22/1
f 520/534/1 518/535/1 198/169/1
f 555/197/1 556/529/1 218/194/1
f 537/536/1 536/537/1 368/419/1 367/417/1
f 518/535/1 517/348/1 8/202/1 199/170/1 198/169/1
f 512/538/1 514/539/1 204/178/1
f 515/540/1 516/541/1 208/183/1 213/185/1
f 519/542/1 520/534/1 198/169/1 201/172/1
f 474/54/1 475/32/1 129/31/1
f 501/543/2 500/225/2 230/222/2
f 516/541/1 513/544/1 208/183/1
f 548/545/1 547/525/1 94/37/1 99/1/1
f 511/531/1 515/540/1 213/185/1 219/190/1 218/194/1
f 539/546/1 541/547/1 23/462/1 371/425/1
f 513/544/1 512/538/1 204/178/1 209/180/1 208/183/1
f 496/548/2 525/240/2 238/238/2
f 544/533/1 545/549/1 109/12/1 114/17/1
f 514/539/1 519/542/1 201/172/1 205/176/1 204/178/1
f 538/550/1 537/536/1 367/417/1 366/414/1
f 502/261/2 501/543/2 230/222/2 229/221/2
f 546/551/1 548/545/1 99/1/1 104/4/1
f 545/549/1 546/551/1 104/4/1 109/12/1
f 542/552/1 543/532/1 119/22/1 124/27/1
f 499/226/2 498/231/2 233/227/2
f 526/33/1 527/553/1 542/552/1 124/27/1
f 536/537/1 535/527/1 369/421/1 368/419/1
f 533/554/1 538/550/1 366/414/1 365/413/1
f 540/528/1 539/546/1 371/425/1 370/423/1
f 550/487/4 552/495/4 424/488/4
f 534/555/1 533/554/1 365/413/1 87/475/1
f 532/526/4 534/555/4 87/475/4
f 497/232/2 496/548/2 238/238/2 237/233/2
f 553/556/1 554/196/1 224/195/1 35/217/1
o items
v -1.500000 -1.126791 0.813197
v -1.500000 -1.126791 0.034811
v -1.164303 -1.126791 0.813197
v -1.164303 -2.242494 0.034811
v -1.164303 -1.126791 0.034811
v 0.432301 -0.815696 -0.680998
v 0.432301 -0.815696 -1.500000
v 1.374553 -0.815696 -0.680998
v 1.374553 -0.815696 -1.500000
v 0.744273 0.842945 -0.872106
v 0.598806 1.721783 -0.872106
v 0.598806 2.046249 -1.500000
v 1.347278 0.842945 -0.872106
v 1.415691 1.721783 -0.872106
v 1.415691 0.842945 -1.500000
v 1.415691 2.046249 -1.500000
v -0.376466 1.207507 -1.177283
v -0.376466 1.704820 -1.177283
v -0.376466 1.149513 -1.500000
v -0.376466 1.794849 -1.500000
v -0.078228 1.207507 -1.177283
v -0.078228 1.704820 -1.177283
v -0.078228 1.149513 -1.500000
v -0.078228 1.794849 -1.500000
v -0.341324 1.125243 -1.120845
v -0.113370 1.125243 -1.120845
v 0.744273 0.667564 -0.791255
v 1.347278 0.667564 -0.791255
v 0.598806 0.842945 -0.872106
v 1.415691 0.842945 -0.872106
v 1.415691 0.842945 -0.872106
v -1.500000 -1.684642 0.813197
v -1.500000 -1.126791 0.424004
v -1.332151 -1.126791 0.034811
v -1.164303 -1.684642 0.034811
v -1.164303 -2.242494 0.424004
v -1.164303 -1.126791 0.424004
v -1.164303 -1.684642 0.813197
v -1.332151 -1.126791 0.813197
v 0.432301 -1.657848 -0.680998
v 0.432301 -0.815696 -1.090499
v 0.903427 -0.815696 -1.500000
v 1.374553 -1.657848 -1.500000
v 1.374553 -0.815696 -1.090499
v 1.374553 -1.657848 -0.680998
v 0.903427 -0.815696 -0.680998
v 0.598806 1.282364 -0.872106
v 0.598806 1.884016 -1.186053
v 1.007249 2.046249 -1.500000
v 1.415691 1.444597 -1.500000
v 1.415691 0.842945 -1.186053
v 1.415691 1.884016 -1.186053
v 1.415691 1.282364 -0.872106
v 1.007249 0.842945 -0.872106
v 1.007249 1.721783 -0.872106
v -0.376466 1.178510 -1.338642
v -0.376466 1.456163 -1.177283
v -0.376466 1.749835 -1.338642
v -0.227347 1.149513 -1.500000
v -0.227347 1.794849 -1.500000
v -0.078228 1.472180 -1.500000
v -0.078228 1.178510 -1.338642
v -0.078228 1.749835 -1.338642
v -0.078228 1.456163 -1.177283
v -0.227347 1.207506 -1.177283
v -0.227347 1.704820 -1.177283
v -0.227347 1.125243 -1.120845
v -0.095798 1.166375 -1.149064
v -0.358895 1.166375 -1.149064
v 1.045775 0.667564 -0.791255
v 1.347278 0.755255 -0.831680
v 0.744273 0.755255 -0.831680
v 1.045775 0.842945 -0.872106
v 1.415691 1.282364 -0.872106
v -1.164303 -1.684643 0.424004
v -1.332151 -1.684643 0.813197
v -1.332151 -1.126791 0.424004
v 1.374553 -1.657848 -1.090499
v 0.903427 -1.657848 -0.680998
v 0.903427 -0.815695 -1.090499
v 1.415691 1.363480 -1.186053
v 1.007249 1.282364 -0.872106
v 1.007249 1.884015 -1.186053
v -0.078228 1.464172 -1.338641
v -0.227347 1.456163 -1.177283
v -0.227347 1.178509 -1.338641
v -0.227347 1.749834 -1.338641
v -0.227347 1.166375 -1.149063
v 1.045775 0.755255 -0.831680
v 0.903427 -2.058957 -0.680998
v 1.374553 -1.894767 -0.680998
v 1.374553 -2.079369 -1.090499
v 1.374553 -2.263972 -1.500000
v 0.432301 -2.223147 -0.680998
v -1.332151 -2.164489 0.813197
v -1.164303 -2.105993 0.813197
v -1.164303 -2.242494 0.510397
v -1.500000 -2.222985 0.813197
vn 1.0000 -0.0000 -0.0000
vn -0.0000 -0.0000 1.0000
vn -0.0000 1.0000 -0.0000
vn -0.0000 0.8884 0.4591
vn -0.0000 -0.9842 0.1769
vn -0.0000 0.9632 0.2687
vn -0.0000 0.5657 0.8246
vn -0.0000 0.4187 0.9081
vt 0.320684 0.039630
vt 0.316669 0.129779
vt 0.276004 0.105000
vt 0.280693 0.012014
vt 0.312551 0.222273
vt 0.271189 0.200492
vt 0.226736 0.177083
vt 0.232341 0.078395
vt 0.236460 0.005882
vt 0.271170 0.005438
vt 0.212250 0.184864
vt 0.217978 0.087383
vt 0.198150 0.192438
vt 0.203992 0.096135
vt 0.297982 0.228952
vt 0.256640 0.207692
vt 0.283774 0.235465
vt 0.242464 0.214707
vt 0.714403 0.108803
vt 0.716104 0.257321
vt 0.685860 0.234188
vt 0.684737 0.080261
vt 0.653055 0.209097
vt 0.652615 0.049356
vt 0.593525 0.230715
vt 0.594374 0.076717
vt 0.538540 0.250683
vt 0.540487 0.102031
vt 0.658736 0.275544
vt 0.627404 0.254005
vt 0.605429 0.292477
vt 0.573243 0.272366
vt 0.725125 0.568169
vt 0.726587 0.688304
vt 0.702307 0.666800
vt 0.701341 0.559803
vt 0.728097 0.812326
vt 0.703301 0.776878
vt 0.677036 0.739331
vt 0.676495 0.643939
vt 0.675967 0.550877
vt 0.621659 0.647896
vt 0.621795 0.558097
vt 0.621519 0.739860
vt 0.569904 0.740353
vt 0.570632 0.651578
vt 0.571344 0.564822
vt 0.673818 0.810312
vt 0.648394 0.776064
vt 0.623155 0.808432
vt 0.597243 0.775305
vt 0.548040 0.643037
vt 0.547395 0.700735
vt 0.533974 0.697414
vt 0.534645 0.645574
vt 0.546740 0.759314
vt 0.533295 0.749964
vt 0.519475 0.740354
vt 0.520159 0.693996
vt 0.520834 0.648191
vt 0.504340 0.694688
vt 0.505101 0.649406
vt 0.503570 0.740512
vt 0.488032 0.740665
vt 0.488884 0.695365
vt 0.489726 0.650594
vt 0.517248 0.645483
vt 0.532472 0.644273
vt 0.518993 0.646801
vt 0.503693 0.648000
vt 0.530952 0.759252
vt 0.517447 0.750009
vt 0.515518 0.759192
vt 0.501959 0.750053
vt 0.489191 0.642622
vt 0.502771 0.641492
vt 0.488653 0.634604
vt 0.500433 0.633552
vt 0.512423 0.632482
vt 0.516629 0.640338
vt 0.666617 0.552123
vt 0.626740 0.557438
vt 0.623277 0.538515
vt 0.663134 0.532677
vt 0.588910 0.562480
vt 0.585469 0.544053
vt 0.582017 0.525559
vt 0.619801 0.519523
vt 0.659638 0.513159
vt 0.684199 0.006435
vt 0.713229 0.006209
vt 0.594761 0.006436
vt 0.652497 0.006371
vt 0.541741 0.006268
vt 0.209481 0.005663
vt 0.222773 0.005784
s 0
f 560/557/5 591/558/5 631/559/5 592/560/5
f 591/558/5 561/561/5 593/562/5 631/559/5
f 631/559/5 593/562/5 559/563/5 594/564/5
f 592/560/5 631/559/5 594/564/5 652/565/5 653/566/5
f 594/564/6 559/563/6 595/567/6 632/568/6
f 632/568/6 595/567/6 557/569/6 588/570/6
f 561/561/7 590/571/7 633/572/7 593/562/7
f 590/571/7 558/573/7 589/574/7 633/572/7
f 633/572/7 589/574/7 557/569/7 595/567/7
f 593/562/7 633/572/7 595/567/7 559/563/7
f 599/575/5 565/576/5 600/577/5 634/578/5
f 634/578/5 600/577/5 564/579/5 601/580/5
f 601/580/6 564/579/6 602/581/6 635/582/6
f 635/582/6 602/581/6 562/583/6 596/584/6
f 565/576/7 598/585/7 636/586/7 600/577/7
f 598/585/7 563/587/7 597/588/7 636/586/7
f 636/586/7 597/588/7 562/583/7 602/581/7
f 600/577/7 636/586/7 602/581/7 564/579/7
f 571/589/5 606/590/5 637/591/5 607/592/5
f 606/590/5 572/593/5 608/594/5 637/591/5
f 637/591/5 608/594/5 570/595/5 609/596/5
f 607/592/5 637/591/5 609/596/5 586/597/5
f 587/597/6 630/596/6 638/598/6 610/599/6
f 630/596/6 570/595/6 611/600/6 638/598/6
f 638/598/6 611/600/6 567/601/6 603/602/6
f 610/599/6 638/598/6 603/602/6 585/603/6
f 572/593/8 605/604/8 639/605/8 608/594/8
f 605/604/8 568/606/8 604/607/8 639/605/8
f 639/605/8 604/607/8 567/601/8 611/600/8
f 608/594/8 639/605/8 611/600/8 570/595/8
f 579/608/5 617/609/5 640/610/5 618/611/5
f 617/609/5 580/612/5 619/613/5 640/610/5
f 640/610/5 619/613/5 578/614/5 620/615/5
f 618/611/5 640/610/5 620/615/5 577/616/5
f 577/616/6 620/615/6 641/617/6 621/618/6
f 620/615/6 578/614/6 622/619/6 641/617/6
f 641/617/6 622/619/6 574/620/6 613/621/6
f 621/618/6 641/617/6 613/621/6 573/622/6
f 575/623/9 615/624/9 642/625/9 612/626/9
f 615/624/9 579/608/9 618/611/9 642/625/9
f 642/625/9 618/611/9 577/616/9 621/618/9
f 612/626/9 642/625/9 621/618/9 573/622/9
f 580/612/10 616/627/10 643/628/10 619/613/10
f 616/627/10 576/629/10 614/630/10 643/628/10
f 643/628/10 614/630/10 574/620/10 622/619/10
f 619/613/10 643/628/10 622/619/10 578/614/10
f 573/622/11 625/631/11 644/632/11 621/618/11
f 625/631/11 581/633/11 623/634/11 644/632/11
f 644/632/11 623/634/11 582/635/11 624/636/11
f 621/618/11 644/632/11 624/636/11 577/616/11
f 569/637/12 629/638/12 645/639/12 627/640/12
f 629/638/12 566/641/12 628/642/12 645/639/12
f 645/639/12 628/642/12 583/643/12 626/644/12
f 627/640/12 645/639/12 626/644/12 584/645/12
f 648/646/5 649/647/5 599/575/5 634/578/5
f 646/648/6 647/649/6 601/580/6 635/582/6
f 650/650/6 646/648/6 635/582/6 596/584/6
f 654/651/6 651/652/6 632/568/6 588/570/6
f 651/652/6 652/565/6 594/564/6 632/568/6
f 647/649/5 648/646/5 634/578/5 601/580/5
