# Blender 4.0.2
# www.blender.org
mtllib 250201-sphere-inverted.mtl
o Icosphere
v 0.000000 -1.000000 0.000000
v 0.723607 -0.447220 0.525725
v -0.276388 -0.447220 0.850649
v -0.894426 -0.447216 0.000000
v -0.276388 -0.447220 -0.850649
v 0.723607 -0.447220 -0.525725
v 0.276388 0.447220 0.850649
v -0.723607 0.447220 0.525725
v -0.723607 0.447220 -0.525725
v 0.276388 0.447220 -0.850649
v 0.894426 0.447216 0.000000
v 0.000000 1.000000 0.000000
v -0.232822 -0.657519 0.716563
v -0.162456 -0.850654 0.499995
v -0.077607 -0.967950 0.238853
v 0.203181 -0.967950 0.147618
v 0.425323 -0.850654 0.309011
v 0.609547 -0.657519 0.442856
v 0.531941 -0.502302 0.681712
v 0.262869 -0.525738 0.809012
v -0.029639 -0.502302 0.864184
v 0.812729 -0.502301 -0.295238
v 0.850648 -0.525736 0.000000
v 0.812729 -0.502301 0.295238
v 0.203181 -0.967950 -0.147618
v 0.425323 -0.850654 -0.309011
v 0.609547 -0.657519 -0.442856
v -0.753442 -0.657515 0.000000
v -0.525730 -0.850652 0.000000
v -0.251147 -0.967949 0.000000
v -0.483971 -0.502302 0.716565
v -0.688189 -0.525736 0.499997
v -0.831051 -0.502299 0.238853
v -0.232822 -0.657519 -0.716563
v -0.162456 -0.850654 -0.499995
v -0.077607 -0.967950 -0.238853
v -0.831051 -0.502299 -0.238853
v -0.688189 -0.525736 -0.499997
v -0.483971 -0.502302 -0.716565
v -0.029639 -0.502302 -0.864184
v 0.262869 -0.525738 -0.809012
v 0.531941 -0.502302 -0.681712
v 0.956626 0.251149 0.147618
v 0.951058 -0.000000 0.309013
v 0.860698 -0.251151 0.442858
v 0.860698 -0.251151 -0.442858
v 0.951058 0.000000 -0.309013
v 0.956626 0.251149 -0.147618
v 0.155215 0.251152 0.955422
v 0.000000 -0.000000 1.000000
v -0.155215 -0.251152 0.955422
v 0.687159 -0.251152 0.681715
v 0.587786 0.000000 0.809017
v 0.436007 0.251152 0.864188
v -0.860698 0.251151 0.442858
v -0.951058 -0.000000 0.309013
v -0.956626 -0.251149 0.147618
v -0.436007 -0.251152 0.864188
v -0.587786 0.000000 0.809017
v -0.687159 0.251152 0.681715
v -0.687159 0.251152 -0.681715
v -0.587786 -0.000000 -0.809017
v -0.436007 -0.251152 -0.864188
v -0.956626 -0.251149 -0.147618
v -0.951058 0.000000 -0.309013
v -0.860698 0.251151 -0.442858
v 0.436007 0.251152 -0.864188
v 0.587786 -0.000000 -0.809017
v 0.687159 -0.251152 -0.681715
v -0.155215 -0.251152 -0.955422
v 0.000000 0.000000 -1.000000
v 0.155215 0.251152 -0.955422
v 0.831051 0.502299 0.238853
v 0.688189 0.525736 0.499997
v 0.483971 0.502302 0.716565
v 0.029639 0.502302 0.864184
v -0.262869 0.525738 0.809012
v -0.531941 0.502302 0.681712
v -0.812729 0.502301 0.295238
v -0.850648 0.525736 0.000000
v -0.812729 0.502301 -0.295238
v -0.531941 0.502302 -0.681712
v -0.262869 0.525738 -0.809012
v 0.029639 0.502302 -0.864184
v 0.483971 0.502302 -0.716565
v 0.688189 0.525736 -0.499997
v 0.831051 0.502299 -0.238853
v 0.077607 0.967950 0.238853
v 0.162456 0.850654 0.499995
v 0.232822 0.657519 0.716563
v 0.753442 0.657515 0.000000
v 0.525730 0.850652 0.000000
v 0.251147 0.967949 0.000000
v -0.203181 0.967950 0.147618
v -0.425323 0.850654 0.309011
v -0.609547 0.657519 0.442856
v -0.203181 0.967950 -0.147618
v -0.425323 0.850654 -0.309011
v -0.609547 0.657519 -0.442856
v 0.077607 0.967950 -0.238853
v 0.162456 0.850654 -0.499995
v 0.232822 0.657519 -0.716563
v 0.361800 0.894429 -0.262863
v 0.638194 0.723610 -0.262864
v 0.447209 0.723612 -0.525728
v -0.138197 0.894430 -0.425319
v -0.052790 0.723612 -0.688185
v -0.361804 0.723612 -0.587778
v -0.447210 0.894429 0.000000
v -0.670817 0.723611 -0.162457
v -0.670817 0.723611 0.162457
v -0.138197 0.894430 0.425319
v -0.361804 0.723612 0.587778
v -0.052790 0.723612 0.688185
v 0.361800 0.894429 0.262863
v 0.447209 0.723612 0.525728
v 0.638194 0.723610 0.262864
v 0.861804 0.276396 -0.425322
v 0.809019 0.000000 -0.587782
v 0.670821 0.276397 -0.688189
v -0.138199 0.276397 -0.951055
v -0.309016 -0.000000 -0.951057
v -0.447215 0.276397 -0.850649
v -0.947213 0.276396 -0.162458
v -1.000000 0.000001 0.000000
v -0.947213 0.276397 0.162458
v -0.447216 0.276397 0.850648
v -0.309017 -0.000001 0.951056
v -0.138199 0.276397 0.951055
v 0.670820 0.276396 0.688190
v 0.809019 -0.000002 0.587783
v 0.861804 0.276394 0.425323
v 0.309017 -0.000000 -0.951056
v 0.447216 -0.276398 -0.850648
v 0.138199 -0.276398 -0.951055
v -0.809018 -0.000000 -0.587783
v -0.670819 -0.276397 -0.688191
v -0.861803 -0.276396 -0.425324
v -0.809018 0.000000 0.587783
v -0.861803 -0.276396 0.425324
v -0.670819 -0.276397 0.688191
v 0.309017 0.000000 0.951056
v 0.138199 -0.276398 0.951055
v 0.447216 -0.276398 0.850648
v 1.000000 0.000000 0.000000
v 0.947213 -0.276396 0.162458
v 0.947213 -0.276396 -0.162458
v 0.361803 -0.723612 -0.587779
v 0.138197 -0.894429 -0.425321
v 0.052789 -0.723611 -0.688186
v -0.447211 -0.723612 -0.525727
v -0.361801 -0.894429 -0.262863
v -0.638195 -0.723609 -0.262863
v -0.638195 -0.723609 0.262864
v -0.361801 -0.894428 0.262864
v -0.447211 -0.723610 0.525729
v 0.670817 -0.723611 -0.162457
v 0.670818 -0.723610 0.162458
v 0.447211 -0.894428 0.000001
v 0.052790 -0.723612 0.688185
v 0.138199 -0.894429 0.425321
v 0.361805 -0.723611 0.587779
vn -0.0000 1.0000 -0.0000
vn 0.0806 0.9654 -0.2480
vn -0.2110 0.9654 -0.1533
vn -0.7236 0.4472 -0.5257
vn -0.8152 0.5038 -0.2857
vn -0.6042 0.6650 -0.4390
vn 0.2608 0.9654 -0.0000
vn 0.0806 0.9654 0.2480
vn -0.2110 0.9654 0.1533
vn -0.8650 0.2431 -0.4390
vn 0.2764 0.4472 -0.8506
vn 0.1502 0.2431 -0.9583
vn 0.0198 0.5038 -0.8636
vn 0.8944 0.4472 -0.0000
vn 0.9578 0.2431 -0.1533
vn 0.8274 0.5038 -0.2480
vn 0.2764 0.4472 0.8506
vn 0.4417 0.2431 0.8636
vn 0.4915 0.5038 0.7103
vn -0.7236 0.4472 0.5257
vn -0.6848 0.2431 0.6870
vn -0.5237 0.5038 0.6870
vn -0.6848 0.2431 -0.6870
vn 0.4417 0.2431 -0.8636
vn 0.9578 0.2431 0.1533
vn 0.1502 0.2431 0.9583
vn -0.8650 0.2431 0.4390
vn -0.2764 -0.4472 -0.8506
vn -0.2308 -0.6650 -0.7103
vn -0.4915 -0.5038 -0.7103
vn 0.7236 -0.4472 -0.5257
vn 0.6042 -0.6650 -0.4390
vn 0.5237 -0.5038 -0.6870
vn 0.7236 -0.4472 0.5257
vn 0.6042 -0.6650 0.4390
vn 0.8152 -0.5038 0.2857
vn -0.2764 -0.4472 0.8506
vn -0.2308 -0.6650 0.7103
vn -0.0198 -0.5038 0.8636
vn -0.8944 -0.4472 -0.0000
vn -0.7469 -0.6650 -0.0000
vn -0.8274 -0.5038 0.2480
vn -0.2608 -0.9654 -0.0000
vn -0.0000 -1.0000 -0.0000
vn -0.0806 -0.9654 0.2480
vn -0.5257 -0.8507 -0.0000
vn -0.3682 -0.8904 0.2675
vn -0.6317 -0.7275 0.2675
vn -0.1625 -0.8507 0.5000
vn -0.4496 -0.7276 0.5182
vn -0.6882 -0.5257 0.5000
vn -0.4915 -0.5038 0.7103
vn 0.2110 -0.9654 0.1533
vn 0.1406 -0.8904 0.4329
vn 0.0592 -0.7276 0.6835
vn 0.4253 -0.8507 0.3090
vn 0.3539 -0.7276 0.5878
vn 0.2629 -0.5257 0.8090
vn 0.5237 -0.5038 0.6870
vn 0.2110 -0.9654 -0.1533
vn 0.4551 -0.8904 -0.0000
vn 0.6683 -0.7276 0.1549
vn 0.4253 -0.8507 -0.3090
vn 0.6683 -0.7276 -0.1549
vn 0.8506 -0.5257 -0.0000
vn 0.8152 -0.5038 -0.2857
vn -0.0806 -0.9654 -0.2480
vn 0.1406 -0.8904 -0.4329
vn 0.3539 -0.7276 -0.5878
vn -0.1625 -0.8507 -0.5000
vn 0.0592 -0.7276 -0.6835
vn 0.2629 -0.5257 -0.8090
vn -0.0198 -0.5038 -0.8636
vn -0.3682 -0.8904 -0.2675
vn -0.4496 -0.7276 -0.5182
vn -0.6317 -0.7275 -0.2675
vn -0.6882 -0.5257 -0.5000
vn -0.8274 -0.5038 -0.2480
vn -0.9578 -0.2431 0.1533
vn -0.9511 -0.0000 0.3090
vn -0.8593 -0.2724 0.4329
vn -0.8090 -0.0089 0.5878
vn -0.6772 -0.2724 0.6835
vn -0.5878 -0.0000 0.8090
vn -0.4417 -0.2431 0.8636
vn -0.1502 -0.2431 0.9583
vn -0.0000 -0.0000 1.0000
vn 0.1461 -0.2724 0.9510
vn 0.3090 -0.0089 0.9510
vn 0.4408 -0.2724 0.8553
vn 0.5878 -0.0000 0.8090
vn 0.6848 -0.2431 0.6870
vn 0.8650 -0.2431 0.4390
vn 0.9511 -0.0000 0.3090
vn 0.9496 -0.2724 0.1549
vn 1.0000 -0.0089 -0.0000
vn 0.9496 -0.2724 -0.1549
vn 0.9511 -0.0000 -0.3090
vn 0.8650 -0.2431 -0.4390
vn 0.6848 -0.2431 -0.6870
vn 0.5878 -0.0000 -0.8090
vn 0.4408 -0.2724 -0.8553
vn 0.3090 -0.0089 -0.9510
vn 0.1461 -0.2724 -0.9510
vn -0.0000 -0.0000 -1.0000
vn -0.1502 -0.2431 -0.9583
vn -0.4417 -0.2431 -0.8636
vn -0.5878 -0.0000 -0.8090
vn -0.6772 -0.2724 -0.6835
vn -0.8090 -0.0089 -0.5878
vn -0.8593 -0.2724 -0.4329
vn -0.9511 -0.0000 -0.3090
vn -0.9578 -0.2431 -0.1533
vn -0.3090 0.0089 0.9510
vn -0.4408 0.2724 0.8553
vn -0.1461 0.2724 0.9510
vn -0.2629 0.5257 0.8090
vn 0.0198 0.5038 0.8636
vn 0.8090 0.0089 0.5878
vn 0.6772 0.2724 0.6835
vn 0.8593 0.2724 0.4329
vn 0.6882 0.5257 0.5000
vn 0.8274 0.5038 0.2480
vn 0.8090 0.0089 -0.5878
vn 0.8593 0.2724 -0.4329
vn 0.6772 0.2724 -0.6835
vn 0.6882 0.5257 -0.5000
vn 0.4915 0.5038 -0.7103
vn -0.3090 0.0089 -0.9510
vn -0.1461 0.2724 -0.9510
vn -0.4408 0.2724 -0.8553
vn -0.2629 0.5257 -0.8090
vn -0.5237 0.5038 -0.6870
vn -1.0000 0.0089 -0.0000
vn -0.9496 0.2724 -0.1549
vn -0.9496 0.2724 0.1549
vn -0.8506 0.5257 -0.0000
vn -0.8152 0.5038 0.2857
vn -0.6042 0.6650 0.4390
vn -0.4253 0.8507 0.3090
vn -0.3539 0.7276 0.5878
vn -0.1406 0.8904 0.4329
vn -0.0592 0.7276 0.6835
vn 0.1625 0.8507 0.5000
vn 0.2308 0.6650 0.7103
vn 0.4496 0.7276 0.5182
vn 0.3682 0.8904 0.2675
vn 0.6317 0.7275 0.2675
vn 0.5257 0.8507 -0.0000
vn 0.7469 0.6650 -0.0000
vn 0.6317 0.7275 -0.2675
vn 0.3682 0.8904 -0.2675
vn 0.4496 0.7275 -0.5182
vn 0.1625 0.8507 -0.5000
vn 0.2308 0.6650 -0.7103
vn -0.6683 0.7275 0.1549
vn -0.6683 0.7275 -0.1549
vn -0.4551 0.8904 -0.0000
vn -0.4253 0.8507 -0.3090
vn -0.0592 0.7276 -0.6835
vn -0.1406 0.8904 -0.4329
vn -0.3539 0.7276 -0.5878
vt 0.181819 0.000000
vt 0.159092 0.039365
vt 0.204546 0.039365
vt 0.272728 0.157461
vt 0.318182 0.157461
vt 0.295455 0.118096
vt 0.909091 0.000000
vt 0.886364 0.039365
vt 0.931818 0.039365
vt 0.727273 0.000000
vt 0.704546 0.039365
vt 0.750000 0.039365
vt 0.545455 0.000000
vt 0.522728 0.039365
vt 0.568182 0.039365
vt 0.295455 0.196826
vt 0.090910 0.157461
vt 0.113637 0.196826
vt 0.136364 0.157461
vt 0.818182 0.157461
vt 0.840909 0.196826
vt 0.863636 0.157461
vt 0.636364 0.157461
vt 0.659091 0.196826
vt 0.681818 0.157461
vt 0.454546 0.157461
vt 0.477273 0.196826
vt 0.500000 0.157461
vt 0.250001 0.196826
vt 0.068182 0.196826
vt 0.795455 0.196826
vt 0.613637 0.196826
vt 0.431819 0.196826
vt 0.181819 0.314921
vt 0.204546 0.354286
vt 0.227273 0.314921
vt 0.000000 0.314921
vt 0.022727 0.354286
vt 0.045455 0.314921
vt 0.727273 0.314921
vt 0.750000 0.354286
vt 0.772727 0.314921
vt 0.545455 0.314921
vt 0.568182 0.354286
vt 0.590909 0.314921
vt 0.363637 0.314921
vt 0.386364 0.354286
vt 0.409091 0.314921
vt 0.431819 0.433017
vt 0.454546 0.472382
vt 0.477273 0.433017
vt 0.409091 0.393651
vt 0.454546 0.393651
vt 0.431819 0.354286
vt 0.500000 0.393651
vt 0.477273 0.354286
vt 0.522728 0.354286
vt 0.454546 0.314921
vt 0.500000 0.314921
vt 0.613637 0.433017
vt 0.636364 0.472382
vt 0.659091 0.433017
vt 0.590909 0.393651
vt 0.636364 0.393651
vt 0.613637 0.354286
vt 0.681818 0.393651
vt 0.659091 0.354286
vt 0.704546 0.354286
vt 0.636364 0.314921
vt 0.681818 0.314921
vt 0.795455 0.433017
vt 0.818182 0.472382
vt 0.840909 0.433017
vt 0.772727 0.393651
vt 0.818182 0.393651
vt 0.795455 0.354286
vt 0.863636 0.393651
vt 0.840909 0.354286
vt 0.886364 0.354286
vt 0.818182 0.314921
vt 0.863636 0.314921
vt 0.909091 0.314921
vt 0.068182 0.433017
vt 0.090910 0.472382
vt 0.113637 0.433017
vt 0.045455 0.393651
vt 0.090910 0.393651
vt 0.068182 0.354286
vt 0.136365 0.393651
vt 0.113637 0.354286
vt 0.159092 0.354286
vt 0.090909 0.314921
vt 0.136364 0.314921
vt 0.250001 0.433017
vt 0.272728 0.472382
vt 0.295455 0.433017
vt 0.227273 0.393651
vt 0.272728 0.393651
vt 0.250001 0.354286
vt 0.318182 0.393651
vt 0.295455 0.354286
vt 0.340910 0.354286
vt 0.272728 0.314921
vt 0.318182 0.314921
vt 0.386364 0.275556
vt 0.409091 0.236191
vt 0.431819 0.275556
vt 0.454546 0.236191
vt 0.477273 0.275556
vt 0.500000 0.236191
vt 0.522728 0.275556
vt 0.568182 0.275556
vt 0.590909 0.236191
vt 0.613637 0.275556
vt 0.636364 0.236191
vt 0.659091 0.275556
vt 0.681818 0.236191
vt 0.704546 0.275556
vt 0.750000 0.275556
vt 0.772727 0.236191
vt 0.795455 0.275556
vt 0.818182 0.236191
vt 0.840909 0.275556
vt 0.863636 0.236191
vt 0.886364 0.275556
vt 0.022727 0.275556
vt 0.045455 0.236191
vt 0.068182 0.275556
vt 0.090910 0.236191
vt 0.113637 0.275556
vt 0.136364 0.236191
vt 0.159092 0.275556
vt 0.204546 0.275556
vt 0.227273 0.236191
vt 0.250001 0.275556
vt 0.272728 0.236191
vt 0.295455 0.275556
vt 0.318182 0.236191
vt 0.340910 0.275556
vt 0.545455 0.236191
vt 0.522728 0.196826
vt 0.568182 0.196826
vt 0.545455 0.157461
vt 0.590909 0.157461
vt 0.727273 0.236191
vt 0.704546 0.196826
vt 0.750000 0.196826
vt 0.727273 0.157461
vt 0.772727 0.157461
vt 0.931818 0.275556
vt 0.909091 0.236191
vt 0.886364 0.196826
vt 0.954545 0.236191
vt 0.931818 0.196826
vt 0.977273 0.196826
vt 0.909091 0.157461
vt 0.954545 0.157461
vt 1.000000 0.157461
vt 0.181819 0.236191
vt 0.159092 0.196826
vt 0.204546 0.196826
vt 0.181819 0.157461
vt 0.227274 0.157461
vt 0.363637 0.236191
vt 0.340910 0.196826
vt 0.386364 0.196826
vt 0.363637 0.157461
vt 0.409092 0.157461
vt 0.477273 0.118096
vt 0.500000 0.078731
vt 0.522728 0.118096
vt 0.545455 0.078731
vt 0.568182 0.118096
vt 0.590909 0.078731
vt 0.613637 0.118096
vt 0.659091 0.118096
vt 0.681818 0.078731
vt 0.704546 0.118096
vt 0.727273 0.078731
vt 0.750000 0.118096
vt 0.772727 0.078731
vt 0.795455 0.118096
vt 0.840909 0.118096
vt 0.863636 0.078731
vt 0.886364 0.118096
vt 0.909091 0.078731
vt 0.931818 0.118096
vt 0.954545 0.078731
vt 0.977273 0.118096
vt 0.431819 0.118096
vt 0.386364 0.118096
vt 0.340910 0.118096
vt 0.409091 0.078731
vt 0.363637 0.078730
vt 0.386364 0.039365
vt 0.318182 0.078731
vt 0.340910 0.039365
vt 0.363637 0.000000
vt 0.113637 0.118096
vt 0.136365 0.078731
vt 0.159092 0.118096
vt 0.181819 0.078731
vt 0.204546 0.118096
vt 0.227273 0.078731
vt 0.250001 0.118096
s 1
f 1/1/1 15/2/2 16/3/3
f 2/4/4 24/5/5 18/6/6
f 1/7/1 30/8/7 15/9/2
f 1/10/1 36/11/8 30/12/7
f 1/13/1 25/14/9 36/15/8
f 2/4/4 45/16/10 24/5/5
f 3/17/11 51/18/12 21/19/13
f 4/20/14 57/21/15 33/22/16
f 5/23/17 63/24/18 39/25/19
f 6/26/20 69/27/21 42/28/22
f 2/4/4 52/29/23 45/16/10
f 3/17/11 58/30/24 51/18/12
f 4/20/14 64/31/25 57/21/15
f 5/23/17 70/32/26 63/24/18
f 6/26/20 46/33/27 69/27/21
f 7/34/28 90/35/29 75/36/30
f 8/37/31 96/38/32 78/39/33
f 9/40/34 99/41/35 81/42/36
f 10/43/37 102/44/38 84/45/39
f 11/46/40 91/47/41 87/48/42
f 93/49/43 12/50/44 100/51/45
f 92/52/46 93/49/43 103/53/47
f 91/47/41 92/52/46 104/54/48
f 93/49/43 100/51/45 103/53/47
f 103/53/47 100/51/45 101/55/49
f 92/52/46 103/53/47 104/54/48
f 104/54/48 103/53/47 105/56/50
f 103/53/47 101/55/49 105/56/50
f 105/56/50 101/55/49 102/57/38
f 91/47/41 104/54/48 87/48/42
f 87/48/42 104/54/48 86/58/51
f 104/54/48 105/56/50 86/58/51
f 86/58/51 105/56/50 85/59/52
f 105/56/50 102/57/38 85/59/52
f 85/59/52 102/57/38 10/43/37
f 100/60/45 12/61/44 97/62/53
f 101/63/49 100/60/45 106/64/54
f 102/44/38 101/63/49 107/65/55
f 100/60/45 97/62/53 106/64/54
f 106/64/54 97/62/53 98/66/56
f 101/63/49 106/64/54 107/65/55
f 107/65/55 106/64/54 108/67/57
f 106/64/54 98/66/56 108/67/57
f 108/67/57 98/66/56 99/68/35
f 102/44/38 107/65/55 84/45/39
f 84/45/39 107/65/55 83/69/58
f 107/65/55 108/67/57 83/69/58
f 83/69/58 108/67/57 82/70/59
f 108/67/57 99/68/35 82/70/59
f 82/70/59 99/68/35 9/40/34
f 97/71/53 12/72/44 94/73/60
f 98/74/56 97/71/53 109/75/61
f 99/41/35 98/74/56 110/76/62
f 97/71/53 94/73/60 109/75/61
f 109/75/61 94/73/60 95/77/63
f 98/74/56 109/75/61 110/76/62
f 110/76/62 109/75/61 111/78/64
f 109/75/61 95/77/63 111/78/64
f 111/78/64 95/77/63 96/79/32
f 99/41/35 110/76/62 81/42/36
f 81/42/36 110/76/62 80/80/65
f 110/76/62 111/78/64 80/80/65
f 80/80/65 111/78/64 79/81/66
f 111/78/64 96/79/32 79/81/66
f 79/81/66 96/79/32 8/82/31
f 94/83/60 12/84/44 88/85/67
f 95/86/63 94/83/60 112/87/68
f 96/38/32 95/86/63 113/88/69
f 94/83/60 88/85/67 112/87/68
f 112/87/68 88/85/67 89/89/70
f 95/86/63 112/87/68 113/88/69
f 113/88/69 112/87/68 114/90/71
f 112/87/68 89/89/70 114/90/71
f 114/90/71 89/89/70 90/91/29
f 96/38/32 113/88/69 78/39/33
f 78/39/33 113/88/69 77/92/72
f 113/88/69 114/90/71 77/92/72
f 77/92/72 114/90/71 76/93/73
f 114/90/71 90/91/29 76/93/73
f 76/93/73 90/91/29 7/34/28
f 88/94/67 12/95/44 93/96/43
f 89/97/70 88/94/67 115/98/74
f 90/35/29 89/97/70 116/99/75
f 88/94/67 93/96/43 115/98/74
f 115/98/74 93/96/43 92/100/46
f 89/97/70 115/98/74 116/99/75
f 116/99/75 115/98/74 117/101/76
f 115/98/74 92/100/46 117/101/76
f 117/101/76 92/100/46 91/102/41
f 90/35/29 116/99/75 75/36/30
f 75/36/30 116/99/75 74/103/77
f 116/99/75 117/101/76 74/103/77
f 74/103/77 117/101/76 73/104/78
f 117/101/76 91/102/41 73/104/78
f 73/104/78 91/102/41 11/46/40
f 48/105/79 11/46/40 87/48/42
f 47/106/80 48/105/79 118/107/81
f 46/33/27 47/106/80 119/108/82
f 48/105/79 87/48/42 118/107/81
f 118/107/81 87/48/42 86/58/51
f 47/106/80 118/107/81 119/108/82
f 119/108/82 118/107/81 120/109/83
f 118/107/81 86/58/51 120/109/83
f 120/109/83 86/58/51 85/59/52
f 46/33/27 119/108/82 69/27/21
f 69/27/21 119/108/82 68/110/84
f 119/108/82 120/109/83 68/110/84
f 68/110/84 120/109/83 67/111/85
f 120/109/83 85/59/52 67/111/85
f 67/111/85 85/59/52 10/43/37
f 72/112/86 10/43/37 84/45/39
f 71/113/87 72/112/86 121/114/88
f 70/32/26 71/113/87 122/115/89
f 72/112/86 84/45/39 121/114/88
f 121/114/88 84/45/39 83/69/58
f 71/113/87 121/114/88 122/115/89
f 122/115/89 121/114/88 123/116/90
f 121/114/88 83/69/58 123/116/90
f 123/116/90 83/69/58 82/70/59
f 70/32/26 122/115/89 63/24/18
f 63/24/18 122/115/89 62/117/91
f 122/115/89 123/116/90 62/117/91
f 62/117/91 123/116/90 61/118/92
f 123/116/90 82/70/59 61/118/92
f 61/118/92 82/70/59 9/40/34
f 66/119/93 9/40/34 81/42/36
f 65/120/94 66/119/93 124/121/95
f 64/31/25 65/120/94 125/122/96
f 66/119/93 81/42/36 124/121/95
f 124/121/95 81/42/36 80/80/65
f 65/120/94 124/121/95 125/122/96
f 125/122/96 124/121/95 126/123/97
f 124/121/95 80/80/65 126/123/97
f 126/123/97 80/80/65 79/81/66
f 64/31/25 125/122/96 57/21/15
f 57/21/15 125/122/96 56/124/98
f 125/122/96 126/123/97 56/124/98
f 56/124/98 126/123/97 55/125/99
f 126/123/97 79/81/66 55/125/99
f 55/125/99 79/81/66 8/82/31
f 60/126/100 8/37/31 78/39/33
f 59/127/101 60/126/100 127/128/102
f 58/30/24 59/127/101 128/129/103
f 60/126/100 78/39/33 127/128/102
f 127/128/102 78/39/33 77/92/72
f 59/127/101 127/128/102 128/129/103
f 128/129/103 127/128/102 129/130/104
f 127/128/102 77/92/72 129/130/104
f 129/130/104 77/92/72 76/93/73
f 58/30/24 128/129/103 51/18/12
f 51/18/12 128/129/103 50/131/105
f 128/129/103 129/130/104 50/131/105
f 50/131/105 129/130/104 49/132/106
f 129/130/104 76/93/73 49/132/106
f 49/132/106 76/93/73 7/34/28
f 54/133/107 7/34/28 75/36/30
f 53/134/108 54/133/107 130/135/109
f 52/29/23 53/134/108 131/136/110
f 54/133/107 75/36/30 130/135/109
f 130/135/109 75/36/30 74/103/77
f 53/134/108 130/135/109 131/136/110
f 131/136/110 130/135/109 132/137/111
f 130/135/109 74/103/77 132/137/111
f 132/137/111 74/103/77 73/104/78
f 52/29/23 131/136/110 45/16/10
f 45/16/10 131/136/110 44/138/112
f 131/136/110 132/137/111 44/138/112
f 44/138/112 132/137/111 43/139/113
f 132/137/111 73/104/78 43/139/113
f 43/139/113 73/104/78 11/46/40
f 67/111/85 10/43/37 72/112/86
f 68/110/84 67/111/85 133/140/114
f 69/27/21 68/110/84 134/141/115
f 67/111/85 72/112/86 133/140/114
f 133/140/114 72/112/86 71/113/87
f 68/110/84 133/140/114 134/141/115
f 134/141/115 133/140/114 135/142/116
f 133/140/114 71/113/87 135/142/116
f 135/142/116 71/113/87 70/32/26
f 69/27/21 134/141/115 42/28/22
f 42/28/22 134/141/115 41/143/117
f 134/141/115 135/142/116 41/143/117
f 41/143/117 135/142/116 40/144/118
f 135/142/116 70/32/26 40/144/118
f 40/144/118 70/32/26 5/23/17
f 61/118/92 9/40/34 66/119/93
f 62/117/91 61/118/92 136/145/119
f 63/24/18 62/117/91 137/146/120
f 61/118/92 66/119/93 136/145/119
f 136/145/119 66/119/93 65/120/94
f 62/117/91 136/145/119 137/146/120
f 137/146/120 136/145/119 138/147/121
f 136/145/119 65/120/94 138/147/121
f 138/147/121 65/120/94 64/31/25
f 63/24/18 137/146/120 39/25/19
f 39/25/19 137/146/120 38/148/122
f 137/146/120 138/147/121 38/148/122
f 38/148/122 138/147/121 37/149/123
f 138/147/121 64/31/25 37/149/123
f 37/149/123 64/31/25 4/20/14
f 55/125/99 8/82/31 60/150/100
f 56/124/98 55/125/99 139/151/124
f 57/21/15 56/124/98 140/152/125
f 55/125/99 60/150/100 139/151/124
f 139/151/124 60/150/100 59/153/101
f 56/124/98 139/151/124 140/152/125
f 140/152/125 139/151/124 141/154/126
f 139/151/124 59/153/101 141/154/126
f 141/154/126 59/153/101 58/155/24
f 57/21/15 140/152/125 33/22/16
f 33/22/16 140/152/125 32/156/127
f 140/152/125 141/154/126 32/156/127
f 32/156/127 141/154/126 31/157/128
f 141/154/126 58/155/24 31/157/128
f 31/157/128 58/155/24 3/158/11
f 49/132/106 7/34/28 54/133/107
f 50/131/105 49/132/106 142/159/129
f 51/18/12 50/131/105 143/160/130
f 49/132/106 54/133/107 142/159/129
f 142/159/129 54/133/107 53/134/108
f 50/131/105 142/159/129 143/160/130
f 143/160/130 142/159/129 144/161/131
f 142/159/129 53/134/108 144/161/131
f 144/161/131 53/134/108 52/29/23
f 51/18/12 143/160/130 21/19/13
f 21/19/13 143/160/130 20/162/132
f 143/160/130 144/161/131 20/162/132
f 20/162/132 144/161/131 19/163/133
f 144/161/131 52/29/23 19/163/133
f 19/163/133 52/29/23 2/4/4
f 43/139/113 11/46/40 48/105/79
f 44/138/112 43/139/113 145/164/134
f 45/16/10 44/138/112 146/165/135
f 43/139/113 48/105/79 145/164/134
f 145/164/134 48/105/79 47/106/80
f 44/138/112 145/164/134 146/165/135
f 146/165/135 145/164/134 147/166/136
f 145/164/134 47/106/80 147/166/136
f 147/166/136 47/106/80 46/33/27
f 45/16/10 146/165/135 24/5/5
f 24/5/5 146/165/135 23/167/137
f 146/165/135 147/166/136 23/167/137
f 23/167/137 147/166/136 22/168/138
f 147/166/136 46/33/27 22/168/138
f 22/168/138 46/33/27 6/26/20
f 27/169/139 6/26/20 42/28/22
f 26/170/140 27/169/139 148/171/141
f 25/14/9 26/170/140 149/172/142
f 27/169/139 42/28/22 148/171/141
f 148/171/141 42/28/22 41/143/117
f 26/170/140 148/171/141 149/172/142
f 149/172/142 148/171/141 150/173/143
f 148/171/141 41/143/117 150/173/143
f 150/173/143 41/143/117 40/144/118
f 25/14/9 149/172/142 36/15/8
f 36/15/8 149/172/142 35/174/144
f 149/172/142 150/173/143 35/174/144
f 35/174/144 150/173/143 34/175/145
f 150/173/143 40/144/118 34/175/145
f 34/175/145 40/144/118 5/23/17
f 34/176/145 5/23/17 39/25/19
f 35/177/144 34/176/145 151/178/146
f 36/11/8 35/177/144 152/179/147
f 34/176/145 39/25/19 151/178/146
f 151/178/146 39/25/19 38/148/122
f 35/177/144 151/178/146 152/179/147
f 152/179/147 151/178/146 153/180/148
f 151/178/146 38/148/122 153/180/148
f 153/180/148 38/148/122 37/149/123
f 36/11/8 152/179/147 30/12/7
f 30/12/7 152/179/147 29/181/149
f 152/179/147 153/180/148 29/181/149
f 29/181/149 153/180/148 28/182/150
f 153/180/148 37/149/123 28/182/150
f 28/182/150 37/149/123 4/20/14
f 28/183/150 4/20/14 33/22/16
f 29/184/149 28/183/150 154/185/151
f 30/8/7 29/184/149 155/186/152
f 28/183/150 33/22/16 154/185/151
f 154/185/151 33/22/16 32/156/127
f 29/184/149 154/185/151 155/186/152
f 155/186/152 154/185/151 156/187/153
f 154/185/151 32/156/127 156/187/153
f 156/187/153 32/156/127 31/157/128
f 30/8/7 155/186/152 15/9/2
f 15/9/2 155/186/152 14/188/154
f 155/186/152 156/187/153 14/188/154
f 14/188/154 156/187/153 13/189/155
f 156/187/153 31/157/128 13/189/155
f 13/189/155 31/157/128 3/158/11
f 22/168/138 6/26/20 27/190/139
f 23/167/137 22/168/138 157/191/156
f 24/5/5 23/167/137 158/192/157
f 22/168/138 27/190/139 157/191/156
f 157/191/156 27/190/139 26/193/140
f 23/167/137 157/191/156 158/192/157
f 158/192/157 157/191/156 159/194/158
f 157/191/156 26/193/140 159/194/158
f 159/194/158 26/193/140 25/195/9
f 24/5/5 158/192/157 18/6/6
f 18/6/6 158/192/157 17/196/159
f 158/192/157 159/194/158 17/196/159
f 17/196/159 159/194/158 16/197/3
f 159/194/158 25/195/9 16/197/3
f 16/197/3 25/195/9 1/198/1
f 13/199/155 3/17/11 21/19/13
f 14/200/154 13/199/155 160/201/160
f 15/2/2 14/200/154 161/202/161
f 13/199/155 21/19/13 160/201/160
f 160/201/160 21/19/13 20/162/132
f 14/200/154 160/201/160 161/202/161
f 161/202/161 160/201/160 162/203/162
f 160/201/160 20/162/132 162/203/162
f 162/203/162 20/162/132 19/163/133
f 15/2/2 161/202/161 16/3/3
f 16/3/3 161/202/161 17/204/159
f 161/202/161 162/203/162 17/204/159
f 17/204/159 162/203/162 18/205/6
f 162/203/162 19/163/133 18/205/6
f 18/205/6 19/163/133 2/4/4
