# Blender 4.0.2
# www.blender.org
o scene
v 7.808487 -0.724548 2.500077
v 7.808487 2.215833 2.500077
v 7.808487 -0.724548 -0.502980
v 7.808487 -0.724548 -2.179029
v 7.808487 2.281853 -2.160616
v 7.808487 2.258312 -0.502773
v 15.092098 -0.554635 -0.697962
v 15.092098 -0.554635 -2.179029
v 15.088438 2.539454 -2.179029
v 15.094080 2.539454 -0.697962
v 12.642742 -0.611774 -0.630166
v 12.644058 2.443053 -0.634940
v 12.640313 2.443053 -2.269418
v 12.642742 -0.611774 -2.269418
v 15.094080 2.539454 -2.547887
v 15.092098 -0.554635 -2.547887
v 6.037138 -0.724548 2.500077
v 6.037851 2.165545 2.500077
v 6.563850 2.252785 -2.179029
v 6.563850 2.239549 -0.502980
v 6.563850 -0.724548 -2.179029
v 6.563850 -0.724548 -0.502980
v 7.808487 2.233780 1.231372
v 7.808487 -0.724548 1.231284
v 6.563850 2.224801 1.364586
v 6.563850 -0.724548 1.231284
v 7.808487 1.608924 -2.164850
v 12.644058 1.608967 -2.269418
v 7.808487 1.604701 2.500077
v 7.808487 1.623488 -0.502980
v 15.094080 1.633973 -2.179029
v 15.094080 1.623488 -0.697962
v 15.094080 1.633973 -2.547887
v 6.037138 1.604701 2.500077
v 7.808487 1.612638 1.231284
v 7.808487 0.754730 2.500077
v 7.808487 0.766661 -0.502980
v 15.094080 0.773320 -2.179029
v 15.094080 0.766661 -0.697962
v 15.094080 0.773320 -2.547887
v 6.037138 0.754730 2.500077
v 7.808487 0.759771 1.231284
v 7.808487 -0.724548 -0.027790
v 6.563850 2.231931 0.461650
v 6.563850 -0.724548 -0.027790
v 7.808487 2.251590 -0.027616
v 7.808487 1.620515 -0.027790
v 7.808487 0.764773 -0.027790
v 7.808487 -0.724548 -2.845898
v 7.808487 2.291453 -2.845530
v 6.563850 -0.724548 -2.845898
v 6.563850 2.258052 -2.845898
v 7.808487 1.613095 -2.845898
v 7.808487 -0.724548 -4.242542
v 6.563850 -0.724548 -4.242542
v 6.563850 2.269082 -4.242542
v 7.808487 1.621740 -4.242542
v 7.808487 2.287409 -4.242077
v 4.195084 2.113208 2.500077
v 4.616963 -0.724548 -2.179029
v 4.616963 -0.724548 -0.502980
v 4.193627 -0.724548 2.500077
v 4.616963 -0.724548 1.231284
v 4.618125 2.157546 1.364586
v 4.193627 1.604701 2.500077
v 4.193627 0.754730 2.500077
v 4.616963 -0.724548 -0.027790
v 4.616963 -0.724548 -2.845898
v -1.376233 -0.724548 -0.502980
v -1.376233 -0.724548 1.231284
v -1.376233 -0.724548 -0.027790
v 7.808487 -0.724548 -4.584452
v 7.808487 2.224807 1.865724
v 7.808487 0.015091 2.500077
v 6.922812 -0.724548 2.500077
v 7.808487 -0.724548 -0.265385
v 7.808487 -0.724548 -1.341005
v 7.808487 2.286653 -2.503073
v 7.808487 2.270082 -1.331695
v 7.186169 2.267319 -2.169823
v 7.186169 2.248931 -0.502877
v -2.611791 -0.724548 -0.502980
v 7.808487 0.442188 -2.171940
v 7.808487 0.021057 -0.502980
v 15.092099 -0.554635 -1.438496
v 15.091259 2.539454 -1.438496
v 15.093090 0.109343 -2.179029
v 15.093090 0.106013 -0.697962
v 13.867420 -0.583204 -0.664064
v 10.226273 2.350682 -0.568856
v 10.224400 2.362453 -2.215017
v 13.867420 -0.583204 -2.224223
v 10.225615 -0.668161 -0.566573
v 13.869068 2.491253 -0.666451
v 13.864376 2.491253 -2.224223
v 10.225615 -0.668161 -2.224223
v 12.643400 0.498597 -2.269417
v 12.642742 -0.611774 -1.449792
v 12.642185 2.443053 -1.452179
v 15.093090 0.109343 -2.547887
v 15.092098 -0.554635 -2.363458
v 15.091258 2.539454 -2.363458
v 5.115382 -0.724548 2.500077
v 6.923169 2.190689 2.500077
v 6.563850 2.731733 -2.176102
v 7.186169 -0.724548 -2.179029
v 7.186169 -0.724548 -0.502980
v 6.563850 -0.724548 -1.341005
v 6.563850 2.246168 -1.341005
v 6.563850 2.235741 -0.020665
v 6.563850 -0.724548 -0.265385
v 6.037495 1.885123 2.500077
v 7.808487 2.242685 0.601878
v 7.808487 -0.724548 1.865680
v 6.300851 2.195173 1.932331
v 6.300494 -0.724548 1.865680
v 5.590406 -0.724548 1.231284
v 7.186169 2.229290 1.297979
v 7.186169 -0.724548 1.231284
v 7.808487 1.923210 1.231328
v 6.563850 2.703748 1.367513
v 6.563850 2.718497 -0.500053
v 7.808487 1.945389 -2.162733
v 12.642185 2.026010 -2.269417
v 10.226273 1.608946 -2.217134
v 7.808487 1.623856 -4.584452
v 7.808487 1.910267 2.500077
v 7.808487 1.940900 -0.502877
v 15.091259 2.086714 -2.179029
v 15.094080 2.081471 -0.697962
v 15.094080 2.086713 -2.547887
v 6.037138 1.179715 2.500077
v 7.808487 1.186204 1.231284
v 7.808487 1.622001 -0.265385
v 6.922812 1.604701 2.500077
v 15.094080 1.633973 -2.363458
v 15.094080 1.628730 -1.438496
v 5.115382 1.604701 2.500077
v 7.808487 1.608669 1.865681
v 7.808487 1.179715 2.500077
v 7.808487 1.195074 -0.502980
v 15.094080 1.203646 -2.179029
v 15.094080 1.195074 -0.697962
v 15.094080 1.203646 -2.547887
v 6.037138 0.015091 2.500077
v 7.808487 0.017612 1.231284
v 7.808487 0.757250 1.865681
v 5.115382 0.754730 2.500077
v 15.094080 0.769990 -1.438496
v 6.922812 0.754730 2.500077
v 7.808487 0.765717 -0.265385
v 15.094080 0.773320 -2.363458
v 7.808487 -0.724548 0.601747
v 6.563850 2.228366 0.913118
v 6.563850 -0.724548 0.601747
v 7.808487 2.254951 -0.265195
v 7.808487 1.616577 0.601747
v 7.808487 0.762272 0.601747
v 7.808487 0.020113 -0.027790
v 7.808487 1.192644 -0.027790
v 7.808487 1.936053 -0.027703
v 7.186169 -0.724548 -0.027790
v 7.186169 2.241761 0.217017
v 5.590406 -0.724548 -0.027790
v 6.563850 2.710879 0.464576
v 7.808487 -0.724548 -2.512464
v 7.808487 2.289432 -3.543804
v 6.563850 -0.724548 -2.512464
v 6.563850 2.255419 -2.512464
v 7.808487 1.611010 -2.505374
v 7.808487 0.444274 -2.845898
v 6.563850 2.737000 -2.842971
v 7.186169 2.274753 -2.845714
v 5.590406 -0.724548 -2.845898
v 7.808487 1.952274 -2.845714
v 7.186169 -0.724548 -2.845898
v 7.808487 -0.724548 -3.544220
v 6.563850 -0.724548 -3.544220
v 6.563850 2.263566 -3.544220
v 7.808487 1.617417 -3.544220
v 7.808487 2.292245 -4.583964
v 7.186169 -0.724548 -4.242542
v 7.808487 1.954574 -4.242310
v 7.186169 2.278245 -4.242310
v 6.563850 2.748029 -4.239615
v 7.808487 0.448596 -4.242542
v 13.867419 -0.583204 -2.408652
v 13.867195 2.491253 -2.408652
v 5.116467 2.139377 2.500077
v 5.590406 -0.724548 -2.179029
v 5.590406 -0.724548 -0.502980
v 1.356143 -0.724548 2.500077
v 1.620365 -0.724548 1.231284
v 5.590988 2.191173 1.364586
v 1.356143 1.604701 2.500077
v 1.356143 0.754730 2.500077
v 1.620365 -0.724548 -0.027790
v 4.616963 -0.724548 -3.544220
v 4.616963 -0.724548 -0.265385
v 4.193627 0.015091 2.500077
v 4.193627 1.179715 2.500077
v 4.616963 -0.724548 0.601747
v 4.405295 -0.724548 1.865680
v 4.616963 -0.724548 -2.512464
v 4.616963 -0.724548 -1.341005
v 4.617544 2.670121 1.367513
v 4.406605 2.135377 1.932331
v 4.194355 1.858955 2.500077
v 1.358743 2.032653 2.500077
v 1.620365 -0.724548 -2.179029
v 1.620365 -0.724548 -0.502980
v 1.623316 2.054029 1.364586
v -2.611791 -0.724548 1.231284
v -2.611791 -0.724548 -0.027790
v -1.376233 -0.724548 -1.341005
v -1.428788 -0.724548 1.865680
v -1.376233 -0.724548 0.601747
v -1.376233 -0.724548 -0.265385
v 6.563850 2.707314 0.916045
v 7.808487 1.916738 1.865702
v 7.054491 -0.724548 1.865680
v 7.186169 -0.724548 -2.512464
v 7.186169 -0.724548 -1.341005
v 7.808487 1.948831 -2.504224
v 15.092669 2.084092 -1.438496
v 13.866722 2.491253 -1.445337
v 13.867420 -0.583204 -1.444144
v 14.275646 -0.573681 -2.332111
v 10.225336 1.985699 -2.216075
v 10.225615 -0.668161 -1.395398
v 10.225336 2.356567 -1.391937
v 14.274277 2.507320 -2.332111
v 15.093088 0.109342 -2.363458
v 5.590406 -0.724548 -1.341005
v 5.590406 -0.724548 -2.512464
v 7.186169 2.258125 -1.336350
v 7.054669 2.209990 1.899028
v 5.352895 -0.724548 1.865680
v 6.922991 1.897695 2.500077
v 7.186169 2.271036 -2.507768
v 5.590406 -0.724548 0.601747
v 7.186169 2.235526 0.757498
v 6.563850 2.734366 -2.509537
v 7.186169 -0.724548 0.601747
v 7.808487 1.929631 0.601812
v 6.563850 2.725115 -1.338078
v 10.225944 0.470392 -2.220679
v 7.808487 0.443231 -2.508919
v 7.808487 1.189424 0.601747
v 6.922812 1.179715 2.500077
v 15.092669 2.086713 -2.363458
v 15.094080 1.199360 -1.438496
v 7.808487 1.182960 1.865680
v 7.808487 0.016351 1.865680
v 15.093088 0.107678 -1.438496
v 6.922812 0.015091 2.500077
v 7.808487 0.018862 0.601747
v 15.094080 1.203646 -2.363458
v 7.808487 0.020585 -0.265385
v 7.808487 1.193859 -0.265385
v 7.808487 1.938476 -0.265290
v 7.186169 -0.724548 -0.265385
v 7.186169 2.245346 -0.142930
v 5.590406 -0.724548 -0.265385
v 6.563850 2.714688 -0.017738
v 6.563850 2.742514 -3.541293
v 7.186169 2.276499 -3.544012
v 5.590406 -0.724548 -3.544220
v 7.808487 1.953424 -3.544012
v 7.186169 -0.724548 -3.544220
v 7.186169 -0.724548 -4.584452
v 7.808487 1.958050 -4.584208
v 7.186169 2.282013 -4.584208
v 7.808487 0.449654 -4.584452
v 7.808487 0.446435 -3.544220
v 1.620365 -0.724548 -0.265385
v 5.115382 0.015091 2.500077
v 5.115382 1.179715 2.500077
v 1.620365 -0.724548 0.601747
v 1.488254 -0.724548 1.865680
v 1.620365 -0.724548 -2.512464
v 1.620365 -0.724548 -1.341005
v 5.590697 2.686934 1.367513
v 5.353728 2.165275 1.932331
v 5.115925 1.872039 2.500077
v -2.611790 -0.724548 -1.341005
v -2.611790 -0.724548 0.601747
v -2.611790 -0.724548 -0.265385
v 1.356143 0.015091 2.500077
v 1.356143 1.179715 2.500077
v 1.491030 2.043341 1.932331
v 1.357443 1.818677 2.500077
v 6.563850 3.100408 1.369937
v 6.563850 3.088573 0.918375
v 6.563850 3.076739 0.466812
v 6.563850 3.007518 -2.174417
v 6.563850 2.998778 -2.507921
v 6.563850 2.990038 -2.841424
v 6.563850 3.051453 -0.498018
v 6.563850 3.029486 -1.336218
v 6.563850 3.064096 -0.015603
v 6.563850 2.971733 -3.539892
v 6.563850 2.953427 -4.238360
v 4.616963 -0.724548 -3.782368
v 5.590406 -0.724548 -4.088093
v 6.082181 -0.724548 -4.242542
v 7.170837 -0.724548 -4.584452
v 7.186169 -0.724548 -4.589267
v 6.563850 -0.724548 -4.393818
v 7.808487 -0.724548 -4.784715
v 7.808487 1.625152 -4.793826
v 7.808487 1.960195 -4.795125
v 7.808487 2.295251 -4.796424
v 7.186169 2.282198 -4.600924
v 7.133020 2.281140 -4.584229
v 6.563850 2.270368 -4.405430
v 6.563850 2.749353 -4.407288
v 6.563850 2.948980 -4.408062
v 7.808487 0.450288 -4.789270
v 1.635196 -0.724548 -2.845898
v 3.858688 -0.724548 -3.544220
v -0.156819 -0.724548 2.500077
v -1.442726 -0.724548 2.033936
v 0.573525 -0.724548 -2.512464
v 1.620365 -0.724548 -2.841240
v -0.488147 -0.724548 -2.179029
v -1.376233 -0.724548 -1.900112
v 4.617492 2.716170 1.367776
v 5.590568 2.908267 1.368820
v -3.156458 -0.724548 -1.341005
v -2.611790 -0.724548 -1.512066
v -3.770067 -0.724548 -1.148291
v -3.738618 -0.724548 -0.502980
v -3.654099 -0.724548 1.231284
v -3.654047 -0.724548 1.232332
v -2.627251 -0.724548 1.604546
v -1.906878 -0.724548 1.865680
v -3.684779 -0.724548 0.601747
v -3.715460 -0.724548 -0.027790
v -3.727038 -0.724548 -0.265385
v -0.074618 0.015091 2.500077
v 0.007583 0.754730 2.500077
v 0.054814 1.179715 2.500077
v 0.102046 1.604701 2.500077
v 1.623130 2.125055 1.364955
v 4.361847 2.665703 1.367513
v 1.186924 2.038945 1.364586
v 1.054810 2.029933 2.015758
v 0.944709 2.020894 2.500077
v 1.065809 2.029918 1.932331
v 1.175877 2.038949 1.447934
v 0.123879 1.801163 2.500077
v 0.130437 1.860169 2.500077
vn -1.0000 -0.0000 -0.0000
vn -0.0000 1.0000 -0.0000
vn -1.0000 -0.0047 0.0009
vn -1.0000 -0.0015 0.0009
vn -1.0000 -0.0015 0.0029
vn -1.0000 -0.0047 0.0028
vn 0.0393 -0.9992 -0.0001
vn -0.0233 0.9997 -0.0000
vn 0.0219 -0.0044 0.9998
vn 0.0219 -0.0013 0.9998
vn 0.0223 -0.0013 0.9998
vn 0.0224 -0.0044 0.9997
vn 0.0343 -0.9994 -0.0107
vn 0.0345 -0.9994 -0.0036
vn 0.0369 -0.9993 -0.0036
vn 0.0367 -0.9993 -0.0107
vn 0.0393 -0.9992 0.0006
vn -1.0000 0.0015 -0.0000
vn 0.0214 -0.9997 -0.0126
vn 0.0172 -0.9998 -0.0126
vn 0.0172 -0.9998 -0.0095
vn 0.0214 -0.9997 -0.0095
vn 0.0125 -0.9997 -0.0216
vn 0.0240 -0.9995 -0.0203
vn 0.0237 -0.9991 -0.0338
vn 0.0113 -0.9992 -0.0380
vn -0.0000 -0.0000 -1.0000
vn 0.0260 -0.9996 -0.0125
vn 0.0244 -0.9996 -0.0125
vn 0.0243 -0.9997 -0.0095
vn 0.0260 -0.9996 -0.0095
vn 0.0095 -0.9999 -0.0129
vn 0.0070 -0.9999 -0.0129
vn 0.0076 -0.9999 -0.0099
vn 0.0105 -0.9999 -0.0099
vn 0.0195 -0.0046 0.9998
vn 0.0195 -0.0016 0.9998
vn 0.0209 -0.0016 0.9998
vn 0.0209 -0.0046 0.9998
vn -0.9999 -0.0047 -0.0115
vn -0.9999 -0.0016 -0.0115
vn -1.0000 -0.0016 -0.0038
vn -1.0000 -0.0047 -0.0038
vn 0.0141 -0.9998 -0.0116
vn 0.0122 -0.9999 -0.0116
vn 0.0130 -0.9999 -0.0088
vn 0.0144 -0.9999 -0.0088
vn 0.0178 -0.9998 0.0002
vn 0.0238 -0.9997 0.0002
vn 0.0238 -0.9997 -0.0052
vn 0.0178 -0.9998 -0.0052
vn 0.0165 -0.9998 -0.0139
vn 0.0156 -0.9998 -0.0126
vn 0.0153 -0.9998 -0.0099
vn 0.0164 -0.9998 -0.0110
vn -0.0002 0.0060 -1.0000
vn -0.0002 0.0058 -1.0000
vn -0.0001 0.0059 -1.0000
vn -0.0001 0.0060 -1.0000
vn 0.0330 -0.9989 -0.0343
vn 0.0300 -0.9989 -0.0356
vn 0.0300 -0.9991 -0.0304
vn 0.0331 -0.9990 -0.0292
vn -0.0002 0.0056 -1.0000
vn -0.0002 0.0052 -1.0000
vn -0.0001 0.0057 -1.0000
vn 0.0331 -0.9993 -0.0189
vn 0.0300 -0.9994 -0.0198
vn 0.0286 -0.9995 -0.0110
vn 0.0318 -0.9994 -0.0103
vt 0.531213 0.872273
vt 0.579535 0.870141
vt 0.581126 0.939269
vt 0.532714 0.941458
vt 0.627784 0.868012
vt 0.629463 0.937083
vt 0.630859 0.994482
vt 0.582396 0.994482
vt 0.533865 0.994482
vt 0.599887 0.765908
vt 0.661824 0.763413
vt 0.662666 0.803871
vt 0.600670 0.806738
vt 0.723640 0.760924
vt 0.724540 0.801011
vt 0.725441 0.841185
vt 0.663510 0.844419
vt 0.601455 0.847659
vt 0.605401 0.448618
vt 0.676317 0.443750
vt 0.665373 0.452228
vt 0.599498 0.455349
vt 0.749882 0.438700
vt 0.732335 0.449055
vt 0.716847 0.458195
vt 0.655523 0.459858
vt 0.594082 0.461524
vt 0.171710 0.460292
vt 0.207398 0.459331
vt 0.218711 0.465637
vt 0.184577 0.466560
vt 0.243046 0.458372
vt 0.252809 0.464716
vt 0.261761 0.470534
vt 0.229084 0.471420
vt 0.196374 0.472307
vt 0.332468 0.455965
vt 0.338349 0.462405
vt 0.421642 0.453564
vt 0.423662 0.460100
vt 0.425514 0.466094
vt 0.343742 0.468311
vt 0.198877 0.778746
vt 0.232558 0.777397
vt 0.233078 0.822079
vt 0.199262 0.823636
vt 0.266205 0.776050
vt 0.266859 0.820524
vt 0.267514 0.865105
vt 0.233599 0.866869
vt 0.199647 0.868636
vt 0.331800 0.721969
vt 0.380789 0.719985
vt 0.381313 0.760297
vt 0.332256 0.762093
vt 0.429703 0.718003
vt 0.430289 0.758504
vt 0.430876 0.799095
vt 0.381838 0.800703
vt 0.332713 0.802314
vt 0.308948 0.817505
vt 0.321526 0.809464
vt 0.376225 0.807670
vt 0.369915 0.815502
vt 0.430819 0.805878
vt 0.430755 0.813504
vt 0.426734 0.511188
vt 0.426838 0.519336
vt 0.372589 0.520852
vt 0.366219 0.512871
vt 0.426930 0.526591
vt 0.378260 0.527957
vt 0.329515 0.529324
vt 0.318249 0.522370
vt 0.305591 0.514557
vt 0.317364 0.529665
vt 0.313738 0.525012
vt 0.305208 0.530006
vt 0.305388 0.522730
vt 0.290054 0.752234
vt 0.290590 0.795053
vt 0.308051 0.734263
vt 0.308499 0.775833
vt 0.291128 0.837976
vt 0.426209 0.491760
vt 0.356537 0.493677
vt 0.286715 0.495598
vt 0.361113 0.834996
vt 0.349453 0.860821
vt 0.430936 0.832022
vt 0.431177 0.856548
vt 0.308585 0.809857
vt 0.316936 0.807246
vt 0.308262 0.803055
vt 0.320488 0.802684
vt 0.330904 0.645974
vt 0.318715 0.646338
vt 0.318038 0.587911
vt 0.330208 0.587559
vt 0.306522 0.646702
vt 0.305864 0.588264
vt 0.205852 0.434200
vt 0.310069 0.431435
vt 0.322121 0.444634
vt 0.225867 0.447207
vt 0.413950 0.428680
vt 0.418088 0.442068
vt 0.122678 0.436406
vt 0.164292 0.435302
vt 0.187489 0.448233
vt 0.149065 0.449260
vt 0.343750 0.870383
vt 0.257742 0.874527
vt 0.429521 0.866251
vt 0.427715 0.876840
vt 0.337525 0.880820
vt 0.247076 0.884811
vt 0.677277 0.854996
vt 0.614048 0.857393
vt 0.741557 0.852559
vt 0.759835 0.865459
vt 0.692587 0.866759
vt 0.627868 0.423005
vt 0.710067 0.417606
vt 0.691925 0.431659
vt 0.615783 0.436782
vt 0.795091 0.412020
vt 0.770806 0.426352
vt 0.739692 0.770741
vt 0.740623 0.811605
vt 0.757899 0.781875
vt 0.758866 0.823621
vt 0.222802 0.876208
vt 0.187823 0.877892
vt 0.211016 0.886402
vt 0.174915 0.887995
vt 0.472706 0.427121
vt 0.550381 0.425061
vt 0.544161 0.438697
vt 0.472378 0.440616
vt 0.538818 0.450411
vt 0.472097 0.452206
vt 0.477926 0.854108
vt 0.539752 0.850880
vt 0.558782 0.860093
vt 0.503418 0.862798
vt 0.211923 0.955966
vt 0.175755 0.957601
vt 0.248050 0.954332
vt 0.248613 0.994482
vt 0.212425 0.994482
vt 0.176199 0.994482
vt 0.535781 0.457071
vt 0.471937 0.458796
vt 0.532994 0.463180
vt 0.471790 0.464839
vt 0.476600 0.770873
vt 0.538304 0.768388
vt 0.539027 0.809588
vt 0.477262 0.812443
vt 0.338667 0.950234
vt 0.429025 0.946147
vt 0.429938 0.994482
vt 0.339395 0.994482
vt 0.288379 0.623470
vt 0.263973 0.622656
vt 0.306817 0.624084
vt 0.230814 0.623770
vt 0.197620 0.624886
vt 0.474836 0.658605
vt 0.536356 0.656424
vt 0.537328 0.712321
vt 0.475717 0.714653
vt 0.597757 0.654247
vt 0.598821 0.709993
vt 0.721148 0.649874
vt 0.736992 0.652698
vt 0.738340 0.711624
vt 0.722392 0.705315
vt 0.754956 0.655900
vt 0.756425 0.718780
vt 0.320037 0.762470
vt 0.307815 0.762847
vt 0.307368 0.722728
vt 0.319586 0.722348
vt 0.379794 0.644220
vt 0.380291 0.682063
vt 0.331351 0.683932
vt 0.428610 0.642470
vt 0.429156 0.680197
vt 0.659513 0.652058
vt 0.660667 0.707651
vt 0.657513 0.555706
vt 0.595915 0.557632
vt 0.718992 0.553783
vt 0.379026 0.585999
vt 0.427769 0.584441
vt 0.734657 0.550593
vt 0.752412 0.546977
vt 0.534671 0.559547
vt 0.473309 0.561465
vt 0.319150 0.684304
vt 0.306944 0.684676
vt 0.448660 0.465466
vt 0.450120 0.562190
vt 0.426913 0.562916
vt 0.451586 0.659429
vt 0.428320 0.660253
vt 0.452433 0.715535
vt 0.429131 0.716417
vt 0.453282 0.771812
vt 0.429945 0.772752
vt 0.453920 0.813523
vt 0.430560 0.814603
vt 0.454560 0.855328
vt 0.446879 0.452885
vt 0.447808 0.459448
vt 0.466491 0.864524
vt 0.479506 0.874555
vt 0.443342 0.427900
vt 0.445245 0.441342
vt 0.480912 0.943801
vt 0.481941 0.994482
vt 0.023252 0.894687
vt 0.099174 0.891337
vt 0.099872 0.961033
vt 0.023807 0.964473
vt 0.100207 0.994482
vt 0.024046 0.994482
vt 0.060794 0.872716
vt 0.130295 0.870674
vt 0.115417 0.880552
vt 0.042847 0.883219
vt 0.005516 0.439514
vt 0.035351 0.438722
vt 0.068445 0.451416
vt 0.005516 0.453098
vt 0.096840 0.462307
vt 0.021796 0.464327
vt 0.005516 0.459206
vt 0.060359 0.784305
vt 0.129693 0.781523
vt 0.129994 0.826044
vt 0.060576 0.828458
vt 0.112972 0.468494
vt 0.041207 0.470433
vt 0.127761 0.474167
vt 0.059002 0.476031
vt 0.005516 0.471241
vt 0.006012 0.471384
vt 0.005516 0.471398
vt 0.005516 0.464765
vt 0.025283 0.476945
vt 0.005516 0.477481
vt 0.005516 0.786507
vt 0.026356 0.785670
vt 0.026535 0.830028
vt 0.005516 0.830998
vt 0.026714 0.874493
vt 0.005516 0.875599
vt 0.007258 0.884932
vt 0.005516 0.885016
vt 0.005516 0.895470
vt 0.005516 0.885866
vt 0.005516 0.965300
vt 0.005516 0.994482
vt 0.025817 0.630657
vt 0.005516 0.631340
vt 0.059677 0.629520
vt 0.128723 0.627200
vt 0.005516 0.379331
vt 0.005516 0.427279
vt 0.358085 0.247931
vt 0.417660 0.246519
vt 0.434853 0.367944
vt 0.395490 0.368951
vt 0.477126 0.245111
vt 0.474167 0.366938
vt 0.773591 0.542664
vt 0.798184 0.537656
vt 0.801298 0.664161
vt 0.776394 0.659721
vt 0.778012 0.727321
vt 0.803097 0.737246
vt 0.804903 0.810622
vt 0.779636 0.795170
vt 0.634155 0.241390
vt 0.578104 0.364278
vt 0.790419 0.237687
vt 0.681706 0.361627
vt 0.951427 0.230638
vt 0.790555 0.355256
vt 0.994482 0.228753
vt 0.994482 0.294352
vt 0.902369 0.348711
vt 0.005516 0.346795
vt 0.060635 0.377520
vt 0.005516 0.378930
vt 0.005516 0.304006
vt 0.116439 0.376092
vt 0.005517 0.256285
vt 0.147071 0.252931
vt 0.256266 0.372514
vt 0.639896 0.882971
vt 0.641785 0.959991
vt 0.654015 0.900407
vt 0.656156 0.986708
vt 0.656349 0.994482
vt 0.642631 0.994482
vt 0.709511 0.881936
vt 0.781661 0.880863
vt 0.807031 0.898768
vt 0.729212 0.899602
vt 0.780647 0.837968
vt 0.805966 0.854645
vt 0.005517 0.097910
vt 0.060495 0.158119
vt 0.005517 0.159339
vt 0.005517 0.005516
vt 0.283160 0.005516
vt 0.328488 0.152171
vt 0.994482 0.135870
vt 0.876091 0.140017
vt 0.994068 0.005516
vt 0.994482 0.005517
vt 0.994482 0.197286
vt 0.741740 0.005517
vt 0.678392 0.144405
vt 0.479464 0.148820
vt 0.482944 0.005516
vt 0.383538 0.005517
vt 0.404064 0.150493
vt 0.906974 0.515500
vt 0.994482 0.497680
vt 0.911622 0.683827
vt 0.994482 0.698597
vt 0.914312 0.781248
vt 0.994482 0.812968
vt 0.994482 0.926565
vt 0.917016 0.879188
vt 0.717184 0.978422
vt 0.717606 0.994482
vt 0.660337 0.994482
vt 0.730188 0.994482
vt 0.817004 0.978325
vt 0.919615 0.978226
vt 0.835022 0.994482
vt 0.942648 0.994482
vt 0.850350 0.994482
vt 0.745190 0.994482
vt 0.918314 0.928648
vt 0.994482 0.978819
vt 0.994482 0.994482
s 0
f 44/1/1 154/2/1 219/3/1 165/4/1
f 154/2/1 25/5/1 121/6/1 219/3/1
f 219/3/1 121/6/1 293/7/1 294/8/1
f 165/4/1 219/3/1 294/8/1 295/9/1
f 35/10/1 139/11/1 220/12/1 120/13/1
f 139/11/1 29/14/1 127/15/1 220/12/1
f 220/12/1 127/15/1 2/16/1 73/17/1
f 120/13/1 220/12/1 73/17/1 23/18/1
f 26/19/2 116/20/2 221/21/2 119/22/2
f 116/20/2 17/23/2 75/24/2 221/21/2
f 221/21/2 75/24/2 1/25/2 114/26/2
f 119/22/2 221/21/2 114/26/2 24/27/2
f 51/28/2 168/29/2 222/30/2 176/31/2
f 168/29/2 21/32/2 106/33/2 222/30/2
f 222/30/2 106/33/2 4/34/2 166/35/2
f 176/31/2 222/30/2 166/35/2 49/36/2
f 21/32/2 108/37/2 223/38/2 106/33/2
f 108/37/2 22/39/2 107/40/2 223/38/2
f 223/38/2 107/40/2 3/41/2 77/42/2
f 106/33/2 223/38/2 77/42/2 4/34/2
f 53/43/1 170/44/1 224/45/1 175/46/1
f 170/44/1 27/47/1 123/48/1 224/45/1
f 224/45/1 123/48/1 5/49/1 78/50/1
f 175/46/1 224/45/1 78/50/1 50/51/1
f 31/52/3 137/53/3 225/54/3 129/55/3
f 137/53/4 32/56/4 130/57/4 225/54/4
f 225/54/5 130/57/5 10/58/5 86/59/5
f 129/55/6 225/54/6 86/59/6 9/60/6
f 13/61/7 95/62/7 226/63/7 99/64/7
f 95/62/7 9/60/7 86/59/7 226/63/7
f 226/63/7 86/59/7 10/58/7 94/65/7
f 99/64/7 226/63/7 94/65/7 12/66/7
f 11/67/8 89/68/8 227/69/8 98/70/8
f 89/68/8 7/71/8 85/72/8 227/69/8
f 227/69/8 85/72/8 8/73/8 92/74/8
f 98/70/8 227/69/8 92/74/8 14/75/8
f 8/73/8 101/76/8 228/77/8 92/74/8
f 16/78/8 187/79/8 228/77/8 101/76/8
f 14/75/8 92/74/8 228/77/8 187/79/8
f 27/47/9 125/80/9 229/81/9 123/48/9
f 125/80/10 28/82/10 124/83/10 229/81/10
f 229/81/11 124/83/11 13/61/11 91/84/11
f 123/48/12 229/81/12 91/84/12 5/49/12
f 3/41/8 93/85/8 230/86/8 77/42/8
f 93/85/8 11/67/8 98/70/8 230/86/8
f 230/86/8 98/70/8 14/75/8 96/87/8
f 77/42/8 230/86/8 96/87/8 4/34/8
f 5/49/13 91/84/13 231/88/13 79/89/13
f 91/84/14 13/61/14 99/64/14 231/88/14
f 231/88/15 99/64/15 12/66/15 90/90/15
f 79/89/16 231/88/16 90/90/16 6/91/16
f 13/61/17 188/92/17 232/93/17 95/62/17
f 15/94/17 102/95/17 232/93/17 188/92/17
f 9/60/17 95/62/17 232/93/17 102/95/17
f 38/96/18 152/97/18 233/98/18 87/99/18
f 152/97/18 40/100/18 100/101/18 233/98/18
f 233/98/18 100/101/18 16/78/18 101/76/18
f 87/99/18 233/98/18 101/76/18 8/73/18
f 60/102/2 205/103/2 234/104/2 190/105/2
f 205/103/2 61/106/2 191/107/2 234/104/2
f 234/104/2 191/107/2 22/39/2 108/37/2
f 190/105/2 234/104/2 108/37/2 21/32/2
f 68/108/2 204/109/2 235/110/2 174/111/2
f 204/109/2 60/102/2 190/105/2 235/110/2
f 235/110/2 190/105/2 21/32/2 168/29/2
f 174/111/2 235/110/2 168/29/2 51/28/2
f 5/49/19 79/89/19 236/112/19 80/113/19
f 79/89/20 6/91/20 81/114/20 236/112/20
f 236/112/21 81/114/21 20/115/21 109/116/21
f 80/113/22 236/112/22 109/116/22 19/117/22
f 23/18/23 73/17/23 237/118/23 118/119/23
f 73/17/24 2/16/24 104/120/24 237/118/24
f 237/118/25 104/120/25 18/121/25 115/122/25
f 118/119/26 237/118/26 115/122/26 25/5/26
f 63/123/2 203/124/2 238/125/2 117/126/2
f 203/124/2 62/127/2 103/128/2 238/125/2
f 238/125/2 103/128/2 17/23/2 116/20/2
f 117/126/2 238/125/2 116/20/2 26/19/2
f 29/14/27 135/129/27 239/130/27 127/15/27
f 135/129/27 34/131/27 112/132/27 239/130/27
f 239/130/27 112/132/27 18/121/27 104/120/27
f 127/15/27 239/130/27 104/120/27 2/16/27
f 50/51/28 78/50/28 240/133/28 173/134/28
f 78/50/29 5/49/29 80/113/29 240/133/29
f 240/133/30 80/113/30 19/117/30 169/135/30
f 173/134/31 240/133/31 169/135/31 52/136/31
f 67/137/2 202/138/2 241/139/2 164/140/2
f 202/138/2 63/123/2 117/126/2 241/139/2
f 241/139/2 117/126/2 26/19/2 155/141/2
f 164/140/2 241/139/2 155/141/2 45/142/2
f 46/143/32 113/144/32 242/145/32 163/146/32
f 113/144/33 23/18/33 118/119/33 242/145/33
f 242/145/34 118/119/34 25/5/34 154/2/34
f 163/146/35 242/145/35 154/2/35 44/1/35
f 52/136/1 169/135/1 243/147/1 172/148/1
f 169/135/1 19/117/1 105/149/1 243/147/1
f 243/147/1 105/149/1 296/150/1 297/151/1
f 172/148/1 243/147/1 297/151/1 298/152/1
f 45/142/2 155/141/2 244/153/2 162/154/2
f 155/141/2 26/19/2 119/22/2 244/153/2
f 244/153/2 119/22/2 24/27/2 153/155/2
f 162/154/2 244/153/2 153/155/2 43/156/2
f 47/157/1 157/158/1 245/159/1 161/160/1
f 157/158/1 35/10/1 120/13/1 245/159/1
f 245/159/1 120/13/1 23/18/1 113/144/1
f 161/160/1 245/159/1 113/144/1 46/143/1
f 19/117/1 109/116/1 246/161/1 105/149/1
f 109/116/1 20/115/1 122/162/1 246/161/1
f 246/161/1 122/162/1 299/163/1 300/164/1
f 105/149/1 246/161/1 300/164/1 296/150/1
f 4/34/36 96/87/36 247/165/36 83/166/36
f 96/87/37 14/75/37 97/167/37 247/165/37
f 247/165/38 97/167/38 28/82/38 125/80/38
f 83/166/39 247/165/39 125/80/39 27/47/39
f 49/36/1 166/35/1 248/168/1 171/169/1
f 166/35/1 4/34/1 83/166/1 248/168/1
f 248/168/1 83/166/1 27/47/1 170/44/1
f 171/169/1 248/168/1 170/44/1 53/43/1
f 48/170/1 158/171/1 249/172/1 160/173/1
f 158/171/1 42/174/1 133/175/1 249/172/1
f 249/172/1 133/175/1 35/10/1 157/158/1
f 160/173/1 249/172/1 157/158/1 47/157/1
f 36/176/27 150/177/27 250/178/27 140/179/27
f 150/177/27 41/180/27 132/181/27 250/178/27
f 250/178/27 132/181/27 34/131/27 135/129/27
f 140/179/27 250/178/27 135/129/27 29/14/27
f 9/60/40 102/95/40 251/182/40 129/55/40
f 102/95/41 15/94/41 131/183/41 251/182/41
f 251/182/42 131/183/42 33/184/42 136/185/42
f 129/55/43 251/182/43 136/185/43 31/52/43
f 38/96/1 149/186/1 252/187/1 142/188/1
f 149/186/1 39/189/1 143/190/1 252/187/1
f 252/187/1 143/190/1 32/56/1 137/53/1
f 142/188/1 252/187/1 137/53/1 31/52/1
f 42/174/1 147/191/1 253/192/1 133/175/1
f 147/191/1 36/176/1 140/179/1 253/192/1
f 253/192/1 140/179/1 29/14/1 139/11/1
f 133/175/1 253/192/1 139/11/1 35/10/1
f 24/27/1 114/26/1 254/193/1 146/194/1
f 114/26/1 1/25/1 74/195/1 254/193/1
f 254/193/1 74/195/1 36/176/1 147/191/1
f 146/194/1 254/193/1 147/191/1 42/174/1
f 8/73/18 85/72/18 255/196/18 87/99/18
f 85/72/18 7/71/18 88/197/18 255/196/18
f 255/196/18 88/197/18 39/189/18 149/186/18
f 87/99/18 255/196/18 149/186/18 38/96/18
f 1/25/27 75/24/27 256/198/27 74/195/27
f 75/24/27 17/23/27 145/199/27 256/198/27
f 256/198/27 145/199/27 41/180/27 150/177/27
f 74/195/27 256/198/27 150/177/27 36/176/27
f 43/156/1 153/155/1 257/200/1 159/201/1
f 153/155/1 24/27/1 146/194/1 257/200/1
f 257/200/1 146/194/1 42/174/1 158/171/1
f 159/201/1 257/200/1 158/171/1 48/170/1
f 31/52/1 136/185/1 258/202/1 142/188/1
f 136/185/1 33/184/1 144/203/1 258/202/1
f 258/202/1 144/203/1 40/100/1 152/97/1
f 142/188/1 258/202/1 152/97/1 38/96/1
f 3/41/1 76/204/1 259/205/1 84/206/1
f 76/204/1 43/156/1 159/201/1 259/205/1
f 259/205/1 159/201/1 48/170/1 151/207/1
f 84/206/1 259/205/1 151/207/1 37/208/1
f 37/208/1 151/207/1 260/209/1 141/210/1
f 151/207/1 48/170/1 160/173/1 260/209/1
f 260/209/1 160/173/1 47/157/1 134/211/1
f 141/210/1 260/209/1 134/211/1 30/212/1
f 30/212/1 134/211/1 261/213/1 128/214/1
f 134/211/1 47/157/1 161/160/1 261/213/1
f 261/213/1 161/160/1 46/143/1 156/215/1
f 128/214/1 261/213/1 156/215/1 6/91/1
f 22/39/2 111/216/2 262/217/2 107/40/2
f 111/216/2 45/142/2 162/154/2 262/217/2
f 262/217/2 162/154/2 43/156/2 76/204/2
f 107/40/2 262/217/2 76/204/2 3/41/2
f 6/91/44 156/215/44 263/218/44 81/114/44
f 156/215/45 46/143/45 163/146/45 263/218/45
f 263/218/46 163/146/46 44/1/46 110/219/46
f 81/114/47 263/218/47 110/219/47 20/115/47
f 61/106/2 199/220/2 264/221/2 191/107/2
f 199/220/2 67/137/2 164/140/2 264/221/2
f 264/221/2 164/140/2 45/142/2 111/216/2
f 191/107/2 264/221/2 111/216/2 22/39/2
f 20/115/1 110/219/1 265/222/1 122/162/1
f 110/219/1 44/1/1 165/4/1 265/222/1
f 265/222/1 165/4/1 295/9/1 301/223/1
f 122/162/1 265/222/1 301/223/1 299/163/1
f 56/224/1 179/225/1 266/226/1 185/227/1
f 179/225/1 52/136/1 172/148/1 266/226/1
f 266/226/1 172/148/1 298/152/1 302/228/1
f 185/227/1 266/226/1 302/228/1 303/229/1
f 58/230/48 167/231/48 267/232/48 184/233/48
f 167/231/49 50/51/49 173/134/49 267/232/49
f 267/232/50 173/134/50 52/136/50 179/225/50
f 184/233/51 267/232/51 179/225/51 56/224/51
f 304/234/2 198/235/2 268/236/2 305/237/2
f 198/235/2 68/108/2 174/111/2 268/236/2
f 268/236/2 174/111/2 51/28/2 178/238/2
f 268/236/2 178/238/2 55/239/2 306/240/2 305/237/2
f 57/241/1 180/242/1 269/243/1 183/244/1
f 180/242/1 53/43/1 175/46/1 269/243/1
f 269/243/1 175/46/1 50/51/1 167/231/1
f 183/244/1 269/243/1 167/231/1 58/230/1
f 55/239/2 178/238/2 270/245/2 182/246/2
f 178/238/2 51/28/2 176/31/2 270/245/2
f 270/245/2 176/31/2 49/36/2 177/247/2
f 182/246/2 270/245/2 177/247/2 54/248/2
f 307/249/2 271/250/2 308/251/2
f 309/252/2 55/239/2 182/246/2 271/250/2 307/249/2
f 271/250/2 182/246/2 54/248/2 72/253/2
f 308/251/2 271/250/2 72/253/2 310/254/2
f 311/255/1 126/256/1 272/257/1 312/258/1
f 126/256/1 57/241/1 183/244/1 272/257/1
f 272/257/1 183/244/1 58/230/1 181/259/1
f 312/258/1 272/257/1 181/259/1 313/260/1
f 306/240/2 55/239/2 309/252/2
f 181/259/52 273/261/52 314/262/52 313/260/52
f 181/259/53 58/230/53 184/233/53 273/261/53
f 56/224/54 316/263/54 315/264/54 273/261/54 184/233/54
f 273/261/55 315/264/55 314/262/55
f 316/263/1 56/224/1 185/227/1 317/265/1
f 317/265/1 185/227/1 303/229/1 318/266/1
f 310/254/1 72/253/1 274/267/1 319/268/1
f 72/253/1 54/248/1 186/269/1 274/267/1
f 274/267/1 186/269/1 57/241/1 126/256/1
f 319/268/1 274/267/1 126/256/1 311/255/1
f 53/43/1 180/242/1 275/270/1 171/169/1
f 180/242/1 57/241/1 186/269/1 275/270/1
f 275/270/1 186/269/1 54/248/1 177/247/1
f 171/169/1 275/270/1 177/247/1 49/36/1
f 320/271/2 68/108/2 198/235/2 321/272/2
f 321/272/2 198/235/2 304/234/2
f 69/273/2 218/274/2 276/275/2 211/276/2
f 218/274/2 71/277/2 197/278/2 276/275/2
f 276/275/2 197/278/2 67/137/2 199/220/2
f 211/276/2 276/275/2 199/220/2 61/106/2
f 17/23/27 103/128/27 277/279/27 145/199/27
f 103/128/27 62/127/27 200/280/27 277/279/27
f 277/279/27 200/280/27 66/281/27 148/282/27
f 145/199/27 277/279/27 148/282/27 41/180/27
f 41/180/27 148/282/27 278/283/27 132/181/27
f 148/282/27 66/281/27 201/284/27 278/283/27
f 278/283/27 201/284/27 65/285/27 138/286/27
f 132/181/27 278/283/27 138/286/27 34/131/27
f 71/277/2 217/287/2 279/288/2 197/278/2
f 217/287/2 70/289/2 193/290/2 279/288/2
f 279/288/2 193/290/2 63/123/2 202/138/2
f 197/278/2 279/288/2 202/138/2 67/137/2
f 70/289/2 216/291/2 280/292/2 193/290/2
f 216/291/2 323/293/2 322/294/2 192/295/2 280/292/2
f 280/292/2 192/295/2 62/127/2 203/124/2
f 193/290/2 280/292/2 203/124/2 63/123/2
f 324/296/2 281/297/2 325/298/2
f 326/299/2 210/300/2 281/297/2 324/296/2
f 281/297/2 210/300/2 60/102/2 204/109/2
f 325/298/2 281/297/2 204/109/2 68/108/2 320/271/2
f 327/301/2 215/302/2 282/303/2 210/300/2 326/299/2
f 215/302/2 69/273/2 211/276/2 282/303/2
f 282/303/2 211/276/2 61/106/2 205/103/2
f 210/300/2 282/303/2 205/103/2 60/102/2
f 25/5/56 194/304/56 283/305/56 121/6/56
f 194/304/57 64/306/57 206/307/57 283/305/57
f 283/305/58 206/307/58 328/308/58 329/309/58
f 121/6/59 283/305/59 329/309/59 293/7/59
f 25/5/60 115/122/60 284/310/60 194/304/60
f 115/122/61 18/121/61 189/311/61 284/310/61
f 284/310/62 189/311/62 59/312/62 207/313/62
f 194/304/63 284/310/63 207/313/63 64/306/63
f 34/131/27 138/286/27 285/314/27 112/132/27
f 138/286/27 65/285/27 208/315/27 285/314/27
f 285/314/27 208/315/27 59/312/27 189/311/27
f 112/132/27 285/314/27 189/311/27 18/121/27
f 330/316/2 286/317/2 331/318/2
f 332/319/2 333/320/2 82/321/2 286/317/2 330/316/2
f 286/317/2 82/321/2 69/273/2 215/302/2
f 286/317/2 215/302/2 327/301/2 331/318/2
f 336/322/2 213/323/2 334/324/2 335/325/2
f 323/293/2 216/291/2 337/326/2
f 213/323/2 336/322/2 337/326/2 216/291/2 70/289/2
f 338/327/2 287/328/2 214/329/2 339/330/2
f 334/324/2 213/323/2 287/328/2 338/327/2
f 287/328/2 213/323/2 70/289/2 217/287/2
f 214/329/2 287/328/2 217/287/2 71/277/2
f 340/331/2 288/332/2 82/321/2 333/320/2
f 339/330/2 214/329/2 288/332/2 340/331/2
f 288/332/2 214/329/2 71/277/2 218/274/2
f 82/321/2 288/332/2 218/274/2 69/273/2
f 62/127/27 192/295/27 289/333/27 200/280/27
f 289/333/27 192/295/27 322/294/27 341/334/27
f 196/335/27 289/333/27 341/334/27 342/336/27
f 200/280/27 289/333/27 196/335/27 66/281/27
f 66/281/27 196/335/27 290/337/27 201/284/27
f 343/338/27 290/337/27 196/335/27 342/336/27
f 344/339/27 195/340/27 290/337/27 343/338/27
f 201/284/27 290/337/27 195/340/27 65/285/27
f 206/307/64 64/306/64 212/341/64 345/342/64 346/343/64
f 212/341/65 347/344/65 345/342/65
f 206/307/66 346/343/66 328/308/66
f 64/306/67 207/313/67 291/345/67 212/341/67
f 207/313/68 59/312/68 209/346/68 291/345/68
f 350/347/69 291/345/69 209/346/69 349/348/69 348/349/69
f 347/344/70 212/341/70 291/345/70 350/347/70 351/350/70
f 65/285/27 195/340/27 292/351/27 208/315/27
f 352/352/27 292/351/27 195/340/27 344/339/27
f 349/348/27 209/346/27 292/351/27 352/352/27 353/353/27
f 208/315/27 292/351/27 209/346/27 59/312/27
o Cube.001
v 7.808487 1.672786 -0.502980
v 7.808487 1.462956 -0.502980
v 7.808487 1.672786 -0.740216
v 7.808487 1.462956 -0.740216
v 7.808487 1.941346 -0.502980
v 7.808487 1.731515 -0.502980
v 7.808487 1.941346 -0.740216
v 7.808487 1.731515 -0.740216
v 2.121334 -0.733734 -0.802527
v 2.121334 -0.353842 -0.802527
v 0.974139 -0.733734 -0.802527
v 0.974139 -0.353842 -0.802527
v 1.697675 -0.353842 -0.802527
v 2.121334 -0.353842 -1.278815
v 1.697675 -0.733734 -0.802527
v 0.974139 -0.353842 -1.167772
v 2.121689 -0.090842 -1.369144
v 2.121334 -0.067698 -1.495152
v 1.721231 -0.107022 -1.429676
v 1.780870 -0.127596 -1.360351
v -1.840178 -0.443682 0.330715
v -1.840178 -0.443682 -0.269437
v -3.625141 -0.733734 0.315194
v -3.625141 -0.443682 0.315194
v -3.625141 -0.733734 -0.260700
v -3.625141 -0.443682 -0.260700
v 0.649401 -0.333982 0.300904
v 0.649401 -0.333982 -0.252222
v -1.341744 -0.517935 0.300904
v -1.341744 -0.333982 0.300904
v -1.341744 -0.517935 -0.252222
v -1.341744 -0.333982 -0.252222
v 1.715956 -0.101506 1.490731
v 1.715956 -0.733734 0.826598
v -0.536966 -0.101506 1.378430
v -0.536966 -0.733734 0.780183
v -0.536966 -0.101506 0.780183
v -1.482031 -0.129244 1.458279
v -1.612934 -0.733734 0.840216
v -1.612934 -0.120888 0.840216
v -3.437045 -0.733734 0.863452
v -3.437045 -0.154465 0.863452
v -2.402310 -0.733734 -0.557200
v -2.402310 -0.334366 -0.557200
v -2.402310 -0.334366 -1.147305
v -3.025990 -0.733734 -0.557200
v 0.982873 -0.733734 -0.702075
v 0.982873 -0.353842 -0.702075
v -0.255701 -0.733734 -0.679059
v -0.255701 -0.353842 -0.679059
v -0.255701 -0.733734 -1.300085
v -0.255701 -0.353842 -1.300085
v 0.982874 -0.353842 -1.169818
v -0.255701 -0.733734 -1.119616
v -0.255701 -0.353842 -1.119616
v 0.982873 -0.087240 -1.236363
v 0.982873 -0.067698 -1.317397
v -0.255701 -0.067698 -1.300085
v -0.255701 -0.087240 -1.187112
v -2.757444 -0.443682 -0.275407
v -2.757444 -0.443682 0.324518
v -2.757444 -0.443682 -0.263298
v -2.757444 -0.443682 0.338772
v -1.836637 -0.124694 0.851524
v -3.213342 -0.365990 0.863452
v -3.213342 -0.153509 0.863452
v -1.967755 -0.124894 1.275990
v -2.035271 -0.304297 1.146906
v -1.836637 -0.365990 0.840216
v -3.213386 -0.144496 1.302859
v 1.681740 -0.353842 -1.278815
v 1.697675 -0.084569 -1.495152
v 1.791561 -0.103198 -1.369144
v -2.933569 -0.334366 -0.697803
v -3.025990 -0.378550 -0.557200
v -3.025990 -0.378550 -1.147305
v -2.815834 -0.334366 -1.147305
v -0.536966 -0.101506 1.020306
v -0.536966 -0.733734 1.020306
v -0.536966 -0.213281 1.020306
v -0.536966 -0.457653 0.780183
v -0.536966 -0.211790 1.378430
v 1.715956 -0.457653 0.826598
v -0.182157 -0.733734 0.787493
v 1.592358 -0.216818 1.009351
v 1.598747 -0.453612 1.008427
v 1.715956 -0.101506 0.826598
v -0.182157 -0.457653 0.787493
v -0.182157 -0.101506 0.787493
v 0.251904 -0.101506 1.409983
v -0.182157 -0.101506 1.077785
v 1.715956 -0.101506 1.385278
v 1.130080 -0.101506 1.458418
v 1.513334 -0.212203 1.360121
v -2.402310 -0.453912 -0.557200
v -3.025990 -0.503616 -1.147305
v -3.025990 -0.503616 -0.557200
v -3.025990 -0.733734 -1.147305
v -2.402310 -0.641584 -1.147305
v -2.402310 -0.733734 -1.147305
v 7.808487 1.567871 -0.502980
v 7.808487 1.567871 -0.740216
v 7.808487 1.672786 -0.621598
v 7.808487 1.462956 -0.621598
v 7.808487 1.836431 -0.502980
v 7.808487 1.836431 -0.740216
v 7.808487 1.941346 -0.621598
v 7.808487 1.731515 -0.621598
v 2.121334 -0.543788 -0.802527
v 0.974139 -0.353842 -0.985149
v 0.974139 -0.543788 -0.802527
v 1.335907 -0.733734 -0.802527
v 1.909504 -0.353842 -0.802527
v 2.121334 -0.353842 -1.040671
v 1.335908 -0.353842 -0.802527
v 1.909504 -0.076133 -1.495152
v 1.327941 -0.353842 -1.223293
v 1.909504 -0.733734 -0.802527
v 2.121511 -0.079270 -1.432148
v 1.709454 -0.095796 -1.462414
v 1.751052 -0.117309 -1.395014
v 1.786216 -0.115397 -1.364747
v 1.901538 -0.353842 -1.278815
v 2.121511 -0.222342 -1.323979
v -1.840178 -0.443682 0.030639
v -3.191293 -0.443682 -0.268053
v -3.625141 -0.588708 -0.260700
v -3.625141 -0.733734 0.027247
v -3.625141 -0.443682 0.027247
v -3.625141 -0.588708 0.315194
v -2.298811 -0.443682 0.334743
v 0.649401 -0.333982 0.024341
v -0.346172 -0.333982 -0.252222
v -1.341744 -0.425959 -0.252222
v -1.341744 -0.517935 0.024341
v -1.341744 -0.333982 0.024341
v -1.341744 -0.425959 0.300904
v -0.346172 -0.333982 0.300904
v 1.715956 -0.101506 1.105938
v 0.766900 -0.733734 0.807045
v -0.359561 -0.101506 0.783838
v -0.536966 -0.595694 0.780183
v -0.536966 -0.733734 0.900245
v -0.536966 -0.101506 1.199368
v 1.423019 -0.101506 1.474574
v -1.902196 -0.124794 1.063757
v -3.437045 -0.444100 0.863452
v -3.437045 -0.733734 1.178302
v -3.437045 -0.154465 1.167415
v -2.402311 -0.394139 -0.557200
v -2.402311 -0.334366 -0.852253
v -2.714149 -0.733734 -0.557200
v 0.982874 -0.543788 -0.702075
v -0.255701 -0.543788 -1.300085
v -0.255701 -0.733734 -1.209850
v -0.255701 -0.353842 -0.899338
v -0.255701 -0.543788 -0.679059
v 0.363587 -0.733734 -0.690567
v 0.363587 -0.353842 -0.690567
v 0.982874 -0.353842 -0.935947
v -0.255701 -0.733734 -0.899338
v -0.255701 -0.353842 -1.209850
v 0.363587 -0.353842 -1.144717
v -0.255701 -0.543788 -1.119616
v 0.982874 -0.077469 -1.276880
v 0.363587 -0.067698 -1.308741
v -0.255701 -0.077469 -1.243598
v 0.363587 -0.087240 -1.211738
v -0.255701 -0.210770 -1.300085
v -0.255701 -0.220541 -1.153364
v 0.982874 -0.220541 -1.203091
v -2.298811 -0.443682 -0.266368
v -3.191293 -0.443682 0.319856
v -2.757444 -0.443682 0.037737
v -2.757444 -0.443682 0.024555
v -1.547482 -0.125066 1.149247
v -1.612934 -0.427311 0.840216
v -2.524990 -0.733734 0.851834
v -2.459538 -0.141855 1.464828
v -1.724785 -0.122791 0.845870
v -1.724894 -0.127069 1.367134
v -3.325194 -0.153987 0.863452
v -2.624308 -0.335144 1.005179
v -1.724785 -0.549862 0.840216
v -1.836637 -0.245342 0.845870
v -2.524990 -0.365990 0.851834
v -2.590570 -0.134695 1.289424
v -3.213342 -0.259750 0.863452
v -3.213364 -0.149003 1.083156
v -3.325194 -0.549862 0.863452
v -2.001513 -0.214596 1.211448
v -1.935954 -0.335144 0.993561
v -2.624329 -0.224397 1.224883
v 1.956625 -0.097020 -1.369144
v 1.736650 -0.228520 -1.323979
v 1.744617 -0.093884 -1.432148
v 1.689708 -0.353842 -1.040671
v 1.697675 -0.543788 -0.802527
v -2.920911 -0.356458 -1.147305
v -3.025990 -0.378550 -0.852253
v -2.979779 -0.356458 -0.627501
v -2.874701 -0.334366 -0.922554
v -2.609072 -0.334366 -1.147305
v -2.667940 -0.334366 -0.627501
v -3.025990 -0.441083 -0.557200
v -2.714149 -0.356458 -0.557200
v -0.536966 -0.101506 0.900245
v -0.536966 -0.473508 1.020306
v -0.536966 -0.157394 1.020306
v -0.536966 -0.279580 0.780183
v -0.536966 -0.156648 1.378430
v -0.536966 -0.335467 0.900245
v -0.536966 -0.212535 1.199368
v 1.657351 -0.455633 0.917513
v -0.359561 -0.733734 0.783838
v -0.359561 -0.101506 1.049046
v -0.359561 -0.457653 0.783838
v -0.182157 -0.279580 0.787493
v -0.182157 -0.595694 0.787493
v -0.182157 -0.101506 0.932639
v 1.595552 -0.335215 1.008889
v 1.715957 -0.595694 0.826598
v 1.715957 -0.279580 0.826598
v 1.654158 -0.159162 0.917975
v 0.766900 -0.457653 0.807045
v 0.708294 -0.455633 0.897960
v 1.321709 -0.156855 1.409269
v -0.142531 -0.101506 1.394207
v 0.034874 -0.101506 1.243884
v 1.715956 -0.101506 1.438005
v 1.614645 -0.156855 1.372700
v 1.552846 -0.214511 1.184736
v 0.690992 -0.101506 1.434200
v 0.665588 -0.156855 1.218953
v -2.402311 -0.593823 -0.557200
v -3.025990 -0.441083 -1.147305
v -3.025990 -0.618675 -0.557200
v -3.025990 -0.503616 -0.852253
v -2.714149 -0.478764 -0.557200
v -3.025990 -0.618675 -1.147305
v -2.402311 -0.687659 -1.147305
v -2.714149 -0.733734 -1.147305
v -2.714149 -0.572600 -1.147305
v 7.808487 1.567871 -0.621598
v 7.808487 1.836431 -0.621598
v 1.929081 -0.225431 -1.323979
v 1.909504 -0.543788 -0.802527
v 1.905520 -0.353842 -1.040671
v 1.747834 -0.105596 -1.413581
v 1.933064 -0.086577 -1.432148
v -3.625141 -0.588708 0.027247
v -2.298811 -0.443682 0.034188
v -1.341744 -0.425959 0.024341
v -0.346172 -0.333982 0.024341
v -0.359561 -0.595694 0.783838
v -0.536967 -0.534601 0.900245
v -3.437046 -0.444100 1.172858
v -2.714150 -0.417611 -0.557200
v -3.025989 -0.441083 -0.852253
v -0.255702 -0.543788 -0.899337
v 0.363586 -0.543788 -0.690567
v 0.363586 -0.353842 -0.917642
v -0.255702 -0.215655 -1.226724
v -0.255702 -0.543788 -1.209850
v 0.363586 -0.077469 -1.260239
v 0.363586 -0.220541 -1.178227
v -3.191293 -0.443682 0.025901
v -1.724840 -0.124930 1.106502
v -1.724785 -0.336327 0.843043
v -2.524990 -0.549862 0.851834
v -3.325194 -0.351925 0.863452
v -3.325205 -0.151734 1.125285
v -2.525055 -0.138275 1.377126
v -1.919075 -0.229969 1.028659
v -2.361751 -0.345426 0.950191
v -2.405471 -0.191229 1.241918
v 1.331923 -0.353842 -1.012910
v 1.335907 -0.543788 -0.802527
v -2.950345 -0.356458 -0.887403
v -2.638506 -0.334366 -0.887403
v -2.787290 -0.349094 -0.604068
v -0.536967 -0.157021 1.199368
v -0.536967 -0.218487 0.900245
v -0.251047 -0.101506 1.221626
v -0.359561 -0.279580 0.783838
v 1.655753 -0.307397 0.917744
v -0.359560 -0.101506 0.916442
v 0.766900 -0.595694 0.807045
v 1.044182 -0.456306 0.874173
v 1.518831 -0.129180 1.423637
v 1.634400 -0.158009 1.145337
v 0.678291 -0.129180 1.326577
v -2.714150 -0.606249 -0.557200
v -2.714150 -0.653167 -1.147305
v -3.437045 -0.733734 1.311367
v -3.437045 -0.444100 1.299698
v -3.437045 -0.154465 1.288030
v -3.325212 -0.149986 1.328388
v -3.272484 -0.147131 1.347388
v -3.168304 -0.147283 1.385159
v -2.939736 -0.148050 1.468046
vn -1.0000 -0.0000 -0.0000
vn -0.0000 0.3318 0.9434
vn -0.0053 0.3328 0.9430
vn -0.0055 0.3412 0.9400
vn -0.0000 0.3390 0.9408
vn -0.0000 -0.0000 1.0000
vn -0.0000 1.0000 -0.0000
vn -0.2898 0.8685 0.4021
vn -0.4892 0.6969 0.5244
vn -0.5548 0.6569 0.5105
vn -0.4091 0.8079 0.4242
vn -0.0392 0.9839 0.1746
vn -0.0382 0.9840 0.1739
vn -0.0381 0.9834 0.1773
vn -0.0392 0.9833 0.1776
vn 0.0206 -0.0000 -0.9998
vn 0.0186 -0.0000 0.9998
vn 0.0028 0.9803 0.1975
vn 0.0053 0.9803 0.1975
vn 0.0063 0.9721 0.2344
vn 0.0033 0.9721 0.2344
vn 0.0393 0.2436 0.9691
vn 0.0389 0.2436 0.9691
vn 0.0389 0.2452 0.9687
vn 0.0393 0.2452 0.9687
vn -0.0166 0.9998 0.0082
vn 0.0006 1.0000 0.0007
vn -0.0012 1.0000 0.0082
vn 0.0218 0.0132 -0.9997
vn -0.0145 0.0132 -0.9998
vn -0.0253 -0.0000 -0.9997
vn -0.0000 -0.0000 -1.0000
vn -0.0145 0.0088 -0.9999
vn -0.0169 -0.0000 -0.9999
vn -0.0145 -0.0000 -0.9999
vn -0.0127 0.0077 -0.9999
vn -0.0510 0.9987 -0.0086
vn -0.0277 0.9996 -0.0086
vn -0.0244 0.9997 -0.0000
vn -0.0400 0.9992 -0.0000
vn -0.0132 0.9982 0.0591
vn -0.0135 0.9991 0.0412
vn -0.0125 0.9987 0.0501
vn -0.0125 0.9983 0.0571
vn -0.8295 0.4964 -0.2560
vn -0.9266 0.2442 -0.2861
vn -0.8669 0.2774 -0.4143
vn -0.7412 0.5529 -0.3808
vn -0.0034 0.9799 -0.1993
vn -0.0267 0.5904 -0.8066
vn -0.2057 0.9783 -0.0233
vn -0.2944 0.9551 -0.0333
vn -0.3145 0.9457 -0.0824
vn -0.2054 0.9772 -0.0538
vn -0.0683 0.9637 0.2580
vn -0.8344 -0.0000 -0.5511
vn -0.8333 -0.0081 -0.5528
vn -0.8260 -0.0080 -0.5637
vn -0.8283 -0.0000 -0.5602
vn 0.0005 0.9998 -0.0219
vn -0.4794 0.8776 -0.0000
vn -0.2331 0.6006 -0.7648
vn -0.0721 0.8133 -0.5774
vn -0.1390 0.9903 -0.0000
vn -0.4746 0.8790 -0.0457
vn -0.5865 0.8081 -0.0551
vn -0.6105 0.7781 -0.1478
vn -0.4650 0.8776 -0.1163
vn 0.1343 0.8761 -0.4630
vn 0.0744 0.9637 -0.2566
vn 0.0138 0.9680 -0.2505
vn 0.1048 0.8382 -0.5352
vn -0.0052 0.3248 0.9458
vn -0.0122 0.3248 0.9457
vn -0.0125 0.3342 0.9424
vn -0.3678 0.7564 0.5409
vn -0.5840 0.4893 0.6477
vn -0.6334 0.4926 0.5967
vn -0.0368 0.9836 0.1768
vn -0.0368 0.9829 0.1806
vn -0.0381 0.9828 0.1806
vn 0.0046 0.9854 0.1705
vn 0.0068 0.9853 0.1705
vn 0.0079 0.9803 0.1975
vn 0.0389 0.2420 0.9695
vn 0.0386 0.2420 0.9695
vn 0.0385 0.2436 0.9691
vn 0.0059 0.9999 0.0082
vn 0.0042 0.9999 0.0126
vn -0.0026 0.9999 0.0141
vn 0.0128 0.0468 -0.9988
vn -0.0512 0.0468 -0.9976
vn -0.0507 0.0132 -0.9986
vn -0.0145 -0.0088 -0.9999
vn -0.0127 -0.0077 -0.9999
vn -0.0321 0.9993 -0.0205
vn -0.0043 0.9998 -0.0205
vn -0.0043 1.0000 -0.0086
vn -0.0146 0.9986 0.0517
vn -0.0134 0.9986 0.0507
vn -0.0148 0.9990 0.0419
vn -0.0134 0.9988 0.0462
vn -0.9108 0.0193 -0.4124
vn -0.8367 0.0256 -0.5471
vn -0.7683 0.3102 -0.5600
vn -0.2803 0.9599 -0.0000
vn -0.4313 0.9022 -0.0000
vn -0.4994 0.8646 -0.0566
vn -0.8406 -0.0082 -0.5417
vn -0.8405 -0.0206 -0.5414
vn -0.8314 -0.0203 -0.5553
vn -0.8332 -0.0081 -0.5529
vn -0.0721 0.8132 -0.5774
vn -0.0276 0.6085 -0.7930
vn 0.0375 0.7329 -0.6793
vn 0.0244 0.8969 -0.4415
vn -0.5695 0.8220 -0.0000
vn -0.6822 0.7312 -0.0000
vn -0.7318 0.6782 -0.0670
vn 0.0827 0.9907 -0.1080
vn 0.0515 0.9964 -0.0673
vt 0.429840 0.765429
vt 0.417988 0.751990
vt 0.429640 0.751622
vt 0.430039 0.779246
vt 0.418184 0.765799
vt 0.418379 0.779619
vt 0.406523 0.766170
vt 0.406333 0.752358
vt 0.430151 0.786985
vt 0.418684 0.801195
vt 0.418488 0.787359
vt 0.430351 0.800818
vt 0.418880 0.815042
vt 0.407013 0.801573
vt 0.406821 0.787734
vt 0.278270 0.462140
vt 0.267256 0.486778
vt 0.273668 0.458687
vt 0.271428 0.489869
vt 0.260871 0.514748
vt 0.257033 0.511744
vt 0.262904 0.483553
vt 0.268838 0.455062
vt 0.349657 0.375706
vt 0.347344 0.411690
vt 0.346834 0.370257
vt 0.352846 0.420467
vt 0.350159 0.416180
vt 0.353340 0.460114
vt 0.350662 0.456745
vt 0.347856 0.453216
vt 0.308407 0.454138
vt 0.312205 0.457715
vt 0.315827 0.461126
vt 0.245348 0.510446
vt 0.248669 0.510966
vt 0.239656 0.512936
vt 0.251782 0.508355
vt 0.257602 0.509013
vt 0.245554 0.513579
vt 0.233948 0.515435
vt 0.239440 0.519335
vt 0.250186 0.517035
vt 0.254631 0.520351
vt 0.244683 0.523058
vt 0.504840 0.015192
vt 0.388838 0.095198
vt 0.387783 0.017547
vt 0.621472 0.012845
vt 0.506145 0.092696
vt 0.623024 0.090203
vt 0.507455 0.170534
vt 0.389897 0.173184
vt 0.404348 0.257375
vt 0.498979 0.287680
vt 0.409417 0.289863
vt 0.503291 0.255014
vt 0.588291 0.285504
vt 0.576977 0.312750
vt 0.495402 0.314772
vt 0.413619 0.316799
vt 0.491140 0.314926
vt 0.422656 0.347028
vt 0.422218 0.316634
vt 0.560468 0.343547
vt 0.491636 0.345285
vt 0.561021 0.373923
vt 0.492132 0.375696
vt 0.423095 0.377472
vt 0.429673 0.410489
vt 0.488687 0.408940
vt 0.547593 0.407394
vt 0.486116 0.433760
vt 0.434583 0.435132
vt 0.644461 0.299396
vt 0.649024 0.330407
vt 0.645239 0.337287
vt 0.652182 0.283283
vt 0.648222 0.291547
vt 0.653010 0.323163
vt 0.649829 0.369350
vt 0.646019 0.375256
vt 0.678281 0.282648
vt 0.704359 0.282013
vt 0.679517 0.340181
vt 0.706029 0.357201
vt 0.680757 0.397897
vt 0.653840 0.363131
vt 0.823916 0.037836
vt 0.946075 0.181872
vt 0.827684 0.184580
vt 0.943907 0.035367
vt 0.994483 0.180764
vt 0.994483 0.328417
vt 0.948262 0.329582
vt 0.831482 0.332524
vt 0.308837 0.247891
vt 0.297115 0.238687
vt 0.296797 0.209740
vt 0.319319 0.281104
vt 0.309135 0.274266
vt 0.319599 0.305236
vt 0.309435 0.300680
vt 0.297434 0.267680
vt 0.088879 0.214538
vt 0.193241 0.241131
vt 0.089032 0.243583
vt 0.193006 0.212135
vt 0.193478 0.270173
vt 0.089185 0.272674
vt 0.292265 0.304876
vt 0.246250 0.359066
vt 0.245742 0.306018
vt 0.338722 0.303735
vt 0.292840 0.357884
vt 0.340008 0.409826
vt 0.293417 0.411047
vt 0.246758 0.412269
vt 0.347694 0.377068
vt 0.339364 0.356703
vt 0.354201 0.349339
vt 0.347094 0.328400
vt 0.355331 0.439476
vt 0.348297 0.425866
vt 0.304210 0.427032
vt 0.260064 0.428200
vt 0.313369 0.440596
vt 0.271352 0.441716
vt 0.239955 0.449891
vt 0.227626 0.412771
vt 0.233135 0.487599
vt 0.224394 0.451682
vt 0.221154 0.490681
vt 0.208824 0.453474
vt 0.208482 0.413272
vt 0.226665 0.306487
vt 0.208029 0.360036
vt 0.207577 0.306955
vt 0.227145 0.359551
vt 0.209167 0.493765
vt 0.238245 0.500159
vt 0.228806 0.502948
vt 0.247681 0.497371
vt 0.260017 0.505659
vt 0.252740 0.508197
vt 0.245459 0.510736
vt 0.253879 0.462749
vt 0.265690 0.473657
vt 0.502752 0.217387
vt 0.395695 0.219878
vt 0.624584 0.167894
vt 0.609454 0.214904
vt 0.498965 0.255117
vt 0.400362 0.257470
vt 0.720496 0.424355
vt 0.782981 0.426145
vt 0.713875 0.428745
vt 0.844459 0.416652
vt 0.781770 0.420547
vt 0.851937 0.423550
vt 0.784116 0.431390
vt 0.707517 0.432960
vt 0.715476 0.337444
vt 0.711437 0.353316
vt 0.709010 0.278196
vt 0.717983 0.380849
vt 0.705163 0.326926
vt 0.702822 0.221507
vt 0.808630 0.245556
vt 0.753456 0.222654
vt 0.816074 0.144404
vt 0.755239 0.298221
vt 0.751680 0.147400
vt 0.809917 0.296806
vt 0.821053 0.340587
vt 0.811207 0.348201
vt 0.818557 0.242230
vt 0.970672 0.348501
vt 0.918835 0.339233
vt 0.994483 0.338185
vt 0.891034 0.348351
vt 0.920161 0.387996
vt 0.994483 0.342963
vt 0.994483 0.349265
vt 0.994482 0.361816
vt 0.940627 0.388820
vt 0.858777 0.429860
vt 0.828059 0.382563
vt 0.772201 0.381693
vt 0.762588 0.342661
vt 0.811467 0.348074
vt 0.775248 0.315961
vt 0.810231 0.303388
vt 0.899098 0.387149
vt 0.880844 0.348260
vt 0.867622 0.373114
vt 0.271509 0.441532
vt 0.306467 0.447679
vt 0.270118 0.448577
vt 0.304358 0.440656
vt 0.342742 0.446783
vt 0.341688 0.360328
vt 0.336630 0.394595
vt 0.336087 0.349521
vt 0.342214 0.403504
vt 0.337174 0.439781
vt 0.186278 0.286528
vt 0.098589 0.290899
vt 0.274945 0.282109
vt 0.252916 0.296244
vt 0.179324 0.302325
vt 0.107544 0.308256
vt 0.205694 0.317755
vt 0.123863 0.321667
vt 0.288375 0.313801
vt 0.229452 0.331656
vt 0.138770 0.333919
vt 0.291233 0.299251
vt 0.319879 0.329401
vt 0.708428 0.465228
vt 0.747099 0.448013
vt 0.747475 0.464165
vt 0.708066 0.448958
vt 0.746723 0.431876
vt 0.785694 0.431052
vt 0.786084 0.447071
vt 0.786474 0.463103
vt 0.654913 0.414819
vt 0.707705 0.432702
vt 0.681488 0.431887
vt 0.682220 0.465941
vt 0.655990 0.466655
vt 0.708232 0.471942
vt 0.740680 0.469807
vt 0.734422 0.475003
vt 0.708327 0.468672
vt 0.772006 0.470906
vt 0.759066 0.477884
vt 0.647028 0.424355
vt 0.650869 0.419711
vt 0.651912 0.470210
vt 0.648039 0.473586
vt 0.614719 0.423785
vt 0.631338 0.455040
vt 0.615480 0.462505
vt 0.630619 0.422638
vt 0.647399 0.447480
vt 0.648077 0.473540
vt 0.632058 0.487512
vt 0.616243 0.501307
vt 0.680132 0.469441
vt 0.678150 0.472764
vt 0.613542 0.363917
vt 0.627840 0.368909
vt 0.614130 0.393826
vt 0.627170 0.335479
vt 0.628511 0.402401
vt 0.634991 0.409187
vt 0.646411 0.400964
vt 0.646723 0.421475
vt 0.707847 0.485430
vt 0.716046 0.498538
vt 0.707452 0.498777
vt 0.708251 0.471782
vt 0.719095 0.490048
vt 0.722283 0.481168
vt 0.730593 0.494769
vt 0.724638 0.498300
vt 0.669890 0.486473
vt 0.661880 0.500041
vt 0.678042 0.472664
vt 0.708242 0.471853
vt 0.727856 0.478338
vt 0.747402 0.484801
vt 0.736966 0.490990
vt 0.307597 0.138333
vt 0.296212 0.156599
vt 0.295629 0.103614
vt 0.318014 0.168554
vt 0.308216 0.193029
vt 0.318665 0.224742
vt 0.088599 0.161219
vt 0.115142 0.211947
vt 0.088319 0.108056
vt 0.114934 0.177226
vt 0.114727 0.142571
vt 0.137825 0.191139
vt 0.137948 0.209696
vt 0.406714 0.779992
vt 0.430551 0.814662
vt 0.407204 0.815422
vt 0.264573 0.517646
vt 0.352352 0.380907
vt 0.258171 0.506279
vt 0.601930 0.252661
vt 0.559916 0.313221
vt 0.537566 0.432389
vt 0.994483 0.034326
vt 0.354765 0.394352
vt 0.597266 0.252772
vt 0.137703 0.172601
s 0
f 454/354/71 457/355/71 355/356/71
f 354/357/71 597/358/71 454/354/71
f 456/359/71 455/360/71 597/358/71
f 597/358/71 357/361/71 457/355/71
f 359/362/71 598/363/71 461/364/71
f 458/365/71 460/366/71 598/363/71
f 460/366/71 459/367/71 598/363/71
f 598/363/71 361/368/71 461/364/71
f 367/369/72 599/370/72 476/371/72
f 477/372/73 547/373/73 599/370/73
f 599/370/74 426/374/74 548/375/74
f 476/371/75 548/375/75 424/376/75
f 471/377/76 551/378/76 368/379/76
f 471/377/76 462/380/76 600/381/76
f 600/381/76 363/382/76 466/383/76
f 600/381/76 366/384/76 551/378/76
f 550/385/77 476/371/77 424/376/77
f 366/384/77 601/386/77 550/385/77
f 466/383/77 467/387/77 601/386/77
f 601/386/77 367/369/77 476/371/77
f 372/388/78 602/389/78 473/390/78
f 474/391/79 475/392/79 602/389/79
f 602/389/80 426/374/80 549/393/80
f 473/390/81 549/393/81 425/394/81
f 549/393/82 469/395/82 425/394/82
f 426/374/83 603/396/83 549/393/83
f 547/373/84 472/397/84 603/396/84
f 603/396/85 371/398/85 469/395/85
f 481/399/71 480/400/71 378/401/71
f 376/402/71 604/403/71 481/399/71
f 483/404/71 482/405/71 604/403/71
f 604/403/71 379/406/71 480/400/71
f 415/407/77 605/408/77 525/409/77
f 527/410/77 484/411/77 605/408/77
f 605/408/77 374/412/77 478/413/77
f 525/409/77 478/413/77 375/414/77
f 488/415/71 487/416/71 384/417/71
f 488/415/71 490/418/71 606/419/71
f 606/419/71 383/420/71 489/421/71
f 606/419/71 385/422/71 487/416/71
f 489/421/77 486/423/77 385/422/77
f 383/420/77 607/424/77 489/421/77
f 491/425/77 485/426/77 607/424/77
f 607/424/77 381/427/77 486/423/77
f 437/428/86 608/429/86 572/430/86
f 389/431/86 608/429/86 568/432/86
f 495/433/86 570/434/86 608/429/86
f 572/430/86 570/434/86 441/435/86
f 496/436/71 495/433/71 389/431/71
f 432/437/71 609/438/71 496/436/71
f 561/439/71 565/440/71 609/438/71
f 609/438/71 434/441/71 495/433/71
f 394/442/71 610/443/71 500/444/71
f 501/445/71 649/446/71 610/443/71
f 610/443/71 650/447/71 502/448/71
f 500/444/71 502/448/71 395/449/71
f 592/450/76 558/451/76 450/452/76
f 448/453/76 611/454/76 592/450/76
f 503/455/76 559/456/76 611/454/76
f 611/454/76 428/457/76 558/451/76
f 449/458/71 612/459/71 589/460/71
f 450/452/71 612/459/71 591/461/71
f 612/459/71 428/457/71 553/462/71
f 612/459/71 429/463/71 589/460/71
f 514/464/71 517/465/71 407/466/71
f 402/467/71 613/468/71 514/464/71
f 613/468/71 403/469/71 509/470/71
f 517/465/71 509/470/71 408/471/71
f 402/467/87 614/472/87 510/473/87
f 400/474/87 614/472/87 511/475/87
f 614/472/87 401/476/87 512/477/87
f 614/472/87 403/469/87 510/473/87
f 408/471/77 615/478/77 516/479/77
f 509/470/77 512/477/77 615/478/77
f 615/478/77 401/476/77 513/480/77
f 516/479/77 513/480/77 406/481/77
f 523/482/71 515/483/71 408/471/71
f 412/484/71 616/485/71 523/482/71
f 520/486/71 522/487/71 616/485/71
f 616/485/71 405/488/71 515/483/71
f 508/489/71 507/490/71 404/491/71
f 407/466/71 617/492/71 508/489/71
f 617/492/71 408/471/71 515/483/71
f 617/492/71 405/488/71 507/490/71
f 411/493/88 618/494/88 519/495/88
f 520/486/89 521/496/89 618/494/89
f 618/494/90 409/497/90 518/498/90
f 519/495/91 518/498/91 410/499/91
f 406/481/92 619/500/92 516/479/92
f 524/501/93 521/496/93 619/500/93
f 619/500/94 412/484/94 523/482/94
f 516/479/95 523/482/95 408/471/95
f 379/406/77 620/502/77 479/503/77
f 377/504/77 620/502/77 482/405/77
f 526/505/77 528/506/77 620/502/77
f 479/503/77 528/506/77 413/507/77
f 417/508/96 621/509/96 533/510/96
f 420/511/97 621/509/97 499/512/97
f 534/513/98 529/514/98 621/509/98
f 621/509/96 393/515/96 533/510/96
f 422/516/99 622/517/99 537/518/99
f 538/519/100 533/510/100 622/517/100
f 622/517/101 393/515/101 530/520/101
f 537/518/102 530/520/102 392/521/102
f 418/522/103 623/523/103 543/524/103
f 422/516/104 623/523/104 539/525/104
f 537/518/105 531/526/105 623/523/105
f 543/524/106 531/526/106 394/442/106
f 541/527/102 535/528/102 419/529/102
f 418/522/102 624/530/102 541/527/102
f 543/524/102 500/444/102 624/530/102
f 624/530/102 395/449/102 535/528/102
f 423/531/107 625/532/107 651/533/107
f 542/534/108 535/528/108 625/532/108
f 625/532/109 395/449/109 502/448/109
f 651/533/110 502/448/110 650/447/110
f 420/511/111 626/535/111 534/513/111
f 423/531/112 652/536/112 653/537/112
f 626/535/113 654/538/113 532/539/113
f 534/513/114 532/539/114 391/540/114
f 499/512/115 544/541/115 420/511/115
f 417/508/116 627/542/116 499/512/116
f 538/519/117 545/543/117 627/542/117
f 627/542/118 421/544/118 544/541/118
f 421/544/119 628/545/119 536/546/119
f 422/516/119 628/545/119 545/543/119
f 536/546/119 539/525/119 418/522/119
f 540/547/120 546/548/120 423/531/120
f 420/511/120 629/549/120 540/547/120
f 421/544/120 629/549/120 544/541/120
f 369/550/77 630/551/77 470/552/77
f 463/553/77 468/554/77 630/551/77
f 468/554/77 550/385/77 630/551/77
f 470/552/77 550/385/77 424/376/77
f 465/555/76 464/556/76 364/557/76
f 368/379/76 631/558/76 465/555/76
f 551/378/76 468/554/76 631/558/76
f 631/558/76 365/559/76 464/556/76
f 429/463/121 632/560/121 552/561/121
f 553/462/122 554/562/122 632/560/122
f 632/560/123 427/563/123 555/564/123
f 552/561/124 555/564/124 430/565/124
f 430/565/77 633/566/77 556/567/77
f 555/564/77 557/568/77 633/566/77
f 557/568/77 504/569/77 633/566/77
f 556/567/77 504/569/77 398/570/77
f 428/457/125 634/571/125 554/562/125
f 557/568/125 559/456/125 397/572/125
f 427/563/125 634/571/125 557/568/125
f 431/573/71 635/574/71 497/575/71
f 562/576/71 566/577/71 635/574/71
f 635/574/71 435/578/71 564/579/71
f 497/575/71 564/579/71 388/580/71
f 565/440/71 563/581/71 434/441/71
f 433/582/71 636/583/71 565/440/71
f 562/576/71 560/584/71 636/583/71
f 636/583/71 390/585/71 563/581/71
f 444/586/77 637/587/77 582/588/77
f 569/589/77 497/575/77 637/587/77
f 637/587/77 388/580/77 581/590/77
f 582/588/77 581/590/77 443/591/77
f 570/434/86 571/592/86 441/435/86
f 570/434/86 563/581/86 638/593/86
f 638/593/86 390/585/86 494/594/86
f 638/593/86 442/595/86 571/592/86
f 436/596/126 639/597/126 576/598/126
f 567/599/127 574/600/127 639/597/127
f 639/597/128 438/601/128 577/602/128
f 576/598/129 577/602/129 440/603/129
f 560/584/77 494/594/77 390/585/77
f 431/573/77 640/604/77 560/584/77
f 569/589/77 573/605/77 640/604/77
f 640/604/77 442/595/77 494/594/77
f 387/606/86 641/607/86 575/608/86
f 437/428/86 641/607/86 493/609/86
f 572/430/86 578/610/86 641/607/86
f 641/607/86 436/596/86 575/608/86
f 436/596/130 642/611/130 567/599/130
f 579/612/130 578/610/130 441/435/130
f 439/613/130 642/611/130 579/612/130
f 584/614/131 583/615/131 445/616/131
f 447/617/132 643/618/132 584/614/132
f 580/619/133 498/620/133 643/618/133
f 643/618/134 386/621/134 583/615/134
f 445/616/135 644/622/135 584/614/135
f 492/623/136 577/602/136 644/622/136
f 644/622/137 438/601/137 585/624/137
f 584/614/138 585/624/138 447/617/138
f 587/625/139 580/619/139 447/617/139
f 587/625/140 582/588/140 645/626/140
f 645/626/141 443/591/141 586/627/141
f 645/626/142 446/628/142 580/619/142
f 505/629/76 590/630/76 399/631/76
f 396/632/76 646/633/76 505/629/76
f 588/634/76 592/450/76 646/633/76
f 646/633/76 450/452/76 590/630/76
f 593/635/76 596/636/76 449/458/76
f 451/637/76 647/638/76 593/635/76
f 595/639/76 594/640/76 647/638/76
f 647/638/76 452/641/76 596/636/76
f 454/354/71 597/358/71 457/355/71
f 354/357/71 456/359/71 597/358/71
f 456/359/71 356/642/71 455/360/71
f 597/358/71 455/360/71 357/361/71
f 359/362/71 458/365/71 598/363/71
f 458/365/71 358/643/71 460/366/71
f 460/366/71 360/644/71 459/367/71
f 598/363/71 459/367/71 361/368/71
f 367/369/143 477/372/143 599/370/143
f 477/372/144 370/645/144 547/373/144
f 599/370/145 547/373/145 426/374/145
f 476/371/73 599/370/73 548/375/73
f 471/377/76 600/381/76 551/378/76
f 471/377/76 362/646/76 462/380/76
f 600/381/76 462/380/76 363/382/76
f 600/381/76 466/383/76 366/384/76
f 550/385/77 601/386/77 476/371/77
f 366/384/77 466/383/77 601/386/77
f 466/383/77 363/382/77 467/387/77
f 601/386/77 467/387/77 367/369/77
f 372/388/146 474/391/146 602/389/146
f 474/391/147 373/647/147 475/392/147
f 602/389/148 475/392/148 426/374/148
f 473/390/79 602/389/79 549/393/79
f 549/393/84 603/396/84 469/395/84
f 426/374/149 547/373/149 603/396/149
f 547/373/150 370/645/150 472/397/150
f 603/396/151 472/397/151 371/398/151
f 481/399/71 604/403/71 480/400/71
f 376/402/71 483/404/71 604/403/71
f 483/404/71 377/504/71 482/405/71
f 604/403/71 482/405/71 379/406/71
f 415/407/77 527/410/77 605/408/77
f 527/410/77 416/648/77 484/411/77
f 605/408/77 484/411/77 374/412/77
f 525/409/77 605/408/77 478/413/77
f 488/415/71 606/419/71 487/416/71
f 488/415/71 382/649/71 490/418/71
f 606/419/71 490/418/71 383/420/71
f 606/419/71 489/421/71 385/422/71
f 489/421/77 607/424/77 486/423/77
f 383/420/77 491/425/77 607/424/77
f 491/425/77 380/650/77 485/426/77
f 607/424/77 485/426/77 381/427/77
f 437/428/86 568/432/86 608/429/86
f 389/431/86 495/433/86 608/429/86
f 495/433/86 434/441/86 570/434/86
f 572/430/86 608/429/86 570/434/86
f 496/436/71 609/438/71 495/433/71
f 432/437/71 561/439/71 609/438/71
f 561/439/71 433/582/71 565/440/71
f 609/438/71 565/440/71 434/441/71
f 394/442/71 501/445/71 610/443/71
f 501/445/71 648/651/71 649/446/71
f 610/443/71 649/446/71 650/447/71
f 500/444/71 610/443/71 502/448/71
f 592/450/76 611/454/76 558/451/76
f 448/453/76 503/455/76 611/454/76
f 503/455/76 397/572/76 559/456/76
f 611/454/76 559/456/76 428/457/76
f 449/458/71 591/461/71 612/459/71
f 450/452/71 558/451/71 612/459/71
f 612/459/71 558/451/71 428/457/71
f 612/459/71 553/462/71 429/463/71
f 514/464/71 613/468/71 517/465/71
f 402/467/71 510/473/71 613/468/71
f 613/468/71 510/473/71 403/469/71
f 517/465/71 613/468/71 509/470/71
f 402/467/87 511/475/87 614/472/87
f 400/474/87 506/652/87 614/472/87
f 614/472/87 506/652/87 401/476/87
f 614/472/87 512/477/87 403/469/87
f 408/471/77 509/470/77 615/478/77
f 509/470/77 403/469/77 512/477/77
f 615/478/77 512/477/77 401/476/77
f 516/479/77 615/478/77 513/480/77
f 523/482/71 616/485/71 515/483/71
f 412/484/71 520/486/71 616/485/71
f 520/486/71 411/493/71 522/487/71
f 616/485/71 522/487/71 405/488/71
f 508/489/71 617/492/71 507/490/71
f 407/466/71 517/465/71 617/492/71
f 617/492/71 517/465/71 408/471/71
f 617/492/71 515/483/71 405/488/71
f 411/493/152 520/486/152 618/494/152
f 520/486/153 412/484/153 521/496/153
f 618/494/154 521/496/154 409/497/154
f 519/495/89 618/494/89 518/498/89
f 406/481/155 524/501/155 619/500/155
f 524/501/156 409/497/156 521/496/156
f 619/500/157 521/496/157 412/484/157
f 516/479/93 619/500/93 523/482/93
f 379/406/77 482/405/77 620/502/77
f 377/504/77 526/505/77 620/502/77
f 526/505/77 414/653/77 528/506/77
f 479/503/77 620/502/77 528/506/77
f 417/508/97 499/512/97 621/509/97
f 420/511/158 534/513/158 621/509/158
f 534/513/159 391/540/159 529/514/159
f 621/509/160 529/514/160 393/515/160
f 422/516/161 538/519/161 622/517/161
f 538/519/162 417/508/162 533/510/162
f 622/517/163 533/510/163 393/515/163
f 537/518/100 622/517/100 530/520/100
f 418/522/104 539/525/104 623/523/104
f 422/516/164 537/518/164 623/523/164
f 537/518/165 392/521/165 531/526/165
f 543/524/105 623/523/105 531/526/105
f 541/527/102 624/530/102 535/528/102
f 418/522/102 543/524/102 624/530/102
f 543/524/102 394/442/102 500/444/102
f 624/530/102 500/444/102 395/449/102
f 651/533/107 652/536/107 423/531/107
f 423/531/166 542/534/166 625/532/166
f 542/534/167 419/529/167 535/528/167
f 625/532/168 535/528/168 395/449/168
f 651/533/108 625/532/108 502/448/108
f 420/511/169 540/547/169 626/535/169
f 626/535/170 540/547/170 653/537/170
f 540/547/171 423/531/171 653/537/171
f 626/535/172 653/537/172 654/538/172
f 534/513/170 626/535/170 532/539/170
f 499/512/117 627/542/117 544/541/117
f 417/508/173 538/519/173 627/542/173
f 538/519/174 422/516/174 545/543/174
f 627/542/175 545/543/175 421/544/175
f 421/544/119 545/543/119 628/545/119
f 422/516/119 539/525/119 628/545/119
f 536/546/119 628/545/119 539/525/119
f 540/547/120 629/549/120 546/548/120
f 420/511/120 544/541/120 629/549/120
f 421/544/120 546/548/120 629/549/120
f 369/550/77 463/553/77 630/551/77
f 463/553/77 365/559/77 468/554/77
f 468/554/77 366/384/77 550/385/77
f 470/552/77 630/551/77 550/385/77
f 465/555/76 631/558/76 464/556/76
f 368/379/76 551/378/76 631/558/76
f 551/378/76 366/384/76 468/554/76
f 631/558/76 468/554/76 365/559/76
f 429/463/176 553/462/176 632/560/176
f 553/462/177 428/457/177 554/562/177
f 632/560/178 554/562/178 427/563/178
f 552/561/122 632/560/122 555/564/122
f 430/565/77 555/564/77 633/566/77
f 555/564/77 427/563/77 557/568/77
f 557/568/77 397/572/77 504/569/77
f 556/567/77 633/566/77 504/569/77
f 428/457/125 559/456/125 634/571/125
f 557/568/125 634/571/125 559/456/125
f 427/563/125 554/562/125 634/571/125
f 431/573/71 562/576/71 635/574/71
f 562/576/71 433/582/71 566/577/71
f 635/574/71 566/577/71 435/578/71
f 497/575/71 635/574/71 564/579/71
f 565/440/71 636/583/71 563/581/71
f 433/582/71 562/576/71 636/583/71
f 562/576/71 431/573/71 560/584/71
f 636/583/71 560/584/71 390/585/71
f 444/586/77 569/589/77 637/587/77
f 569/589/77 431/573/77 497/575/77
f 637/587/77 497/575/77 388/580/77
f 582/588/77 637/587/77 581/590/77
f 570/434/86 638/593/86 571/592/86
f 570/434/86 434/441/86 563/581/86
f 638/593/86 563/581/86 390/585/86
f 638/593/86 494/594/86 442/595/86
f 436/596/179 567/599/179 639/597/179
f 567/599/180 439/613/180 574/600/180
f 639/597/181 574/600/181 438/601/181
f 576/598/182 639/597/182 577/602/182
f 560/584/77 640/604/77 494/594/77
f 431/573/77 569/589/77 640/604/77
f 569/589/77 444/586/77 573/605/77
f 640/604/77 573/605/77 442/595/77
f 387/606/86 493/609/86 641/607/86
f 437/428/86 572/430/86 641/607/86
f 572/430/86 441/435/86 578/610/86
f 641/607/86 578/610/86 436/596/86
f 436/596/130 578/610/130 642/611/130
f 579/612/130 642/611/130 578/610/130
f 439/613/130 567/599/130 642/611/130
f 584/614/183 643/618/183 583/615/183
f 447/617/184 580/619/184 643/618/184
f 580/619/185 446/628/185 498/620/185
f 643/618/186 498/620/186 386/621/186
f 445/616/187 492/623/187 644/622/187
f 492/623/188 440/603/188 577/602/188
f 644/622/189 577/602/189 438/601/189
f 584/614/136 644/622/136 585/624/136
f 587/625/140 645/626/140 580/619/140
f 587/625/190 444/586/190 582/588/190
f 645/626/191 582/588/191 443/591/191
f 645/626/141 586/627/141 446/628/141
f 505/629/76 646/633/76 590/630/76
f 396/632/76 588/634/76 646/633/76
f 588/634/76 448/453/76 592/450/76
f 646/633/76 592/450/76 450/452/76
f 593/635/76 647/638/76 596/636/76
f 451/637/76 595/639/76 647/638/76
f 595/639/76 453/654/76 594/640/76
f 647/638/76 594/640/76 452/641/76
