# Blender 4.0.2
# www.blender.org
o Cube
v 3.000046 -0.995404 1.507069
v 3.000046 0.475699 1.507069
v 3.000046 -0.995404 0.005371
v 3.000046 -0.995404 -0.832749
v 3.000046 0.494187 -0.832749
v 3.000046 0.487565 0.005371
v 7.850790 -0.995404 0.005371
v 7.850790 -0.995404 -0.832749
v 7.850790 0.494187 -0.832749
v 7.850790 0.487565 0.005371
v 6.219567 -0.995404 0.005371
v 6.219567 0.487565 0.005371
v 6.219567 0.494187 -0.832749
v 6.219567 -0.995404 -0.832749
v 7.850790 0.494187 -0.954356
v 7.850790 -0.995404 -0.954356
v 1.820683 -0.995404 1.507069
v 1.820683 0.475699 1.507069
v 2.171368 0.494187 -0.832749
v 2.171368 0.487565 0.005371
v 2.171368 -0.995404 -0.832749
v 2.171368 -0.995404 0.005371
v 3.000046 0.480713 0.872601
v 3.000046 -0.995404 0.872601
v 2.171368 0.480186 0.939260
v 2.171368 -0.995404 0.872601
v 3.000046 0.172078 -0.832749
v 6.219567 0.172078 -0.832749
v 3.000046 0.169944 1.507069
v 3.000046 0.179343 0.005371
v 7.850790 0.184589 -0.832749
v 7.850790 0.179343 0.005371
v 7.850790 0.184589 -0.954356
v 1.820683 0.169944 1.507069
v 3.000046 0.173915 0.872601
v 3.000046 -0.255306 1.507069
v 3.000046 -0.249337 0.005371
v 7.850790 -0.246005 -0.832749
v 7.850790 -0.249337 0.005371
v 7.850790 -0.246005 -0.954356
v 1.820683 -0.255306 1.507069
v 3.000046 -0.252784 0.872601
v 3.000046 -0.995404 0.242993
v 2.171368 0.483754 0.487740
v 2.171368 -0.995404 0.242993
v 3.000046 0.485687 0.242993
v 3.000046 0.177856 0.242993
v 3.000046 -0.250281 0.242993
v 3.000046 -0.995404 -1.166221
v 3.000046 0.496822 -1.166221
v 2.171368 -0.995404 -1.166221
v 2.171368 0.496822 -1.166221
v 3.000046 0.174143 -1.166221
v 3.000046 -0.995404 -1.864622
v 2.171368 -0.995404 -1.864622
v 2.171368 0.502340 -1.864622
v 3.000046 0.178468 -1.864622
v 3.000046 0.502340 -1.864622
v 0.593275 0.475699 1.507069
v 0.875132 -0.995404 -0.832749
v 0.875132 -0.995404 0.005371
v 0.593275 -0.995404 1.507069
v 0.875132 -0.995404 0.872601
v 0.875132 0.480186 0.939260
v 0.593275 0.169944 1.507069
v 0.593275 -0.255306 1.507069
v 0.875132 -0.995404 0.242993
v 0.875132 -0.995404 -1.166221
v -3.115135 -0.995404 0.005371
v -3.115135 -0.995404 0.872601
v -3.115135 -0.995404 0.242993
v 3.000046 -0.995404 -2.035596
v 3.000046 0.478206 1.189835
v 3.000046 -0.625355 1.507069
v 2.410365 -0.995404 1.507069
v 3.000046 -0.995404 0.124182
v 3.000046 -0.995404 -0.413689
v 3.000046 0.495504 -0.999485
v 3.000046 0.490876 -0.413689
v 2.585707 0.494187 -0.832749
v 2.585707 0.487565 0.005371
v -3.774111 -0.995404 0.005371
v 3.000046 -0.411663 -0.832749
v 3.000046 -0.622370 0.005371
v 7.850790 -0.995404 -0.413689
v 7.850790 0.490876 -0.413689
v 7.850790 -0.620704 -0.832749
v 7.850790 -0.622370 0.005371
v 7.035178 -0.995404 0.005371
v 4.609807 0.487565 0.005371
v 4.609807 0.494187 -0.832749
v 7.035178 -0.995404 -0.832749
v 4.609807 -0.995404 0.005371
v 7.035178 0.487565 0.005371
v 7.035178 0.494187 -0.832749
v 4.609807 -0.995404 -0.832749
v 6.219567 -0.411663 -0.832749
v 6.219567 -0.995404 -0.413689
v 6.219567 0.490876 -0.413689
v 7.850790 -0.620704 -0.954356
v 7.850790 -0.995404 -0.893552
v 7.850790 0.494187 -0.893552
v 1.206979 -0.995404 1.507069
v 2.410365 0.475700 1.507069
v 2.171368 0.733810 -0.831285
v 2.585707 -0.995404 -0.832749
v 2.585707 -0.995404 0.005371
v 2.171368 -0.995404 -0.413689
v 2.171368 0.490876 -0.413689
v 2.171368 0.485659 0.246555
v 2.171368 -0.995404 0.124182
v 1.820683 0.322822 1.507069
v 3.000046 0.483200 0.557797
v 3.000046 -0.995404 1.189835
v 1.996026 0.477943 1.223164
v 1.996026 -0.995404 1.189835
v 1.523250 -0.995404 0.872601
v 2.585707 0.480449 0.905930
v 2.585707 -0.995404 0.872601
v 3.000046 0.327314 0.872601
v 2.171368 0.719808 0.940723
v 2.171368 0.727187 0.006834
v 3.000046 0.333133 -0.832749
v 6.219567 0.333133 -0.832749
v 4.609807 0.172078 -0.832749
v 3.000046 0.179527 -2.035596
v 3.000046 0.322822 1.507069
v 3.000046 0.333454 0.005371
v 7.850790 0.339388 -0.832749
v 7.850790 0.333454 0.005371
v 7.850790 0.339388 -0.954356
v 1.820683 -0.042681 1.507069
v 3.000046 -0.039435 0.872601
v 3.000046 0.178599 0.124182
v 2.410365 0.169944 1.507069
v 7.850790 0.184589 -0.893552
v 7.850790 0.181966 -0.413689
v 1.206979 0.169944 1.507069
v 3.000046 0.171929 1.189835
v 3.000046 -0.042681 1.507069
v 3.000046 -0.034997 0.005371
v 7.850790 -0.030708 -0.832749
v 7.850790 -0.034997 0.005371
v 7.850790 -0.030708 -0.954356
v 1.820683 -0.625355 1.507069
v 3.000046 -0.624094 0.872601
v 3.000046 -0.254045 1.189835
v 1.206979 -0.255306 1.507069
v 7.850790 -0.247671 -0.413689
v 2.410365 -0.255306 1.507069
v 3.000046 -0.249809 0.124182
v 7.850790 -0.246005 -0.893552
v 3.000046 -0.995404 0.557797
v 2.171368 0.481970 0.713500
v 2.171368 -0.995404 0.557797
v 3.000046 0.486626 0.124182
v 3.000046 0.175885 0.557797
v 3.000046 -0.251532 0.557797
v 3.000046 -0.622842 0.242993
v 3.000046 -0.036213 0.242993
v 3.000046 0.331771 0.242993
v 2.585707 -0.995404 0.242993
v 2.585707 0.484721 0.365366
v 1.523250 -0.995404 0.242993
v 2.171368 0.723376 0.489204
v 3.000046 -0.995404 -0.999485
v 3.000046 0.499581 -1.515422
v 2.171368 -0.995404 -0.999485
v 2.171368 0.495504 -0.999485
v 3.000046 0.173111 -0.999485
v 3.000046 -0.410630 -1.166221
v 2.171368 0.736444 -1.164757
v 2.585707 0.496822 -1.166221
v 1.523250 -0.995404 -1.166221
v 3.000046 0.335483 -1.166221
v 2.585707 -0.995404 -1.166221
v 3.000046 -0.995404 -1.515422
v 2.171368 -0.995404 -1.515422
v 2.171368 0.499581 -1.515422
v 3.000046 0.176306 -1.515422
v 3.000046 0.503691 -2.035596
v 2.585707 -0.995404 -1.864622
v 3.000046 0.340404 -1.864622
v 2.585707 0.502340 -1.864622
v 2.171368 0.741963 -1.863158
v 3.000046 -0.408468 -1.864622
v 7.035178 -0.995404 -0.893552
v 7.035178 0.494187 -0.893552
v 1.206979 0.475700 1.507069
v 1.523250 -0.995404 -0.832749
v 1.523250 -0.995404 0.005371
v -1.295921 -0.995404 1.507069
v -1.120002 -0.995404 0.872601
v 1.523250 0.480186 0.939259
v -1.295921 0.169944 1.507069
v -1.295921 -0.255306 1.507069
v -1.120002 -0.995404 0.242993
v 0.875132 -0.995404 -1.515422
v 0.875132 -0.995404 0.124182
v 0.593275 -0.625355 1.507069
v 0.593275 -0.042681 1.507069
v 0.875132 -0.995404 0.557797
v 0.734203 -0.995404 1.189835
v 0.875132 -0.995404 -0.999485
v 0.875132 -0.995404 -0.413689
v 0.875132 0.719808 0.940723
v 0.734203 0.477943 1.223164
v 0.593275 0.322822 1.507069
v -1.120002 -0.995404 -0.832749
v -1.120002 -0.995404 0.005371
v -3.774111 -0.995404 0.872601
v -3.774111 -0.995404 0.242993
v -3.115135 -0.995404 -0.413689
v -3.150126 -0.995404 1.189835
v -3.115135 -0.995404 0.557797
v -3.115135 -0.995404 0.124182
v 2.171368 0.721592 0.714963
v 3.000046 0.325068 1.189835
v 2.498036 -0.995404 1.189835
v 2.585707 -0.995404 -0.999485
v 2.585707 -0.995404 -0.413689
v 3.000046 0.334307 -0.999485
v 7.850790 0.336421 -0.413689
v 7.035178 0.490876 -0.413689
v 7.035178 -0.995404 -0.413689
v 7.307049 -0.995404 -0.873285
v 4.609807 0.333133 -0.832749
v 4.609807 -0.995404 -0.413689
v 4.609807 0.490876 -0.413689
v 7.307049 0.494187 -0.873285
v 7.850790 -0.620704 -0.893552
v 1.523250 -0.995404 -0.413689
v 1.523250 -0.995404 -0.999485
v 2.585707 0.490876 -0.413689
v 2.498036 0.478074 1.206500
v 1.365114 -0.995404 1.189835
v 2.410365 0.322822 1.507069
v 2.585707 0.495504 -0.999485
v 1.523250 -0.995404 0.557797
v 2.585707 0.482585 0.635648
v 2.171368 0.735127 -0.998021
v 2.585707 -0.995404 0.557797
v 3.000046 0.329543 0.557797
v 2.171368 0.730498 -0.412225
v 4.609807 -0.411663 -0.832749
v 3.000046 -0.411147 -0.999485
v 3.000046 -0.037824 0.557797
v 2.410365 -0.042681 1.507069
v 7.850790 0.339388 -0.893552
v 7.850790 -0.032853 -0.413689
v 3.000046 -0.041058 1.189835
v 3.000046 -0.624724 1.189835
v 7.850790 -0.621537 -0.413689
v 2.410365 -0.625355 1.507069
v 3.000046 -0.623468 0.557797
v 7.850790 -0.030708 -0.893552
v 3.000046 -0.622606 0.124182
v 3.000046 -0.035605 0.124182
v 3.000046 0.332613 0.124182
v 2.585707 -0.995404 0.124182
v 2.585707 0.486143 0.185368
v 1.523250 -0.995404 0.124182
v 2.171368 0.725282 0.248019
v 2.171368 0.739204 -1.513958
v 2.585707 0.499581 -1.515421
v 1.523250 -0.995404 -1.515421
v 3.000046 0.337943 -1.515421
v 2.585707 -0.995404 -1.515421
v 3.000046 0.341609 -2.035596
v 3.000046 -0.407938 -2.035596
v 3.000046 -0.409549 -1.515422
v -1.120002 -0.995404 0.124182
v 1.206979 -0.625355 1.507069
v 1.206979 -0.042681 1.507069
v -1.120002 -0.995404 0.557797
v -1.207961 -0.995404 1.189835
v -1.120002 -0.995404 -0.999485
v -1.120002 -0.995404 -0.413689
v 1.523250 0.719809 0.940723
v 1.365115 0.477943 1.223164
v 1.206979 0.322821 1.507069
v -3.774111 -0.995404 -0.413689
v -3.774111 -0.995404 0.557797
v -3.774111 -0.995404 0.124182
v -1.295921 -0.625355 1.507069
v -1.295921 -0.042681 1.507069
v -1.295921 0.322821 1.507069
v 2.171368 0.898288 0.941813
v 2.171368 0.892694 0.716009
v 2.171368 0.887099 0.490204
v 2.171368 0.854375 -0.830549
v 2.171368 0.850243 -0.997318
v 2.171368 0.846111 -1.164087
v 2.171368 0.875145 0.007738
v 2.171368 0.864760 -0.411405
v 2.171368 0.881122 0.248971
v 2.171368 0.837458 -1.513358
v 2.171368 0.828804 -1.862628
v 0.875132 -0.995404 -1.609493
v 1.523250 -0.995404 -1.755448
v 2.008040 -0.995404 -1.864622
v 2.171368 -0.995404 -1.901403
v 2.585707 -0.995404 -1.994712
v 2.767256 -0.995404 -2.035596
v 3.000046 -0.995404 -2.088020
v 3.000046 0.179915 -2.098198
v 3.000046 0.342060 -2.099602
v 3.000046 0.504208 -2.101007
v 2.709610 0.503691 -2.035596
v 2.585707 0.503471 -2.007692
v 2.171368 0.502733 -1.914377
v 2.171368 0.742384 -1.916452
v 2.171368 0.827452 -1.917189
v 3.000046 -0.407760 -2.093109
v -1.093232 -0.995404 -1.166221
v 0.457404 -0.995404 -1.515422
v -2.106491 -0.995404 1.507069
v -3.153785 -0.995404 1.223015
v -1.833628 -0.995404 -0.999485
v -1.120002 -0.995404 -1.160192
v -2.574024 -0.995404 -0.832749
v -3.115135 -0.995404 -0.710892
v 0.875132 0.728243 0.940775
v 1.523250 0.813266 0.941294
v -4.267234 -0.995404 -0.451441
v -4.264634 -0.995404 -0.413689
v -3.774111 -0.995404 -0.562492
v -4.235774 -0.995404 0.005371
v -4.176050 -0.995404 0.872601
v -4.170917 -0.995404 0.947141
v -3.784009 -0.995404 1.052081
v -3.276117 -0.995404 1.189835
v -4.197730 -0.995404 0.557797
v -4.219410 -0.995404 0.242993
v -4.227592 -0.995404 0.124182
v -2.058227 -0.625355 1.507069
v -2.009963 -0.255306 1.507069
v -1.982231 -0.042681 1.507069
v -1.954499 0.169944 1.507069
v -1.015782 0.480186 0.939260
v 0.810834 0.719808 0.940723
v -1.086513 0.477943 1.223164
v -1.157244 0.475699 1.507069
v -1.934560 0.322821 1.507069
v -1.927803 0.374630 1.507069
v -1.295921 0.457510 1.507069
vn -1.0000 -0.0000 -0.0000
vn -0.0000 1.0000 -0.0000
vn -0.0000 -1.0000 -0.0079
vn -0.0000 -0.0000 1.0000
vn -0.0000 -1.0000 -0.0000
vn -0.0000 -0.0000 -1.0000
vn -0.0000 0.0061 -1.0000
vt 0.532395 0.871779
vt 0.581054 0.869706
vt 0.582619 0.939130
vt 0.533893 0.941246
vt 0.629657 0.867636
vt 0.631289 0.937017
vt 0.632508 0.988839
vt 0.583740 0.988841
vt 0.534919 0.988843
vt 0.600681 0.768152
vt 0.663144 0.765702
vt 0.663940 0.806162
vt 0.601428 0.808712
vt 0.725515 0.763257
vt 0.726361 0.803616
vt 0.727208 0.844041
vt 0.664738 0.846688
vt 0.602177 0.849339
vt 0.607404 0.444956
vt 0.679288 0.439285
vt 0.667617 0.449900
vt 0.600948 0.453399
vt 0.753896 0.433400
vt 0.735421 0.446341
vt 0.719114 0.457764
vt 0.657114 0.459453
vt 0.595024 0.461145
vt 0.169995 0.456796
vt 0.205933 0.455823
vt 0.216812 0.463834
vt 0.182434 0.464768
vt 0.241841 0.454851
vt 0.251164 0.462901
vt 0.259714 0.470284
vt 0.226790 0.471181
vt 0.193841 0.472079
vt 0.331959 0.452412
vt 0.337380 0.460559
vt 0.421889 0.449977
vt 0.423424 0.458221
vt 0.424832 0.465784
vt 0.342352 0.468031
vt 0.197004 0.780651
vt 0.230156 0.779355
vt 0.230623 0.822172
vt 0.197443 0.823523
vt 0.263282 0.778060
vt 0.263778 0.820821
vt 0.264274 0.863656
vt 0.231092 0.865062
vt 0.197884 0.866470
vt 0.327016 0.735337
vt 0.382861 0.733175
vt 0.383247 0.760681
vt 0.327371 0.762922
vt 0.438634 0.731017
vt 0.439049 0.758442
vt 0.439465 0.785897
vt 0.383633 0.788216
vt 0.327727 0.790539
vt 0.311618 0.809102
vt 0.320144 0.799278
vt 0.379320 0.796813
vt 0.374472 0.806477
vt 0.438415 0.794353
vt 0.437233 0.803857
vt 0.432771 0.508412
vt 0.434204 0.516110
vt 0.375431 0.517746
vt 0.370373 0.510143
vt 0.435480 0.522963
vt 0.379935 0.524514
vt 0.324317 0.526066
vt 0.316578 0.519384
vt 0.307884 0.511877
vt 0.316242 0.526292
vt 0.313668 0.521852
vt 0.308165 0.526517
vt 0.308033 0.519622
vt 0.290358 0.758955
vt 0.290804 0.795735
vt 0.310807 0.744525
vt 0.311212 0.776792
vt 0.291252 0.832570
vt 0.429351 0.490049
vt 0.358304 0.492005
vt 0.287139 0.493964
vt 0.362892 0.829560
vt 0.347557 0.860128
vt 0.434412 0.826554
vt 0.430678 0.856606
vt 0.311549 0.799545
vt 0.317149 0.796428
vt 0.311488 0.791042
vt 0.319609 0.790790
vt 0.326028 0.658765
vt 0.317931 0.659004
vt 0.317085 0.592558
vt 0.325172 0.592326
vt 0.309832 0.659242
vt 0.308997 0.592790
vt 0.206338 0.424195
vt 0.311318 0.421392
vt 0.322423 0.438080
vt 0.225440 0.440689
vt 0.416045 0.418595
vt 0.419189 0.435477
vt 0.122617 0.426431
vt 0.164498 0.425313
vt 0.186792 0.441729
vt 0.148109 0.442769
vt 0.342770 0.869669
vt 0.255851 0.873362
vt 0.429512 0.865984
vt 0.428240 0.876217
vt 0.337548 0.880080
vt 0.246661 0.883952
vt 0.679191 0.857450
vt 0.615322 0.858091
vt 0.744160 0.856799
vt 0.763386 0.871268
vt 0.695263 0.869418
vt 0.631970 0.412829
vt 0.715274 0.406554
vt 0.695931 0.424148
vt 0.618757 0.430109
vt 0.801493 0.400060
vt 0.775926 0.417969
vt 0.742332 0.770925
vt 0.743245 0.813825
vt 0.761400 0.779619
vt 0.762392 0.825401
vt 0.221218 0.874833
vt 0.186557 0.876306
vt 0.210444 0.885495
vt 0.174197 0.887039
vt 0.475316 0.417013
vt 0.553714 0.414919
vt 0.546420 0.432055
vt 0.473962 0.434004
vt 0.540154 0.446776
vt 0.472800 0.448599
vt 0.477738 0.854611
vt 0.540003 0.851973
vt 0.559641 0.860456
vt 0.503887 0.862825
vt 0.211496 0.955245
vt 0.175198 0.956822
vt 0.247762 0.953671
vt 0.248318 0.988848
vt 0.212002 0.988848
vt 0.175657 0.988848
vt 0.536591 0.455147
vt 0.472138 0.456898
vt 0.533322 0.462827
vt 0.471532 0.464511
vt 0.476440 0.773023
vt 0.538606 0.770586
vt 0.539304 0.811246
vt 0.477088 0.813784
vt 0.338775 0.949718
vt 0.429594 0.945775
vt 0.430432 0.988845
vt 0.339465 0.988847
vt 0.288744 0.626103
vt 0.261492 0.623691
vt 0.309342 0.627927
vt 0.228468 0.624786
vt 0.195417 0.625881
vt 0.474642 0.659995
vt 0.536670 0.657835
vt 0.537637 0.714146
vt 0.475540 0.716444
vt 0.598609 0.655677
vt 0.599644 0.711850
vt 0.723170 0.651339
vt 0.739799 0.651984
vt 0.741064 0.711383
vt 0.724341 0.707235
vt 0.758649 0.652715
vt 0.760023 0.716085
vt 0.319257 0.763171
vt 0.311141 0.763420
vt 0.310794 0.735829
vt 0.318906 0.735583
vt 0.381790 0.656827
vt 0.382325 0.694972
vt 0.326522 0.697021
vt 0.437480 0.654892
vt 0.438056 0.692925
vt 0.660935 0.653507
vt 0.662038 0.709541
vt 0.659020 0.556289
vt 0.596813 0.558219
vt 0.721138 0.554361
vt 0.380861 0.590581
vt 0.436479 0.588839
vt 0.737606 0.548947
vt 0.756267 0.542813
vt 0.534993 0.560138
vt 0.473084 0.562059
vt 0.318418 0.697263
vt 0.310313 0.697506
vt 0.448188 0.465147
vt 0.449695 0.562784
vt 0.426294 0.563511
vt 0.451208 0.660811
vt 0.427761 0.661628
vt 0.452080 0.717313
vt 0.428607 0.718181
vt 0.452954 0.773944
vt 0.429455 0.774865
vt 0.453583 0.814742
vt 0.430066 0.815702
vt 0.454214 0.855608
vt 0.447352 0.449288
vt 0.447788 0.457560
vt 0.466716 0.864404
vt 0.480350 0.873997
vt 0.445690 0.417804
vt 0.446584 0.434740
vt 0.481776 0.943509
vt 0.482705 0.988844
vt 0.482705 0.988844
vt 0.430432 0.988845
vt 0.022034 0.893522
vt 0.098184 0.890278
vt 0.099078 0.960127
vt 0.022822 0.963438
vt 0.099446 0.988848
vt 0.099446 0.988848
vt 0.023109 0.988848
vt 0.058503 0.872375
vt 0.128251 0.869420
vt 0.113874 0.879393
vt 0.041066 0.882487
vt 0.011061 0.429410
vt 0.034773 0.428777
vt 0.066983 0.444952
vt 0.011116 0.446454
vt 0.094632 0.458836
vt 0.019138 0.460879
vt 0.010713 0.457416
vt 0.011116 0.446454
vt 0.057862 0.786089
vt 0.127490 0.783367
vt 0.127870 0.826356
vt 0.058182 0.829194
vt 0.110345 0.466726
vt 0.038136 0.468688
vt 0.124753 0.473962
vt 0.055556 0.475847
vt 0.011176 0.461095
vt 0.011202 0.469419
vt 0.011202 0.469419
vt 0.021635 0.476772
vt 0.011018 0.472770
vt 0.011018 0.472770
vt 0.011226 0.477055
vt 0.011222 0.787911
vt 0.023730 0.787422
vt 0.024021 0.830586
vt 0.011222 0.831107
vt 0.024312 0.873824
vt 0.011221 0.874379
vt 0.010713 0.457416
vt 0.011036 0.880959
vt 0.011221 0.874379
vt 0.011198 0.883755
vt 0.011170 0.893985
vt 0.011170 0.893985
vt 0.011169 0.963944
vt 0.011169 0.963944
vt 0.023109 0.988848
vt 0.011168 0.988848
vt 0.022679 0.631607
vt 0.011224 0.631987
vt 0.056705 0.630479
vt 0.126117 0.628179
vt 0.010332 0.354468
vt 0.004652 0.413651
vt 0.004652 0.413651
vt 0.011061 0.429410
vt 0.373679 0.191095
vt 0.433653 0.189652
vt 0.441707 0.342308
vt 0.402029 0.343332
vt 0.493544 0.188211
vt 0.481349 0.341284
vt 0.778526 0.535495
vt 0.804369 0.527000
vt 0.807260 0.654599
vt 0.781140 0.653587
vt 0.782647 0.721697
vt 0.808928 0.728216
vt 0.810601 0.802053
vt 0.784158 0.789996
vt 0.651831 0.184402
vt 0.586209 0.338575
vt 0.809539 0.180608
vt 0.690815 0.335873
vt 0.972470 0.172626
vt 0.801074 0.328517
vt 0.989755 0.171779
vt 1.010240 0.253839
vt 0.914426 0.320953
vt -0.007228 0.298865
vt 0.064985 0.352038
vt 0.010836 0.353437
vt 0.121092 0.350589
vt -0.007228 0.298865
vt -0.004884 0.241812
vt 0.010836 0.353437
vt 0.010332 0.354468
vt 0.010242 0.199839
vt 0.161478 0.196201
vt 0.261789 0.346955
vt -0.004884 0.241812
vt 0.642814 0.884949
vt 0.644590 0.959666
vt 0.658147 0.905128
vt 0.660096 0.986068
vt 0.660165 0.988926
vt 0.645285 0.988894
vt 0.645285 0.988894
vt 0.632508 0.988839
vt 0.713271 0.886713
vt 0.786339 0.888543
vt 0.813016 0.908619
vt 0.734230 0.906843
vt 0.785248 0.839220
vt 0.811807 0.855279
vt 0.005698 0.003535
vt 0.033245 0.003482
vt 0.101147 0.105531
vt 0.009884 0.107630
vt 0.338635 0.002915
vt 0.356651 0.099655
vt 0.033245 0.003482
vt 0.010242 0.199839
vt 0.990075 0.083431
vt 0.880656 0.087603
vt 0.945994 0.002156
vt 0.996376 0.002193
vt 0.992422 0.154478
vt 0.990075 0.083431
vt 0.992422 0.154478
vt 0.729312 0.002368
vt 0.691178 0.091961
vt 0.500863 0.096338
vt 0.508326 0.002652
vt 0.945994 0.002156
vt 0.423793 0.002778
vt 0.428817 0.097995
vt 0.508326 0.002652
vt 0.423793 0.002778
vt 0.918639 0.489436
vt 1.010045 0.459388
vt 0.922880 0.659082
vt 1.010045 0.459387
vt 1.009732 0.662449
vt 0.925330 0.757089
vt 1.009499 0.777967
vt 1.009225 0.892618
vt 0.927791 0.855487
vt 1.009499 0.777967
vt 0.662332 0.989875
vt 0.723132 0.990647
vt 0.662332 0.989875
vt 0.723132 0.990647
vt 0.821746 0.990894
vt 0.821746 0.990894
vt 0.922660 0.991136
vt 0.929565 0.926478
vt 1.009002 0.974508
vt 1.009225 0.892618
vt 1.008923 1.002193
vt 0.931134 0.989202
vt 0.922660 0.991136
s 0
f 44/1/1 154/2/1 217/3/1 165/4/1
f 154/2/1 25/5/1 121/6/1 217/3/1
f 217/3/1 121/6/1 288/7/1 289/8/1
f 165/4/1 217/3/1 289/8/1 290/9/1
f 35/10/1 139/11/1 218/12/1 120/13/1
f 139/11/1 29/14/1 127/15/1 218/12/1
f 218/12/1 127/15/1 2/16/1 73/17/1
f 120/13/1 218/12/1 73/17/1 23/18/1
f 26/19/2 116/20/2 219/21/2 119/22/2
f 116/20/2 17/23/2 75/24/2 219/21/2
f 219/21/2 75/24/2 1/25/2 114/26/2
f 119/22/2 219/21/2 114/26/2 24/27/2
f 51/28/2 168/29/2 220/30/2 176/31/2
f 168/29/2 21/32/2 106/33/2 220/30/2
f 220/30/2 106/33/2 4/34/2 166/35/2
f 176/31/2 220/30/2 166/35/2 49/36/2
f 21/32/2 108/37/2 221/38/2 106/33/2
f 108/37/2 22/39/2 107/40/2 221/38/2
f 221/38/2 107/40/2 3/41/2 77/42/2
f 106/33/2 221/38/2 77/42/2 4/34/2
f 53/43/1 170/44/1 222/45/1 175/46/1
f 170/44/1 27/47/1 123/48/1 222/45/1
f 222/45/1 123/48/1 5/49/1 78/50/1
f 175/46/1 222/45/1 78/50/1 50/51/1
f 31/52/1 137/53/1 223/54/1 129/55/1
f 137/53/1 32/56/1 130/57/1 223/54/1
f 223/54/1 130/57/1 10/58/1 86/59/1
f 129/55/1 223/54/1 86/59/1 9/60/1
f 13/61/3 95/62/3 224/63/3 99/64/3
f 95/62/3 9/60/3 86/59/3 224/63/3
f 224/63/3 86/59/3 10/58/3 94/65/3
f 99/64/3 224/63/3 94/65/3 12/66/3
f 11/67/2 89/68/2 225/69/2 98/70/2
f 89/68/2 7/71/2 85/72/2 225/69/2
f 225/69/2 85/72/2 8/73/2 92/74/2
f 98/70/2 225/69/2 92/74/2 14/75/2
f 8/73/2 101/76/2 226/77/2 92/74/2
f 16/78/2 187/79/2 226/77/2 101/76/2
f 14/75/2 92/74/2 226/77/2 187/79/2
f 27/47/4 125/80/4 227/81/4 123/48/4
f 125/80/4 28/82/4 124/83/4 227/81/4
f 227/81/4 124/83/4 13/61/4 91/84/4
f 123/48/4 227/81/4 91/84/4 5/49/4
f 3/41/2 93/85/2 228/86/2 77/42/2
f 93/85/2 11/67/2 98/70/2 228/86/2
f 228/86/2 98/70/2 14/75/2 96/87/2
f 77/42/2 228/86/2 96/87/2 4/34/2
f 5/49/3 91/84/3 229/88/3 79/89/3
f 91/84/3 13/61/3 99/64/3 229/88/3
f 229/88/3 99/64/3 12/66/3 90/90/3
f 79/89/3 229/88/3 90/90/3 6/91/3
f 13/61/5 188/92/5 230/93/5 95/62/5
f 15/94/5 102/95/5 230/93/5 188/92/5
f 9/60/5 95/62/5 230/93/5 102/95/5
f 38/96/1 152/97/1 231/98/1 87/99/1
f 152/97/1 40/100/1 100/101/1 231/98/1
f 231/98/1 100/101/1 16/78/1 101/76/1
f 87/99/1 231/98/1 101/76/1 8/73/1
f 60/102/2 205/103/2 232/104/2 190/105/2
f 205/103/2 61/106/2 191/107/2 232/104/2
f 232/104/2 191/107/2 22/39/2 108/37/2
f 190/105/2 232/104/2 108/37/2 21/32/2
f 68/108/2 204/109/2 233/110/2 174/111/2
f 204/109/2 60/102/2 190/105/2 233/110/2
f 233/110/2 190/105/2 21/32/2 168/29/2
f 174/111/2 233/110/2 168/29/2 51/28/2
f 5/49/3 79/89/3 234/112/3 80/113/3
f 79/89/3 6/91/3 81/114/3 234/112/3
f 234/112/3 81/114/3 20/115/3 109/116/3
f 80/113/3 234/112/3 109/116/3 19/117/3
f 23/18/3 73/17/3 235/118/3 118/119/3
f 73/17/3 2/16/3 104/120/3 235/118/3
f 235/118/3 104/120/3 18/121/3 115/122/3
f 118/119/3 235/118/3 115/122/3 25/5/3
f 63/123/2 203/124/2 236/125/2 117/126/2
f 203/124/2 62/127/2 103/128/2 236/125/2
f 236/125/2 103/128/2 17/23/2 116/20/2
f 117/126/2 236/125/2 116/20/2 26/19/2
f 29/14/6 135/129/6 237/130/6 127/15/6
f 135/129/6 34/131/6 112/132/6 237/130/6
f 237/130/6 112/132/6 18/121/6 104/120/6
f 127/15/6 237/130/6 104/120/6 2/16/6
f 50/51/3 78/50/3 238/133/3 173/134/3
f 78/50/3 5/49/3 80/113/3 238/133/3
f 238/133/3 80/113/3 19/117/3 169/135/3
f 173/134/3 238/133/3 169/135/3 52/136/3
f 67/137/2 202/138/2 239/139/2 164/140/2
f 202/138/2 63/123/2 117/126/2 239/139/2
f 239/139/2 117/126/2 26/19/2 155/141/2
f 164/140/2 239/139/2 155/141/2 45/142/2
f 46/143/3 113/144/3 240/145/3 163/146/3
f 113/144/3 23/18/3 118/119/3 240/145/3
f 240/145/3 118/119/3 25/5/3 154/2/3
f 163/146/3 240/145/3 154/2/3 44/1/3
f 52/136/1 169/135/1 241/147/1 172/148/1
f 169/135/1 19/117/1 105/149/1 241/147/1
f 241/147/1 105/149/1 291/150/1 292/151/1
f 172/148/1 241/147/1 292/151/1 293/152/1
f 45/142/2 155/141/2 242/153/2 162/154/2
f 155/141/2 26/19/2 119/22/2 242/153/2
f 242/153/2 119/22/2 24/27/2 153/155/2
f 162/154/2 242/153/2 153/155/2 43/156/2
f 47/157/1 157/158/1 243/159/1 161/160/1
f 157/158/1 35/10/1 120/13/1 243/159/1
f 243/159/1 120/13/1 23/18/1 113/144/1
f 161/160/1 243/159/1 113/144/1 46/143/1
f 19/117/1 109/116/1 244/161/1 105/149/1
f 109/116/1 20/115/1 122/162/1 244/161/1
f 244/161/1 122/162/1 294/163/1 295/164/1
f 105/149/1 244/161/1 295/164/1 291/150/1
f 4/34/4 96/87/4 245/165/4 83/166/4
f 96/87/4 14/75/4 97/167/4 245/165/4
f 245/165/4 97/167/4 28/82/4 125/80/4
f 83/166/4 245/165/4 125/80/4 27/47/4
f 49/36/1 166/35/1 246/168/1 171/169/1
f 166/35/1 4/34/1 83/166/1 246/168/1
f 246/168/1 83/166/1 27/47/1 170/44/1
f 171/169/1 246/168/1 170/44/1 53/43/1
f 48/170/1 158/171/1 247/172/1 160/173/1
f 158/171/1 42/174/1 133/175/1 247/172/1
f 247/172/1 133/175/1 35/10/1 157/158/1
f 160/173/1 247/172/1 157/158/1 47/157/1
f 36/176/6 150/177/6 248/178/6 140/179/6
f 150/177/6 41/180/6 132/181/6 248/178/6
f 248/178/6 132/181/6 34/131/6 135/129/6
f 140/179/6 248/178/6 135/129/6 29/14/6
f 9/60/1 102/95/1 249/182/1 129/55/1
f 102/95/1 15/94/1 131/183/1 249/182/1
f 249/182/1 131/183/1 33/184/1 136/185/1
f 129/55/1 249/182/1 136/185/1 31/52/1
f 38/96/1 149/186/1 250/187/1 142/188/1
f 149/186/1 39/189/1 143/190/1 250/187/1
f 250/187/1 143/190/1 32/56/1 137/53/1
f 142/188/1 250/187/1 137/53/1 31/52/1
f 42/174/1 147/191/1 251/192/1 133/175/1
f 147/191/1 36/176/1 140/179/1 251/192/1
f 251/192/1 140/179/1 29/14/1 139/11/1
f 133/175/1 251/192/1 139/11/1 35/10/1
f 24/27/1 114/26/1 252/193/1 146/194/1
f 114/26/1 1/25/1 74/195/1 252/193/1
f 252/193/1 74/195/1 36/176/1 147/191/1
f 146/194/1 252/193/1 147/191/1 42/174/1
f 8/73/1 85/72/1 253/196/1 87/99/1
f 85/72/1 7/71/1 88/197/1 253/196/1
f 253/196/1 88/197/1 39/189/1 149/186/1
f 87/99/1 253/196/1 149/186/1 38/96/1
f 1/25/6 75/24/6 254/198/6 74/195/6
f 75/24/6 17/23/6 145/199/6 254/198/6
f 254/198/6 145/199/6 41/180/6 150/177/6
f 74/195/6 254/198/6 150/177/6 36/176/6
f 43/156/1 153/155/1 255/200/1 159/201/1
f 153/155/1 24/27/1 146/194/1 255/200/1
f 255/200/1 146/194/1 42/174/1 158/171/1
f 159/201/1 255/200/1 158/171/1 48/170/1
f 31/52/1 136/185/1 256/202/1 142/188/1
f 136/185/1 33/184/1 144/203/1 256/202/1
f 256/202/1 144/203/1 40/100/1 152/97/1
f 142/188/1 256/202/1 152/97/1 38/96/1
f 3/41/1 76/204/1 257/205/1 84/206/1
f 76/204/1 43/156/1 159/201/1 257/205/1
f 257/205/1 159/201/1 48/170/1 151/207/1
f 84/206/1 257/205/1 151/207/1 37/208/1
f 37/208/1 151/207/1 258/209/1 141/210/1
f 151/207/1 48/170/1 160/173/1 258/209/1
f 258/209/1 160/173/1 47/157/1 134/211/1
f 141/210/1 258/209/1 134/211/1 30/212/1
f 30/212/1 134/211/1 259/213/1 128/214/1
f 134/211/1 47/157/1 161/160/1 259/213/1
f 259/213/1 161/160/1 46/143/1 156/215/1
f 128/214/1 259/213/1 156/215/1 6/91/1
f 22/39/2 111/216/2 260/217/2 107/40/2
f 111/216/2 45/142/2 162/154/2 260/217/2
f 260/217/2 162/154/2 43/156/2 76/204/2
f 107/40/2 260/217/2 76/204/2 3/41/2
f 6/91/3 156/215/3 261/218/3 81/114/3
f 156/215/3 46/143/3 163/146/3 261/218/3
f 261/218/3 163/146/3 44/1/3 110/219/3
f 81/114/3 261/218/3 110/219/3 20/115/3
f 61/106/2 199/220/2 262/221/2 191/107/2
f 199/220/2 67/137/2 164/140/2 262/221/2
f 262/221/2 164/140/2 45/142/2 111/216/2
f 191/107/2 262/221/2 111/216/2 22/39/2
f 20/115/1 110/219/1 263/222/1 122/162/1
f 110/219/1 44/1/1 165/4/1 263/222/1
f 263/222/1 165/4/1 290/9/1 296/223/1
f 122/162/1 263/222/1 296/224/1 294/225/1
f 56/226/1 179/227/1 264/228/1 185/229/1
f 179/227/1 52/136/1 172/148/1 264/228/1
f 264/228/1 172/148/1 293/152/1 297/230/1
f 185/229/1 264/228/1 297/231/1 298/232/1
f 58/233/3 167/234/3 265/235/3 184/236/3
f 167/234/3 50/51/3 173/134/3 265/235/3
f 265/235/3 173/134/3 52/136/3 179/227/3
f 184/236/3 265/235/3 179/227/3 56/226/3
f 299/237/2 198/238/2 266/239/2 300/240/2
f 198/238/2 68/108/2 174/111/2 266/239/2
f 266/239/2 174/111/2 51/28/2 178/241/2
f 266/239/2 178/241/2 55/242/2 301/243/2 300/244/2
f 57/245/1 180/246/1 267/247/1 183/248/1
f 180/246/1 53/43/1 175/46/1 267/247/1
f 267/247/1 175/46/1 50/51/1 167/234/1
f 183/248/1 267/247/1 167/234/1 58/233/1
f 55/242/2 178/241/2 268/249/2 182/250/2
f 178/241/2 51/28/2 176/31/2 268/249/2
f 268/249/2 176/31/2 49/36/2 177/251/2
f 182/250/2 268/249/2 177/251/2 54/252/2
f 302/253/2 55/242/2 182/250/2 303/254/2
f 303/255/2 182/250/2 54/252/2 72/256/2 304/257/2
f 304/258/2 72/256/2 305/259/2
f 306/260/1 126/261/1 269/262/1 307/263/1
f 126/261/1 57/245/1 183/248/1 269/262/1
f 269/262/1 183/248/1 58/233/1 181/264/1
f 307/263/1 269/262/1 181/264/1 308/265/1
f 301/266/2 55/242/2 302/253/2
f 181/264/3 309/267/3 308/268/3
f 181/264/3 58/233/3 184/236/3 310/269/3 309/267/3
f 184/236/3 56/226/3 311/270/3 310/269/3
f 311/271/1 56/226/1 185/229/1 312/272/1
f 312/273/1 185/229/1 298/274/1 313/275/1
f 305/259/1 72/256/1 270/276/1 314/277/1
f 72/256/1 54/252/1 186/278/1 270/276/1
f 270/276/1 186/278/1 57/245/1 126/261/1
f 314/277/1 270/276/1 126/261/1 306/260/1
f 53/43/1 180/246/1 271/279/1 171/169/1
f 180/246/1 57/245/1 186/278/1 271/279/1
f 271/279/1 186/278/1 54/252/1 177/251/1
f 171/169/1 271/279/1 177/251/1 49/36/1
f 315/280/2 68/108/2 198/238/2 316/281/2
f 316/282/2 198/238/2 299/283/2
f 69/284/2 216/285/2 272/286/2 210/287/2
f 216/285/2 71/288/2 197/289/2 272/286/2
f 272/286/2 197/289/2 67/137/2 199/220/2
f 210/287/2 272/286/2 199/220/2 61/106/2
f 17/23/6 103/128/6 273/290/6 145/199/6
f 103/128/6 62/127/6 200/291/6 273/290/6
f 273/290/6 200/291/6 66/292/6 148/293/6
f 145/199/6 273/290/6 148/293/6 41/180/6
f 41/180/6 148/293/6 274/294/6 132/181/6
f 148/293/6 66/292/6 201/295/6 274/294/6
f 274/294/6 201/295/6 65/296/6 138/297/6
f 132/181/6 274/294/6 138/297/6 34/131/6
f 71/288/2 215/298/2 275/299/2 197/289/2
f 215/298/2 70/300/2 193/301/2 275/299/2
f 275/299/2 193/301/2 63/123/2 202/138/2
f 197/289/2 275/299/2 202/138/2 67/137/2
f 70/300/2 214/302/2 276/303/2 193/301/2
f 214/302/2 318/304/2 317/305/2 192/306/2 276/303/2
f 276/303/2 192/306/2 62/127/2 203/124/2
f 193/301/2 276/303/2 203/124/2 63/123/2
f 319/307/2 277/308/2 320/309/2
f 209/310/2 277/308/2 319/311/2 321/312/2
f 277/308/2 209/310/2 60/102/2 204/109/2
f 320/313/2 277/308/2 204/109/2 68/108/2 315/314/2
f 322/315/2 213/316/2 278/317/2 209/310/2 321/318/2
f 213/316/2 69/284/2 210/287/2 278/317/2
f 278/317/2 210/287/2 61/106/2 205/103/2
f 209/310/2 278/317/2 205/103/2 60/102/2
f 25/5/7 194/319/7 279/320/7 121/6/7
f 194/319/7 64/321/7 206/322/7 279/320/7
f 279/320/7 206/322/7 323/323/7 324/324/7
f 121/6/7 279/320/7 324/325/7 288/326/7
f 25/5/3 115/122/3 280/327/3 194/319/3
f 115/122/3 18/121/3 189/328/3 280/327/3
f 280/327/3 189/328/3 59/329/3 207/330/3
f 194/319/3 280/327/3 207/330/3 64/321/3
f 34/131/6 138/297/6 281/331/6 112/132/6
f 138/297/6 65/296/6 208/332/6 281/331/6
f 281/331/6 208/332/6 59/329/6 189/328/6
f 112/132/6 281/331/6 189/328/6 18/121/6
f 325/333/2 326/334/2 282/335/2 327/336/2
f 328/337/2 82/338/2 282/335/2 326/339/2
f 282/335/2 82/338/2 69/284/2 213/316/2
f 282/335/2 213/316/2 322/340/2 327/336/2
f 331/341/2 211/342/2 329/343/2 330/344/2
f 318/304/2 214/302/2 332/345/2
f 211/342/2 331/346/2 332/347/2 214/302/2 70/300/2
f 333/348/2 283/349/2 212/350/2 334/351/2
f 329/352/2 211/342/2 283/349/2 333/348/2
f 283/349/2 211/342/2 70/300/2 215/298/2
f 212/350/2 283/349/2 215/298/2 71/288/2
f 335/353/2 284/354/2 82/338/2 328/337/2
f 334/355/2 212/350/2 284/354/2 335/356/2
f 284/354/2 212/350/2 71/288/2 216/285/2
f 82/338/2 284/354/2 216/285/2 69/284/2
f 62/127/6 192/306/6 285/357/6 200/291/6
f 285/357/6 192/306/6 317/305/6 336/358/6
f 196/359/6 285/357/6 336/360/6 337/361/6
f 200/291/6 285/357/6 196/359/6 66/292/6
f 66/292/6 196/359/6 286/362/6 201/295/6
f 286/362/6 196/359/6 337/361/6 338/363/6
f 339/364/6 195/365/6 286/362/6 338/366/6
f 201/295/6 286/362/6 195/365/6 65/296/6
f 341/367/7 206/322/7 64/321/7 340/368/7
f 206/322/7 341/369/7 323/323/7
f 340/370/3 64/321/3 207/330/3 342/371/3
f 342/372/3 207/330/3 59/329/3 343/373/3
f 65/296/6 195/365/6 287/374/6 208/332/6
f 344/375/6 287/374/6 195/365/6 339/376/6
f 287/374/6 344/375/6 345/377/6 346/378/6
f 343/379/6 59/329/6 208/332/6 287/374/6 346/378/6
o Cube.001
v 3.000046 0.204007 0.005371
v 3.000046 0.099027 0.005371
v 3.000046 0.204007 -0.113261
v 3.000046 0.099027 -0.113261
v 3.000046 0.338371 0.005371
v 3.000046 0.233390 0.005371
v 3.000046 0.338371 -0.113261
v 3.000046 0.233390 -0.113261
v -0.249828 -1.000000 -0.187758
v -0.249828 -0.794230 -0.187758
v -0.803480 -1.000000 -0.187758
v -0.803480 -0.794230 -0.187758
v -0.803480 -0.794230 -0.553156
v -0.249828 -0.794230 -0.439026
v -0.803480 -1.000000 -0.439026
v -0.803480 -0.794230 -0.439026
v -0.249828 -0.639239 -0.484840
v -0.249828 -0.639239 -0.553156
v -0.803480 -0.639239 -0.553156
v -0.803480 -0.639239 -0.484840
v -3.127419 -0.800000 0.404304
v -3.127419 -0.800000 0.077799
v -4.335465 -0.800000 0.396341
v -4.335465 -0.800000 0.069837
v -1.056355 -0.800000 0.414552
v -1.056355 -0.800000 0.088047
v -2.323901 -1.000000 0.414552
v -2.323901 -0.800000 0.414552
v -2.323901 -1.000000 0.088047
v -2.323901 -0.800000 0.088047
v -1.056355 -0.632138 0.970391
v -1.056355 -1.000000 0.643886
v -1.056355 -0.632138 0.643886
v -2.323901 -1.000000 0.949376
v -2.323901 -0.632138 0.949376
v -2.323901 -1.000000 0.643886
v -2.323901 -0.632138 0.643886
v -2.977710 -0.632138 1.003549
v -2.977710 -1.000000 0.677045
v -2.977710 -0.632138 0.677045
v -4.245257 -0.632138 0.677045
v -3.101303 -1.000000 -0.100598
v -3.101303 -0.794230 -0.100598
v -3.101303 -0.794230 -0.465996
v -3.654956 -1.000000 -0.100598
v -3.654956 -0.794230 -0.100598
v -3.654956 -1.000000 -0.465996
v -3.654956 -0.794230 -0.465996
v -0.998150 -1.000000 -0.141190
v -0.998150 -0.794230 -0.141190
v -1.653860 -1.000000 -0.141190
v -1.653860 -0.794230 -0.141190
v -1.653860 -1.000000 -0.506589
v -1.653860 -0.794230 -0.506589
v -0.998150 -0.794230 -0.392459
v -1.653860 -1.000000 -0.392459
v -1.653860 -0.794230 -0.392459
v -0.998150 -0.639239 -0.438273
v -0.998150 -0.639239 -0.506589
v -1.653860 -0.639239 -0.506589
v -1.653860 -0.639239 -0.438273
v -3.752249 -0.800000 0.069837
v -3.752249 -0.800000 0.396341
v -3.752249 -0.800000 0.077799
v -3.752249 -0.800000 0.404304
v 3.000046 0.151517 0.005371
v 3.000046 0.151517 -0.113261
v 3.000046 0.204007 -0.053945
v 3.000046 0.099027 -0.053945
v 3.000046 0.285880 0.005371
v 3.000046 0.285880 -0.113261
v 3.000046 0.338371 -0.053945
v 3.000046 0.233390 -0.053945
v -0.249827 -0.897115 -0.187758
v -0.803480 -0.794230 -0.313392
v -0.803480 -0.897115 -0.187758
v -0.526654 -1.000000 -0.187758
v -0.526654 -0.794230 -0.187758
v -0.249827 -0.794230 -0.313392
v -0.803480 -1.000000 -0.313392
v -0.803480 -0.794230 -0.496091
v -0.526654 -0.794230 -0.439026
v -0.803480 -0.897115 -0.439026
v -0.249828 -0.639239 -0.518998
v -0.526654 -0.639239 -0.553156
v -0.803480 -0.639239 -0.518998
v -0.526654 -0.639239 -0.484840
v -0.803480 -0.716734 -0.553156
v -0.803480 -0.716734 -0.461933
v -0.249828 -0.716734 -0.461933
v -3.127419 -0.800000 0.241051
v -4.043857 -0.800000 0.069837
v -4.335465 -0.900000 0.069837
v -4.335465 -0.800000 0.233089
v -4.335465 -0.900000 0.396341
v -3.439834 -0.800000 0.404304
v -1.056355 -0.800000 0.251300
v -1.690128 -0.800000 0.088047
v -2.323901 -0.900000 0.088047
v -2.323901 -1.000000 0.251300
v -2.323901 -0.800000 0.251300
v -2.323901 -0.900000 0.414552
v -1.690128 -0.800000 0.414552
v -1.056355 -0.632138 0.807138
v -1.056355 -0.816069 0.643886
v -1.690128 -1.000000 0.643886
v -1.690128 -0.632138 0.643886
v -2.323900 -0.816069 0.643886
v -2.323900 -1.000000 0.796631
v -2.323900 -0.632138 0.796631
v -2.323900 -0.816069 0.949376
v -1.690128 -0.632138 0.959883
v -2.977711 -0.632138 0.840297
v -2.977711 -0.816069 0.677045
v -3.611484 -1.000000 0.677045
v -3.611484 -0.632138 0.677045
v -4.245257 -0.816069 0.677045
v -4.245257 -0.632138 0.840297
v -3.611484 -0.632138 1.003549
v -3.101303 -0.897115 -0.100598
v -3.101303 -0.794230 -0.283297
v -3.378129 -0.794230 -0.465996
v -3.654956 -0.897115 -0.465996
v -3.654956 -1.000000 -0.283297
v -3.654956 -0.794230 -0.283297
v -3.654956 -0.897115 -0.100598
v -3.378129 -1.000000 -0.100598
v -3.378129 -0.794230 -0.100598
v -0.998150 -0.897115 -0.141190
v -1.653860 -0.897115 -0.506589
v -1.653860 -1.000000 -0.449524
v -1.653860 -0.794230 -0.266825
v -1.653860 -0.897115 -0.141190
v -1.326005 -1.000000 -0.141190
v -1.326005 -0.794230 -0.141190
v -0.998150 -0.794230 -0.266825
v -1.653860 -1.000000 -0.266825
v -1.653860 -0.794230 -0.449524
v -1.326005 -0.794230 -0.392459
v -1.653860 -0.897115 -0.392459
v -0.998150 -0.639239 -0.472431
v -1.326005 -0.639239 -0.506589
v -1.653860 -0.639239 -0.472431
v -1.326005 -0.639239 -0.438273
v -1.653860 -0.716734 -0.506589
v -1.653860 -0.716734 -0.415366
v -0.998150 -0.716734 -0.415366
v -3.439834 -0.800000 0.077799
v -4.043857 -0.800000 0.396341
v -3.752249 -0.800000 0.241051
v -3.752249 -0.800000 0.233089
v 3.000046 0.151517 -0.053945
v 3.000046 0.285880 -0.053945
v -0.803480 -0.897115 -0.313392
v -0.526654 -0.897115 -0.187758
v -0.526654 -0.794230 -0.313392
v -0.803480 -0.716734 -0.507545
v -0.526654 -0.639239 -0.518998
v -0.526654 -0.716734 -0.461933
v -4.335465 -0.900000 0.233089
v -3.439833 -0.800000 0.241051
v -2.323901 -0.900000 0.251300
v -1.690128 -0.800000 0.251300
v -1.690128 -0.816069 0.643886
v -2.323900 -0.816069 0.796631
v -1.690127 -0.632138 0.801885
v -3.611484 -0.816069 0.677045
v -4.245256 -0.816069 0.840297
v -3.611484 -0.632138 0.840297
v -3.654955 -0.897115 -0.283297
v -3.378129 -0.897115 -0.100598
v -3.378128 -0.794230 -0.283297
v -1.653861 -0.897115 -0.266825
v -1.326005 -0.897115 -0.141190
v -1.326005 -0.794230 -0.266825
v -1.653861 -0.716734 -0.460977
v -1.653861 -0.897115 -0.449524
v -1.326005 -0.639239 -0.472431
v -1.326005 -0.716734 -0.415366
v -4.043857 -0.800000 0.233089
v -4.335465 -0.967425 0.233089
v -4.335465 -0.970151 0.069837
v -4.335465 -0.964698 0.396341
v -4.170565 -1.000000 0.677045
v -4.245257 -0.981887 0.677045
v -4.245257 -0.979160 0.840297
v -4.245257 -0.977723 0.926352
v -4.245256 -0.816069 0.920634
v -4.245257 -0.632138 0.914127
v -3.915563 -0.632138 1.003549
vn -1.0000 -0.0000 -0.0000
vn -0.0000 -0.0000 1.0000
vn -0.0000 1.0000 -0.0000
vn -0.0000 0.2835 0.9590
vn -0.0000 -0.0000 -1.0000
vt 0.429137 0.753610
vt 0.429345 0.767499
vt 0.417609 0.767860
vt 0.417404 0.753969
vt 0.429553 0.781396
vt 0.417813 0.781759
vt 0.406071 0.782122
vt 0.405869 0.768221
vt 0.405668 0.754328
vt 0.429669 0.789179
vt 0.429877 0.803088
vt 0.418133 0.803454
vt 0.417928 0.789543
vt 0.430085 0.817006
vt 0.418337 0.817373
vt 0.406586 0.817741
vt 0.406385 0.803820
vt 0.406183 0.789907
vt 0.263690 0.360233
vt 0.303637 0.359195
vt 0.304180 0.402556
vt 0.264198 0.403614
vt 0.343547 0.358158
vt 0.344124 0.401498
vt 0.344703 0.444914
vt 0.304723 0.445993
vt 0.264706 0.447073
vt 0.348409 0.370231
vt 0.348966 0.411730
vt 0.352873 0.381317
vt 0.353411 0.421124
vt 0.353950 0.460997
vt 0.349524 0.453299
vt 0.311257 0.454336
vt 0.272955 0.455373
vt 0.317254 0.461994
vt 0.280527 0.462992
vt 0.257785 0.480058
vt 0.243236 0.480456
vt 0.246518 0.447564
vt 0.250853 0.513093
vt 0.239948 0.513395
vt 0.229041 0.513698
vt 0.228681 0.480854
vt 0.228322 0.448055
vt 0.249271 0.518866
vt 0.238832 0.519156
vt 0.259707 0.518575
vt 0.267834 0.523608
vt 0.257827 0.523887
vt 0.247819 0.524166
vt 0.274184 0.493279
vt 0.266336 0.486952
vt 0.504217 0.074952
vt 0.384239 0.077682
vt 0.383271 0.009744
vt 0.503128 0.009749
vt 0.622666 0.009753
vt 0.623863 0.072229
vt 0.503128 0.009749
vt 0.625721 0.169180
vt 0.505839 0.172042
vt 0.385624 0.174912
vt 0.403313 0.258299
vt 0.501991 0.255847
vt 0.498097 0.289539
vt 0.408055 0.291811
vt 0.600444 0.253401
vt 0.587951 0.287271
vt 0.577466 0.315698
vt 0.494829 0.317810
vt 0.412033 0.319927
vt 0.422470 0.263539
vt 0.490906 0.261834
vt 0.491816 0.317405
vt 0.423303 0.319156
vt 0.559234 0.260132
vt 0.560221 0.315657
vt 0.561210 0.371307
vt 0.492728 0.373102
vt 0.424137 0.374899
vt 0.488529 0.405011
vt 0.428109 0.406616
vt 0.548864 0.403408
vt 0.539144 0.428680
vt 0.485223 0.430128
vt 0.431236 0.431578
vt 0.613126 0.339056
vt 0.631596 0.303225
vt 0.633327 0.393276
vt 0.614644 0.419599
vt 0.655038 0.257745
vt 0.657052 0.359851
vt 0.659075 0.462384
vt 0.635066 0.483660
vt 0.616166 0.500408
vt 0.718729 0.256159
vt 0.720875 0.358185
vt 0.782326 0.254574
vt 0.784603 0.356522
vt 0.786889 0.458896
vt 0.723030 0.460639
vt 0.693361 0.482055
vt 0.751578 0.480453
vt 0.723776 0.497425
vt 0.670005 0.498916
vt 0.702962 0.195538
vt 0.748446 0.112998
vt 0.751489 0.253208
vt 0.705418 0.313978
vt 0.806817 0.007071
vt 0.815007 0.009836
vt 0.818587 0.164702
vt 0.822586 0.337703
vt 0.754549 0.394227
vt 0.707886 0.432994
vt 0.929813 0.009845
vt 0.933688 0.161953
vt 0.815007 0.009836
vt 0.990179 0.160604
vt 0.929813 0.009845
vt 0.990174 0.009851
vt 0.938090 0.334713
vt 0.990186 0.333364
vt 0.848628 0.391732
vt 0.990186 0.333364
vt 0.995654 0.361648
vt 0.942501 0.389241
vt 0.866456 0.428719
vt 0.787244 0.430855
vt 0.082929 0.121716
vt 0.190599 0.119219
vt 0.191418 0.199088
vt 0.083573 0.201687
vt 0.298002 0.116730
vt 0.298996 0.196495
vt 0.299993 0.276521
vt 0.192240 0.279218
vt 0.084218 0.281921
vt 0.310141 0.156644
vt 0.311078 0.230388
vt 0.320564 0.190911
vt 0.321448 0.259478
vt 0.322336 0.328239
vt 0.312017 0.304354
vt 0.212516 0.306877
vt 0.112784 0.309405
vt 0.229911 0.330608
vt 0.137289 0.332982
vt 0.250076 0.315186
vt 0.296363 0.314008
vt 0.296984 0.364204
vt 0.250650 0.365411
vt 0.342601 0.312831
vt 0.343269 0.362999
vt 0.343939 0.413270
vt 0.297607 0.414503
vt 0.251225 0.415738
vt 0.349222 0.331750
vt 0.349858 0.379042
vt 0.355122 0.348607
vt 0.355729 0.393334
vt 0.356337 0.438143
vt 0.350496 0.426425
vt 0.306844 0.427594
vt 0.263149 0.428763
vt 0.315073 0.439254
vt 0.273769 0.440365
vt 0.243191 0.453944
vt 0.226323 0.454400
vt 0.230142 0.416299
vt 0.235142 0.492216
vt 0.222499 0.492563
vt 0.209852 0.492911
vt 0.209449 0.454857
vt 0.209048 0.416861
vt 0.207984 0.316258
vt 0.229035 0.315722
vt 0.229588 0.365959
vt 0.208515 0.366508
vt 0.236107 0.501162
vt 0.224195 0.501491
vt 0.248017 0.500834
vt 0.259482 0.508508
vt 0.248226 0.508820
vt 0.236967 0.509132
vt 0.266631 0.474410
vt 0.255589 0.464769
vt 0.501086 0.218128
vt 0.392692 0.220774
vt 0.609208 0.215489
vt 0.595647 0.253520
vt 0.497183 0.255966
vt 0.398495 0.258419
s 0
f 348/380/8 412/381/8 498/382/8 415/383/8
f 412/381/8 347/384/8 414/385/8 498/382/8
f 498/382/8 414/385/8 349/386/8 413/387/8
f 415/383/8 498/382/8 413/387/8 350/388/8
f 352/389/8 416/390/8 499/391/8 419/392/8
f 416/390/8 351/393/8 418/394/8 499/391/8
f 499/391/8 418/394/8 353/395/8 417/396/8
f 419/392/8 499/391/8 417/396/8 354/397/8
f 361/398/8 426/399/8 500/400/8 429/401/8
f 426/399/8 357/402/8 422/403/8 500/400/8
f 500/400/8 422/403/8 358/404/8 421/405/8
f 429/401/8 500/400/8 421/405/8 362/406/8
f 357/402/9 423/407/9 501/408/9 422/403/9
f 423/407/9 355/409/9 420/410/9 501/408/9
f 501/408/9 420/410/9 356/411/9 424/412/9
f 422/403/9 501/408/9 424/412/9 358/404/9
f 362/406/10 421/405/10 502/413/10 428/414/10
f 421/405/10 358/404/10 424/412/10 502/413/10
f 502/413/10 424/412/10 356/411/10 425/415/10
f 428/414/10 502/413/10 425/415/10 360/416/10
f 362/406/8 435/417/8 503/418/8 427/419/8
f 435/417/8 366/420/8 432/421/8 503/418/8
f 503/418/8 432/421/8 365/422/8 434/423/8
f 427/419/8 503/418/8 434/423/8 359/424/8
f 365/422/10 432/421/10 504/425/10 431/426/10
f 432/421/10 366/420/10 433/427/10 504/425/10
f 504/425/10 433/427/10 363/428/10 430/429/10
f 431/426/10 504/425/10 430/429/10 364/430/10
f 360/416/11 436/431/11 505/432/11 428/414/11
f 436/431/11 363/428/11 433/427/11 505/432/11
f 505/432/11 433/427/11 366/420/11 435/417/11
f 428/414/11 505/432/11 435/417/11 362/406/11
f 506/433/8 439/434/8 528/435/8 527/436/8
f 529/437/8 441/438/8 506/433/8 527/439/8
f 506/433/8 441/438/8 369/440/8 440/441/8
f 439/434/8 506/433/8 440/441/8 370/442/8
f 410/443/10 496/444/10 507/445/10 494/446/10
f 496/444/10 411/447/10 442/448/10 507/445/10
f 507/445/10 442/448/10 367/449/10 437/450/10
f 494/446/10 507/445/10 437/450/10 368/451/10
f 375/452/8 446/453/8 508/454/8 445/455/8
f 446/453/8 373/456/8 448/457/8 508/454/8
f 508/454/8 448/457/8 374/458/8 447/459/8
f 445/455/8 508/454/8 447/459/8 376/460/8
f 376/460/10 447/459/10 509/461/10 444/462/10
f 447/459/10 374/458/10 449/463/10 509/461/10
f 509/461/10 449/463/10 371/464/10 443/465/10
f 444/462/10 509/461/10 443/465/10 372/466/10
f 378/467/12 452/468/12 510/469/12 451/470/12
f 452/468/12 382/471/12 454/472/12 510/469/12
f 510/469/12 454/472/12 383/473/12 453/474/12
f 451/470/12 510/469/12 453/474/12 379/475/12
f 382/471/8 455/476/8 511/477/8 454/472/8
f 455/476/8 380/478/8 457/479/8 511/477/8
f 511/477/8 457/479/8 381/480/8 456/481/8
f 454/472/8 511/477/8 456/481/8 383/473/8
f 383/473/10 456/481/10 512/482/10 453/474/10
f 456/481/10 381/480/10 458/483/10 512/482/10
f 512/482/10 458/483/10 377/484/10 450/485/10
f 453/474/10 512/482/10 450/485/10 379/475/10
f 385/486/12 461/487/12 513/488/12 460/489/12
f 530/490/12 531/491/12 463/492/12 513/488/12 461/487/12
f 513/488/12 463/492/12 387/493/12 462/494/12
f 460/489/12 513/488/12 462/494/12 386/495/12
f 532/496/8 514/497/8 463/492/8 531/498/8
f 534/499/8 514/497/8 532/500/8 533/501/8
f 464/502/8 514/497/8 534/499/8 535/503/8
f 463/492/8 514/497/8 464/502/8 387/493/8
f 387/493/10 464/502/10 515/504/10 462/494/10
f 464/502/10 535/505/10 536/506/10 465/507/10 515/504/10
f 515/504/10 465/507/10 384/508/10 459/509/10
f 462/494/10 515/504/10 459/509/10 386/495/10
f 393/510/8 470/511/8 516/512/8 469/513/8
f 470/511/8 391/514/8 472/515/8 516/512/8
f 516/512/8 472/515/8 392/516/8 471/517/8
f 469/513/8 516/512/8 471/517/8 394/518/8
f 391/514/9 473/519/9 517/520/9 472/515/9
f 473/519/9 388/521/9 466/522/9 517/520/9
f 517/520/9 466/522/9 389/523/9 474/524/9
f 472/515/9 517/520/9 474/524/9 392/516/9
f 394/518/10 471/517/10 518/525/10 468/526/10
f 471/517/10 392/516/10 474/524/10 518/525/10
f 518/525/10 474/524/10 389/523/10 467/527/10
f 468/526/10 518/525/10 467/527/10 390/528/10
f 402/529/8 483/530/8 519/531/8 486/532/8
f 483/530/8 397/533/8 479/534/8 519/531/8
f 519/531/8 479/534/8 398/535/8 478/536/8
f 486/532/8 519/531/8 478/536/8 403/537/8
f 397/533/9 480/538/9 520/539/9 479/534/9
f 480/538/9 395/540/9 475/541/9 520/539/9
f 520/539/9 475/541/9 396/542/9 481/543/9
f 479/534/9 520/539/9 481/543/9 398/535/9
f 403/537/10 478/536/10 521/544/10 485/545/10
f 478/536/10 398/535/10 481/543/10 521/544/10
f 521/544/10 481/543/10 396/542/10 482/546/10
f 485/545/10 521/544/10 482/546/10 401/547/10
f 403/537/8 492/548/8 522/549/8 484/550/8
f 492/548/8 407/551/8 489/552/8 522/549/8
f 522/549/8 489/552/8 406/553/8 491/554/8
f 484/550/8 522/549/8 491/554/8 400/555/8
f 399/556/8 477/557/8 523/558/8 476/559/8
f 477/557/8 402/529/8 486/532/8 523/558/8
f 523/558/8 486/532/8 403/537/8 484/550/8
f 476/559/8 523/558/8 484/550/8 400/555/8
f 406/553/10 489/552/10 524/560/10 488/561/10
f 489/552/10 407/551/10 490/562/10 524/560/10
f 524/560/10 490/562/10 404/563/10 487/564/10
f 488/561/10 524/560/10 487/564/10 405/565/10
f 401/547/11 493/566/11 525/567/11 485/545/11
f 493/566/11 404/563/11 490/562/11 525/567/11
f 525/567/11 490/562/11 407/551/11 492/548/11
f 485/545/11 525/567/11 492/548/11 403/537/11
f 370/442/10 440/441/10 526/568/10 438/569/10
f 440/441/10 369/440/10 495/570/10 526/568/10
f 526/568/10 495/570/10 409/571/10 497/572/10
f 438/569/10 526/568/10 497/572/10 408/573/10
