# Blender 4.0.2
# www.blender.org
o room.001
v -1.500000 -2.500000 -1.500000
v -1.500000 -1.217863 -1.500000
v -1.500000 0.015807 -1.500000
v 0.210225 -2.500000 -1.500000
v 0.210225 -0.322509 -1.500000
v 0.210225 -0.031526 -1.500000
v -3.197998 0.015807 -1.500000
v 0.210225 -0.322509 -1.002082
v 0.210225 -0.031526 -1.002082
v -1.500000 0.015807 -1.002082
v -3.197998 0.015807 -1.002082
v 0.210225 -0.322509 0.684728
v 0.210225 -0.031526 0.684728
v -1.500000 0.015807 0.684728
v -3.197998 0.015807 0.684728
v 0.210225 -0.322509 1.849988
v 0.210225 -0.031526 1.849988
v -1.500000 1.664711 -1.500000
v 0.210225 1.640499 -1.500000
v -3.197998 1.664711 -1.500000
v -0.644887 -0.007860 -1.500000
v -0.644887 -0.007860 -1.002082
v -0.644887 -0.007860 0.684728
v -0.644887 -0.007860 1.849988
v -0.644887 1.652605 -1.500000
v 1.395499 -0.771200 -1.500000
v 1.395499 0.430243 -1.500000
v 1.395499 1.876704 -1.500000
v -4.925456 0.612013 -1.500000
v -4.925457 3.391407 -1.500000
v -4.925457 1.969684 -1.500000
v -4.932041 -0.426671 -1.500000
v -1.500000 -1.858932 -1.500000
v -0.644887 -2.500000 -1.500000
v 0.210225 -0.322509 -1.251041
v -1.500000 -1.217863 1.000000
v -1.500000 0.840259 -1.500000
v -0.644887 -0.770186 -1.500000
v -0.217331 -0.019693 -1.500000
v 0.210225 -1.411255 -1.500000
v 0.210225 -0.177018 -1.500000
v 0.210225 0.804486 -1.500000
v 0.210225 -0.031526 -1.251041
v -1.500000 0.015807 -1.251041
v -3.197998 0.840259 -1.500000
v -3.197998 0.015807 -1.251041
v -2.348999 0.015807 -1.500000
v -6.506856 1.157810 -1.500000
v -4.061728 3.391407 -1.500000
v 0.210225 -0.322509 -0.158677
v 0.210225 -0.031526 -0.158677
v -1.500000 0.015807 -0.158677
v -3.197998 0.015807 -0.158677
v -2.348999 0.015807 -1.002082
v -0.217331 -0.019693 -1.002082
v 0.210225 -0.177018 -1.002082
v 0.210225 -0.322509 1.267358
v 0.210225 -0.031526 1.267358
v -1.500000 0.015807 1.267358
v 0.210225 -0.177018 0.684728
v -2.348999 0.015807 0.684728
v -0.217331 -0.019693 0.684728
v 0.210225 -0.322509 2.674994
v 0.210225 -0.031526 2.674994
v 0.210225 -0.177018 1.849988
v -0.217331 -0.019693 1.849988
v -6.510149 -0.829357 -1.500000
v -1.500000 2.528059 -1.500000
v 0.210225 2.515953 -1.500000
v -3.197998 2.528059 -1.500000
v -1.072444 1.658658 -1.500000
v 0.802862 1.758601 -1.500000
v -2.348999 1.664711 -1.500000
v -1.072444 0.003973 -1.500000
v -1.072444 0.003973 -1.002082
v -1.072444 0.003973 0.684728
v -1.072444 0.003973 1.849988
v -0.217331 1.646552 -1.500000
v -0.644887 0.822372 -1.500000
v -0.644887 -0.007860 1.267358
v -0.644887 -0.007860 -0.158677
v -0.644887 -0.007860 -1.251041
v -0.644887 2.522006 -1.500000
v 0.802862 -0.546855 -1.500000
v 0.802862 0.199359 -1.500000
v 1.395499 1.153474 -1.500000
v 1.395499 -1.635600 -1.500000
v 1.395499 -0.170479 -1.500000
v 1.395499 2.634056 -1.500000
v -4.061727 0.313910 -1.500000
v -4.061728 1.817197 -1.500000
v -4.925457 1.290848 -1.500000
v -4.925457 2.680545 -1.500000
v -4.065020 -0.205432 -1.500000
v -4.928749 0.092671 -1.500000
v -2.348999 2.528059 -1.500000
v -1.500000 -1.858932 1.000000
v -0.644887 -1.635093 -1.500000
v -0.217331 2.518979 -1.500000
v 0.210225 -0.177018 -1.251041
v -2.348999 0.015807 -1.251041
v -4.351832 0.067050 -1.500000
v -2.348999 0.015807 -0.158677
v -0.217331 -0.019693 -1.251041
v 0.210225 -0.177018 -0.158677
v 0.210225 -0.177018 1.267358
v -2.348999 0.015807 1.267358
v -0.217331 -0.019693 -0.158677
v 0.210225 -0.177018 2.674994
v -0.217331 -0.019693 1.267358
v -6.506856 1.703341 -1.500000
v -0.217331 0.813429 -1.500000
v -2.348999 0.840259 -1.500000
v -1.072444 0.831316 -1.500000
v -1.072444 0.003973 1.267358
v -1.072444 0.003973 -0.158677
v -1.072444 0.003973 -1.251041
v -1.072444 2.525032 -1.500000
v 0.802862 0.978980 -1.500000
v 0.802862 -1.523427 -1.500000
v 0.802862 -0.173748 -1.500000
v 0.802862 2.575004 -1.500000
v -4.061728 1.065554 -1.500000
v -4.061728 2.604302 -1.500000
v -6.508502 0.164227 -1.500000
v 1.395499 2.895925 -1.500000
v 0.802862 2.954176 -1.500000
v 1.817759 2.854420 -1.500000
v 0.210225 3.012427 -1.500000
v -0.217331 3.054452 -1.500000
v -0.644887 3.096478 -1.500000
v -2.348999 3.263978 -1.500000
v -1.500000 3.180529 -1.500000
v -1.072444 3.138504 -1.500000
v -3.197998 3.347428 -1.500000
v -3.645430 3.391407 -1.500000
v -4.061728 3.391407 -0.993124
v 1.855518 1.968379 -1.500000
v 1.884115 1.297340 -1.500000
v 1.912483 0.631655 -1.500000
v 1.946537 -0.167439 -1.500000
v 1.981725 -0.993119 -1.500000
v 2.014094 -1.752687 -1.500000
v 2.026151 -2.035606 -1.500000
v 1.825325 2.676885 -1.500000
v 1.395499 -2.255391 -1.500000
v 0.693620 -2.500000 -1.500000
v 0.802862 -2.461928 -1.500000
v -0.644887 -2.500000 -0.465219
v 0.210225 -2.500000 -1.126294
v -1.500000 -2.500000 0.195857
v -1.500000 -2.137494 1.000000
v -1.500000 -1.858932 1.617933
v -1.500000 -1.694680 1.982291
v -4.540337 3.391407 -0.410381
v -0.217331 -0.019693 2.613953
v -0.119557 -0.022399 2.674994
v 0.210225 -0.031526 2.880880
v 0.210225 -0.177018 2.895266
v 0.210225 -0.322509 2.909651
v -0.644887 -0.007860 2.347025
v -1.072444 0.003973 2.080097
v -1.441026 0.014174 1.849988
v -1.500000 0.015807 1.813169
v -2.378113 0.015807 1.267358
v -3.197998 0.015807 0.757739
v -2.348999 0.015807 1.285454
v -1.500000 -1.217863 1.935146
v -6.293337 3.391407 -1.500000
v -6.385907 2.809463 -1.500000
v -6.475947 2.243414 -1.500000
v -6.506856 2.049104 -1.500000
v -6.559666 1.717116 -1.500000
v -6.641255 1.204196 -1.500000
v -6.804550 0.177636 -1.500000
v -6.983963 -0.950261 -1.500000
v -4.925457 3.391407 -0.649761
vn -0.0000 -0.0000 1.0000
vn 1.0000 -0.0000 -0.0000
vn -0.0000 1.0000 -0.0000
vn 0.0277 0.9996 -0.0000
vn -0.0000 -1.0000 -0.0000
vt 0.410100 0.737377
vt 0.405929 0.881606
vt 0.335296 0.874406
vt 0.340460 0.738291
vt 0.402657 0.994758
vt 0.330737 0.994597
vt 0.266384 0.994428
vt 0.272202 0.867974
vt 0.278130 0.739109
vt 0.724905 0.776932
vt 0.798437 0.800173
vt 0.796781 0.956006
vt 0.726798 0.937101
vt 0.796381 0.996600
vt 0.727480 0.994818
vt 0.718851 0.264512
vt 0.802074 0.193210
vt 0.801695 0.355660
vt 0.720153 0.374735
vt 0.801349 0.520203
vt 0.721496 0.488365
vt 0.183884 0.053306
vt 0.425645 0.199779
vt 0.422980 0.291941
vt 0.176747 0.165007
vt 0.717044 0.111582
vt 0.803661 0.052963
vt 0.428243 0.109924
vt 0.501415 0.072978
vt 0.499019 0.201187
vt 0.583495 0.031534
vt 0.582280 0.202785
vt 0.581003 0.382612
vt 0.496533 0.334145
vt 0.267176 -0.001921
vt 0.403569 -0.003916
vt 0.548692 -0.000019
vt 0.489055 0.734233
vt 0.532351 0.732508
vt 0.530257 0.892577
vt 0.486167 0.888687
vt 0.578533 0.730669
vt 0.577355 0.896733
vt 0.576657 0.995055
vt 0.528917 0.994987
vt 0.484182 0.994915
vt 0.539991 0.413973
vt 0.540318 0.388010
vt 0.561029 0.397886
vt 0.560780 0.423297
vt 0.540643 0.362229
vt 0.561276 0.372649
vt 0.580828 0.407327
vt 0.580651 0.432209
vt 0.119753 0.311547
vt 0.034524 0.278791
vt 0.029314 0.234427
vt 0.162275 0.289462
vt 0.028866 0.223193
vt 0.063188 0.200132
vt 0.208657 0.265373
vt 0.375139 0.461824
vt 0.396821 0.469116
vt 0.328865 0.484673
vt 0.307083 0.478086
vt 0.417654 0.476123
vt 0.349840 0.491015
vt 0.288929 0.504392
vt 0.267950 0.498618
vt 0.246206 0.492633
vt 0.155380 0.976620
vt 0.064703 0.987015
vt 0.083031 0.960545
vt 0.167116 0.781208
vt 0.161321 0.877699
vt 0.083353 0.884538
vt 0.083626 0.812869
vt 0.230906 0.556062
vt 0.215072 0.527166
vt 0.234353 0.487755
vt 0.177798 0.603354
vt 0.181572 0.537496
vt 0.185279 0.472795
vt 0.201230 0.403336
vt 0.294632 0.434748
vt 0.226626 0.453757
vt 0.134106 0.425781
vt 0.166265 0.470629
vt 0.075061 0.445524
vt 0.494265 0.455483
vt 0.473780 0.447609
vt 0.515906 0.435837
vt 0.536123 0.444205
vt 0.452408 0.439396
vt 0.494785 0.427095
vt 0.369144 0.337350
vt 0.370243 0.306909
vt 0.462472 0.350889
vt 0.461819 0.378914
vt 0.371333 0.276721
vt 0.463120 0.323077
vt 0.210682 0.230822
vt 0.295901 0.271459
vt 0.294395 0.303826
vt 0.212688 0.196599
vt 0.297393 0.239379
vt 0.127458 0.378525
vt 0.061650 0.403871
vt 0.066177 0.443079
vt 0.059678 0.404630
vt 0.372581 0.408716
vt 0.415641 0.394336
vt 0.279031 0.372762
vt 0.322373 0.355730
vt 0.066221 0.161936
vt 0.069221 0.124143
vt 0.204420 0.344087
vt 0.247583 0.324773
vt 0.172519 0.691250
vt 0.086713 0.746329
vt 0.091383 0.680306
vt 0.083701 0.788903
vt 0.084246 0.747913
vt 0.085025 0.685968
vt 0.534273 0.585611
vt 0.491708 0.592293
vt 0.579613 0.578494
vt 0.799933 0.657410
vt 0.723168 0.629914
vt 0.413942 0.604501
vt 0.345227 0.612641
vt 0.283613 0.619939
vt 0.454844 0.466103
vt 0.451670 0.598578
vt 0.448381 0.735853
vt 0.164495 0.361952
vt 0.238755 0.388589
vt 0.049749 0.352390
vt 0.049489 0.348039
vt 0.080627 0.331867
vt 0.332334 0.422157
vt 0.412602 0.450950
vt 0.434157 0.458682
vt 0.041804 0.317941
vt 0.444807 0.885037
vt 0.442176 0.994838
vt 0.647372 0.458811
vt 0.647645 0.602862
vt 0.647929 0.752603
vt 0.634886 0.005585
vt 0.646512 0.005935
vt 0.646803 0.159118
vt 0.647120 0.325967
vt 0.647245 0.391790
vt 0.648239 0.915881
vt 0.648389 0.994986
vt 0.225504 0.657239
vt 0.219955 0.761170
vt 0.213980 0.873081
vt 0.235901 0.994512
vt 0.207830 0.988275
vt 0.152640 0.995379
vt 0.061472 0.996009
vt 0.099610 0.562928
vt 0.107586 0.449111
vt 0.086475 0.567003
vt 0.087876 0.443103
vt 0.059139 0.403112
vt 0.715802 0.006463
vt 0.804275 0.002630
vt 0.017342 0.179571
vt 0.017572 0.138737
vt 0.087712 -0.004961
vt 0.186890 0.006263
vt 0.027345 0.087989
vt 0.028126 -0.007659
vt 0.017816 0.098182
s 0
f 18/1/1 68/2/1 96/3/1 73/4/1
f 68/2/1 133/5/1 132/6/1 96/3/1
f 96/3/1 132/6/1 135/7/1 70/8/1
f 73/4/1 96/3/1 70/8/1 20/9/1
f 28/10/1 138/11/1 145/12/1 89/13/1
f 89/13/1 145/12/1 128/14/1 126/15/1
f 26/16/1 142/17/1 141/18/1 88/19/1
f 88/19/1 141/18/1 140/20/1 27/21/1
f 97/22/2 33/23/2 2/24/2 36/25/2
f 87/26/1 143/27/1 142/17/1 26/16/1
f 1/28/1 34/29/1 98/30/1 33/23/1
f 34/29/1 4/31/1 40/32/1 98/30/1
f 98/30/1 40/32/1 5/33/1 38/34/1
f 33/23/1 98/30/1 38/34/1 2/24/1
f 1/28/3 151/35/3 149/36/3 34/29/3
f 34/29/3 149/36/3 150/37/3 4/31/3
f 25/38/1 78/39/1 99/40/1 83/41/1
f 78/39/1 19/42/1 69/43/1 99/40/1
f 99/40/1 69/43/1 129/44/1 130/45/1
f 83/41/1 99/40/1 130/45/1 131/46/1
f 9/47/2 56/48/2 100/49/2 43/50/2
f 56/48/2 8/51/2 35/52/2 100/49/2
f 100/49/2 35/52/2 5/33/2 41/53/2
f 43/50/2 100/49/2 41/53/2 6/54/2
f 24/55/4 161/56/4 156/57/4 66/58/4
f 66/58/4 156/57/4 157/59/4 64/60/4 17/61/4
f 10/62/3 44/63/3 101/64/3 54/65/3
f 44/63/3 3/66/3 47/67/3 101/64/3
f 101/64/3 47/67/3 7/68/3 46/69/3
f 54/65/3 101/64/3 46/69/3 11/70/3
f 30/71/5 177/72/5 169/73/5
f 31/74/1 93/75/1 170/76/1 171/77/1
f 93/75/1 30/71/1 169/73/1 170/76/1
f 7/68/1 90/78/1 102/79/1 94/80/1
f 29/81/1 95/82/1 102/79/1 90/78/1
f 32/83/1 94/80/1 102/79/1 95/82/1
f 14/84/3 52/85/3 103/86/3 61/87/3
f 52/85/3 10/62/3 54/65/3 103/86/3
f 103/86/3 54/65/3 11/70/3 53/88/3
f 61/87/3 103/86/3 53/88/3 15/89/3
f 21/90/4 82/91/4 104/92/4 39/93/4
f 82/91/4 22/94/4 55/95/4 104/92/4
f 104/92/4 55/95/4 9/47/4 43/50/4
f 39/93/4 104/92/4 43/50/4 6/54/4
f 13/96/2 60/97/2 105/98/2 51/99/2
f 60/97/2 12/100/2 50/101/2 105/98/2
f 105/98/2 50/101/2 8/51/2 56/48/2
f 51/99/2 105/98/2 56/48/2 9/47/2
f 17/61/2 65/102/2 106/103/2 58/104/2
f 65/102/2 16/105/2 57/106/2 106/103/2
f 106/103/2 57/106/2 12/100/2 60/97/2
f 58/104/2 106/103/2 60/97/2 13/96/2
f 59/107/3 14/84/3 61/87/3 107/108/3
f 107/108/3 61/87/3 15/89/3 166/109/3 165/110/3
f 22/94/4 81/111/4 108/112/4 55/95/4
f 81/111/4 23/113/4 62/114/4 108/112/4
f 108/112/4 62/114/4 13/96/4 51/99/4
f 55/95/4 108/112/4 51/99/4 9/47/4
f 109/115/2 63/116/2 16/105/2 65/102/2
f 64/60/2 109/115/2 65/102/2 17/61/2
f 23/113/4 80/117/4 110/118/4 62/114/4
f 80/117/4 24/55/4 66/58/4 110/118/4
f 110/118/4 66/58/4 17/61/4 58/104/4
f 62/114/4 110/118/4 58/104/4 13/96/4
f 29/81/1 92/119/1 111/120/1 48/121/1
f 92/119/1 31/74/1 171/77/1 172/122/1 111/120/1
f 111/120/1 172/122/1 173/123/1
f 48/121/1 111/120/1 173/123/1 174/124/1
f 21/90/1 39/93/1 112/125/1 79/126/1
f 39/93/1 6/54/1 42/127/1 112/125/1
f 112/125/1 42/127/1 19/42/1 78/39/1
f 79/126/1 112/125/1 78/39/1 25/38/1
f 27/21/1 140/20/1 139/128/1 86/129/1
f 86/129/1 139/128/1 138/11/1 28/10/1
f 3/66/1 37/130/1 113/131/1 47/67/1
f 37/130/1 18/1/1 73/4/1 113/131/1
f 113/131/1 73/4/1 20/9/1 45/132/1
f 47/67/1 113/131/1 45/132/1 7/68/1
f 3/66/1 74/133/1 114/134/1 37/130/1
f 74/133/1 21/90/1 79/126/1 114/134/1
f 114/134/1 79/126/1 25/38/1 71/135/1
f 37/130/1 114/134/1 71/135/1 18/1/1
f 14/84/4 59/107/4 115/136/4 76/137/4
f 59/107/4 164/138/4 163/139/4 77/140/4 115/136/4
f 115/136/4 77/140/4 24/55/4 80/117/4
f 76/137/4 115/136/4 80/117/4 23/113/4
f 10/62/4 52/85/4 116/141/4 75/142/4
f 52/85/4 14/84/4 76/137/4 116/141/4
f 116/141/4 76/137/4 23/113/4 81/111/4
f 75/142/4 116/141/4 81/111/4 22/94/4
f 3/66/4 44/63/4 117/143/4 74/133/4
f 44/63/4 10/62/4 75/142/4 117/143/4
f 117/143/4 75/142/4 22/94/4 82/91/4
f 74/133/4 117/143/4 82/91/4 21/90/4
f 77/140/4 162/144/4 161/56/4 24/55/4
f 18/1/1 71/135/1 118/145/1 68/2/1
f 71/135/1 25/38/1 83/41/1 118/145/1
f 118/145/1 83/41/1 131/46/1 134/146/1
f 68/2/1 118/145/1 134/146/1 133/5/1
f 6/54/1 85/147/1 119/148/1 42/127/1
f 85/147/1 27/21/1 86/129/1 119/148/1
f 119/148/1 86/129/1 28/10/1 72/149/1
f 42/127/1 119/148/1 72/149/1 19/42/1
f 4/31/1 147/150/1 148/151/1 120/152/1 40/32/1
f 120/152/1 87/26/1 26/16/1 84/153/1
f 40/32/1 120/152/1 84/153/1 5/33/1
f 4/31/3 150/37/3 147/150/3
f 5/33/1 84/153/1 121/154/1 41/53/1
f 84/153/1 26/16/1 88/19/1 121/154/1
f 121/154/1 88/19/1 27/21/1 85/147/1
f 41/53/1 121/154/1 85/147/1 6/54/1
f 19/42/1 72/149/1 122/155/1 69/43/1
f 72/149/1 28/10/1 89/13/1 122/155/1
f 122/155/1 89/13/1 126/15/1 127/156/1
f 69/43/1 122/155/1 127/156/1 129/44/1
f 7/68/1 45/132/1 123/157/1 90/78/1
f 45/132/1 20/9/1 91/158/1 123/157/1
f 123/157/1 91/158/1 31/74/1 92/119/1
f 90/78/1 123/157/1 92/119/1 29/81/1
f 20/9/1 70/8/1 124/159/1 91/158/1
f 70/8/1 135/7/1 136/160/1 49/161/1 124/159/1
f 124/159/1 49/161/1 30/71/1 93/75/1
f 91/158/1 124/159/1 93/75/1 31/74/1
f 49/161/5 137/162/5 155/163/5 177/72/5 30/71/5
f 32/83/1 95/82/1 125/164/1 67/165/1
f 95/82/1 29/81/1 48/121/1 125/164/1
f 125/164/1 48/121/1 174/124/1 175/166/1
f 67/165/1 125/164/1 175/166/1 176/167/1
f 167/168/3 164/138/3 59/107/3 107/108/3
f 146/169/1 144/170/1 143/27/1 87/26/1
f 136/160/5 137/162/5 49/161/5
f 148/151/1 146/169/1 87/26/1 120/152/1
f 158/171/2 159/172/2 109/115/2 64/60/2
f 153/173/2 152/174/2 97/22/2
f 165/110/3 167/168/3 107/108/3
f 163/139/4 162/144/4 77/140/4
f 152/174/2 151/35/2 1/28/2 33/23/2 97/22/2
f 168/175/2 154/176/2 153/173/2 97/22/2 36/25/2
f 157/59/4 158/171/4 64/60/4
f 159/172/2 160/177/2 63/116/2 109/115/2
o items.001
v -1.500000 -1.219335 0.813197
v -1.164303 -2.242494 0.034811
v 0.534196 -0.815696 -0.680998
v 0.490780 -0.815696 -1.500000
v 1.374553 -0.815696 -1.500000
v 0.744273 0.842945 -0.872106
v 0.598806 2.046249 -1.500000
v 1.347278 0.842945 -0.872106
v 1.415691 0.842945 -1.500000
v 1.415691 2.046249 -1.500000
v -0.376466 1.207507 -1.177283
v -0.376466 1.704820 -1.177283
v -0.376466 1.149513 -1.500000
v -0.376466 1.794849 -1.500000
v -0.078228 1.207507 -1.177283
v -0.078228 1.704820 -1.177283
v -0.078228 1.149513 -1.500000
v -0.078228 1.794849 -1.500000
v -0.341324 1.125243 -1.120845
v -0.113370 1.125243 -1.120845
v 0.744273 0.667564 -0.791255
v 1.347278 0.667564 -0.791255
v 0.598806 0.842945 -0.872106
v 1.415691 0.842945 -0.872105
v -3.461029 0.842945 -0.872106
v -3.478214 1.712156 -0.872106
v -3.478214 2.036622 -1.500000
v -4.064034 0.842945 -0.872106
v -4.295099 1.712156 -0.872106
v -4.295099 2.036622 -1.500000
v -2.502942 1.197880 -1.177283
v -2.502942 1.695194 -1.177283
v -2.502942 1.139886 -1.500000
v -2.502942 1.785222 -1.500000
v -2.801180 1.197880 -1.177283
v -2.801180 1.695194 -1.177283
v -2.801180 1.139886 -1.500000
v -2.801180 1.785222 -1.500000
v -2.538084 1.115617 -1.120845
v -2.766038 1.115617 -1.120845
v -3.461029 0.667564 -0.791255
v -4.064034 0.667564 -0.791255
v -3.478214 0.833319 -0.872106
v -4.295099 0.833319 -0.872106
v -3.478214 0.833319 -1.500000
v 0.943872 -0.973634 -1.090499
v 1.374553 -0.815696 -0.680998
v -1.224925 -1.175594 0.755167
v -1.322067 -1.126791 0.755167
v -1.322067 -1.126791 0.034811
v -1.235093 -1.216868 0.034811
v -1.164303 -2.242494 0.409200
v -1.322067 -1.126791 0.409200
v -1.164303 -1.267026 0.409200
v 0.598806 1.624268 -0.872106
v 0.598806 1.754855 -0.936106
v 1.415691 1.754855 -0.936106
v 1.415691 1.624267 -0.872105
v -1.500000 -1.730915 0.813197
v -1.164303 -2.242494 0.222006
v 0.483249 -1.657848 -0.680998
v 1.374553 -1.657848 -1.500000
v 1.374553 -0.815696 -1.090499
v 1.374553 -1.657848 -0.680998
v 0.954375 -0.815696 -0.680998
v 1.007249 2.046249 -1.500000
v 1.415691 1.444597 -1.500000
v 1.007249 0.842945 -0.872106
v -0.376466 1.178510 -1.338642
v -0.376466 1.456163 -1.177283
v -0.376466 1.749835 -1.338642
v -0.227347 1.149513 -1.500000
v -0.227347 1.794849 -1.500000
v -0.078228 1.472180 -1.500000
v -0.078228 1.178510 -1.338642
v -0.078228 1.749835 -1.338642
v -0.078228 1.456163 -1.177283
v -0.227347 1.207506 -1.177283
v -0.227347 1.704820 -1.177283
v -0.227347 1.125243 -1.120845
v -0.095798 1.166375 -1.149064
v -0.358895 1.166375 -1.149064
v 1.045775 0.667564 -0.791255
v 1.347278 0.755255 -0.831680
v 0.744273 0.755255 -0.831680
v 1.045775 0.842945 -0.872106
v 1.415691 0.842945 -1.186053
v -3.478214 1.272738 -0.872106
v -3.478214 1.874389 -1.186053
v -3.886657 2.036623 -1.500000
v -4.295099 1.874389 -1.186053
v -3.886657 0.833319 -0.872106
v -3.886657 1.712157 -0.872106
v -2.502942 1.168883 -1.338641
v -2.502942 1.446537 -1.177283
v -2.502942 1.740208 -1.338641
v -2.652061 1.139886 -1.500000
v -2.652061 1.785223 -1.500000
v -2.801180 1.168883 -1.338641
v -2.801180 1.740208 -1.338641
v -2.801180 1.446537 -1.177283
v -2.652061 1.197880 -1.177283
v -2.652061 1.695194 -1.177283
v -2.652061 1.115617 -1.120845
v -2.783609 1.156749 -1.149064
v -2.520513 1.156749 -1.149064
v -3.762531 0.667564 -0.791255
v -4.064034 0.755255 -0.831680
v -3.461029 0.755255 -0.831680
v -3.762531 0.842945 -0.872106
v -4.295099 1.272738 -0.872106
v -2.502942 1.462554 -1.500000
v -3.478214 0.833319 -1.186053
v -3.478214 1.434970 -1.500000
v 0.512488 -0.815696 -1.090499
v 0.932666 -0.815696 -1.500000
v 1.159213 -0.894665 -1.295249
v 0.739034 -0.894665 -0.885748
v 0.717326 -0.894665 -1.295249
v 1.159213 -0.894665 -0.885748
v -1.278580 -1.171829 0.034811
v -1.322067 -1.126791 0.582184
v -1.273496 -1.151192 0.755167
v -1.199698 -1.241947 0.222006
v -1.411034 -1.173063 0.784182
v -1.199698 -1.729681 0.034811
v -1.194614 -1.709044 0.784182
v -1.322067 -1.126791 0.222006
v -1.194614 -1.221310 0.582184
v -1.243185 -1.196908 0.409200
v -1.164303 -1.754760 0.409200
v 1.415691 1.689561 -0.904106
v 1.007249 1.754855 -0.936106
v 0.598806 1.689562 -0.904106
v 1.007249 1.624268 -0.872106
v 1.415691 1.233606 -0.872105
v 0.598806 1.233607 -0.872106
v 1.415691 1.900552 -1.218053
v 0.598806 1.900552 -1.218053
v -1.342259 -1.601342 0.789985
v -1.179458 -1.731902 0.596691
v 1.374553 -1.657848 -1.090499
v 0.928901 -1.657848 -0.680998
v 1.007249 1.900552 -1.218053
v 1.415691 1.422252 -1.136063
v -0.078228 1.464172 -1.338641
v -0.227347 1.456163 -1.177283
v -0.227347 1.178509 -1.338641
v -0.227347 1.749834 -1.338641
v -0.227347 1.166375 -1.149063
v 1.045775 0.755255 -0.831680
v -3.886657 1.272737 -0.872106
v -3.886657 1.874389 -1.186053
v -2.652061 1.446537 -1.177283
v -2.652061 1.168883 -1.338641
v -2.652061 1.740208 -1.338641
v -2.652061 1.156748 -1.149064
v -3.762531 0.755255 -0.831680
v -2.502942 1.454545 -1.338641
v -3.478214 1.353854 -1.186053
v 0.656283 -0.868342 -1.090499
v 0.936402 -0.868342 -1.363500
v 1.230993 -0.868342 -1.090499
v 0.950874 -0.868342 -0.817498
v -1.258341 -1.174050 0.582184
v -1.260883 -1.184369 0.222006
v -1.182000 -1.742221 0.222006
v 1.007249 1.689561 -0.904106
v 1.007249 1.233606 -0.872106
v 1.374553 -2.262691 -1.500000
v 1.374553 -2.078089 -1.090499
v 1.374553 -1.893488 -0.680998
v 0.916949 -2.052965 -0.680998
v 0.449490 -2.215877 -0.680998
v -1.164303 -2.242494 0.507558
v -1.165658 -2.196831 0.609901
v -1.171799 -2.110560 0.806021
v -1.333375 -2.164902 0.810388
v -1.500000 -2.221705 0.813197
vn 0.0711 0.0618 0.9956
vn 0.1963 0.0634 0.9785
vn 0.1933 0.0202 0.9809
vn 0.9991 0.0154 0.0389
vn 0.9924 0.0168 0.1220
vn 0.9921 0.0480 0.1160
vn 1.0000 -0.0000 -0.0000
vn -0.0000 -0.0000 1.0000
vn -0.0000 0.8884 0.4591
vn -0.0000 -0.9842 0.1769
vn -0.0000 0.9632 0.2687
vn -0.0000 0.5657 0.8246
vn -0.0000 0.4187 0.9081
vn 0.3437 0.9389 -0.0182
vn -0.0000 0.9330 0.3598
vn -0.3443 0.9389 -0.0000
vn -0.0000 0.9330 -0.3598
vn 0.6353 0.7719 -0.0232
vn 0.5377 0.8425 -0.0321
vn 0.5355 0.8391 -0.0959
vn 0.6340 0.7702 -0.0694
vn 0.7000 0.7141 -0.0092
vn 0.6737 0.7390 -0.0071
vn 0.6736 0.7388 -0.0213
vn 0.6998 0.7138 -0.0275
vn 0.9976 0.0523 -0.0454
vn 0.9895 0.0519 -0.1351
vn 0.9902 0.0177 -0.1386
vn 0.9988 0.0179 -0.0466
vn -0.0000 0.4401 0.8980
vn 0.0406 0.0450 0.9982
vn 0.9981 0.0439 0.0429
vn 0.0686 0.0199 0.9974
vt 0.228781 0.174825
vt 0.224344 0.181393
vt 0.218975 0.103864
vt 0.233324 0.077842
vt 0.219935 0.187918
vt 0.209476 0.182067
vt 0.199130 0.176281
vt 0.204470 0.088263
vt 0.282265 0.013100
vt 0.278196 0.094166
vt 0.256135 0.086140
vt 0.260056 0.005910
vt 0.271639 0.005762
vt 0.274032 0.177133
vt 0.251743 0.175996
vt 0.714403 0.108803
vt 0.716104 0.257321
vt 0.685860 0.234188
vt 0.684737 0.080261
vt 0.653055 0.209097
vt 0.652615 0.049356
vt 0.599734 0.228460
vt 0.597407 0.075292
vt 0.550073 0.246494
vt 0.546119 0.099385
vt 0.728097 0.812326
vt 0.673818 0.810312
vt 0.651050 0.779641
vt 0.705893 0.780585
vt 0.623155 0.808432
vt 0.599948 0.778762
vt 0.575599 0.747633
vt 0.627121 0.747407
vt 0.682516 0.747164
vt 0.725125 0.568169
vt 0.726587 0.688304
vt 0.698431 0.678294
vt 0.701341 0.559802
vt 0.679720 0.732584
vt 0.676915 0.717956
vt 0.676436 0.633500
vt 0.675967 0.550877
vt 0.548040 0.643037
vt 0.547395 0.700735
vt 0.533974 0.697414
vt 0.534645 0.645574
vt 0.546740 0.759314
vt 0.533295 0.749964
vt 0.519475 0.740354
vt 0.520159 0.693996
vt 0.520834 0.648191
vt 0.504340 0.694688
vt 0.505101 0.649406
vt 0.503570 0.740512
vt 0.488032 0.740665
vt 0.488884 0.695365
vt 0.489726 0.650594
vt 0.517248 0.645483
vt 0.532472 0.644273
vt 0.518993 0.646801
vt 0.503693 0.648000
vt 0.530952 0.759252
vt 0.517447 0.750009
vt 0.515518 0.759192
vt 0.501959 0.750053
vt 0.489191 0.642622
vt 0.502771 0.641492
vt 0.488653 0.634604
vt 0.500433 0.633552
vt 0.512423 0.632482
vt 0.516629 0.640338
vt 0.666617 0.552123
vt 0.626740 0.557438
vt 0.623277 0.538515
vt 0.663134 0.532677
vt 0.588910 0.562480
vt 0.585469 0.544053
vt 0.582017 0.525559
vt 0.619801 0.519523
vt 0.659638 0.513159
vt 0.157881 0.618600
vt 0.182940 0.615227
vt 0.179193 0.678432
vt 0.154022 0.680283
vt 0.209281 0.611681
vt 0.205662 0.676487
vt 0.201980 0.742408
vt 0.175382 0.742699
vt 0.150100 0.742975
vt 0.203816 0.791527
vt 0.177469 0.767713
vt 0.202939 0.768057
vt 0.229442 0.792445
vt 0.229708 0.768418
vt 0.256349 0.793409
vt 0.281199 0.665253
vt 0.292129 0.664394
vt 0.290426 0.702574
vt 0.279458 0.703069
vt 0.303273 0.663519
vt 0.301609 0.702070
vt 0.299928 0.741012
vt 0.288705 0.741138
vt 0.277699 0.741261
vt 0.331795 0.658774
vt 0.317718 0.661116
vt 0.306578 0.662003
vt 0.320663 0.659672
vt 0.295649 0.662873
vt 0.309739 0.660554
vt 0.305658 0.756917
vt 0.291837 0.749178
vt 0.302854 0.749132
vt 0.316682 0.756946
vt 0.314085 0.749086
vt 0.327919 0.756976
vt 0.289882 0.657750
vt 0.299695 0.656920
vt 0.280235 0.658565
vt 0.279266 0.651845
vt 0.287628 0.651087
vt 0.296116 0.650319
vt 0.171823 0.618071
vt 0.168862 0.605072
vt 0.187732 0.602308
vt 0.190725 0.615552
vt 0.165893 0.592040
vt 0.184732 0.589030
vt 0.204286 0.585906
vt 0.207317 0.599439
vt 0.210340 0.612937
vt 0.329870 0.707561
vt 0.315912 0.704849
vt 0.264698 0.621214
vt 0.260571 0.706347
vt 0.233702 0.691735
vt 0.237617 0.616555
vt 0.632251 0.223938
vt 0.621692 0.258341
vt 0.598532 0.254510
vt 0.591365 0.235161
vt 0.611840 0.290441
vt 0.582178 0.269337
vt 0.674183 0.240632
vt 0.652433 0.258009
vt 0.662173 0.274452
vt 0.642232 0.216818
vt 0.667516 0.230681
vt 0.610899 0.226908
vt 0.259130 0.208102
vt 0.239847 0.198172
vt 0.245772 0.187127
vt 0.266548 0.192687
vt 0.298846 0.228556
vt 0.279322 0.218501
vt 0.285067 0.206253
vt 0.302936 0.219342
vt 0.290852 0.193924
vt 0.307043 0.210088
vt 0.320684 0.039630
vt 0.313925 0.124081
vt 0.296379 0.109390
vt 0.301793 0.026585
vt 0.624340 0.733356
vt 0.572837 0.734074
vt 0.570067 0.720474
vt 0.621550 0.719261
vt 0.621674 0.637827
vt 0.621795 0.558097
vt 0.570712 0.641853
vt 0.571344 0.564822
vt 0.684200 0.006660
vt 0.713231 0.006426
vt 0.652498 0.006603
vt 0.222999 0.005994
vt 0.236689 0.005998
vt 0.209468 0.005874
vt 0.543625 0.006607
vt 0.596365 0.006730
s 0
f 225/178/6 300/179/6 317/180/6 304/181/6
f 226/182/7 302/183/7 317/180/7 300/179/7
f 178/184/8 236/185/8 317/180/8 302/183/8
f 229/186/9 308/187/9 318/188/9 353/189/9 352/190/9
f 308/187/10 231/191/10 306/192/10 318/188/10
f 318/188/11 306/192/11 225/178/11 304/181/11
f 239/193/12 182/194/12 240/195/12 319/196/12
f 319/196/12 240/195/12 224/197/12 241/198/12
f 241/198/13 224/197/13 242/199/13 320/200/13
f 320/200/13 242/199/13 180/201/13 238/202/13
f 187/203/14 243/204/14 321/205/14 315/206/14
f 243/204/14 184/207/14 316/208/14 321/205/14
f 321/205/14 316/208/14 233/209/14 310/210/14
f 315/206/14 321/205/14 310/210/14 234/211/14
f 186/212/12 244/213/12 322/214/12 264/215/12
f 187/203/12 315/206/12 322/214/12 244/213/12
f 234/211/12 309/216/12 322/214/12 315/206/12
f 235/217/12 313/218/12 322/214/12 309/216/12
f 201/219/12 264/215/12 322/214/12 313/218/12
f 194/220/12 251/221/12 323/222/12 252/223/12
f 251/221/12 195/224/12 253/225/12 323/222/12
f 323/222/12 253/225/12 193/226/12 254/227/12
f 252/223/12 323/222/12 254/227/12 192/228/12
f 192/228/13 254/227/13 324/229/13 255/230/13
f 254/227/13 193/226/13 256/231/13 324/229/13
f 324/229/13 256/231/13 189/232/13 247/233/13
f 255/230/13 324/229/13 247/233/13 188/234/13
f 190/235/15 249/236/15 325/237/15 246/238/15
f 249/236/15 194/220/15 252/223/15 325/237/15
f 325/237/15 252/223/15 192/228/15 255/230/15
f 246/238/15 325/237/15 255/230/15 188/234/15
f 195/224/16 250/239/16 326/240/16 253/225/16
f 250/239/16 191/241/16 248/242/16 326/240/16
f 326/240/16 248/242/16 189/232/16 256/231/16
f 253/225/16 326/240/16 256/231/16 193/226/16
f 188/234/17 259/243/17 327/244/17 255/230/17
f 259/243/17 196/245/17 257/246/17 327/244/17
f 327/244/17 257/246/17 197/247/17 258/248/17
f 255/230/17 327/244/17 258/248/17 192/228/17
f 185/249/18 263/250/18 328/251/18 261/252/18
f 263/250/18 183/253/18 262/254/18 328/251/18
f 328/251/18 262/254/18 198/255/18 260/256/18
f 261/252/18 328/251/18 260/256/18 199/257/18
f 221/258/13 269/259/13 329/260/13 288/261/13
f 269/259/13 220/262/13 265/263/13 329/260/13
f 329/260/13 265/263/13 203/264/13 270/265/13
f 288/261/13 329/260/13 270/265/13 206/266/13
f 207/267/14 268/268/14 330/269/14 267/270/14
f 268/268/14 206/266/14 270/265/14 330/269/14
f 330/269/14 270/265/14 203/264/14 266/271/14
f 267/270/14 330/269/14 266/271/14 204/272/14
f 212/273/13 279/274/13 331/275/13 278/276/13
f 279/274/13 208/277/13 272/278/13 331/275/13
f 331/275/13 272/278/13 209/279/13 280/280/13
f 278/276/13 331/275/13 280/280/13 213/281/13
f 210/282/15 271/283/15 332/284/15 274/285/15
f 271/283/15 208/277/15 279/274/15 332/284/15
f 332/284/15 279/274/15 212/273/15 276/286/15
f 274/285/15 332/284/15 276/286/15 214/287/15
f 215/288/16 277/289/16 333/290/16 275/291/16
f 277/289/16 213/281/16 280/280/16 333/290/16
f 333/290/16 280/280/16 209/279/16 273/292/16
f 275/291/16 333/290/16 273/292/16 211/293/16
f 208/277/17 279/274/17 334/294/17 283/295/17
f 279/274/17 212/273/17 282/296/17 334/294/17
f 334/294/17 282/296/17 217/297/17 281/298/17
f 283/295/17 334/294/17 281/298/17 216/299/17
f 205/300/18 285/301/18 335/302/18 287/303/18
f 285/301/18 219/304/18 284/305/18 335/302/18
f 335/302/18 284/305/18 218/306/18 286/307/18
f 287/303/18 335/302/18 286/307/18 202/308/18
f 210/282/12 289/309/12 336/310/12 271/283/12
f 289/309/12 211/293/12 273/292/12 336/310/12
f 336/310/12 273/292/12 209/279/12 272/278/12
f 271/283/12 336/310/12 272/278/12 208/277/12
f 222/311/12 291/312/12 337/313/12 290/314/12
f 291/312/12 204/272/12 266/271/12 337/313/12
f 337/313/12 266/271/12 203/264/12 265/263/12
f 290/314/12 337/313/12 265/263/12 220/262/12
f 223/315/19 296/316/19 338/317/19 295/318/19
f 181/319/19 292/320/19 338/317/19 296/316/19
f 180/201/19 295/318/19 338/317/19 292/320/19
f 223/315/20 294/321/20 339/322/20 296/316/20
f 182/194/20 293/323/20 339/322/20 294/321/20
f 181/319/20 296/316/20 339/322/20 293/323/20
f 223/315/21 297/324/21 340/325/21 294/321/21
f 224/197/21 240/195/21 340/325/21 297/324/21
f 182/194/21 294/321/21 340/325/21 240/195/21
f 223/315/22 295/318/22 341/326/22 297/324/22
f 180/201/22 242/199/22 341/326/22 295/318/22
f 224/197/22 297/324/22 341/326/22 242/199/22
f 230/327/23 299/328/23 342/329/23 307/330/23
f 299/328/24 226/182/24 300/179/24 342/329/24
f 342/329/25 300/179/25 225/178/25 306/192/25
f 307/330/26 342/329/26 306/192/26 231/191/26
f 227/331/27 305/332/27 343/333/27 298/334/27
f 305/332/28 230/327/28 307/330/28 343/333/28
f 343/333/29 307/330/29 231/191/29 301/335/29
f 298/334/30 343/333/30 301/335/30 228/336/30
f 179/337/31 303/338/31 344/339/31 237/340/31
f 303/338/32 228/336/32 301/335/32 344/339/32
f 344/339/33 301/335/33 231/191/33 308/187/33
f 237/340/34 344/339/34 308/187/34 229/186/34
f 234/211/35 310/210/35 345/341/35 309/216/35
f 310/210/35 233/209/35 311/342/35 345/341/35
f 345/341/35 311/342/35 232/343/35 312/344/35
f 309/216/35 345/341/35 312/344/35 235/217/35
f 201/219/13 313/218/13 346/345/13 245/346/13
f 313/218/13 235/217/13 312/344/13 346/345/13
f 346/345/13 312/344/13 232/343/13 314/347/13
f 245/346/13 346/345/13 314/347/13 200/348/13
f 348/349/12 347/350/12 239/193/12 319/196/12
f 349/351/12 348/349/12 319/196/12 241/198/12
f 355/352/36 354/353/36 304/181/36 317/180/36
f 354/353/37 353/189/37 318/188/37 304/181/37
f 356/354/38 355/352/38 317/180/38 236/185/38
f 351/355/13 350/356/13 320/200/13 238/202/13
f 350/356/13 349/351/13 241/198/13 320/200/13
o goober-fake-material
v 25.229753 8.278294 29.609266
v 25.218937 8.376342 29.592848
v 25.153227 8.280622 29.673595
v 25.142410 8.378671 29.657177
vn 0.6346 0.1952 0.7478
vt 0.000000 0.000000
s 0
f 357/357/39 358/357/39 360/357/39 359/357/39
