# Blender 4.0.2
# www.blender.org
o Room
v 2.175168 0.000000 1.431660
v 2.175168 3.805101 1.431660
v 2.175168 0.000000 -1.638839
v 2.175168 3.805101 -1.638839
v 2.175168 1.274510 -1.638839
v 2.175092 1.298120 1.430603
v 2.175168 0.854353 -1.638839
v 2.175168 0.898968 1.431660
v 2.119368 1.103986 -1.602076
v 2.119368 1.148601 1.394897
v 2.119368 0.860312 -1.602076
v 2.119368 0.904927 1.394897
v 2.037518 1.298109 1.430595
v 2.037594 1.274510 -1.638839
v 2.037594 1.109945 -1.603330
v 2.037534 1.133111 1.393956
v 2.175168 1.934082 -1.638839
v 2.175168 1.934082 1.431660
v 2.175168 2.662870 -1.638839
v 2.175168 2.662870 1.431660
v 2.175168 3.805101 0.699669
v 2.175148 1.286902 0.456920
v 2.119349 1.118948 0.681389
v 2.037561 1.289675 0.698653
v 2.037575 1.125121 0.700549
v 2.175168 1.934082 0.457928
v 2.175168 2.662870 0.459100
v 2.175206 1.275408 -0.540581
v 2.119442 1.113236 -0.918740
v 2.037656 1.283511 -0.940732
v 2.037670 1.118957 -0.938836
v 2.175168 1.934082 -0.539681
v 2.175168 2.662870 -0.541621
v 2.175168 3.805101 -0.939824
v 2.175168 3.805101 -0.106187
v 2.175181 1.285001 -0.107143
v 2.119395 1.114484 -0.105119
v 2.037608 1.284989 -0.107150
v 2.037621 1.120435 -0.105254
v 2.175168 1.934082 -0.106187
v 2.175168 2.662870 -0.106187
v 2.104419 1.991492 0.400610
v 2.104419 2.605460 0.401598
v 2.104419 1.991492 -0.106187
v 2.104419 1.991492 -0.482424
v 2.104419 2.605460 -0.106187
v 2.104419 2.605460 -0.484058
v 2.104419 1.934082 0.457928
v 2.104419 2.662870 0.459100
v 2.104419 1.934082 -0.106187
v 2.104419 1.934082 -0.539681
v 2.104419 2.662870 -0.106187
v 2.104419 2.662870 -0.541621
v -2.152624 1.274510 1.431660
v -2.152624 1.140633 1.420875
v -2.152624 0.904927 1.394897
v -2.152624 1.136422 1.394897
v -2.367944 1.668823 1.431660
v -2.367944 2.426585 1.431660
v -2.679688 3.805101 0.699669
v -2.679688 3.805101 -0.939824
v -2.679688 3.805101 -0.106187
v 0.567739 3.805101 -1.638839
v 0.437922 1.274510 1.431660
v 0.397676 1.145458 1.405145
v 0.441108 0.904927 1.394897
v 0.441108 1.143796 1.394897
v 0.437922 1.934082 1.431660
v 0.437922 2.662870 1.431660
v 0.567739 3.805101 1.431660
v 0.437922 1.274510 -1.638839
v 0.397677 1.100843 -1.612324
v 0.441108 0.860312 -1.602076
v 0.441108 1.099182 -1.602076
v 0.437922 1.934082 -1.638839
v 0.437922 2.662870 -1.638839
v 0.567739 3.805101 0.699669
v 0.567739 3.805101 -0.939824
v 0.567739 3.805101 -0.106187
v 0.437922 0.000000 -1.638839
v -2.356778 0.000000 1.431660
v 0.437922 0.000000 1.431660
v 0.437922 0.854353 -1.638839
v -2.062903 0.898968 1.431660
v 0.437922 0.898968 1.431660
v 2.175168 1.991492 -0.106187
v 2.175168 2.605460 -0.106187
v 2.175168 1.991492 0.400610
v 2.175168 2.605460 0.401598
v 2.175168 1.991492 -0.482424
v 2.175168 2.605460 -0.484058
v -0.575318 3.805101 1.431660
v -0.959428 1.274510 -1.638839
v -0.987162 1.098315 -1.620567
v -0.908797 0.860312 -1.602076
v -0.908797 1.095318 -1.602076
v -0.959428 1.934082 -1.638839
v -0.959428 2.662870 -1.638839
v -0.575318 3.805101 0.699669
v -0.575318 3.805101 -0.939824
v -0.575318 3.805101 -0.106187
v -0.575318 3.805101 -1.638839
v -0.540598 1.274510 1.431660
v -0.540598 1.142929 1.413388
v -0.540598 0.904927 1.394897
v -0.540598 1.139932 1.394897
v -0.755918 1.668823 1.431660
v -0.755918 2.426585 1.431660
v -2.367944 1.668823 1.400286
v -2.367944 2.426585 1.400286
v -0.755918 1.668823 1.400286
v -0.755918 2.426585 1.400286
v 2.175168 0.000000 0.408160
v 2.175168 0.000000 -0.615339
v 2.175168 0.884096 0.408160
v 2.175168 0.869225 -0.615339
v -2.356778 0.000000 0.408160
v -2.356778 0.000000 -0.615339
v 0.437922 0.000000 0.408160
v 0.437922 0.000000 -0.615339
v 1.371453 3.805101 -1.638839
v 2.175168 0.427177 -1.638839
v 2.175168 0.000000 -1.127089
v 2.175168 3.805101 1.065664
v 2.175168 0.449484 1.431660
v 1.306545 0.000000 1.431660
v 2.175168 1.604296 -1.638839
v 2.175130 1.616101 1.431131
v 1.306507 1.286315 1.431131
v 2.175187 1.274959 -1.089710
v 2.175168 0.861789 -1.127089
v 1.306545 0.898968 1.431660
v 2.147268 1.189248 -1.620457
v 2.147230 1.223361 1.412750
v 2.119405 1.108611 -1.260408
v 1.258522 1.147029 1.400021
v 2.119368 0.982149 -1.602076
v 2.119368 1.026764 1.394897
v 2.119368 0.882619 -0.103589
v 1.280238 0.904927 1.394897
v 2.119368 1.126293 -0.103589
v 1.280238 1.146199 1.394897
v 2.119368 1.148601 1.394897
v 2.037625 1.279010 -1.289785
v 2.037594 1.192227 -1.621084
v 2.037526 1.215610 1.412276
v 2.037632 1.114451 -1.271083
v 2.106305 1.298115 1.430599
v 2.078451 1.140856 1.394427
v 2.106381 1.274510 -1.638839
v 2.078481 1.106966 -1.602703
v 2.175168 2.298476 -1.638839
v 2.175168 2.298476 1.431660
v 1.306545 1.934082 1.431660
v 2.175168 1.934082 -1.089260
v 2.175168 3.233985 -1.638839
v 2.175168 3.233985 1.431660
v 1.306545 2.662870 1.431660
v 2.175168 2.662870 -1.090230
v 2.175168 3.805101 0.296741
v 2.175120 1.292511 0.943761
v 2.119359 1.133774 1.038143
v 2.037539 1.293892 1.064624
v 2.037554 1.129116 1.047253
v 2.175168 1.934082 0.944794
v 2.175168 2.662870 0.945380
v 2.175168 2.298476 0.458514
v 2.175158 1.610492 0.457424
v 2.078462 1.122035 0.690969
v 2.106354 1.288288 0.577786
v 2.037568 1.207398 0.699601
v 2.175168 3.233985 0.579385
v 2.175194 1.280204 -0.323862
v 2.119419 1.113860 -0.511929
v 2.037632 1.284250 -0.523941
v 2.037646 1.119696 -0.522045
v 2.175168 1.934082 -0.322934
v 2.175168 2.662870 -0.323904
v 2.175168 3.805101 -1.289331
v 2.175168 3.233985 -0.740723
v 2.037663 1.201234 -0.939784
v 2.078556 1.116096 -0.928788
v 2.175187 1.604745 -0.540131
v 2.175168 2.298476 -0.540651
v 2.106431 1.279459 -0.740656
v 2.175168 3.805101 -0.523006
v 2.175165 1.285951 0.174889
v 2.119372 1.116716 0.288135
v 2.037584 1.287332 0.295751
v 2.037598 1.122778 0.297647
v 2.175168 1.934082 0.175870
v 2.175168 2.662870 0.176456
v 2.106394 1.284995 -0.107146
v 2.175168 3.233985 -0.106187
v 2.037615 1.202712 -0.106202
v 2.078508 1.117460 -0.105187
v 2.175174 1.609541 -0.106665
v 2.139794 1.934082 -0.106187
v 2.104419 2.298476 0.458514
v 2.104419 1.934082 -0.322934
v 2.104419 2.662870 -0.323904
v 2.104419 2.298476 -0.540651
v 2.104419 1.934082 0.175870
v 2.104419 2.662870 0.176456
v 2.139794 2.605460 -0.106187
v 2.139794 1.934082 -0.539681
v 2.139794 1.934082 0.457928
v 2.139794 2.662870 -0.541621
v 2.139794 2.662870 -0.106187
v 2.139794 2.662870 0.459100
v 2.104419 2.298476 0.401104
v 2.104419 1.991492 -0.294306
v 2.104419 2.605460 -0.295123
v 2.104419 2.298476 -0.483241
v 2.104419 1.991492 0.147211
v 2.104419 2.605460 0.147705
v 2.104419 2.634166 0.430349
v 2.104419 1.962787 0.429269
v 2.104419 1.962787 -0.106187
v 2.104419 1.962787 -0.511053
v 2.104419 2.634165 -0.512840
v 2.104419 2.634165 -0.106187
v -1.627503 3.805101 1.431660
v -1.658103 1.274510 -1.638839
v -1.679581 1.097051 -1.624689
v -1.583749 0.860312 -1.602076
v -1.583750 1.093386 -1.602076
v -1.658103 1.934082 -1.638839
v -1.658103 2.662870 -1.638839
v -1.627503 3.805101 0.699669
v -1.627503 3.805101 -0.939824
v -1.627503 3.805101 -0.106187
v -2.679688 3.805101 -0.523006
v -2.679688 3.805101 -1.289331
v -2.679688 3.805101 0.296741
v -2.367944 2.047704 1.431660
v -2.260284 1.471666 1.431660
v -2.152624 1.020674 1.394897
v -2.152624 1.138528 1.407886
v -2.152624 1.207572 1.426268
v -2.679688 3.805101 1.065664
v -2.523816 3.115843 1.431660
v -0.003790 3.805101 -1.638839
v -0.051338 1.274510 1.431660
v -0.071461 1.144193 1.409267
v -0.049745 0.904927 1.394897
v -0.049745 1.141864 1.394897
v -0.158998 1.801453 1.431660
v -0.158998 2.544728 1.431660
v 1.371453 3.805101 1.431660
v 1.306545 1.274510 -1.638839
v 1.258522 1.102415 -1.607200
v 1.280238 0.860312 -1.602076
v 1.280238 1.101584 -1.602076
v 1.306545 1.934082 -1.638839
v 1.306545 2.662870 -1.638839
v 1.371453 3.805101 0.699669
v 1.371453 3.805101 -0.939824
v 1.371453 3.805101 -0.106187
v 0.502830 3.233985 1.431660
v 0.567739 3.805101 1.065664
v 0.417799 1.209984 1.418402
v 0.441108 1.024361 1.394897
v 0.419392 1.100013 -1.607200
v 0.437922 1.604296 1.431660
v 0.437922 2.298476 1.431660
v 0.567739 3.805101 0.296741
v 0.567739 3.805101 -1.289331
v 0.567739 3.805101 -0.523006
v 0.437922 2.298476 -1.638839
v 0.437922 1.604296 -1.638839
v 0.441108 0.979747 -1.602076
v 0.419392 1.144627 1.400021
v 0.417799 1.187677 -1.625581
v 0.502830 3.233985 -1.638839
v 1.306545 0.000000 -1.638839
v -0.959428 0.000000 -1.638839
v -0.959428 0.000000 1.431660
v 1.306545 0.854353 -1.638839
v -0.959428 0.854353 -1.638839
v -0.812490 0.898968 1.431660
v 0.437922 0.449484 1.431660
v -2.209841 0.449484 1.431660
v 0.437922 0.427177 -1.638839
v -2.356778 0.000000 -1.127089
v 0.437922 0.000000 -1.127089
v 2.175168 2.298476 -0.106187
v 2.175168 2.298476 0.401104
v 2.175168 1.991492 -0.294306
v 2.175168 2.605460 -0.295123
v 2.175168 2.298476 -0.483241
v 2.175168 1.991492 0.147211
v 2.175168 2.605460 0.147705
v 2.139794 2.605460 0.401598
v 2.139794 1.991492 -0.482424
v 2.139794 2.605460 -0.484058
v 2.139794 1.991492 -0.106187
v 2.139794 1.991492 0.400610
v -0.003790 3.805101 1.431660
v -0.260753 1.274510 -1.638839
v -0.294743 1.099579 -1.616446
v -0.233845 0.860312 -1.602076
v -0.233845 1.097250 -1.602076
v -0.260753 1.934082 -1.638839
v -0.260753 2.662870 -1.638839
v -0.003790 3.805101 0.699669
v -0.003790 3.805101 -0.939824
v -0.003790 3.805101 -0.106187
v -1.627503 3.805101 -1.638839
v -1.346611 1.274510 1.431660
v -1.346611 1.141781 1.417132
v -1.346611 0.904927 1.394897
v -1.346611 1.138177 1.394897
v -1.561931 1.668823 1.431660
v -1.561931 2.426585 1.431660
v -0.767373 3.233985 -1.638839
v -0.973295 1.186413 -1.629703
v -0.540598 1.141431 1.404143
v -0.908797 0.977815 -1.602076
v -0.959428 1.604296 -1.638839
v -0.959428 2.298476 -1.638839
v -0.665618 3.115843 1.431660
v -0.575318 3.805101 1.065664
v -0.540598 1.208720 1.422524
v -0.540598 1.022429 1.394897
v -0.947980 1.096817 -1.611322
v -0.648258 1.471666 1.431660
v -0.755918 2.047704 1.431660
v -0.575318 3.805101 0.296741
v -0.575318 3.805101 -1.289331
v -0.575318 3.805101 -0.523006
v -2.367944 2.047704 1.400286
v -1.561931 1.668823 1.400286
v -1.561931 2.426585 1.400286
v -0.755918 2.047704 1.400286
v -2.367944 2.426585 1.415973
v -2.367944 1.668823 1.415973
v 2.175168 0.000000 0.919910
v 2.175168 0.000000 -0.103589
v 2.175168 0.891532 0.919910
v 2.175168 0.876660 -0.103589
v -2.356778 0.000000 0.919910
v -2.356778 0.000000 -0.103589
v 0.437922 0.000000 0.919910
v 0.437922 0.000000 -0.103589
v -0.959428 0.000000 -0.615339
v -0.959428 0.000000 0.408160
v 2.175168 0.434612 -0.615339
v 2.175168 0.442048 0.408160
v 1.306545 0.000000 -0.615339
v 1.306545 0.000000 0.408160
v 1.338999 3.233985 -1.638839
v 2.175168 3.233985 1.005522
v 1.306545 0.000000 0.919910
v 1.282533 1.188462 -1.623019
v 1.306545 0.427177 -1.638839
v 2.175168 0.445766 0.919910
v 1.269380 1.146614 1.397459
v 1.280238 0.980948 -1.602076
v 2.119368 1.004456 -0.103589
v 2.037547 1.211504 1.055938
v 2.106406 1.276985 -1.189748
v 2.078456 1.131445 1.042698
v 2.175144 1.613297 0.944277
v 1.306545 1.604296 -1.638839
v 2.175168 2.298476 0.945087
v 1.306545 2.298476 -1.638839
v 2.139794 1.934082 0.175870
v 2.175166 1.610017 0.175379
v 2.078485 1.119747 0.292891
v 2.106330 1.293202 1.004192
v 2.037591 1.205055 0.296699
v 2.175168 3.233985 0.236599
v 2.175168 3.233985 -1.189781
v 2.037629 1.196730 -1.280434
v 2.078519 1.111531 -1.265745
v 2.175177 1.604521 -1.089485
v 2.175168 2.298476 -1.089745
v 2.106413 1.282227 -0.423901
v 2.106374 1.286642 0.235320
v 2.175168 3.233985 -0.423455
v 2.037639 1.201973 -0.522993
v 2.078532 1.116778 -0.516987
v 2.175181 1.607143 -0.323398
v 2.139794 1.934082 -0.322934
v 2.139793 2.298476 -0.483241
v 2.139794 2.605460 0.147705
v 2.139794 2.662870 -0.323904
v 2.139794 2.298476 0.458514
v 2.139794 2.298476 -0.540651
v 2.139794 2.662870 0.176456
v 2.104419 2.298476 0.429809
v 2.104419 1.962787 -0.308620
v 2.104419 2.634165 -0.309514
v 2.104419 2.298476 -0.511946
v 2.104419 1.962787 0.161541
v 2.104419 2.634165 0.162081
v -1.627503 3.805100 -0.523006
v -1.627503 3.805100 -1.289331
v -1.627503 3.805100 0.296741
v -1.454271 1.471666 1.431660
v -1.631665 1.095218 -1.613382
v -1.346611 1.021552 1.394897
v -1.346611 1.208146 1.424396
v -1.627503 3.805100 1.065664
v -1.594717 3.115843 1.431660
v 1.338999 3.233985 1.431660
v 1.371453 3.805100 1.065664
v 1.282514 1.216672 1.415576
v 1.280238 1.025563 1.394897
v 1.269380 1.101999 -1.604638
v 1.306526 1.610199 1.431395
v 1.306545 2.298476 1.431660
v 1.371453 3.805100 0.296741
v 1.371453 3.805100 -1.289331
v 1.371453 3.805100 -0.523006
v -0.260753 2.298476 -1.638839
v -0.260753 1.604296 -1.638839
v -0.233845 0.978781 -1.602076
v -0.060603 1.143029 1.402082
v -0.277748 1.187045 -1.627642
v -0.132272 3.233985 -1.638839
v 1.306545 0.449484 1.431660
v -0.885959 0.449484 1.431660
v -0.959428 0.427177 -1.638839
v -0.959428 0.000000 0.919910
v 2.175168 2.298476 0.147458
v 2.175168 2.298476 -0.294714
v 2.139793 1.991492 -0.294306
v 2.139793 1.991492 0.147211
v 2.139794 2.605460 -0.295123
v 2.139793 2.298476 0.401104
v -1.642803 3.233985 -1.638839
v -1.668842 1.185781 -1.631764
v -1.346611 1.139979 1.406014
v -1.583750 0.976849 -1.602076
v -1.658103 1.604296 -1.638839
v -1.658103 2.298476 -1.638839
v -0.081394 3.174914 1.431660
v -0.003790 3.805100 1.065664
v -0.061399 1.209352 1.420463
v -0.049745 1.023395 1.394897
v -0.264294 1.098414 -1.609261
v -0.105168 1.537981 1.431660
v -0.158998 2.173090 1.431660
v -0.003790 3.805100 0.296741
v -0.003790 3.805100 -1.289331
v -0.003790 3.805100 -0.523006
v -1.561931 2.047704 1.400286
v -2.367944 2.047704 1.415973
v -0.959428 0.000000 -1.127089
v -0.959428 0.000000 -0.103589
v 2.175168 0.430894 -1.127089
v 2.175168 0.438330 -0.103589
v 1.306545 0.000000 -1.127089
v 1.306545 0.000000 -0.103589
v -2.693788 2.430764 1.431660
v -2.662303 3.116821 1.431660
v -2.638979 3.625088 1.431660
v -3.065297 3.805100 1.065664
v -3.054722 3.805101 0.699669
v -3.073407 3.805101 1.346394
v -2.679688 3.805101 1.422228
v -2.779346 1.184151 1.426199
v -2.790286 1.139526 1.424487
v -2.768881 1.207036 1.428013
v -2.758158 1.250144 1.429697
v -2.746850 1.274510 1.431660
v -2.693025 0.000000 1.431660
v -2.804004 0.029088 1.431660
v -2.784711 0.449484 1.431660
v -2.764084 0.898968 1.431660
v -2.954677 0.904927 1.394897
v -2.949418 1.019523 1.394897
v -2.944158 1.134134 1.394897
v -2.737937 1.468690 1.431660
v -2.728973 1.664037 1.431660
v -2.711369 2.047630 1.431660
v -3.043081 3.805100 0.296741
v -3.031439 3.805101 -0.106187
v -2.997256 3.805101 -1.289331
v -2.992538 3.805101 -1.452612
v -2.679688 3.805101 -1.517561
v -3.007353 3.805101 -0.939824
v -3.019397 3.805101 -0.523006
v -2.095515 3.805101 -1.638839
v -2.012268 1.096444 -1.626669
v -2.069788 1.094194 -1.614703
v -2.130484 1.091821 -1.602076
v -2.865664 1.136895 1.409992
v -2.630718 3.805101 1.431660
v -1.896221 0.000000 -1.638839
v -1.918595 0.427177 -1.638839
v -1.940968 0.854353 -1.638839
v -2.715955 0.000000 0.919910
v -2.738884 0.000000 0.408160
v -2.035690 2.662870 -1.638839
v -2.065602 3.233985 -1.638839
v -1.996844 1.143801 -1.630386
v -1.987839 1.185491 -1.632709
v -1.971618 1.234843 -1.636613
v -1.962974 1.274510 -1.638839
v -2.118359 0.860312 -1.602076
v -2.124422 0.976075 -1.602076
v -1.980247 1.604296 -1.638839
v -1.997519 1.934082 -1.638839
v -2.016605 2.298476 -1.638839
v -2.356778 0.000000 -1.543225
v -2.784744 0.000000 -0.615339
v -2.807673 0.000000 -1.127089
v -2.821992 0.000000 -1.446644
v -2.761814 0.000000 -0.103589
vn -0.0000 -0.0000 1.0000
vn -1.0000 -0.0000 -0.0000
vn -0.0000 -0.0000 -1.0000
vn -0.0000 1.0000 -0.0000
vn -0.0000 -1.0000 -0.0000
vn -0.0038 0.0667 -0.9978
vn -0.0009 0.0671 -0.9977
vn -0.0046 0.1670 0.9859
vn -0.0046 0.1971 0.9804
vn -0.0015 0.1962 0.9806
vn -0.0015 0.1662 0.9861
vn -0.0028 0.9852 -0.1716
vn -0.0028 0.9852 -0.1717
vn 1.0000 -0.0000 -0.0000
vn -1.0000 -0.0001 -0.0001
vn 0.0505 0.9987 -0.0029
vn 0.0169 0.9999 -0.0029
vn 0.0211 0.9997 -0.0087
vn 0.0631 0.9980 -0.0087
vn -0.0033 -0.9994 0.0342
vn 0.1238 -0.9917 0.0339
vn 0.1231 -0.9922 0.0190
vn -0.0059 -0.9998 0.0192
vn -1.0000 0.0001 -0.0000
vn -0.0729 -0.9973 0.0057
vn -0.0736 -0.9973 0.0057
vn -0.0736 -0.9973 0.0058
vn -0.0729 -0.9973 0.0058
vn -0.0001 0.9999 -0.0115
vn -1.0000 -0.0000 0.0001
vn -1.0000 -0.0001 0.0001
vn -0.0729 -0.9972 0.0135
vn -0.0730 -0.9972 0.0135
vn 0.0250 0.9996 -0.0142
vn 0.0749 0.9971 -0.0141
vn 0.0545 0.9985 -0.0048
vn 0.0181 0.9998 -0.0048
vn 0.0096 0.9999 -0.0042
vn 0.0031 1.0000 -0.0042
vn 0.0026 1.0000 -0.0054
vn 0.0080 1.0000 -0.0054
vn -0.0708 -0.9975 0.0016
vn -0.0720 -0.9974 0.0016
vn -0.0720 -0.9974 0.0017
vn -0.0708 -0.9975 0.0017
vn -0.0000 0.0027 1.0000
vn -0.0000 -0.0016 1.0000
vn -0.0000 -0.0027 -1.0000
vn -0.0028 0.9852 0.1716
vn -0.0027 0.9867 -0.1626
vn -0.0028 0.9866 -0.1632
vn -0.0036 0.1231 -0.9924
vn -0.0036 0.0945 -0.9955
vn -0.0012 0.0945 -0.9955
vn -0.0012 0.1232 -0.9924
vn -0.0056 0.2273 -0.9738
vn -0.0055 0.2117 -0.9773
vn -0.0041 0.2113 -0.9774
vn -0.0043 0.2269 -0.9739
vn -0.0028 0.9851 0.1717
vn -0.0005 0.0012 -1.0000
vn -0.0005 0.0004 -1.0000
vn -0.0002 0.0004 -1.0000
vn -0.0002 0.0012 -1.0000
vn -0.0040 0.9867 -0.1626
vn -0.0041 0.9853 -0.1705
vn -0.0039 0.9854 -0.1702
vn -0.0039 0.9867 -0.1625
vn -0.0046 0.1158 0.9933
vn -0.0046 0.1399 0.9902
vn -0.0015 0.1393 0.9903
vn -0.0015 0.1153 0.9933
vn -0.0000 0.0016 -1.0000
vn -0.0054 0.0747 0.9972
vn -0.0046 0.0919 0.9958
vn -0.0015 0.0915 0.9958
vn -0.0024 0.0746 0.9972
vn -0.0021 0.9871 -0.1600
vn -0.0068 0.1868 -0.9824
vn -0.0067 0.1539 -0.9881
vn -0.0022 0.1536 -0.9881
vn -0.0022 0.1858 -0.9826
vt 0.125317 0.628762
vt 0.155406 0.618168
vt 0.157755 0.711151
vt 0.129163 0.728666
vt 0.181211 0.609083
vt 0.182428 0.696036
vt 0.183645 0.782948
vt 0.160089 0.803558
vt 0.132959 0.827292
vt 0.607449 0.606078
vt 0.706398 0.605380
vt 0.719734 0.692384
vt 0.633033 0.692974
vt 0.805405 0.604682
vt 0.806479 0.691795
vt 0.807551 0.778867
vt 0.733064 0.779355
vt 0.658608 0.779842
vt 0.987385 0.788853
vt 0.975814 0.615092
vt 0.997805 0.622212
vt 0.997071 0.795276
vt 0.996289 0.922573
vt 0.997071 0.795276
vt 0.604169 0.151264
vt 0.725773 0.150245
vt 0.709791 0.176404
vt 0.597537 0.177336
vt 0.847464 0.149225
vt 0.822120 0.175471
vt 0.800395 0.197968
vt 0.696091 0.198828
vt 0.591851 0.199687
vt 0.764968 0.998452
vt 0.751769 0.971323
vt 0.875558 0.970583
vt 0.896320 0.998445
vt 0.996244 0.969861
vt 0.997445 0.998438
vt 0.998108 0.307780
vt 0.958112 0.322920
vt 0.956217 0.307063
vt 0.998077 0.289775
vt 0.998302 0.301598
vt 0.998130 0.325688
vt 0.960006 0.338775
vt 0.998108 0.307780
vt 0.998333 0.319147
vt 0.126158 0.350611
vt 0.157190 0.361544
vt 0.154690 0.376003
vt 0.123987 0.366376
vt 0.183820 0.370927
vt 0.181028 0.384261
vt 0.178248 0.397533
vt 0.152201 0.390398
vt 0.121825 0.382078
vt 0.118616 0.155334
vt 0.149255 0.181060
vt 0.150242 0.251250
vt 0.119692 0.231363
vt 0.175526 0.203118
vt 0.176439 0.268302
vt 0.177351 0.333464
vt 0.151230 0.321413
vt 0.120768 0.307360
vt 0.696950 0.266953
vt 0.592721 0.267223
vt 0.801241 0.266683
vt 0.802088 0.335372
vt 0.697808 0.335053
vt 0.593591 0.334735
vt 0.990460 0.001142
vt 0.997925 0.001026
vt 0.998046 0.111207
vt 0.960912 0.140543
vt 0.968139 0.024257
vt 0.953958 0.252455
vt 0.998046 0.111207
vt 0.998053 0.228380
vt 0.844911 0.352979
vt 0.818769 0.363771
vt 0.817915 0.363829
vt 0.843007 0.353127
vt 0.796343 0.373028
vt 0.817061 0.363887
vt 0.841111 0.353275
vt 0.129606 0.308407
vt 0.158446 0.321937
vt 0.158725 0.341793
vt 0.129906 0.329643
vt 0.183298 0.333596
vt 0.183559 0.352263
vt 0.159004 0.361647
vt 0.130206 0.350877
vt 0.489318 0.334612
vt 0.489564 0.353296
vt 0.795881 0.335631
vt 0.796112 0.354330
vt 0.489810 0.371977
vt 0.947659 0.278686
vt 0.947332 0.251238
vt 0.996766 0.223691
vt 0.996799 0.254153
vt 0.947986 0.306130
vt 0.996799 0.254153
vt 0.996831 0.284573
vt 0.655139 0.369709
vt 0.726561 0.369773
vt 0.728510 0.382486
vt 0.655105 0.382417
vt 0.798013 0.369837
vt 0.801946 0.382554
vt 0.805879 0.395270
vt 0.730459 0.395197
vt 0.655071 0.395124
vt 0.401376 0.395958
vt 0.289776 0.396746
vt 0.268048 0.396681
vt 0.359823 0.396357
vt 0.176322 0.397005
vt 0.174373 0.396471
vt 0.246075 0.396615
vt 0.317806 0.396760
vt 0.650281 0.369608
vt 0.723297 0.371318
vt 0.724923 0.370548
vt 0.652702 0.369659
vt 0.797175 0.371438
vt 0.966722 0.384044
vt 0.998130 0.325688
vt 0.998063 0.375795
vt 0.973626 0.430578
vt 0.997858 0.426076
vt 0.604307 0.396156
vt 0.703437 0.396253
vt 0.704159 0.445228
vt 0.605044 0.445545
vt 0.802625 0.396349
vt 0.803330 0.444911
vt 0.804035 0.493459
vt 0.704880 0.494190
vt 0.605782 0.494921
vt 0.152962 0.444527
vt 0.122655 0.440705
vt 0.178952 0.447805
vt 0.179656 0.498065
vt 0.153724 0.498640
vt 0.123485 0.499312
vt 0.974720 0.522858
vt 0.997858 0.426076
vt 0.997834 0.524472
vt 0.705639 0.549793
vt 0.606615 0.550508
vt 0.804720 0.549079
vt 0.154565 0.558414
vt 0.124401 0.564049
vt 0.180434 0.553582
vt 0.491032 0.495768
vt 0.548397 0.495345
vt 0.548486 0.495359
vt 0.490954 0.495783
vt 0.606038 0.494934
vt 0.606295 0.494947
vt 0.548575 0.495373
vt 0.490875 0.495798
vt 0.489534 0.396746
vt 0.546911 0.396451
vt 0.547654 0.445904
vt 0.490283 0.446263
vt 0.489473 0.370169
vt 0.569858 0.369889
vt 0.571016 0.369939
vt 0.489369 0.370220
vt 0.572181 0.369990
vt 0.489265 0.370270
vt 0.716871 0.395728
vt 0.804243 0.395813
vt 0.629543 0.395643
vt 0.572151 0.382695
vt 0.489237 0.382972
vt 0.572120 0.395399
vt 0.489209 0.395673
vt 0.477496 0.998459
vt 0.479524 0.972950
vt 0.615592 0.972137
vt 0.620934 0.998457
vt 0.620934 0.998457
vt 0.492495 0.606888
vt 0.549962 0.606483
vt 0.563322 0.693447
vt 0.493640 0.693921
vt 0.576677 0.780377
vt 0.494785 0.780913
vt 0.292569 0.608298
vt 0.273553 0.695417
vt 0.404000 0.607512
vt 0.364726 0.694797
vt 0.325480 0.782021
vt 0.254548 0.782484
vt 0.080603 0.975336
vt 0.059755 0.998450
vt 0.002514 0.998446
vt 0.003767 0.975795
vt 0.198349 0.974632
vt 0.182625 0.998455
vt 0.181310 0.371037
vt 0.249566 0.371204
vt 0.247821 0.383910
vt 0.177841 0.383755
vt 0.317850 0.371370
vt 0.317828 0.384065
vt 0.253541 0.371096
vt 0.251560 0.371150
vt 0.182569 0.370982
vt 0.323289 0.371265
vt 0.320578 0.371317
vt 0.290510 0.447000
vt 0.402141 0.446195
vt 0.402905 0.496418
vt 0.291244 0.497241
vt 0.291907 0.552778
vt 0.403452 0.551973
vt 0.445449 0.396352
vt 0.424585 0.396285
vt 0.489372 0.396212
vt 0.403486 0.396216
vt 0.559443 0.395928
vt 0.448241 0.607200
vt 0.429171 0.694359
vt 0.410112 0.781467
vt 0.338879 0.973791
vt 0.329742 0.998459
vt 0.329742 0.998459
vt 0.403536 0.370820
vt 0.403511 0.383519
vt 0.406361 0.370717
vt 0.404953 0.370769
vt 0.446206 0.446229
vt 0.446963 0.496093
vt 0.446756 0.496109
vt 0.402570 0.496435
vt 0.446549 0.496125
vt 0.402234 0.496452
vt 0.414982 0.599312
vt 0.414519 0.552247
vt 0.414820 0.552068
vt 0.415281 0.598995
vt 0.414057 0.505171
vt 0.414359 0.505128
vt 0.414660 0.505086
vt 0.415119 0.551889
vt 0.415579 0.598680
vt 0.596093 0.598030
vt 0.544154 0.598398
vt 0.544078 0.598084
vt 0.595866 0.597717
vt 0.492231 0.598765
vt 0.492305 0.598450
vt 0.492379 0.598137
vt 0.544002 0.597772
vt 0.595639 0.597406
vt 0.448039 0.607539
vt 0.492421 0.607227
vt 0.403668 0.607852
vt 0.403335 0.608195
vt 0.447835 0.607881
vt 0.492347 0.607567
vt 0.606874 0.550682
vt 0.607710 0.606414
vt 0.607972 0.606752
vt 0.607134 0.550858
vt 0.403119 0.552152
vt 0.402785 0.552332
vt 0.550056 0.606820
vt 0.550150 0.607160
vt 0.595386 0.550943
vt 0.601260 0.550900
vt 0.602033 0.602391
vt 0.594678 0.503843
vt 0.600486 0.499395
vt 0.490991 0.504605
vt 0.452520 0.504888
vt 0.449534 0.500507
vt 0.490933 0.500202
vt 0.408145 0.500811
vt 0.453602 0.599038
vt 0.450718 0.603460
vt 0.409158 0.603753
vt 0.492289 0.603166
vt 0.408652 0.552289
vt 0.542827 0.504224
vt 0.545701 0.499798
vt 0.547152 0.602779
vt 0.269492 0.866846
vt 0.378744 0.866158
vt 0.361309 0.913230
vt 0.238377 0.913987
vt 0.488065 0.865470
vt 0.484330 0.912473
vt 0.086432 0.867998
vt 0.177938 0.867422
vt 0.135365 0.914621
vt 0.032416 0.915255
vt 0.003767 0.975795
vt 0.001512 0.942292
vt 0.593811 0.864805
vt 0.603336 0.911740
vt 0.699621 0.864139
vt 0.722424 0.911007
vt 0.884629 0.364650
vt 0.918806 0.352918
vt 0.924374 0.394092
vt 0.889327 0.402408
vt 0.930082 0.436308
vt 0.894133 0.441038
vt 0.063823 0.328647
vt 0.024891 0.314930
vt 0.031038 0.315501
vt 0.068303 0.329020
vt 0.002797 0.307146
vt 0.002918 0.305300
vt 0.037116 0.316065
vt 0.002918 0.305300
vt 0.003234 0.303394
vt 0.072744 0.329389
vt 0.874103 0.292043
vt 0.907305 0.273542
vt 0.907607 0.298619
vt 0.874383 0.315154
vt 0.907909 0.323693
vt 0.874663 0.338262
vt 0.952101 0.306597
vt 0.997529 0.287225
vt 0.996831 0.284573
vt 0.879522 0.338814
vt 0.914296 0.324418
vt 0.916551 0.338668
vt 0.882076 0.351732
vt 0.795790 0.863533
vt 0.830669 0.910341
vt 0.892013 0.862928
vt 0.938982 0.909674
vt 0.996623 0.967042
vt 0.895973 0.593379
vt 0.932081 0.603199
vt 0.935520 0.755902
vt 0.893973 0.729506
vt 0.827489 0.613447
vt 0.827750 0.706627
vt 0.853248 0.623671
vt 0.852407 0.723819
vt 0.851577 0.822684
vt 0.828010 0.799229
vt 0.748258 0.799745
vt 0.668544 0.800262
vt 0.765761 0.823235
vt 0.679988 0.823785
vt 0.821691 0.375494
vt 0.799491 0.384716
vt 0.847578 0.364741
vt 0.850234 0.376457
vt 0.824600 0.387167
vt 0.816573 0.324101
vt 0.816817 0.343995
vt 0.840591 0.310717
vt 0.840851 0.331997
vt 0.158098 0.361596
vt 0.128186 0.350744
vt 0.825311 0.440433
vt 0.850950 0.435209
vt 0.851666 0.493943
vt 0.826021 0.493682
vt 0.826755 0.553574
vt 0.852457 0.558818
vt 0.580828 0.800831
vt 0.493157 0.801399
vt 0.585609 0.824390
vt 0.491282 0.824995
vt 0.235985 0.803066
vt 0.311915 0.802574
vt 0.296290 0.826245
vt 0.214605 0.826769
vt 0.402512 0.801986
vt 0.393759 0.825620
vt 0.062676 0.500663
vt 0.095257 0.499939
vt 0.096244 0.569308
vt 0.063746 0.575378
vt 0.097231 0.638651
vt 0.064815 0.650064
vt 0.060739 0.365347
vt 0.093469 0.374312
vt 0.094363 0.437136
vt 0.061708 0.433017
vt 0.072059 0.281409
vt 0.102818 0.295839
vt 0.103137 0.318358
vt 0.072402 0.305401
vt 0.103457 0.340874
vt 0.861399 0.346231
vt 0.859227 0.346185
vt 0.877093 0.338538
vt 0.857059 0.346139
vt 0.097210 0.340411
vt 0.095336 0.357392
vt 0.062278 0.347026
vt 0.104218 0.743947
vt 0.075851 0.761324
vt 0.111021 0.846485
vt 0.823027 0.249472
vt 0.848441 0.229395
vt 0.849418 0.309531
vt 0.823934 0.323444
vt 0.898465 0.096409
vt 0.896501 0.191428
vt 0.894570 0.284879
vt 0.000595 0.056240
vt 0.056991 0.103592
vt 0.058247 0.191365
vt 0.000678 0.153890
vt 0.059504 0.279097
vt 0.000678 0.153890
vt 0.000769 0.252001
vt 0.990460 0.001142
vt 0.801857 0.025711
vt 0.816887 0.001111
vt 0.816887 0.001111
vt 0.635737 0.027164
vt 0.642370 0.001089
vt 0.757931 0.097609
vt 0.617513 0.098808
vt 0.491147 0.504524
vt 0.542682 0.504145
vt 0.543342 0.550964
vt 0.491763 0.551336
vt 0.594232 0.503766
vt 0.594936 0.550592
vt 0.452899 0.504805
vt 0.453437 0.551613
vt 0.453975 0.598409
vt 0.452710 0.504846
vt 0.491069 0.504564
vt 0.542754 0.504184
vt 0.594454 0.503804
vt 0.453789 0.598723
vt 0.595160 0.550767
vt 0.002818 0.671893
vt 0.026987 0.663383
vt 0.029707 0.789592
vt 0.002226 0.806426
vt 0.001512 0.942292
vt 0.023713 0.334934
vt 0.002811 0.328380
vt 0.002970 0.318515
vt 0.002797 0.307146
vt 0.022538 0.354884
vt 0.002829 0.349485
vt 0.002984 0.340151
vt 0.002811 0.328380
vt 0.911102 0.324056
vt 0.003195 0.249103
vt 0.036376 0.264669
vt 0.036746 0.290369
vt 0.003214 0.276233
vt 0.003214 0.276233
vt 0.003234 0.303394
vt 0.002829 0.349485
vt 0.023595 0.428210
vt 0.002818 0.425589
vt 0.024652 0.501507
vt 0.002813 0.501992
vt 0.002813 0.501992
vt 0.025820 0.582463
vt 0.002813 0.586761
vt 0.002813 0.586761
vt 0.002818 0.671893
vt 0.873314 0.609444
vt 0.871966 0.726495
vt 0.870640 0.841657
vt 0.779918 0.842233
vt 0.689244 0.842810
vt 0.863995 0.358550
vt 0.866585 0.370844
vt 0.856520 0.301841
vt 0.856790 0.323991
vt 0.100343 0.340643
vt 0.869084 0.419710
vt 0.871610 0.469097
vt 0.872462 0.539284
vt 0.895053 0.517224
vt 0.589476 0.843444
vt 0.489766 0.844078
vt 0.197317 0.845936
vt 0.283656 0.845388
vt 0.386679 0.844733
vt 0.885712 0.441102
vt 0.920855 0.436377
vt 0.921857 0.519839
vt 0.886634 0.517286
vt 0.963423 0.430655
vt 0.964520 0.522932
vt 0.965616 0.615163
vt 0.922858 0.603264
vt 0.887555 0.593439
vt 0.969620 0.522895
vt 0.968524 0.430616
vt 0.970715 0.615128
vt 0.003786 0.032690
vt 0.138344 0.031513
vt 0.196949 0.102397
vt 0.303981 0.030065
vt 0.337021 0.101202
vt 0.361220 0.153301
vt 0.239875 0.154318
vt 0.469778 0.028615
vt 0.477209 0.100005
vt 0.482651 0.152283
vt 0.290516 0.001075
vt 0.113186 0.001083
vt 0.003786 0.032690
vt 0.001981 0.001093
vt 0.466912 0.001077
vt 0.466912 0.001077
vt 0.290516 0.001075
vt 0.279512 0.202261
vt 0.280415 0.268033
vt 0.383562 0.201403
vt 0.384454 0.267763
vt 0.385345 0.334099
vt 0.281317 0.333782
vt 0.487675 0.200545
vt 0.488556 0.267493
vt 0.489437 0.334417
vt 0.261215 0.180130
vt 0.373248 0.179199
vt 0.485356 0.178268
s 0
f 76/1/1 256/2/1 352/3/1 275/4/1
f 256/2/1 19/5/1 156/6/1 352/3/1
f 352/3/1 156/6/1 4/7/1 121/8/1
f 275/4/1 352/3/1 121/8/1 63/9/1
f 27/10/2 166/11/2 353/12/2 172/13/2
f 166/11/2 20/14/2 157/15/2 353/12/2
f 353/12/2 157/15/2 2/16/2 124/17/2
f 172/13/2 353/12/2 124/17/2 21/18/2
f 242/19/3 59/20/3 457/21/3 458/22/3
f 459/23/3 242/19/3 458/24/3
f 119/25/4 344/26/4 354/27/4 351/28/4
f 344/26/4 82/29/4 126/30/4 354/27/4
f 354/27/4 126/30/4 1/31/4 338/32/4
f 351/28/4 354/27/4 338/32/4 113/33/4
f 461/34/5 60/35/5 241/36/5 460/37/5
f 460/37/5 241/36/5 463/38/5 462/39/5
f 466/40/6 240/41/6 55/42/6 465/43/6 464/44/6
f 468/45/7 54/46/7 240/41/7 466/47/7 467/48/7
f 72/49/8 252/50/8 355/51/8 274/52/8
f 252/50/9 9/53/9 133/54/9 355/51/9
f 355/51/10 133/54/10 5/55/10 251/56/10
f 274/52/11 355/51/11 251/56/11 71/57/11
f 80/58/1 276/59/1 356/60/1 284/61/1
f 276/59/1 3/62/1 122/63/1 356/60/1
f 356/60/1 122/63/1 7/64/1 279/65/1
f 284/61/1 356/60/1 279/65/1 83/66/1
f 113/33/2 338/32/2 357/67/2 349/68/2
f 338/32/2 1/31/2 125/69/2 357/67/2
f 357/67/2 125/69/2 8/70/2 340/71/2
f 349/68/2 357/67/2 340/71/2 115/72/2
f 469/73/3 470/74/3 471/75/3 283/76/3 81/77/3
f 84/78/3 283/76/3 471/79/3 472/80/3
f 65/81/12 136/82/12 358/83/12 273/84/12
f 358/83/13 136/82/13 10/85/13
f 358/83/14 10/85/14 143/85/14
f 358/83/12 143/85/12 10/85/12 142/86/12
f 273/84/12 358/83/12 142/86/12 67/87/12
f 73/88/1 253/89/1 359/90/1 272/91/1
f 253/89/1 11/92/1 137/93/1 359/90/1
f 359/90/1 137/93/1 9/53/1 254/94/1
f 272/91/1 359/90/1 254/94/1 74/95/1
f 11/92/2 139/96/2 360/97/2 137/93/2
f 139/96/2 12/98/2 138/99/2 360/97/2
f 360/97/2 138/99/2 10/85/2 141/100/2
f 137/93/2 360/97/2 141/100/2 9/53/2
f 238/101/3 56/102/3 473/103/3 474/104/3
f 57/105/3 238/101/3 474/106/3 475/107/3
f 25/108/15 164/109/15 361/110/15 171/111/15
f 164/109/15 16/112/15 146/113/15 361/110/15
f 361/110/15 146/113/15 13/114/15 163/115/15
f 171/111/15 361/110/15 163/115/15 24/116/15
f 28/117/16 130/118/16 362/119/16 185/120/16
f 130/118/17 5/55/17 150/121/17 362/119/17
f 362/119/18 150/121/18 14/122/18 144/123/18
f 185/120/19 362/119/19 144/123/19 30/124/19
f 23/125/20 162/126/20 363/127/20 169/128/20
f 162/126/21 10/85/21 149/129/21 363/127/21
f 363/127/22 149/129/22 16/112/22 164/109/22
f 169/128/23 363/127/23 164/109/23 25/108/23
f 237/130/3 54/46/3 468/131/3 476/132/3
f 58/133/3 237/130/3 476/132/3 477/134/3
f 22/135/24 161/136/24 364/137/24 168/138/24
f 161/136/24 6/139/24 128/140/24 364/137/24
f 364/137/24 128/140/24 18/141/24 165/142/24
f 168/138/24 364/137/24 165/142/24 26/143/24
f 71/57/1 251/56/1 365/144/1 271/145/1
f 251/56/1 5/55/1 127/146/1 365/144/1
f 365/144/1 127/146/1 17/147/1 255/148/1
f 271/145/1 365/144/1 255/148/1 75/149/1
f 236/150/3 58/133/3 477/151/3 478/152/3
f 59/20/3 236/150/3 478/152/3 457/21/3
f 26/143/2 165/142/2 366/153/2 167/154/2
f 165/142/2 18/141/2 153/155/2 366/153/2
f 366/153/2 153/155/2 20/14/2 166/11/2
f 167/154/2 366/153/2 166/11/2 27/10/2
f 75/149/1 255/148/1 367/156/1 270/157/1
f 255/148/1 17/147/1 152/158/1 367/156/1
f 367/156/1 152/158/1 19/5/1 256/2/1
f 270/157/1 367/156/1 256/2/1 76/1/1
f 40/159/5 191/160/5 368/161/5 198/162/5
f 191/160/5 26/143/5 207/163/5 368/161/5
f 368/161/5 207/163/5 48/164/5 203/165/5
f 198/162/5 368/161/5 203/165/5 50/166/5
f 36/167/2 187/168/2 369/169/2 197/170/2
f 187/168/2 22/135/2 168/138/2 369/169/2
f 369/169/2 168/138/2 26/143/2 191/160/2
f 197/170/2 369/169/2 191/160/2 40/159/2
f 37/171/25 188/172/25 370/173/25 196/174/25
f 188/172/26 23/125/26 169/128/26 370/173/26
f 370/173/27 169/128/27 25/108/27 190/175/27
f 196/174/28 370/173/28 190/175/28 39/176/28
f 6/139/29 161/136/29 371/177/29 148/178/29
f 161/136/29 22/135/29 170/179/29 371/177/29
f 371/177/29 170/179/29 24/116/29 163/115/29
f 148/178/29 371/177/29 163/115/29 13/114/29
f 39/176/15 190/175/15 372/180/15 195/181/15
f 190/175/15 25/108/15 171/111/15 372/180/15
f 372/180/15 171/111/15 24/116/15 189/182/15
f 195/181/15 372/180/15 189/182/15 38/183/15
f 480/184/5 62/185/5 235/186/5 479/187/5
f 479/188/5 235/186/5 60/35/5 461/34/5
f 41/189/2 192/190/2 373/191/2 194/192/2
f 192/190/2 27/10/2 172/13/2 373/191/2
f 373/191/2 172/13/2 21/18/2 160/193/2
f 194/192/2 373/191/2 160/193/2 35/194/2
f 19/5/2 159/195/2 374/196/2 156/6/2
f 159/195/2 33/197/2 180/198/2 374/196/2
f 374/196/2 180/198/2 34/199/2 179/200/2
f 156/6/2 374/196/2 179/200/2 4/7/2
f 234/201/5 481/202/5 482/203/5 483/204/5
f 481/202/5 234/201/5 61/205/5 484/206/5
f 15/207/30 147/208/30 375/209/30 145/210/30
f 147/208/31 31/211/31 181/212/31 375/209/31
f 375/209/31 181/212/31 30/124/31 144/123/31
f 145/210/30 375/209/30 144/123/30 14/122/30
f 9/53/32 135/213/32 376/214/32 151/215/32
f 135/213/33 29/216/33 182/217/33 376/214/33
f 376/214/33 182/217/33 31/211/33 147/208/33
f 151/215/32 376/214/32 147/208/32 15/207/32
f 5/55/2 130/118/2 377/218/2 127/146/2
f 130/118/2 28/117/2 183/219/2 377/218/2
f 377/218/2 183/219/2 32/220/2 155/221/2
f 127/146/2 377/218/2 155/221/2 17/147/2
f 17/147/2 155/221/2 378/222/2 152/158/2
f 155/221/2 32/220/2 184/223/2 378/222/2
f 378/222/2 184/223/2 33/197/2 159/195/2
f 152/158/2 378/222/2 159/195/2 19/5/2
f 36/167/34 173/224/34 379/225/34 193/226/34
f 173/224/35 28/117/35 185/120/35 379/225/35
f 379/225/36 185/120/36 30/124/36 175/227/36
f 193/226/37 379/225/37 175/227/37 38/183/37
f 22/135/38 187/168/38 380/228/38 170/179/38
f 187/168/39 36/167/39 193/226/39 380/228/39
f 380/228/40 193/226/40 38/183/40 189/182/40
f 170/179/41 380/228/41 189/182/41 24/116/41
f 33/197/2 178/229/2 381/230/2 180/198/2
f 178/229/2 41/189/2 194/192/2 381/230/2
f 381/230/2 194/192/2 35/194/2 186/231/2
f 180/198/2 381/230/2 186/231/2 34/199/2
f 484/206/5 61/205/5 233/232/5 485/233/5
f 485/234/5 233/232/5 62/185/5 480/184/5
f 31/211/15 176/235/15 382/236/15 181/212/15
f 176/235/15 39/176/15 195/181/15 382/236/15
f 382/236/15 195/181/15 38/183/15 175/227/15
f 181/212/15 382/236/15 175/227/15 30/124/15
f 29/216/42 174/237/42 383/238/42 182/217/42
f 174/237/43 37/171/43 196/174/43 383/238/43
f 383/238/44 196/174/44 39/176/44 176/235/44
f 182/217/45 383/238/45 176/235/45 31/211/45
f 28/117/2 173/224/2 384/239/2 183/219/2
f 173/224/2 36/167/2 197/170/2 384/239/2
f 384/239/2 197/170/2 40/159/2 177/240/2
f 183/219/2 384/239/2 177/240/2 32/220/2
f 32/220/5 177/240/5 385/241/5 206/242/5
f 177/240/5 40/159/5 198/162/5 385/241/5
f 385/241/5 198/162/5 50/166/5 200/243/5
f 206/242/5 385/241/5 200/243/5 51/244/5
f 47/245/46 214/246/46 386/247/46 296/248/46
f 214/246/46 45/249/46 295/250/46 386/247/46
f 386/247/46 295/250/46 90/251/46 291/252/46
f 296/248/46 386/247/46 291/252/46 91/253/46
f 43/254/5 216/255/5 387/256/5 294/257/5
f 216/255/5 46/258/5 205/259/5 387/256/5
f 387/256/5 205/259/5 87/260/5 293/261/5
f 294/257/5 387/256/5 293/261/5 89/262/5
f 41/189/4 178/229/4 388/263/4 209/264/4
f 178/229/4 33/197/4 208/265/4 388/263/4
f 388/263/4 208/265/4 53/266/4 201/267/4
f 209/264/4 388/263/4 201/267/4 52/268/4
f 26/143/47 167/154/47 389/269/47 207/163/47
f 167/154/47 27/10/47 210/270/47 389/269/47
f 389/269/47 210/270/47 49/271/47 199/272/47
f 207/163/47 389/269/47 199/272/47 48/164/47
f 33/197/48 184/223/48 390/273/48 208/265/48
f 184/223/48 32/220/48 206/242/48 390/273/48
f 390/273/48 206/242/48 51/244/48 202/274/48
f 208/265/48 390/273/48 202/274/48 53/266/48
f 27/10/4 192/190/4 391/275/4 210/270/4
f 192/190/4 41/189/4 209/264/4 391/275/4
f 391/275/4 209/264/4 52/268/4 204/276/4
f 210/270/4 391/275/4 204/276/4 49/271/4
f 43/254/2 211/277/2 392/278/2 217/279/2
f 211/277/2 42/280/2 218/281/2 392/278/2
f 392/278/2 218/281/2 48/164/2 199/272/2
f 217/279/2 392/278/2 199/272/2 49/271/2
f 44/282/2 212/283/2 393/284/2 219/285/2
f 212/283/2 45/249/2 220/286/2 393/284/2
f 393/284/2 220/286/2 51/244/2 200/243/2
f 219/285/2 393/284/2 200/243/2 50/166/2
f 47/245/2 213/287/2 394/288/2 221/289/2
f 213/287/2 46/258/2 222/290/2 394/288/2
f 394/288/2 222/290/2 52/268/2 201/267/2
f 221/289/2 394/288/2 201/267/2 53/266/2
f 45/249/2 214/246/2 395/291/2 220/286/2
f 214/246/2 47/245/2 221/289/2 395/291/2
f 395/291/2 221/289/2 53/266/2 202/274/2
f 220/286/2 395/291/2 202/274/2 51/244/2
f 42/280/2 215/292/2 396/293/2 218/281/2
f 215/292/2 44/282/2 219/285/2 396/293/2
f 396/293/2 219/285/2 50/166/2 203/165/2
f 218/281/2 396/293/2 203/165/2 48/164/2
f 46/258/2 216/255/2 397/294/2 222/290/2
f 216/255/2 43/254/2 217/279/2 397/294/2
f 397/294/2 217/279/2 49/271/2 204/276/2
f 222/290/2 397/294/2 204/276/2 52/268/2
f 100/295/5 331/296/5 398/297/5 231/298/5
f 331/296/5 101/299/5 232/300/5 398/297/5
f 398/297/5 232/300/5 62/185/5 233/232/5
f 231/298/5 398/297/5 233/232/5 61/205/5
f 102/301/5 330/302/5 399/303/5 309/304/5
f 330/302/5 100/295/5 231/298/5 399/303/5
f 399/303/5 231/298/5 61/205/5 234/201/5
f 309/304/5 399/303/5 234/201/5 483/305/5 486/306/5
f 101/299/5 329/307/5 400/308/5 232/300/5
f 329/307/5 99/309/5 230/310/5 400/308/5
f 400/308/5 230/310/5 60/35/5 235/186/5
f 232/300/5 400/308/5 235/186/5 62/185/5
f 103/311/3 310/312/3 401/313/3 327/314/3
f 310/312/3 54/46/3 237/130/3 401/313/3
f 401/313/3 237/130/3 58/133/3 314/315/3
f 327/314/3 401/313/3 314/315/3 107/316/3
f 94/317/49 225/318/49 402/319/49 326/320/49
f 402/319/49 225/318/49 487/321/49 488/322/49
f 227/323/49 402/319/49 488/324/49 489/325/49
f 326/320/49 402/319/49 227/323/49 96/326/49
f 105/327/3 312/328/3 403/329/3 325/330/3
f 312/328/3 56/102/3 238/101/3 403/329/3
f 403/329/3 238/101/3 57/105/3 313/331/3
f 325/330/3 403/329/3 313/331/3 106/332/3
f 465/43/50 55/42/50 239/333/50 490/334/50
f 490/334/51 239/333/51 57/105/51 475/335/51
f 104/336/52 311/337/52 404/338/52 324/339/52
f 311/337/53 55/42/53 240/41/53 404/338/53
f 404/338/54 240/41/54 54/46/54 310/312/54
f 324/339/55 404/338/55 310/312/55 103/311/55
f 99/309/5 323/340/5 405/341/5 230/310/5
f 323/340/5 92/342/5 223/343/5 405/341/5
f 463/38/5 241/36/5 405/341/5 223/343/5 491/344/5
f 230/310/5 405/341/5 241/36/5 60/35/5
f 108/345/3 315/346/3 406/347/3 322/348/3
f 315/346/3 59/20/3 242/19/3 406/347/3
f 223/343/3 406/347/3 242/19/3 459/23/3 491/344/3
f 322/348/3 406/347/3 223/343/3 92/342/3
f 20/14/3 158/349/3 407/350/3 157/15/3
f 158/349/3 69/351/3 260/352/3 407/350/3
f 407/350/3 260/352/3 70/353/3 250/354/3
f 157/15/3 407/350/3 250/354/3 2/16/3
f 21/18/5 124/17/5 408/355/5 257/356/5
f 124/17/5 2/16/5 250/354/5 408/355/5
f 408/355/5 250/354/5 70/353/5 261/357/5
f 257/356/5 408/355/5 261/357/5 77/358/5
f 10/85/56 136/82/56 409/359/56 134/360/56
f 136/82/57 65/81/57 262/361/57 409/359/57
f 409/359/58 262/361/58 64/362/58 129/363/58
f 134/360/59 409/359/59 129/363/59 6/139/59
f 12/98/3 140/364/3 410/365/3 138/99/3
f 140/364/3 66/366/3 263/367/3 410/365/3
f 410/365/3 263/367/3 67/87/3 142/86/3
f 138/99/3 410/365/3 142/86/3 10/85/3
f 252/50/49 411/368/49 9/53/49
f 252/50/49 72/49/49 264/369/49 411/368/49
f 411/368/49 264/369/49 74/95/49 254/94/49
f 411/368/60 254/94/60 9/53/60
f 6/139/61 129/363/61 412/370/61 128/140/61
f 129/363/62 64/362/62 265/371/62 412/370/62
f 412/370/63 265/371/63 68/372/63 154/373/63
f 128/140/64 412/370/64 154/373/64 18/141/64
f 18/141/3 154/373/3 413/374/3 153/155/3
f 154/373/3 68/372/3 266/375/3 413/374/3
f 413/374/3 266/375/3 69/351/3 158/349/3
f 153/155/3 413/374/3 158/349/3 20/14/3
f 35/194/5 160/193/5 414/376/5 259/377/5
f 160/193/5 21/18/5 257/356/5 414/376/5
f 414/376/5 257/356/5 77/358/5 267/378/5
f 259/377/5 414/376/5 267/378/5 79/379/5
f 4/7/5 179/200/5 415/380/5 121/8/5
f 179/200/5 34/199/5 258/381/5 415/380/5
f 415/380/5 258/381/5 78/382/5 268/383/5
f 121/8/5 415/380/5 268/383/5 63/9/5
f 34/199/5 186/231/5 416/384/5 258/381/5
f 186/231/5 35/194/5 259/377/5 416/384/5
f 416/384/5 259/377/5 79/379/5 269/385/5
f 258/381/5 416/384/5 269/385/5 78/382/5
f 97/386/1 304/387/1 417/388/1 321/389/1
f 304/387/1 75/149/1 270/157/1 417/388/1
f 417/388/1 270/157/1 76/1/1 305/390/1
f 321/389/1 417/388/1 305/390/1 98/391/1
f 93/392/1 300/393/1 418/394/1 320/395/1
f 300/393/1 71/57/1 271/145/1 418/394/1
f 418/394/1 271/145/1 75/149/1 304/387/1
f 320/395/1 418/394/1 304/387/1 97/386/1
f 95/396/1 302/397/1 419/398/1 319/399/1
f 302/397/1 73/88/1 272/91/1 419/398/1
f 419/398/1 272/91/1 74/95/1 303/400/1
f 319/399/1 419/398/1 303/400/1 96/326/1
f 104/336/65 245/401/65 420/402/65 318/403/65
f 245/401/66 65/81/66 273/84/66 420/402/66
f 420/402/67 273/84/67 67/87/67 247/404/67
f 318/403/68 420/402/68 247/404/68 106/332/68
f 94/317/69 301/405/69 421/406/69 317/407/69
f 301/405/70 72/49/70 274/52/70 421/406/70
f 421/406/71 274/52/71 71/57/71 300/393/71
f 317/407/72 421/406/72 300/393/72 93/392/72
f 98/391/1 305/390/1 422/408/1 316/409/1
f 305/390/1 76/1/1 275/4/1 422/408/1
f 422/408/1 275/4/1 63/9/1 243/410/1
f 316/409/1 422/408/1 243/410/1 102/301/1
f 1/31/3 126/30/3 423/411/3 125/69/3
f 126/30/3 82/29/3 282/412/3 423/411/3
f 423/411/3 282/412/3 85/413/3 132/414/3
f 125/69/3 423/411/3 132/414/3 8/70/3
f 82/29/3 278/415/3 424/416/3 282/412/3
f 278/415/3 81/77/3 283/76/3 424/416/3
f 424/416/3 283/76/3 84/78/3 281/417/3
f 282/412/3 424/416/3 281/417/3 85/413/3
f 492/418/1 277/419/1 425/420/1 493/421/1
f 277/419/1 80/58/1 284/61/1 425/420/1
f 425/420/1 284/61/1 83/66/1 280/422/1
f 493/423/1 425/420/1 280/422/1 494/424/1
f 469/425/4 81/77/4 342/426/4 495/427/4
f 495/428/4 342/426/4 117/429/4 496/430/4
f 117/429/4 342/426/4 426/431/4 347/432/4
f 342/426/4 81/77/4 278/415/4 426/431/4
f 426/431/4 278/415/4 82/29/4 344/26/4
f 347/432/4 426/431/4 344/26/4 119/25/4
f 86/433/2 292/434/2 427/435/2 287/436/2
f 292/434/2 88/437/2 288/438/2 427/435/2
f 427/435/2 288/438/2 89/262/2 293/261/2
f 287/436/2 427/435/2 293/261/2 87/260/2
f 90/251/2 289/439/2 428/440/2 291/252/2
f 289/439/2 86/433/2 287/436/2 428/440/2
f 428/440/2 287/436/2 87/260/2 290/441/2
f 291/252/2 428/440/2 290/441/2 91/253/2
f 45/249/4 212/283/4 429/442/4 295/250/4
f 212/283/4 44/282/4 297/443/4 429/442/4
f 429/442/4 297/443/4 86/433/4 289/439/4
f 295/250/4 429/442/4 289/439/4 90/251/4
f 44/282/4 215/292/4 430/444/4 297/443/4
f 215/292/4 42/280/4 298/445/4 430/444/4
f 430/444/4 298/445/4 88/437/4 292/434/4
f 297/443/4 430/444/4 292/434/4 86/433/4
f 46/258/5 213/287/5 431/446/5 205/259/5
f 213/287/5 47/245/5 296/248/5 431/446/5
f 431/446/5 296/248/5 91/253/5 290/441/5
f 205/259/5 431/446/5 290/441/5 87/260/5
f 42/280/73 211/277/73 432/447/73 298/445/73
f 211/277/73 43/254/73 294/257/73 432/447/73
f 432/447/73 294/257/73 89/262/73 288/438/73
f 298/445/73 432/447/73 288/438/73 88/437/73
f 497/448/1 229/449/1 433/450/1 498/451/1
f 229/449/1 98/391/1 316/409/1 433/450/1
f 433/450/1 316/409/1 102/301/1 309/304/1
f 498/451/1 433/450/1 309/304/1 486/452/1
f 225/318/74 434/453/74 500/454/74 499/455/74 487/456/74
f 225/318/75 94/317/75 317/407/75 434/453/75
f 434/453/76 317/407/76 93/392/76 224/457/76
f 434/453/77 224/457/77 502/458/77 501/459/77 500/460/77
f 55/42/78 311/337/78 435/461/78 239/333/78
f 311/337/78 104/336/78 318/403/78 435/461/78
f 435/461/78 318/403/78 106/332/78 313/331/78
f 239/333/78 435/461/78 313/331/78 57/105/78
f 503/462/1 226/463/1 436/464/1 504/465/1
f 226/463/1 95/396/1 319/399/1 436/464/1
f 436/464/1 319/399/1 96/326/1 227/323/1
f 504/466/1 436/464/1 227/323/1 489/467/1
f 502/468/1 224/457/1 437/469/1 505/470/1
f 224/457/1 93/392/1 320/395/1 437/469/1
f 437/469/1 320/395/1 97/386/1 228/471/1
f 505/470/1 437/469/1 228/471/1 506/472/1
f 506/473/1 228/471/1 438/474/1 507/475/1
f 228/471/1 97/386/1 321/389/1 438/474/1
f 438/474/1 321/389/1 98/391/1 229/449/1
f 507/476/1 438/474/1 229/449/1 497/477/1
f 69/351/3 249/478/3 439/479/3 260/352/3
f 249/478/3 108/345/3 322/348/3 439/479/3
f 439/479/3 322/348/3 92/342/3 299/480/3
f 260/352/3 439/479/3 299/480/3 70/353/3
f 77/358/5 261/357/5 440/481/5 306/482/5
f 261/357/5 70/353/5 299/480/5 440/481/5
f 440/481/5 299/480/5 92/342/5 323/340/5
f 306/482/5 440/481/5 323/340/5 99/309/5
f 65/81/79 245/401/79 441/483/79 262/361/79
f 245/401/80 104/336/80 324/339/80 441/483/80
f 441/483/81 324/339/81 103/311/81 244/484/81
f 262/361/82 441/483/82 244/484/82 64/362/82
f 66/366/3 246/485/3 442/486/3 263/367/3
f 246/485/3 105/327/3 325/330/3 442/486/3
f 442/486/3 325/330/3 106/332/3 247/404/3
f 263/367/3 442/486/3 247/404/3 67/87/3
f 72/49/49 301/405/49 443/487/49 264/369/49
f 301/405/49 94/317/49 326/320/49 443/487/49
f 443/487/49 326/320/49 96/326/49 303/400/49
f 264/369/49 443/487/49 303/400/49 74/95/49
f 64/362/3 244/484/3 444/488/3 265/371/3
f 244/484/3 103/311/3 327/314/3 444/488/3
f 444/488/3 327/314/3 107/316/3 248/489/3
f 265/371/3 444/488/3 248/489/3 68/372/3
f 68/372/3 248/489/3 445/490/3 266/375/3
f 248/489/3 107/316/3 328/491/3 445/490/3
f 445/490/3 328/491/3 108/345/3 249/478/3
f 266/375/3 445/490/3 249/478/3 69/351/3
f 79/379/5 267/378/5 446/492/5 308/493/5
f 267/378/5 77/358/5 306/482/5 446/492/5
f 446/492/5 306/482/5 99/309/5 329/307/5
f 308/493/5 446/492/5 329/307/5 101/299/5
f 63/9/5 268/383/5 447/494/5 243/410/5
f 268/383/5 78/382/5 307/495/5 447/494/5
f 447/494/5 307/495/5 100/295/5 330/302/5
f 243/410/5 447/494/5 330/302/5 102/301/5
f 78/382/5 269/385/5 448/496/5 307/495/5
f 269/385/5 79/379/5 308/493/5 448/496/5
f 448/496/5 308/493/5 101/299/5 331/296/5
f 307/495/5 448/496/5 331/296/5 100/295/5
f 111/497/3 333/498/3 449/499/3 335/500/3
f 333/498/3 109/501/3 332/502/3 449/499/3
f 449/499/3 332/502/3 110/503/3 334/504/3
f 335/500/3 449/499/3 334/504/3 112/505/3
f 58/133/2 236/150/2 450/506/2 337/507/2
f 236/150/2 59/20/2 336/508/2 450/506/2
f 450/506/2 336/508/2 110/503/2 332/502/2
f 337/507/2 450/506/2 332/502/2 109/501/2
f 508/509/4 285/510/4 451/511/4 277/419/4 492/418/4
f 285/510/4 118/512/4 346/513/4 451/511/4
f 451/511/4 346/513/4 120/514/4 286/515/4
f 277/419/4 451/511/4 286/515/4 80/58/4
f 118/512/4 343/516/4 452/517/4 346/513/4
f 343/516/4 117/429/4 347/432/4 452/517/4
f 452/517/4 347/432/4 119/25/4 345/518/4
f 346/513/4 452/517/4 345/518/4 120/514/4
f 509/519/4 118/512/4 285/510/4 510/520/4
f 510/520/4 285/510/4 508/521/4 511/522/4
f 496/430/4 117/429/4 343/516/4 512/523/4
f 512/524/4 343/516/4 118/512/4 509/525/4
f 3/62/2 123/526/2 453/527/2 122/63/2
f 123/526/2 114/528/2 348/529/2 453/527/2
f 453/527/2 348/529/2 116/530/2 131/531/2
f 122/63/2 453/527/2 131/531/2 7/64/2
f 114/528/2 339/532/2 454/533/2 348/529/2
f 339/532/2 113/33/2 349/68/2 454/533/2
f 454/533/2 349/68/2 115/72/2 341/534/2
f 348/529/2 454/533/2 341/534/2 116/530/2
f 80/58/4 286/515/4 455/535/4 276/59/4
f 286/515/4 120/514/4 350/536/4 455/535/4
f 455/535/4 350/536/4 114/528/4 123/526/4
f 276/59/4 455/535/4 123/526/4 3/62/4
f 120/514/4 345/518/4 456/537/4 350/536/4
f 345/518/4 119/25/4 351/28/4 456/537/4
f 456/537/4 351/28/4 113/33/4 339/532/4
f 350/536/4 456/537/4 339/532/4 114/528/4
o Drawer
v -1.814356 0.000000 1.400000
v -1.814356 0.943446 1.400000
v -1.814356 0.000000 1.055185
v -1.814356 0.943446 1.055185
v 1.000000 0.943446 1.400000
v 1.000000 0.000000 1.055185
v 1.000000 0.943446 1.055185
v -1.749774 0.000000 1.055185
v -1.749774 0.943446 1.055185
v -1.749774 0.943446 1.400000
v -1.814356 0.996940 1.400000
v -1.814356 0.996940 1.055185
v -1.749774 0.996940 1.400000
v -1.749774 0.996940 1.055185
v 0.869851 0.943446 1.055185
v 0.869851 0.000000 1.055185
v 0.869851 0.943446 1.400000
v -1.814356 0.393308 1.400000
v -1.814356 0.393308 1.055185
v 1.000000 0.393308 1.055185
v -1.749774 0.393308 1.055185
v 0.869851 0.393308 1.055185
v -1.814356 0.419797 1.400000
v -1.814356 0.419797 1.055185
v 1.000000 0.419797 1.055185
v 0.869851 0.419797 1.055185
v 0.214944 0.000000 1.055185
v -0.439962 0.000000 1.055185
v -1.094868 0.000000 1.055185
v 0.214944 0.943446 1.400000
v -0.439962 0.943446 1.400000
v -1.094868 0.943446 1.400000
v -1.094868 0.943446 1.055185
v -0.439962 0.943446 1.055185
v 0.214944 0.943446 1.055185
v -1.094868 0.393308 1.055185
v -0.439962 0.393308 1.055185
v 0.214944 0.393308 1.055185
v -1.094868 0.419797 1.055185
v -0.439962 0.419797 1.055185
v 0.214944 0.419797 1.055185
v -1.814356 0.909674 1.400000
v -1.814356 0.909674 1.055185
v 1.000000 0.909674 1.055185
v -1.749774 0.909674 1.055185
v 0.869851 0.909674 1.055185
v -0.439962 0.909674 1.055185
v 0.214944 0.909674 1.055185
v -1.749774 0.419797 1.055185
v -1.094868 0.419797 1.137350
v -0.439962 0.419797 1.130921
v -0.439962 0.837527 1.130921
v 0.214944 0.419797 1.125620
v -1.094868 0.830498 1.137350
v 0.214944 0.841731 1.125620
v 0.869851 0.846119 1.121310
v 0.869851 0.419797 1.121310
v -1.094868 0.909674 1.055185
vn -1.0000 -0.0000 -0.0000
vn -0.0000 -0.0000 -1.0000
vn 1.0000 -0.0000 -0.0000
vn -0.0000 1.0000 -0.0000
vn -0.0000 -0.0000 1.0000
vt 0.931134 0.262200
vt 0.931226 0.269878
vt 0.826675 0.270717
vt 0.826581 0.263042
vt 0.750327 0.319238
vt 0.750399 0.325016
vt 0.747647 0.326975
vt 0.747576 0.321265
vt 0.927989 0.271607
vt 0.824257 0.272439
vt 0.824405 0.284500
vt 0.928133 0.283672
vt 0.801718 0.288484
vt 0.897810 0.287718
vt 0.824164 0.264823
vt 0.826824 0.282874
vt 0.931372 0.282039
vt 0.829102 0.324397
vt 0.825418 0.326364
vt 0.765235 0.308251
vt 0.765311 0.314401
vt 0.763177 0.142536
vt 0.764067 0.214203
vt 0.749226 0.230861
vt 0.748387 0.163518
vt 0.824047 0.056182
vt 0.825143 0.145649
vt 0.822736 0.148350
vt 0.821648 0.059586
vt 0.746487 0.233935
vt 0.745657 0.167390
vt 0.928658 0.055277
vt 0.929729 0.144771
vt 0.764127 0.219029
vt 0.749282 0.235396
vt 0.825217 0.151673
vt 0.822809 0.154327
vt 0.746543 0.238416
vt 0.929801 0.150797
vt 0.800370 0.179068
vt 0.800302 0.173532
vt 0.781006 0.200418
vt 0.780942 0.195261
vt 0.799289 0.091306
vt 0.779995 0.118677
vt 0.801631 0.281429
vt 0.782267 0.302330
vt 0.782186 0.295759
vt 0.849067 0.313739
vt 0.871768 0.301620
vt 0.823269 0.178878
vt 0.824321 0.264705
vt 0.764376 0.235273
vt 0.765282 0.308243
vt 0.800666 0.200256
vt 0.801667 0.281564
vt 0.781236 0.218889
vt 0.782187 0.295743
s 0
f 554/538/83 514/539/83 516/540/83 555/541/83
f 558/542/84 527/543/84 519/544/84 556/545/84
f 522/546/85 521/547/85 526/548/85 525/549/85
f 545/550/86 521/547/86 522/546/86 544/551/86
f 555/541/84 516/540/84 521/547/84 557/552/84
f 526/548/86 524/553/86 523/554/86 525/549/86
f 521/547/84 516/540/84 524/553/84 526/548/84
f 514/539/87 522/546/87 525/549/87 523/554/87
f 516/540/83 514/539/83 523/554/83 524/553/83
f 519/544/86 527/543/86 529/555/86 517/556/86
f 560/557/84 547/558/84 527/543/84 558/542/84
f 539/559/84 550/560/84 534/561/84 528/562/84
f 515/563/84 531/564/84 533/565/84 520/566/84
f 528/562/84 534/561/84 532/567/84 518/568/84
f 513/569/83 530/570/83 531/564/83 515/563/83
f 550/560/84 553/571/84 538/572/84 534/561/84
f 531/564/84 536/573/84 561/574/84 533/565/84
f 534/561/84 538/572/84 537/575/84 532/567/84
f 530/570/83 535/576/83 536/573/83 531/564/83
f 533/565/84 561/574/84 551/577/84 548/578/84
f 548/578/84 551/577/84 552/579/84 549/580/84
f 549/580/84 552/579/84 553/571/84 550/560/84
f 520/566/84 533/565/84 548/578/84 541/581/84
f 541/581/84 548/578/84 549/580/84 540/582/84
f 540/582/84 549/580/84 550/560/84 539/559/84
f 557/552/84 521/547/84 545/550/84 570/583/84
f 570/583/84 545/550/84 546/584/84 559/585/84
f 559/585/84 546/584/84 547/558/84 560/557/84
f 527/543/86 547/558/86 542/586/86 529/555/86
f 547/558/86 546/584/86 543/587/86 542/586/86
f 546/584/86 545/550/86 544/551/86 543/587/86
f 551/577/83 562/588/83 566/589/83 570/583/83
f 558/542/83 538/572/83 569/590/83 568/591/83
f 536/573/84 555/541/84 557/552/84 561/574/84
f 538/572/84 558/542/84 556/545/84 537/575/84
f 535/576/83 554/538/83 555/541/83 536/573/83
f 551/577/86 561/574/86 562/588/86
f 552/579/86 551/577/86 563/592/86
f 559/585/83 552/579/83 563/592/83 564/593/83
f 553/571/86 552/579/86 565/594/86
f 560/557/83 553/571/83 565/594/83 567/595/83
f 538/572/86 553/571/86 569/590/86
o Pahmplets
v -1.490717 0.942749 1.326296
v -1.490717 1.255257 1.431483
v -0.180905 1.255257 1.431483
v -0.835811 1.255257 1.431483
v -0.835811 0.942749 1.326296
v -0.180905 0.942749 1.326296
v -2.739693 1.412542 1.360868
v -2.739693 1.144121 1.426028
v -2.107861 1.144121 1.426028
v -2.107861 1.412542 1.360868
v -2.739693 1.515533 1.360868
v -2.739693 1.247112 1.426028
v -2.107861 1.247112 1.426028
v -2.107861 1.515533 1.360868
v -2.739693 1.751936 1.360868
v -2.739693 1.483515 1.426028
v -2.107861 1.483515 1.426028
v -2.107861 1.751936 1.360868
v -2.762767 1.887459 1.360868
v -2.107861 1.619038 1.426028
v -2.107861 1.887459 1.360868
v -2.720244 1.966517 1.360868
v -2.720244 1.698096 1.426028
v -2.373552 1.698096 1.426028
v -2.373552 1.966517 1.360868
v -2.720244 2.296674 1.360868
v -2.720244 2.028253 1.426028
v -2.373552 2.028253 1.426028
v -2.373552 2.296674 1.360868
v -2.720244 2.132668 1.360868
v -2.720244 1.864247 1.426028
v -2.373552 1.864247 1.426028
v -2.373552 2.132668 1.360868
v -2.783926 1.241197 1.323026
v -2.783926 0.972776 1.388186
v -2.472225 0.972776 1.388186
v -2.472225 1.241197 1.323026
v -2.760276 1.619038 1.426028
v -2.762767 1.621088 1.425531
vn -0.0000 0.3190 -0.9478
vn -0.0000 -0.2359 -0.9718
vt 0.867099 0.293472
vt 0.893992 0.278296
vt 0.925498 0.346378
vt 0.896355 0.356685
vt 0.843795 0.306623
vt 0.871101 0.365617
vt 0.935621 0.372340
vt 0.955361 0.308914
vt 0.993457 0.293098
vt 0.971989 0.362049
vt 0.935911 0.396608
vt 0.955650 0.333192
vt 0.993768 0.319490
vt 0.972302 0.388431
vt 0.936577 0.452301
vt 0.956314 0.388907
vt 0.994483 0.380058
vt 0.973020 0.448972
vt 0.996250 0.415057
vt 0.974884 0.483647
vt 0.936959 0.484220
vt 0.956694 0.420839
vt 0.996263 0.414553
vt 0.951789 0.503266
vt 0.972214 0.437684
vt 0.993857 0.435166
vt 0.972454 0.503872
vt 0.952748 0.583704
vt 0.973169 0.518155
vt 0.994852 0.519470
vt 0.973454 0.588139
vt 0.952272 0.543751
vt 0.972695 0.478185
vt 0.994358 0.477596
vt 0.972957 0.546284
vt 0.942865 0.324377
vt 0.963565 0.257862
vt 0.982830 0.247804
vt 0.961231 0.317196
s 0
f 575/596/88 571/597/88 572/598/88 574/599/88
f 576/600/88 575/596/88 574/599/88 573/601/88
f 580/602/89 579/603/89 578/604/89 577/605/89
f 584/606/89 583/607/89 582/608/89 581/609/89
f 588/610/89 587/611/89 586/612/89 585/613/89
f 609/614/89 589/615/89 591/616/89 590/617/89 608/618/89
f 595/619/89 594/620/89 593/621/89 592/622/89
f 599/623/89 598/624/89 597/625/89 596/626/89
f 603/627/89 602/628/89 601/629/89 600/630/89
f 607/631/89 606/632/89 605/633/89 604/634/89
o Chair
v 1.155797 0.000000 0.168690
v 1.155749 0.540000 0.167636
v 1.131206 0.000000 -0.373049
v 1.130698 0.540000 -0.384224
v 1.669505 0.573086 -0.395301
v 1.693460 0.573086 0.132432
v 1.698942 1.022431 -0.408373
v 1.723429 1.020273 0.131072
v 1.155749 0.499712 0.167636
v 1.130698 0.499712 -0.384224
v 1.132497 0.000000 -0.344602
v 1.154647 0.000000 0.143349
v 1.152902 0.540000 0.104916
v 1.133131 0.540000 -0.330635
v 1.671404 0.573086 -0.353455
v 1.691561 0.573086 0.090586
v 1.700842 1.028859 -0.366527
v 1.721530 1.028859 0.089226
v 1.152902 0.499712 0.104916
v 1.133131 0.499712 -0.330635
v 1.221277 0.540000 0.164662
v 1.196226 0.540000 -0.387199
v 1.198659 0.540000 -0.333610
v 1.218430 0.540000 0.101942
v 1.703450 0.874880 0.131979
v 1.678963 0.874880 -0.407466
v 1.680862 0.874880 -0.365620
v 1.701939 0.874880 0.098691
v 1.887345 0.000000 0.140771
v 1.885997 0.408460 0.111072
v 1.885955 0.000000 0.110152
v 1.885100 0.408460 0.091320
vn -0.9990 -0.0000 0.0453
vn -0.0000 1.0000 -0.0000
vn -0.9893 0.1328 0.0601
vn -0.9907 0.1315 0.0349
vn -0.9906 0.1288 0.0450
vn -0.0697 0.9976 0.0032
vn -0.9984 0.0331 0.0453
vt 0.435438 0.257280
vt 0.435527 0.264007
vt 0.423587 0.264054
vt 0.423498 0.257326
vt 0.531668 0.264960
vt 0.532410 0.263629
vt 0.546337 0.263575
vt 0.545514 0.264906
vt 0.531103 0.327486
vt 0.538148 0.327452
vt 0.538222 0.350783
vt 0.529400 0.352191
vt 0.431215 0.173832
vt 0.424875 0.173848
vt 0.545400 0.173545
vt 0.546250 0.256860
vt 0.532322 0.256913
vt 0.539772 0.173559
vt 0.423794 0.328010
vt 0.432679 0.327967
vt 0.432958 0.352698
vt 0.424075 0.351724
vt 0.423481 0.265384
vt 0.435351 0.265337
vt 0.434551 0.279758
vt 0.528771 0.279368
vt 0.425658 0.279795
vt 0.537637 0.279331
vt 0.537884 0.193103
vt 0.532527 0.257034
vt 0.528410 0.257050
vt 0.531502 0.193121
s 0
f 629/635/90 623/636/90 613/637/90 619/638/90
f 633/639/91 622/640/91 611/641/91 630/642/91
f 637/643/92 634/644/92 617/645/92 627/646/92
f 620/647/90 629/635/90 619/638/90 612/648/90
f 610/649/90 618/650/90 628/651/90 621/652/90
f 635/653/93 636/654/93 626/655/93 616/656/93
f 636/654/94 637/643/94 627/646/94 626/655/94
f 631/657/91 613/637/91 623/636/91 632/658/91
f 632/658/91 623/636/91 622/640/91 633/639/91
f 618/650/90 611/641/90 622/640/90 628/651/90
f 628/651/90 622/640/90 623/636/90 629/635/90
f 624/659/95 632/658/95 633/639/95 625/660/95
f 614/661/95 631/657/95 632/658/95 624/659/95
f 625/660/95 633/639/95 630/642/95 615/662/95
f 614/661/96 624/659/96 636/654/96 635/653/96
f 625/660/96 615/662/96 634/644/96 637/643/96
f 638/663/90 639/664/90 641/665/90 640/666/90
o Chair.001
v 1.519885 -0.000000 -0.600184
v 1.519885 0.540000 -0.600184
v 0.982858 0.000000 -0.953441
v 0.982858 0.540000 -0.953441
v 1.357549 0.540000 -1.371338
v 1.307042 0.540000 -1.330002
v 1.755519 0.540000 -1.005529
v 1.362594 0.975918 -1.374394
v 1.413101 0.975918 -1.415730
v 1.816025 0.993581 -1.077637
v 1.774803 0.993581 -1.028510
v 1.519885 0.471239 -0.600184
v 0.982858 0.471239 -0.953441
v 1.357549 0.466449 -1.371338
v 1.316327 0.466449 -1.322211
v 1.019479 0.000000 -0.922713
v 1.483264 -0.000000 -0.630913
v 1.464730 0.540000 -0.646465
v 1.038013 0.540000 -0.907161
v 1.388719 0.540000 -1.313311
v 1.700364 0.540000 -1.051810
v 1.457516 0.993581 -1.378462
v 1.760870 0.993581 -1.123918
v 1.416294 0.993581 -1.329335
v 1.719647 0.993581 -1.074791
v 1.464730 0.471239 -0.646465
v 1.038013 0.471239 -0.907161
v 1.025022 0.000000 -1.003690
v 1.622931 0.540000 -0.762176
v 1.113769 0.540000 -1.106376
v 1.025022 0.471239 -1.003690
v 1.177270 0.540000 -1.069406
v 1.548740 0.540000 -0.824430
v 1.404417 0.849180 -1.396909
v 1.761947 0.849180 -1.013189
v 1.353909 0.849180 -1.355574
v 1.387034 0.849180 -1.327778
v 1.706792 0.849180 -1.059470
v 1.357732 0.418125 -1.370986
v 1.316509 0.418125 -1.321859
vn -0.6428 -0.0000 0.7660
vn -0.6998 -0.0818 -0.7096
vn -0.0000 1.0000 -0.0000
vn -0.7423 -0.0999 -0.6626
vn -0.6317 -0.0713 -0.7719
vn -0.6367 0.1372 0.7588
vn -0.6532 0.1472 0.7427
vn -0.1875 0.9637 -0.1901
vn -0.5213 -0.0000 0.8533
vn -0.7660 -0.0000 -0.6428
vn -0.7612 0.0071 -0.6484
vn -0.3600 0.0865 0.9289
vn -0.6425 0.0323 0.7656
vn -0.6330 0.0320 -0.7735
vn -0.7660 -0.0076 -0.6428
vt 0.305367 0.251523
vt 0.305525 0.263098
vt 0.294033 0.262041
vt 0.293874 0.250408
vt 0.219839 0.257343
vt 0.218059 0.269250
vt 0.210389 0.270305
vt 0.210222 0.258275
vt 0.332636 0.273006
vt 0.369701 0.271105
vt 0.380355 0.272075
vt 0.347074 0.274287
vt 0.283452 0.251417
vt 0.262622 0.265005
vt 0.273946 0.349073
vt 0.283458 0.348495
vt 0.294278 0.349083
vt 0.284772 0.349657
vt 0.206807 0.321607
vt 0.214428 0.320785
vt 0.210852 0.341660
vt 0.203253 0.342388
vt 0.286125 0.325403
vt 0.296945 0.326100
vt 0.300432 0.171667
vt 0.292782 0.170662
vt 0.379183 0.184936
vt 0.380206 0.260981
vt 0.369551 0.259958
vt 0.372115 0.184016
vt 0.221346 0.321231
vt 0.222094 0.345156
vt 0.212554 0.345761
vt 0.272253 0.266219
vt 0.223831 0.270806
vt 0.286944 0.276209
vt 0.282363 0.171978
vt 0.297768 0.277136
vt 0.210194 0.250374
vt 0.219811 0.249413
s 0
f 668/667/97 660/668/97 645/669/97 654/670/97
f 656/671/98 647/672/98 646/673/98 655/674/98
f 674/675/99 659/676/99 643/677/99 670/678/99
f 672/679/100 671/680/100 647/672/100 656/671/100
f 664/681/99 666/682/99 652/683/99 651/684/99
f 675/685/101 677/686/101 649/687/101 650/688/101
f 679/689/102 676/690/102 652/683/102 666/682/102
f 657/691/97 668/667/97 654/670/97 644/692/97
f 642/693/97 653/694/97 667/695/97 658/696/97
f 677/686/103 678/697/103 665/698/103 649/687/103
f 678/697/102 679/689/102 666/682/102 665/698/102
f 650/688/104 649/687/104 665/698/104 663/699/104
f 663/699/99 665/698/99 666/682/99 664/681/99
f 671/680/99 645/669/99 660/668/99 673/700/99
f 673/700/99 660/668/99 659/676/99 674/675/99
f 653/694/97 643/677/97 659/676/97 667/695/97
f 667/695/105 659/676/105 660/668/105 668/667/105
f 661/701/99 673/700/99 674/675/99 662/702/99
f 647/672/99 671/680/99 673/700/99 661/701/99
f 644/692/106 654/670/106 672/679/106 669/703/106
f 654/670/107 645/669/107 671/680/107 672/679/107
f 662/702/99 674/675/99 670/678/99 648/704/99
f 647/672/108 661/701/108 678/697/108 677/686/108
f 662/702/109 648/704/109 676/690/109 679/689/109
f 646/673/110 647/672/110 677/686/110 675/685/110
f 656/671/111 655/674/111 680/705/111 681/706/111
o Chair.002
v 0.366568 0.000000 -0.857137
v 0.366568 0.540000 -0.857137
v -0.219777 0.000000 -0.933777
v -0.219777 0.540000 -0.933777
v -0.139554 0.540000 -1.497408
v -0.144345 0.450255 -1.442648
v -0.143445 0.540000 -1.452937
v -0.139554 0.448913 -1.497408
v 0.391269 0.540000 -1.368940
v -0.141730 1.005226 -1.472534
v -0.136940 1.005226 -1.527294
v 0.392983 0.996053 -1.388538
v 0.366568 0.482394 -0.857137
v -0.219777 0.482394 -0.933777
v -0.139554 0.469925 -1.497408
v -0.144345 0.471267 -1.442648
v -0.172153 0.000000 -0.929610
v 0.318945 0.000000 -0.861304
v 0.294842 0.540000 -0.863412
v -0.148051 0.540000 -0.927502
v -0.071719 0.540000 -1.446661
v 0.319543 0.540000 -1.375215
v -0.064415 1.005226 -1.530145
v 0.326847 1.005226 -1.458699
v -0.070004 1.005226 -1.466259
v 0.321258 1.005226 -1.394813
v 0.294842 0.482394 -0.863412
v -0.148051 0.482394 -0.927502
v -0.216850 0.000000 -0.967231
v 0.380127 0.540000 -1.106899
v -0.184891 0.540000 -1.186578
v -0.214060 0.482394 -0.999123
v -0.113165 0.540000 -1.180303
v 0.308401 0.540000 -1.113175
v -0.138439 0.870992 -1.510155
v 0.391484 0.870992 -1.371399
v -0.143230 0.870992 -1.455395
v -0.071504 0.870992 -1.449120
v 0.319758 0.870992 -1.377674
v 0.299963 0.482394 -0.921939
v 0.322270 0.000000 -0.899306
v 0.323530 0.540000 -1.420784
v 0.323502 0.857359 -1.420472
v 0.066830 0.540000 -1.467658
vn -0.0872 -0.0000 0.9962
vn -0.9962 -0.0000 -0.0872
vn -0.0000 1.0000 -0.0000
vn -0.9880 -0.0068 -0.1546
vn -0.0780 0.1315 0.9882
vn -0.0864 0.1271 0.9881
vn -0.1782 0.1266 0.9758
vn -0.1432 -0.0000 0.9897
vn -0.9909 0.0451 -0.1265
vn -0.0872 0.0075 0.9962
vn -0.9949 -0.0501 -0.0870
vt 0.274730 0.224919
vt 0.274880 0.235784
vt 0.271512 0.233930
vt 0.271362 0.222986
vt 0.145526 0.223979
vt 0.143162 0.236976
vt 0.132161 0.237167
vt 0.131974 0.223967
vt 0.241070 0.247415
vt 0.300726 0.246609
vt 0.303725 0.248283
vt 0.244476 0.249082
vt 0.254986 0.223277
vt 0.208680 0.235360
vt 0.129890 0.299547
vt 0.143432 0.299345
vt 0.139549 0.324688
vt 0.126012 0.324877
vt 0.178824 0.307763
vt 0.182653 0.309011
vt 0.178938 0.331413
vt 0.175106 0.331970
vt 0.131918 0.220009
vt 0.145470 0.220018
vt 0.272350 0.133044
vt 0.270101 0.131314
vt 0.302402 0.151465
vt 0.303584 0.237957
vt 0.300584 0.236211
vt 0.300409 0.149909
vt 0.147695 0.300712
vt 0.143839 0.325872
vt 0.128158 0.326090
vt 0.159999 0.332176
vt 0.212490 0.237197
vt 0.147428 0.238793
vt 0.178572 0.248187
vt 0.261714 0.131492
vt 0.182404 0.249846
vt 0.286632 0.236452
vt 0.291368 0.150096
vt 0.168663 0.305459
vt 0.167789 0.248369
vt 0.147363 0.242295
s 0
f 709/707/112 701/708/112 685/709/112 695/710/112
f 697/711/113 688/712/113 686/713/113 696/714/113
f 715/715/114 700/716/114 683/717/114 711/718/114
f 713/719/115 712/720/115 688/712/115 697/711/115
f 716/721/113 718/722/113 691/723/113 692/724/113
f 720/725/116 717/726/116 693/727/116 707/728/116
f 697/711/113 696/714/113 689/729/113 687/730/113
f 698/731/112 709/707/112 695/710/112 684/732/112
f 682/733/112 694/734/112 708/735/112 699/736/112
f 718/722/117 719/737/117 706/738/117 691/723/117
f 719/737/118 720/725/118 707/728/118 706/738/118
f 692/724/114 691/723/114 706/738/114 704/739/114
f 704/739/114 706/738/114 707/728/114 705/740/114
f 712/720/114 685/709/114 701/708/114 714/741/114
f 714/741/114 701/708/114 700/716/114 715/715/114
f 694/734/112 683/717/112 700/716/112 708/735/112
f 708/735/119 700/716/119 701/708/119 709/707/119
f 702/742/114 714/741/114 715/715/114 703/743/114
f 688/712/114 712/720/114 714/741/114 702/742/114
f 684/732/113 695/710/113 713/719/113 710/744/113
f 695/710/120 685/709/120 712/720/120 713/719/120
f 703/743/114 715/715/114 711/718/114 690/745/114
f 688/712/121 702/742/121 719/737/121 718/722/121
f 703/743/121 690/745/121 717/726/121 720/725/121
f 686/713/113 688/712/113 718/722/113 716/721/113
f 699/736/122 708/735/122 721/746/122 722/747/122
f 703/743/113 720/725/113 724/748/113 723/749/113
f 702/742/114 703/743/114 723/749/114 725/750/114
o Chair.003
v -0.868112 0.025163 -0.900191
v -0.868112 0.540000 -0.900191
v -1.414401 0.000000 -0.957839
v -1.414401 0.540000 -0.957839
v -1.330801 0.000000 -1.533478
v -1.330801 0.540000 -1.533478
v -1.335468 0.000000 -1.491155
v -1.335468 0.540000 -1.491155
v -0.798722 0.540000 -1.431965
v -1.331720 0.993410 -1.525144
v -1.327052 0.993410 -1.567467
v -0.794973 0.971509 -1.465954
v -0.868112 0.479183 -0.900191
v -1.414401 0.479183 -0.957839
v -1.330801 0.457270 -1.533478
v -1.335468 0.457270 -1.491155
v -1.366883 0.000000 -0.952599
v -0.915630 0.000000 -0.905432
v -0.939678 0.540000 -0.908083
v -1.342835 0.540000 -0.949947
v -1.263902 0.540000 -1.483263
v -0.870288 0.540000 -1.439857
v -1.254842 1.005226 -1.565414
v -0.861228 0.986420 -1.522008
v -1.260154 1.005226 -1.517252
v -0.866540 0.986420 -1.473846
v -0.939678 0.479183 -0.908083
v -1.342835 0.479183 -0.949947
v -1.407211 0.000000 -1.023040
v -0.842123 0.540000 -1.135870
v -1.389806 0.540000 -1.180871
v -1.407211 0.479183 -1.023040
v -1.318240 0.540000 -1.172979
v -0.913689 0.540000 -1.143762
v -1.329705 0.860722 -1.543418
v -0.797626 0.849180 -1.441905
v -1.334372 0.860722 -1.501095
v -1.262806 0.860722 -1.493203
v -0.869192 0.849180 -1.449797
v -0.901154 0.428975 -0.971163
v -0.910054 0.000000 -0.955996
v -1.132005 0.540000 -1.506974
v -0.866120 0.540000 -1.477654
v -0.865080 0.838095 -1.487082
vn -0.1096 -0.0000 0.9940
vn -0.9940 -0.0000 -0.1096
vn -0.0000 1.0000 -0.0000
vn -0.9859 -0.0544 -0.1582
vn -0.0889 0.1832 0.9790
vn -0.1220 0.1720 0.9775
vn -0.1016 0.1693 0.9803
vn -0.1610 0.9868 -0.0178
vn 0.0472 0.9989 0.0052
vn -0.1033 -0.0000 0.9947
vn -0.1096 0.0312 0.9935
vn -0.1096 0.0323 0.9935
vn -0.9353 -0.0225 -0.3530
vt 0.234790 0.187663
vt 0.234971 0.200716
vt 0.230342 0.198321
vt 0.230160 0.185160
vt 0.080541 0.184503
vt 0.080794 0.202235
vt 0.068965 0.202490
vt 0.068712 0.184767
vt 0.195564 0.214823
vt 0.258974 0.213505
vt 0.263139 0.215656
vt 0.200211 0.216957
vt 0.211634 0.185571
vt 0.167110 0.199684
vt 0.067171 0.271229
vt 0.078995 0.271014
vt 0.072681 0.299549
vt 0.060865 0.299748
vt 0.115165 0.279721
vt 0.120411 0.281341
vt 0.114418 0.306124
vt 0.109170 0.307729
vt 0.079143 0.086460
vt 0.067312 0.086781
vt 0.231814 0.083666
vt 0.228722 0.081429
vt 0.261696 0.110874
vt 0.262968 0.203281
vt 0.258802 0.201032
vt 0.258859 0.103752
vt 0.084815 0.272791
vt 0.078586 0.303602
vt 0.065248 0.303824
vt 0.096386 0.307938
vt 0.172245 0.202060
vt 0.086601 0.204575
vt 0.116916 0.216789
vt 0.210193 0.081933
vt 0.122150 0.218898
vt 0.242607 0.192145
vt 0.245254 0.104107
vt 0.106872 0.216998
vt 0.086398 0.208876
vt 0.105228 0.277644
s 0
f 753/751/123 745/752/123 729/753/123 739/754/123
f 741/755/124 733/756/124 731/757/124 740/758/124
f 759/759/125 744/760/125 727/761/125 755/762/125
f 757/763/126 756/764/126 733/756/126 741/755/126
f 760/765/124 762/766/124 735/767/124 736/768/124
f 764/769/127 761/770/127 737/771/127 751/772/127
f 732/773/124 741/755/124 740/758/124 730/774/124
f 742/775/123 753/751/123 739/754/123 728/776/123
f 726/777/123 738/778/123 752/779/123 743/780/123
f 762/766/128 763/781/128 750/782/128 735/767/128
f 763/781/129 764/769/129 751/772/129 750/782/129
f 736/768/130 735/767/130 750/782/130 748/783/130
f 748/783/131 750/782/131 751/772/131 749/784/131
f 756/764/125 729/753/125 745/752/125 758/785/125
f 758/785/125 745/752/125 744/760/125 759/759/125
f 738/778/123 727/761/123 744/760/123 752/779/123
f 752/779/132 744/760/132 745/752/132 753/751/132
f 746/786/125 758/785/125 759/759/125 747/787/125
f 733/756/125 756/764/125 758/785/125 746/786/125
f 728/776/124 739/754/124 757/763/124 754/788/124
f 739/754/124 729/753/124 756/764/124 757/763/124
f 747/787/125 759/759/125 755/762/125 734/789/125
f 733/756/133 746/786/133 763/781/133 762/766/133
f 747/787/134 734/789/134 761/770/134 764/769/134
f 731/757/124 733/756/124 762/766/124 760/765/124
f 743/780/135 752/779/135 765/790/135 766/791/135
f 746/786/125 747/787/125 768/792/125 767/793/125
f 769/794/124 768/792/124 747/787/124 764/769/124
o Chair.004
v -2.126646 0.000000 -0.896070
v -2.159546 0.540000 -0.898324
v -2.784948 0.000000 -0.943396
v -2.784074 0.540000 -0.951605
v -2.711081 0.434993 -1.448472
v -2.709382 0.540000 -1.464435
v -2.125062 0.540000 -1.411320
v -2.121887 0.979285 -1.441152
v -2.159546 0.478779 -0.898324
v -2.784074 0.478779 -0.951605
v -2.711081 0.457791 -1.448472
v -2.737411 0.000000 -0.938337
v -2.174182 0.000000 -0.901129
v -2.231142 0.540000 -0.905944
v -2.712478 0.540000 -0.943985
v -2.652658 0.540000 -1.458398
v -2.196658 0.540000 -1.418940
v -2.188764 0.991508 -1.493117
v -2.634612 1.010779 -1.486647
v -2.193483 0.991508 -1.448771
v -2.231142 0.478779 -0.905944
v -2.712478 0.478779 -0.943985
v -2.781870 0.000000 -0.972310
v -2.136788 0.540000 -1.112161
v -2.762190 0.540000 -1.157233
v -2.778006 0.478779 -1.008623
v -2.690594 0.540000 -1.149613
v -2.208384 0.540000 -1.119781
v -2.124004 0.849180 -1.421264
v -2.708324 0.849180 -1.474379
v -2.651600 0.849180 -1.468342
v -2.195600 0.849180 -1.428884
v -2.213452 0.432985 -0.954836
v -2.171494 0.000000 -0.926395
v -2.496666 0.540000 -1.490083
v -2.195124 0.540000 -1.450659
v -2.191963 0.832134 -1.463053
v -2.708135 0.540000 -1.476153
v -2.708233 0.457134 -1.475231
v -2.707716 0.893980 -1.480089
v -2.707769 0.849180 -1.479591
v -2.708260 0.434375 -1.474978
v -2.666017 1.008343 -1.489989
v -2.633536 1.010779 -1.496759
v -2.568813 1.008039 -1.510166
vn -0.1058 -0.0000 0.9944
vn -0.9944 -0.0000 -0.1058
vn -0.0000 1.0000 -0.0000
vn -0.9859 -0.0590 -0.1564
vn -0.0924 0.1453 0.9851
vn -0.1058 0.0172 0.9942
vn -0.1058 -0.0026 0.9944
vn -0.1091 0.1246 0.9862
vn -0.0824 0.1294 0.9882
vn -0.0765 0.9970 -0.0081
vn 0.0432 0.9991 0.0046
vn -0.0788 -0.0000 0.9969
vn -0.1058 0.0323 0.9939
vn -0.9737 -0.1129 -0.1979
vn -0.9968 0.0040 -0.0793
vt 0.183681 0.130693
vt 0.183899 0.146300
vt 0.177979 0.142911
vt 0.177759 0.127149
vt 0.012625 0.126860
vt 0.007637 0.147929
vt 0.003756 0.148021
vt 0.003757 0.126911
vt 0.149696 0.169009
vt 0.216672 0.167501
vt 0.221823 0.170427
vt 0.155439 0.171913
vt 0.158525 0.127619
vt 0.108781 0.144552
vt 0.005481 0.226723
vt 0.003756 0.238160
vt 0.003756 0.226757
vt 0.053476 0.243905
vt 0.060079 0.246123
vt 0.054405 0.276893
vt 0.047794 0.277863
vt 0.012541 0.121051
vt 0.003757 0.126911
vt 0.003757 0.121113
vt 0.182746 0.006917
vt 0.178806 0.003749
vt 0.221998 0.044285
vt 0.221621 0.155919
vt 0.216469 0.152859
vt 0.218603 0.041590
vt 0.007074 0.270109
vt 0.003740 0.268552
vt 0.003756 0.238160
vt 0.011457 0.228739
vt 0.003740 0.268552
vt 0.003760 0.270169
vt 0.003760 0.270169
vt 0.034057 0.278104
vt 0.003505 0.271379
vt 0.115358 0.147914
vt 0.013598 0.150552
vt 0.055506 0.170282
vt 0.169043 0.004044
vt 0.062093 0.173169
vt 0.003756 0.226757
vt 0.201473 0.142828
vt 0.210722 0.041814
vt 0.045557 0.170428
vt 0.013632 0.157695
vt 0.042824 0.240055
s 0
f 791/795/136 784/796/136 773/797/136 779/798/136
f 780/799/137 775/800/137 807/801/137 808/802/137
f 797/803/138 783/804/138 771/805/138 793/806/138
f 795/807/139 794/808/139 775/800/139 780/799/139
f 799/809/137 809/810/137 810/811/137
f 801/812/140 798/813/140 777/814/140 789/815/140
f 774/816/137 780/799/137 808/817/137 811/818/137
f 781/819/141 791/795/141 779/798/141 772/820/141
f 770/821/142 778/822/142 790/823/142 782/824/142
f 788/825/143 812/826/143 809/827/143 799/809/143 800/828/143
f 800/828/144 801/812/144 789/815/144 788/825/144
f 812/829/145 788/825/145 813/830/145
f 813/831/146 788/825/146 789/815/146 787/832/146 814/833/146
f 794/808/138 773/797/138 784/796/138 796/834/138
f 796/834/138 784/796/138 783/804/138 797/803/138
f 778/822/136 771/805/136 783/804/136 790/823/136
f 790/823/147 783/804/147 784/796/147 791/795/147
f 785/835/138 796/834/138 797/803/138 786/836/138
f 775/800/138 794/808/138 796/834/138 785/835/138
f 772/820/137 779/798/137 795/807/137 792/837/137
f 779/798/137 773/797/137 794/808/137 795/807/137
f 786/836/138 797/803/138 793/806/138 776/838/138
f 775/800/148 785/835/148 800/828/148 799/809/148
f 786/836/148 776/838/148 798/813/148 801/812/148
f 775/800/137 799/809/137 810/839/137 807/801/137
f 782/824/149 790/823/149 802/840/149 803/841/149
f 785/835/138 786/836/138 805/842/138 804/843/138
f 806/844/150 805/842/150 786/836/150 801/812/150
o Chair.005
v -3.325824 0.540000 -0.934450
v -3.950613 0.540000 -0.961118
v -3.325824 0.470444 -0.934450
v -3.950613 0.470444 -0.961118
v -3.403384 0.540000 -0.937760
v -3.873053 0.540000 -0.957808
v -3.403384 0.470444 -0.937760
v -3.873053 0.470444 -0.957808
v -3.316507 0.540000 -1.152730
v -3.941296 0.540000 -1.179398
v -3.948471 0.470444 -1.011290
v -3.863736 0.540000 -1.176087
v -3.394067 0.540000 -1.156040
v -3.397765 0.411723 -0.987899
v -3.935303 0.540000 -1.221386
v -3.927565 0.508743 -1.222653
v -3.927617 0.461423 -1.222128
v -3.883386 0.283929 -0.958249
v -3.950613 0.301516 -0.961118
v -3.325824 0.138071 -0.934450
v -3.385840 0.153771 -0.937011
v -3.854888 0.540000 -1.238081
v -3.403992 0.540000 -1.331689
v -3.948691 0.300484 -1.006136
v -3.327517 0.540000 -1.347566
v -3.384040 0.152840 -0.976073
vn -0.0426 -0.0000 0.9991
vn -0.0000 1.0000 -0.0000
vn -0.9860 -0.1167 -0.1187
vn -0.9991 -0.0000 -0.0426
vn -0.9974 -0.0552 -0.0460
vt 0.114868 0.060155
vt 0.115167 0.081245
vt 0.108660 0.076018
vt 0.108357 0.054658
vt 0.070165 0.111510
vt 0.151306 0.110279
vt 0.156786 0.114681
vt 0.076576 0.115890
vt 0.088015 0.054989
vt 0.020283 0.077421
vt 0.003746 0.077973
vt 0.003276 0.068565
vt 0.003929 0.054469
vt 0.107621 0.002758
vt 0.113203 0.002610
vt 0.155213 0.002761
vt 0.156514 0.095319
vt 0.151031 0.090689
vt 0.151031 0.002873
vt 0.027893 0.082621
vt 0.003772 0.083419
vt 0.003693 0.111500
vt 0.003746 0.077973
vt 0.107621 0.002758
vt 0.089362 0.002754
vt 0.003693 0.111500
vt 0.003706 0.115886
vt 0.132338 0.074666
vt 0.136525 0.002850
s 0
f 822/845/151 820/846/151 816/847/151 818/848/151
f 827/849/152 819/850/152 815/851/152 823/852/152
f 825/853/153 824/854/153 829/855/153 830/856/153 831/857/153
f 822/845/151 818/848/151 833/858/151 832/859/151
f 834/860/151 817/861/151 821/862/151 835/863/151
f 824/854/152 816/847/152 820/846/152 826/864/152
f 826/864/152 820/846/152 819/850/152 827/849/152
f 817/861/151 815/851/151 819/850/151 821/862/151
f 821/862/151 819/850/151 820/846/151 822/845/151
f 836/865/152 826/864/152 827/849/152 837/866/152
f 824/854/152 826/864/152 836/865/152 829/867/152
f 833/868/154 818/848/154 825/853/154 838/869/154
f 818/848/154 816/847/154 824/854/154 825/853/154
f 837/870/152 827/849/152 823/852/152 839/871/152
f 828/872/155 840/873/155 835/863/155 821/862/155
o Chair.006
v 1.080860 0.000000 1.059347
v 1.080860 0.540000 1.059347
v 1.445694 0.000000 0.608463
v 1.445694 0.540000 0.608463
v 1.901787 0.540000 1.003240
v 1.851933 0.540000 0.962900
v 1.512260 0.540000 1.382689
v 1.875255 1.005226 0.981771
v 1.897646 1.005226 0.999889
v 1.557973 1.005226 1.419677
v 1.535582 1.005226 1.401559
v 1.080860 0.454020 1.059347
v 1.445694 0.454020 0.608463
v 1.901787 0.454020 1.003240
v 1.851933 0.454020 0.962900
v 1.415623 0.000000 0.645626
v 1.110931 0.000000 1.022184
v 1.126149 0.540000 1.003375
v 1.400404 0.540000 0.664435
v 1.806643 0.540000 1.018872
v 1.557550 0.540000 1.326717
v 1.852356 1.005226 1.055860
v 1.603262 1.005226 1.363705
v 1.829965 1.005226 1.037743
v 1.580871 1.005226 1.345587
v 1.126149 0.454020 1.003375
v 1.400404 0.454020 0.664435
v 1.496687 0.000000 0.649724
v 1.131853 0.540000 1.100608
v 1.496687 0.540000 0.649724
v 1.496687 0.454020 0.649724
v 1.451397 0.540000 0.705696
v 1.177143 0.540000 1.044636
v 1.542425 0.898115 1.407096
v 1.520034 0.898115 1.388979
v 1.859707 0.849180 0.969190
v 1.814417 0.849180 1.025162
v 1.736314 0.879650 1.127896
v 1.852356 1.005226 1.055860
v 1.829965 1.005226 1.037743
v 1.734165 0.849180 1.124343
vn -0.7774 -0.0000 -0.6290
vn 0.6290 -0.0000 -0.7774
vn -0.0000 1.0000 -0.0000
vn 0.6613 -0.0000 -0.7501
vn -0.6290 -0.0000 0.7774
vn -0.7549 0.1724 -0.6328
vn -0.7711 0.1271 -0.6239
vn -0.7770 0.0323 -0.6287
vt 0.653565 0.253548
vt 0.653744 0.267577
vt 0.641081 0.268557
vt 0.640903 0.254584
vt 0.710849 0.262076
vt 0.711018 0.275572
vt 0.718616 0.276406
vt 0.718448 0.262966
vt 0.740825 0.262443
vt 0.732647 0.261471
vt 0.746056 0.260433
vt 0.754206 0.261414
vt 0.649256 0.255559
vt 0.649433 0.269470
vt 0.801781 0.344868
vt 0.798448 0.344617
vt 0.811590 0.343950
vt 0.814910 0.344203
vt 0.809064 0.326477
vt 0.812394 0.326765
vt 0.748468 0.327009
vt 0.648357 0.179902
vt 0.639962 0.180785
vt 0.744925 0.169742
vt 0.745876 0.245996
vt 0.732467 0.247093
vt 0.736011 0.170680
vt 0.712816 0.324194
vt 0.725314 0.323464
vt 0.727986 0.348195
vt 0.715495 0.348829
vt 0.747699 0.322156
vt 0.718900 0.349066
vt 0.731380 0.348434
vt 0.662073 0.268498
vt 0.723519 0.274653
vt 0.794039 0.269467
vt 0.648321 0.182085
vt 0.807192 0.268500
s 0
f 867/874/156 859/875/156 844/876/156 853/877/156
f 855/878/157 846/879/157 845/880/157 854/881/157
f 873/882/158 858/883/158 842/884/158 869/885/158
f 871/886/159 870/887/159 846/879/159 855/878/159
f 863/888/158 865/889/158 851/890/158 850/891/158
f 875/892/160 874/893/160 850/891/160 851/890/160
f 878/894/161 875/892/161 851/890/161 865/889/161
f 856/895/156 867/874/156 853/877/156 843/896/156
f 841/897/156 852/898/156 866/899/156 857/900/156
f 876/901/162 877/902/162 864/903/162 848/904/162
f 881/905/162 878/894/162 865/889/162 880/903/162
f 849/906/158 848/904/158 864/903/158 862/907/158
f 879/907/158 880/903/158 865/889/158 863/888/158
f 870/887/158 844/876/158 859/875/158 872/908/158
f 872/908/158 859/875/158 858/883/158 873/882/158
f 852/898/156 842/884/156 858/883/156 866/899/156
f 866/899/156 858/883/156 859/875/156 867/874/156
f 860/909/158 872/908/158 873/882/158 861/910/158
f 846/879/158 870/887/158 872/908/158 860/909/158
f 843/896/157 853/877/157 871/886/157 868/911/157
f 853/877/157 844/876/157 870/887/157 871/886/157
f 861/910/158 873/882/158 869/885/158 847/912/158
f 846/879/163 860/909/163 877/902/163 876/901/163
f 862/907/158 864/903/158 880/903/158 879/907/158
f 877/902/162 881/905/162 880/903/162 864/903/162
o Chair.007
v -4.342846 0.540000 -0.947822
v -4.342846 0.454020 -0.947822
v -4.455205 0.540000 -0.947822
v -4.455205 0.454020 -0.947822
v -4.346628 0.540000 -1.102882
v -4.458391 0.540000 -1.102882
v -4.863530 0.540000 -1.028682
v -4.859907 0.540000 -0.947822
v -4.506121 0.540000 -1.102882
v -4.531867 0.454020 -0.947822
v -4.458742 0.540000 -1.112718
v -4.348015 0.540000 -1.135705
v -4.455205 0.433927 -0.947822
v -4.342846 0.404477 -0.947822
v -4.455205 0.433764 -0.961678
vn -0.0000 1.0000 -0.0000
vn -0.0000 -0.0000 1.0000
vn -1.0000 -0.0000 -0.0000
vt 0.008046 0.038654
vt 0.077413 0.038311
vt 0.086145 0.047277
vt 0.018105 0.047570
vt 0.042341 0.002299
vt 0.003263 0.034414
vt 0.003134 0.002336
vt 0.085743 0.019043
vt 0.077002 0.009504
vt 0.042341 0.002299
vt 0.070352 0.002248
vt 0.003263 0.034414
vt 0.003627 0.038664
vt 0.003627 0.038664
vt 0.003631 0.047587
vt 0.085512 0.002771
vt 0.076906 0.002772
vt 0.070731 0.002772
vt 0.076906 0.002772
s 0
f 887/913/164 884/914/164 882/915/164 886/916/164
f 889/917/164 884/914/164 887/913/164 890/918/164 888/919/164
f 883/920/165 882/915/165 884/914/165 885/921/165
f 885/921/165 884/914/165 889/922/165 891/923/165
f 890/924/164 887/913/164 892/925/164
f 892/926/164 887/913/164 886/916/164 893/927/164
f 895/928/165 883/920/165 885/921/165 894/929/165
f 896/930/166 894/931/166 885/921/166
o Chair-side
v -3.045252 0.368493 0.858102
v -2.465849 0.000000 0.831801
v -2.465849 0.391547 0.831801
v -3.008712 0.368493 1.311613
v -3.045252 0.298705 0.858102
v -2.465849 0.321759 0.831801
v -3.008213 0.298705 1.309016
v -2.757288 0.386604 1.346598
v -2.513605 0.000000 0.833969
v -2.941801 0.370162 0.853406
v -2.724542 0.381662 0.843544
v -2.720538 0.380684 1.363751
v -2.905520 0.370162 1.330564
v -2.973326 0.298705 0.854837
v -2.537775 0.321759 0.835066
v -3.039583 0.368493 0.982995
v -2.463985 0.391547 0.872853
v -3.043614 0.298705 0.894181
v -2.739543 0.380754 0.891736
v -2.936132 0.370162 0.978299
v -2.512470 0.000000 0.858986
v -2.533881 0.270700 0.859958
v -2.517031 0.386604 0.865908
v -2.775724 0.386604 0.877651
v -2.517031 0.596829 0.865908
v -2.775724 0.589696 0.877651
v -2.757288 0.589696 1.346598
v -2.515729 0.596829 1.335632
v -3.045252 0.085584 0.858102
v -2.991709 0.071521 0.855672
v -3.043614 0.085578 0.894181
vn -0.0453 -0.0000 -0.9990
vn -0.9990 -0.0000 0.0453
vn -0.0161 0.9999 0.0007
vn -0.0285 0.9996 0.0006
vn -0.0384 0.9993 0.0045
vn -0.0527 0.9986 0.0024
vn -0.0548 0.9985 0.0034
vn -0.0162 0.9999 0.0015
vn -0.9955 -0.0329 0.0887
vn -0.9968 -0.0768 0.0219
vn -0.9992 -0.0000 0.0393
vt 0.781522 0.094962
vt 0.791375 0.100104
vt 0.778142 0.115992
vt 0.777929 0.098750
vt 0.821721 0.059826
vt 0.853445 0.078472
vt 0.809147 0.078519
vt 0.808917 0.059836
vt 0.846882 0.084965
vt 0.803229 0.085016
vt 0.947607 0.163150
vt 0.791863 0.164393
vt 0.805689 0.150837
vt 0.965690 0.150356
vt 0.779317 0.016215
vt 0.776944 0.019230
vt 0.804783 0.064258
vt 0.805089 0.002716
vt 0.808215 0.002767
vt 0.791595 0.115970
vt 0.808410 0.098923
vt 0.968646 0.098556
vt 0.968759 0.085661
vt 0.968682 0.079291
vt 0.967507 0.060736
vt 0.821021 0.002767
vt 0.808215 0.002767
vt 0.787570 0.016215
vt 0.789501 0.082366
vt 0.791218 0.112104
vt 0.805046 0.098510
vt 0.965070 0.098137
s 0
f 911/932/167 907/933/167 899/934/167 902/935/167
f 914/936/168 912/937/168 897/938/168 901/939/168
f 916/940/169 906/941/169 897/938/169 912/937/169
f 924/942/170 921/943/170 922/944/170 923/945/170
f 905/946/167 911/932/167 902/935/167 898/947/167
f 910/948/167 926/949/167 925/950/167 901/939/167
f 913/951/171 899/934/171 907/933/171 915/952/171
f 915/952/172 907/933/172 906/941/172 916/940/172
f 901/939/167 897/938/167 906/941/167 910/948/167
f 910/948/167 906/941/167 907/933/167 911/932/167
f 908/953/173 915/952/173 916/940/173 909/954/173
f 909/954/174 916/940/174 912/937/174 900/955/174
f 903/956/175 900/955/175 912/937/175 914/936/175
f 927/957/168 914/936/168 901/939/168 925/958/168
f 911/932/176 905/946/176 917/959/176 918/960/176
f 919/961/167 920/962/167 922/944/167 921/943/167
f 920/962/177 904/963/177 923/945/177 922/944/177
