# Blender 4.0.2
# www.blender.org
mtllib 250204-uni-vending.mtl
o Plane
v 1.653810 0.000000 2.455536
v 1.653810 -0.000000 -3.000694
v -0.558777 -0.000000 -3.000694
v -2.244014 0.000000 0.883285
v 2.785366 0.000000 2.455536
v 1.797391 0.154565 0.429195
v -0.279145 0.154565 0.429195
v -0.279145 0.154565 -1.505271
v -0.279145 4.114879 0.429195
v 1.797391 4.114879 0.429195
v -0.279145 4.114879 -1.505271
v 1.339435 1.814717 1.745488
v 1.339435 0.000000 1.745488
v 0.484365 0.000000 1.745488
v 0.484365 0.000000 0.878542
v 0.324949 1.814717 1.745488
v 0.324949 1.814717 0.878542
v 1.339435 0.604906 1.745488
v 1.339435 1.209812 1.745488
v 0.472894 0.604906 1.745488
v 0.429313 1.209812 1.745488
v 0.472894 0.604906 0.878542
v 0.429313 1.209812 0.878542
v 0.532280 1.814717 0.878542
v 0.659116 0.000000 1.745488
v 0.532280 1.814717 1.745488
v 0.649989 0.604906 1.745488
v 0.615315 1.209812 1.745488
v 1.339435 2.752882 1.745488
v 1.339435 2.752882 0.878542
v 0.531129 2.752882 1.744112
v 0.531129 2.752882 0.879918
v 0.531129 2.452839 0.879918
v 0.531129 2.452839 1.744112
v 1.339435 2.452839 1.745488
v 0.169759 2.578334 1.122343
v 0.169759 2.578334 1.501687
v 0.169759 2.476813 1.122343
v 0.169759 2.476813 1.501687
v 0.000605 0.154565 -1.794425
v 0.000605 0.154565 -3.080292
v 0.000605 3.721920 -1.794425
v 0.000605 3.721920 -3.080292
v 3.058001 -0.000000 -1.564373
v 8.348316 -0.000000 -1.055244
v -1.981190 1.316058 3.325221
v 1.653810 4.159605 -3.000694
v 1.653810 4.159605 2.455536
v -0.558777 4.159605 -3.000694
v 2.785366 4.159605 2.455536
v 1.653810 0.000000 0.322536
v 1.653810 4.159605 0.322536
v 0.130995 -0.000000 -3.000694
v 0.130995 4.159605 -3.000694
v 0.432011 0.000000 2.455536
v -2.244014 0.000000 0.932584
v 1.653810 7.937226 -3.000695
v 0.130995 7.670880 -3.000695
v 1.653810 6.247827 2.455535
v 1.653810 6.908262 0.322535
v -4.748934 0.525705 0.883285
v -2.330638 0.000000 0.883285
v -2.244014 6.052895 0.883285
v -4.659641 5.630393 0.883285
v 1.653810 0.000000 3.150874
v 2.034080 0.000000 3.367289
v 2.864581 0.000000 2.819511
v 3.416413 0.000000 2.455536
v 8.348316 -0.000000 -0.797426
v 8.348316 8.505756 -1.055245
v 8.348316 8.475927 -0.958908
v -1.253903 1.316058 4.941456
v -3.453213 1.316058 3.689807
v 2.785366 6.445740 2.455535
v -0.558777 7.550236 -3.000695
vn -0.0000 1.0000 -0.0000
vn -0.0000 -0.0000 1.0000
vn -1.0000 -0.0000 -0.0000
vn -0.4349 0.9005 -0.0000
vn -0.9854 -0.1700 -0.0000
vn -0.9998 -0.0190 -0.0000
vn -0.9974 -0.0719 -0.0000
vn -0.0017 -0.0000 1.0000
vn -0.0009 0.0011 1.0000
vn -1.0000 -0.0018 -0.0000
vn -0.5571 -0.0000 0.8304
vt 0.358451 0.199929
vt 0.353684 0.024015
vt 0.356163 0.020710
vt 0.696789 0.014140
vt 0.817347 0.057754
vt 0.699301 0.125092
vt 0.515385 0.230005
vt 0.407375 0.209305
vt 0.404673 0.989554
vt 0.405909 0.632402
vt 0.515373 0.626781
vt 0.515362 0.987120
vt 0.702591 0.656789
vt 0.822756 0.676049
vt 0.825471 0.986448
vt 0.704765 1.008132
vt 0.341867 0.020611
vt 0.349125 0.986625
vt 0.008302 0.992950
vt 0.010648 0.022765
vt 0.885389 0.018941
vt 0.939954 0.071682
vt 0.897861 0.086882
vt 0.934185 0.018707
vt 0.904275 0.667631
vt 0.616300 0.464799
vt 0.600800 0.436892
vt 0.625027 0.432777
vt 0.673087 0.457807
vt 0.522856 0.119422
vt 0.683354 0.161095
vt 0.685663 0.638394
vt 0.522955 0.648398
vt 0.438494 0.183558
vt 0.437480 0.632665
vt 0.679290 0.235851
vt 0.672670 0.321625
vt 0.654824 0.318938
vt 0.663487 0.232551
vt 0.598925 0.337218
vt 0.607330 0.257611
vt 0.667437 0.059904
vt 0.666839 0.146240
vt 0.610673 0.178070
vt 0.611386 0.098508
vt 0.682136 0.064670
vt 0.681786 0.150226
vt 0.737250 0.165018
vt 0.737782 0.248064
vt 0.736721 0.082369
vt 0.738316 0.331511
vt 0.615951 0.339493
vt 0.739149 0.461732
vt 0.679424 0.468158
vt 0.738882 0.419978
vt 0.672890 0.414142
vt 0.616185 0.424613
vt 0.624981 0.418068
vt 0.600765 0.422719
vt 0.448814 0.195767
vt 0.448050 0.586162
vt 0.404799 0.582519
vt 0.405937 0.226595
vt 0.931000 0.098870
vt 0.937184 0.265219
vt 0.917148 0.270977
vt 0.627205 0.231057
vt 0.933263 0.978790
vt 0.925577 0.978410
vt 0.840594 0.022326
vt 0.527476 0.122396
vt 0.268247 0.009233
vt 0.907799 0.986813
vt 0.356327 0.634948
vt 0.354596 0.989547
s 0
usemtl scene.001
f 3/1/1 4/2/1 56/3/1 55/4/1 1/5/1 51/6/1 2/7/1 53/8/1
f 58/9/2 54/10/2 47/11/2 57/12/2
f 52/13/3 48/14/3 59/15/3 60/16/3
f 62/17/2 4/2/2 63/18/2 64/19/2 61/20/2
f 65/21/1 1/5/1 55/4/1
f 67/22/1 5/23/1 1/5/1 65/21/1 66/24/1
f 48/14/2 1/5/2 5/23/2 50/25/2
f 32/26/4 36/27/4 37/28/4 31/29/4
f 7/30/2 6/31/2 10/32/2 9/33/2
f 8/34/3 7/30/3 9/33/3 11/35/3
f 28/36/2 26/37/2 16/38/2 21/39/2
f 21/39/5 16/38/5 17/40/5 23/41/5
f 14/42/6 20/43/6 22/44/6 15/45/6
f 20/43/7 21/39/7 23/41/7 22/44/7
f 25/46/2 27/47/2 20/43/2 14/42/2
f 27/47/2 28/36/2 21/39/2 20/43/2
f 18/48/2 19/49/2 28/36/2 27/47/2
f 13/50/2 18/48/2 27/47/2 25/46/2
f 19/49/2 12/51/2 26/37/2 28/36/2
f 16/38/1 26/37/1 24/52/1 17/40/1
f 31/29/1 29/53/1 30/54/1 32/26/1
f 35/55/8 29/53/8 31/29/8 34/56/8
f 12/51/9 35/55/9 34/56/9 26/37/9
f 26/37/10 34/56/10 33/57/10 24/52/10
f 39/58/3 37/28/3 36/27/3 38/59/3
f 31/29/11 37/28/11 39/58/11 34/56/11
f 40/60/3 42/61/3 43/62/3 41/63/3
f 5/23/1 67/22/1 68/64/1
f 69/65/1 45/66/1 44/67/1 5/23/1 68/64/1
f 45/66/3 69/65/3 71/68/3 70/69/3
f 72/70/1 46/71/1 73/72/1
f 59/15/2 48/14/2 50/25/2 74/73/2
f 51/6/3 1/5/3 48/14/3 52/13/3
f 47/11/3 52/13/3 60/16/3 57/12/3
f 3/1/2 53/8/2 54/10/2 49/74/2
f 75/75/2 49/74/2 54/10/2 58/9/2
