# Blender 4.0.2
# www.blender.org
mtllib washing.mtl
o Plane
v 2.761498 0.027012 -7.999433
v 0.131298 0.027012 -7.999433
v 0.131298 -6.898419 3.041213
v 2.761498 -6.898419 -7.999433
v 0.131298 -6.898419 -7.999433
v 2.761498 -0.797484 1.722554
v 0.131298 0.027012 1.722554
v 2.761498 -6.898419 1.722554
v 0.131298 -6.898419 1.722554
v 2.761498 -5.690224 4.936762
v 2.761498 -5.690224 1.722554
v 0.131298 -5.690224 1.722554
v -3.271486 0.027012 -4.860141
v -3.271486 0.027012 1.108688
v -1.227527 -2.781576 -4.860141
v -3.271486 -2.781576 -4.860141
v -1.227527 -2.781576 1.108688
v -3.271486 -2.781576 1.108688
v 2.674730 0.027012 -7.100371
v 2.081551 0.027012 -7.316271
v 2.345389 0.027012 -8.041160
v 2.641474 -1.402979 -7.195367
v 2.168088 -1.402979 -7.367666
v 2.852030 -1.402979 -7.773864
v 2.378644 -1.402979 -7.946163
v 0.519785 -2.537761 -4.860141
v 0.519785 -2.537761 1.876790
v 2.563743 -2.686419 -4.860141
v 0.519785 -2.686419 -4.860141
v 2.563743 -2.686419 1.876790
v 0.519785 -2.686419 1.876790
v 2.761498 -0.797484 3.041213
v 0.131298 -0.797484 3.041213
v 2.761498 -6.898419 3.041213
v -1.157237 -2.639992 -5.212233
v -1.157237 -2.639992 -2.949584
v 0.886721 -2.639992 -2.949584
v 0.886721 -3.102629 -5.212233
v -1.157237 -3.102629 -5.212233
v 0.886721 -3.102629 -2.949584
v -1.157237 -3.102629 -2.949584
v 2.761498 0.027012 -6.035770
v 0.131298 0.027012 -5.704171
v 2.761498 -6.898419 -4.906664
v 0.131298 -6.898419 -4.906664
v 0.131298 -2.678692 -7.999433
v 2.761498 -2.678692 -7.999433
v 2.761498 -2.678692 1.722554
v 0.131298 -2.678692 3.041213
v 2.761498 -2.678692 3.041213
v 2.761498 -2.678692 -6.035770
v -4.004200 0.027012 -5.078889
v -1.541997 0.027012 -7.999433
v -4.001257 0.027012 -6.505547
v 0.131298 0.027012 -9.015882
v 0.131298 -2.678692 -9.109293
v 0.131298 -6.898419 -9.254973
v -1.935591 -6.898419 -7.999433
v -4.846076 -6.898419 0.399767
v -2.703054 -6.898419 1.722554
v -4.818718 -6.898419 -4.906664
v 0.131298 -5.690224 3.432459
v -2.638884 -5.690224 1.722554
v 2.568389 -5.690224 4.936762
v -4.811780 -6.898419 -6.252282
v -4.016094 0.027012 0.685034
v -2.335229 0.027012 1.722554
vn -0.0000 1.0000 -0.0000
vn 1.0000 -0.0000 -0.0000
vn -0.0000 -0.0000 -1.0000
vn -0.0000 -1.0000 -0.0000
vn -0.0000 -0.0000 1.0000
vn -1.0000 -0.0000 -0.0000
vn -0.9388 -0.0445 -0.3417
vn -0.3415 -0.0544 0.9383
vt 0.747316 0.212310
vt 0.720091 0.264166
vt 0.857587 0.264155
vt 0.949928 0.212252
vt 1.105012 0.125081
vt 1.082502 -0.002718
vt 0.840962 -0.002562
vt 1.039785 0.212226
vt 1.039862 0.392565
vt 0.943174 0.392524
vt 0.933024 0.663454
vt 1.039976 0.663614
vt 0.853280 0.406996
vt 0.846758 0.623297
vt 0.670014 0.663060
vt 0.636560 0.623015
vt 0.108101 0.662218
vt 0.187185 0.622413
vt 0.185674 0.561424
vt 0.105707 0.586121
vt 1.164297 0.771113
vt 0.884376 0.919657
vt -0.180824 0.807643
vt -0.153733 0.918251
vt 0.717373 0.406931
vt 0.181839 0.406671
vt -0.183342 0.675393
vt -0.039668 0.585948
vt -0.032734 0.561184
vt -0.042633 0.562991
vt -0.039668 0.585948
vt -0.180824 0.807643
vt -0.020412 0.367036
vt 0.752868 0.367289
vt 0.695535 0.389350
vt 0.099535 0.389103
vt 0.759043 0.084896
vt -0.032009 0.085521
vt 0.826290 0.334060
vt 0.862329 0.336260
vt 0.837232 0.340924
vt 0.802127 0.338883
vt 0.872591 0.257421
vt 0.827037 0.252916
vt 0.796616 0.262793
vt 0.101464 0.395238
vt 0.664061 0.395485
vt 0.638143 0.406420
vt 0.166061 0.406193
vt 0.664198 0.386086
vt 0.101171 0.385860
vt 0.091041 0.406627
vt 0.086455 0.264218
vt -0.021708 0.212530
vt -0.014384 0.392115
vt 0.097988 0.622294
vt 0.504407 0.413859
vt 0.728517 0.413974
vt 0.686769 0.423124
vt 0.504180 0.423024
vt 0.729209 0.379317
vt 0.504462 0.379233
vt 0.504225 0.394844
vt 0.884376 0.919657
vt 1.144958 0.920002
vt -0.113984 0.085034
vt 0.093948 0.212497
vt 0.840962 -0.002562
vt -0.095040 -0.002019
vt 0.178309 0.264210
vt -0.003374 0.662051
s 0
usemtl Material.001
f 43/1/1 42/2/1 1/3/1 2/4/1
f 53/5/1 54/6/1 52/7/1 43/1/1 2/4/1
f 2/4/1 55/8/1 53/5/1
f 56/9/2 46/10/2 5/11/2 57/12/2
f 46/10/3 47/13/3 4/14/3 5/11/3
f 45/15/4 5/11/4 4/14/4 44/16/4
f 9/17/5 8/18/5 11/19/5 12/20/5
f 5/11/4 58/21/4 57/12/4
f 61/22/4 45/15/4 9/17/4 60/23/4 59/24/4
f 51/25/2 48/26/2 8/18/2 44/16/2
f 63/27/4 12/20/4 62/28/4
f 12/20/4 11/19/4 10/29/4 64/30/4 62/31/4
f 9/17/5 12/20/5 63/27/5 60/32/5
f 18/33/4 16/34/4 15/35/4 17/36/4
f 13/37/6 16/34/6 18/33/6 14/38/6
f 23/39/4 25/40/4 24/41/4 22/42/4
f 21/43/7 25/40/7 23/39/7 20/44/7
f 20/44/8 23/39/8 22/42/8 19/45/8
f 31/46/4 29/47/4 28/48/4 30/49/4
f 26/50/6 29/47/6 31/46/6 27/51/6
f 50/52/5 32/53/5 33/54/5 49/55/5
f 48/26/2 50/52/2 34/56/2 8/18/2
f 41/57/4 39/58/4 38/59/4 40/60/4
f 35/61/6 39/58/6 41/57/6 36/62/6
f 36/62/5 41/57/5 40/60/5 37/63/5
f 47/13/2 51/25/2 44/16/2 4/14/2
f 5/11/4 45/15/4 61/64/4 65/65/4 58/21/4
f 9/17/4 45/15/4 44/16/4 8/18/4
f 67/66/1 7/67/1 43/1/1 52/68/1 66/69/1
f 1/3/2 42/2/2 51/25/2 47/13/2
f 6/70/2 32/53/2 50/52/2 48/26/2
f 34/56/5 50/52/5 49/55/5 3/71/5
f 2/4/3 1/3/3 47/13/3 46/10/3
f 55/8/2 2/4/2 46/10/2 56/9/2
