# Blender 4.0.2
# www.blender.org
o corridor-near
v 21.000002 4.000000 0.000000
v 21.000002 -2.000000 0.000000
v -3.418139 1.059170 0.000000
v 17.608698 -2.000000 0.000000
v -3.418139 0.000000 0.000000
v 14.217394 -2.000000 0.000000
v 11.956523 -2.000000 0.000000
v 9.695653 -2.000000 0.000000
v 7.434783 -2.000000 0.000000
v 6.304348 -2.000000 0.000000
v 5.173913 -2.000000 0.000000
v 4.043478 -2.000000 0.000000
v 2.913043 -2.000000 0.000000
v 2.087506 -2.000000 0.000000
v 0.272204 -2.000000 0.000000
v 2.208513 -1.000000 -0.684274
v -3.418139 -1.000000 0.000000
v 7.434784 4.000000 0.000000
v 2.208513 1.059170 -0.684274
v 9.695654 4.000000 0.000000
v 11.956524 4.000000 0.000000
v 14.217395 4.000000 0.000000
v -3.869566 1.059170 0.000000
v 17.608698 4.000000 0.000000
v -3.869566 0.000000 0.000000
v 2.208513 0.000000 -0.684274
v 21.000002 4.000000 1.000000
v 21.000002 4.000000 2.000000
v 21.000002 -2.000000 2.000000
v 21.000002 -2.000000 1.000000
v 2.087507 -2.000000 2.000000
v 2.087506 -2.000000 1.000000
v 2.913044 -2.000000 2.000000
v 2.913043 -2.000000 1.000000
v 4.043478 -2.000000 2.000000
v 4.043478 -2.000000 1.000000
v 5.173913 -2.000000 2.000000
v 5.173913 -2.000000 1.000000
v 6.304348 -2.000000 2.000000
v 6.304348 -2.000000 1.000000
v 7.434783 -2.000000 2.000000
v 7.434783 -2.000000 1.000000
v 9.695653 -2.000000 2.000000
v 9.695653 -2.000000 1.000000
v 11.956524 -2.000000 2.000000
v 11.956523 -2.000000 1.000000
v 14.217395 -2.000000 2.000000
v 14.217394 -2.000000 1.000000
v 17.608698 -2.000000 2.000000
v 17.608698 -2.000000 1.000000
v 11.956524 4.000000 1.000000
v 11.956524 4.000000 2.000000
v 14.217395 4.000000 1.000000
v 14.217395 4.000000 2.000000
v 21.000002 -1.000000 0.000000
v 2.208512 -2.000000 -0.684274
v 17.608698 4.000000 1.000000
v 17.608698 4.000000 2.000000
v 9.695654 4.000000 1.000000
v 9.695654 4.000000 2.000000
v 21.000002 0.000000 0.000000
v 21.000002 1.059170 0.000000
v 21.000002 2.000000 0.000000
v 21.000002 3.000000 0.000000
v -1.594942 -1.000000 0.000000
v -1.594942 0.000000 0.000000
v -1.594942 1.059170 0.000000
v -0.478261 -1.000000 0.000000
v -0.478261 0.000000 0.000000
v -0.478261 1.059170 0.000000
v -0.478261 2.000000 0.000000
v 0.272205 -1.000000 0.000000
v 0.272205 0.000000 0.000000
v 0.272205 2.000000 0.000000
v 2.087506 -1.000000 0.000000
v 2.087506 0.000000 0.000000
v 2.087506 1.059170 0.000000
v 2.087507 2.000000 0.000000
v 2.913043 -1.000000 0.000000
v 2.913043 0.000000 0.000000
v 2.913043 1.059170 0.000000
v 2.913044 2.000000 0.000000
v 4.043478 -1.000000 0.000000
v 4.043478 0.000000 0.000000
v 4.043478 1.059170 0.000000
v 4.043478 2.000000 0.000000
v 4.043479 3.000000 0.000000
v 5.173913 -1.000000 0.000000
v 5.173913 0.000000 0.000000
v 5.173913 1.059170 0.000000
v 5.173913 2.000000 0.000000
v 5.173914 3.000000 0.000000
v 6.304348 -1.000000 0.000000
v 6.304348 0.000000 0.000000
v 6.304348 1.059170 0.000000
v 6.304348 2.000000 0.000000
v 6.304349 3.000000 0.000000
v 7.434783 -1.000000 0.000000
v 7.434783 0.000000 0.000000
v 7.434783 2.000000 0.000000
v 7.434784 3.000000 0.000000
v 9.695652 -2.000000 -0.419320
v -2.168038 -1.000000 -0.830344
v -2.168038 0.932774 -0.830344
v -2.168038 0.000000 -0.830344
v 9.695653 -1.000000 0.000000
v 9.695653 0.000000 0.000000
v 9.695653 1.059170 0.000000
v 9.695653 2.000000 0.000000
v 9.695654 3.000000 0.000000
v 11.956523 -1.000000 0.000000
v 11.956523 0.000000 0.000000
v 11.956523 1.059170 0.000000
v 11.956523 2.000000 0.000000
v 11.956523 3.000000 0.000000
v 14.217394 -1.000000 0.000000
v 14.217394 0.000000 0.000000
v 14.217394 1.059170 0.000000
v 14.217394 2.000000 0.000000
v 14.217394 3.000000 0.000000
v 17.608698 -1.000000 0.000000
v 17.608698 0.000000 0.000000
v 17.608698 1.059170 0.000000
v 17.608698 2.000000 0.000000
v 17.608698 3.000000 0.000000
v -1.594942 0.000000 -0.830344
v -1.594942 0.932774 -0.830344
v -1.594942 -1.000000 -0.830344
v 9.695653 -1.000000 -0.419320
v 9.695653 0.000000 -0.419320
v 9.695653 1.059170 -0.419320
v 0.272205 1.059170 0.000000
v 7.434783 1.059170 0.000000
v 21.000002 -1.500000 0.000000
v 21.000002 -2.000000 0.500000
v -3.418139 0.529585 0.000000
v 19.304350 -2.000000 0.000000
v -3.418139 -0.500000 0.000000
v 15.913046 -2.000000 0.000000
v 13.086958 -2.000000 0.000000
v 10.826088 -2.000000 0.000000
v -1.594942 0.466387 -0.830344
v 8.565218 -2.000000 0.000000
v 6.869565 -2.000000 0.000000
v 5.739130 -2.000000 0.000000
v 4.608695 -2.000000 0.000000
v 3.478261 -2.000000 0.000000
v 2.500274 -2.000000 0.000000
v 1.179855 -2.000000 0.000000
v 8.565219 4.000000 0.000000
v 10.826089 4.000000 0.000000
v 13.086960 4.000000 0.000000
v -3.869566 0.529585 0.000000
v 15.913046 4.000000 0.000000
v -3.869566 -0.500000 0.000000
v 19.304350 4.000000 0.000000
v 6.304349 3.500000 0.000000
v 7.434784 3.500000 0.000000
v 9.695654 3.500000 0.000000
v 11.956524 3.500000 0.000000
v 14.217394 3.500000 0.000000
v 2.087507 2.500000 0.000000
v 17.608698 3.500000 0.000000
v 2.087507 1.529585 0.000000
v 2.087506 0.529585 0.000000
v 0.272205 -2.000000 0.500000
v 2.087506 -2.000000 0.500000
v 2.913043 -2.000000 0.500000
v 4.043478 -2.000000 0.500000
v 5.173913 -2.000000 0.500000
v 6.304348 -2.000000 0.500000
v 7.434783 -2.000000 0.500000
v 9.695653 -2.000000 0.500000
v 11.956523 -2.000000 0.500000
v 14.217394 -2.000000 0.500000
v 2.087506 -0.500000 0.000000
v 17.608698 -2.000000 0.500000
v 2.087506 -1.500000 0.000000
v 0.272205 -0.500000 0.000000
v 21.000002 4.000000 0.500000
v 21.000002 4.000000 1.500000
v 21.000002 -2.000000 1.500000
v 2.087507 -2.000000 2.500000
v 2.087506 -2.000000 1.500000
v 2.913044 -2.000000 2.500000
v 2.913043 -2.000000 1.500000
v 4.043479 -2.000000 2.500000
v 4.043478 -2.000000 1.500000
v 5.173914 -2.000000 2.500000
v 5.173913 -2.000000 1.500000
v 6.304348 -2.000000 1.500000
v 7.434783 -2.000000 1.500000
v 9.695653 0.529585 -0.419320
v 9.695653 -2.000000 1.500000
v 11.956524 -2.000000 1.500000
v 14.217394 -2.000000 1.500000
v 0.272205 -1.500000 0.000000
v 17.608698 -2.000000 1.500000
v -0.478261 1.529585 0.000000
v -0.478261 0.529585 0.000000
v -0.478261 -0.500000 0.000000
v -0.478261 -1.500000 0.000000
v 11.956524 4.000000 0.500000
v 11.956524 4.000000 1.500000
v 14.217395 4.000000 0.500000
v 14.217395 4.000000 1.500000
v -1.594942 1.529585 0.000000
v 9.695653 -0.500000 -0.419320
v 9.695653 -1.500000 -0.419320
v 17.608698 4.000000 0.500000
v 17.608698 4.000000 1.500000
v 9.695654 4.000000 0.500000
v 9.695654 4.000000 1.500000
v -1.594942 0.529585 0.000000
v -1.594942 -0.500000 0.000000
v -1.594942 -1.500000 0.000000
v 21.000002 0.529585 0.000000
v 21.000002 1.529585 0.000000
v 21.000002 3.500000 0.000000
v 21.000002 2.500000 0.000000
v 10.826089 4.000000 1.000000
v 10.826089 4.000000 2.000000
v 19.304350 4.000000 1.000000
v 19.304350 4.000000 2.000000
v 2.208513 0.529585 -0.684274
v -2.168038 -1.500000 -0.830344
v 21.000002 -0.500000 0.000000
v 8.565219 4.000000 1.000000
v 8.565219 4.000000 2.000000
v 15.913046 4.000000 1.000000
v 15.913046 4.000000 2.000000
v 13.086960 4.000000 1.000000
v 13.086960 4.000000 2.000000
v 19.304350 -2.000000 1.000000
v 19.304350 -2.000000 2.000000
v 15.913046 -2.000000 1.000000
v 15.913046 -2.000000 2.000000
v 13.086958 -2.000000 1.000000
v 13.086960 -2.000000 2.000000
v 10.826088 -2.000000 1.000000
v 10.826088 -2.000000 2.000000
v 2.208513 -0.500000 -0.684274
v 8.565218 -2.000000 1.000000
v 8.565218 -2.000000 2.000000
v 6.869565 -2.000000 1.000000
v 6.869566 -2.000000 2.000000
v 5.739130 -2.000000 1.000000
v 5.739131 -2.000000 2.000000
v 4.608696 -2.000000 1.000000
v 4.608696 -2.000000 2.000000
v 3.478261 -2.000000 1.000000
v 3.478261 -2.000000 2.000000
v 2.500275 -2.000000 1.000000
v 2.500275 -2.000000 2.000000
v 1.179855 -2.000000 1.000000
v 1.179856 -2.000000 2.000000
v 2.913043 -1.500000 0.000000
v 2.913043 -0.500000 0.000000
v 2.913043 0.529585 0.000000
v 2.913043 1.529585 0.000000
v 2.913044 2.500000 0.000000
v 4.043478 -1.500000 0.000000
v 4.043478 -0.500000 0.000000
v 4.043478 0.529585 0.000000
v 4.043478 1.529585 0.000000
v 4.043479 2.500000 0.000000
v 5.173913 -1.500000 0.000000
v 5.173913 -0.500000 0.000000
v 5.173913 0.529585 0.000000
v 5.173913 1.529585 0.000000
v 5.173914 2.500000 0.000000
v 6.304348 -1.500000 0.000000
v 6.304348 -0.500000 0.000000
v 6.304348 0.529585 0.000000
v 6.304348 1.529585 0.000000
v 6.304349 2.500000 0.000000
v 7.434783 -1.500000 0.000000
v 7.434783 -0.500000 0.000000
v 7.434784 2.500000 0.000000
v -1.594942 -1.500000 -0.830344
v -1.594942 -0.500000 -0.830344
v 9.695653 -1.500000 0.000000
v 9.695653 -0.500000 0.000000
v 9.695653 0.529585 0.000000
v 9.695653 1.529585 0.000000
v 9.695654 2.500000 0.000000
v 11.956523 -1.500000 0.000000
v 11.956523 -0.500000 0.000000
v 11.956523 0.529585 0.000000
v 11.956523 1.529585 0.000000
v 11.956523 2.500000 0.000000
v 14.217394 -1.500000 0.000000
v 14.217394 -0.500000 0.000000
v 14.217394 0.529585 0.000000
v 14.217394 1.529585 0.000000
v 14.217394 2.500000 0.000000
v 17.608698 -1.500000 0.000000
v 17.608698 -0.500000 0.000000
v 17.608698 0.529585 0.000000
v 17.608698 1.529585 0.000000
v 17.608698 2.500000 0.000000
v 15.913046 3.000000 0.000000
v 15.913046 2.000000 0.000000
v 15.913046 1.059170 0.000000
v 15.913046 0.000000 0.000000
v 15.913046 -1.000000 0.000000
v 10.826088 -1.000000 0.000000
v 10.826088 0.000000 0.000000
v 10.826088 1.059170 0.000000
v 10.826088 2.000000 0.000000
v 10.826088 3.000000 0.000000
v 13.086958 -1.000000 0.000000
v 13.086958 0.000000 0.000000
v 13.086958 1.059170 0.000000
v 13.086958 2.000000 0.000000
v 13.086958 3.000000 0.000000
v 19.304350 -1.000000 0.000000
v 19.304350 0.000000 0.000000
v 19.304350 1.059170 0.000000
v 19.304350 2.000000 0.000000
v 19.304350 3.000000 0.000000
v -2.168038 -0.500000 -0.830344
v -2.168038 0.466387 -0.830344
v 9.695653 0.000000 -0.209660
v -1.594942 0.995972 -0.415172
v 8.565218 2.000000 0.000000
v 8.565219 3.000000 0.000000
v 6.869565 -1.000000 0.000000
v 6.869565 0.000000 0.000000
v 6.869565 2.000000 0.000000
v 6.869566 3.000000 0.000000
v 5.739130 -1.000000 0.000000
v 5.739131 0.000000 0.000000
v 5.739131 1.059170 0.000000
v 5.739131 2.000000 0.000000
v 5.739131 3.000000 0.000000
v 4.608696 -1.000000 0.000000
v 4.608696 0.000000 0.000000
v 4.608696 1.059170 0.000000
v 4.608696 2.000000 0.000000
v 4.608696 3.000000 0.000000
v 3.478261 -1.000000 0.000000
v 3.478261 0.000000 0.000000
v 3.478261 1.059170 0.000000
v 3.478261 2.000000 0.000000
v 3.478261 3.000000 0.000000
v 2.500275 -1.000000 0.000000
v 2.500275 0.000000 0.000000
v 2.500275 1.059170 0.000000
v 2.500275 2.000000 0.000000
v -2.793088 0.995972 -0.415172
v 1.179856 2.000000 0.000000
v -0.103028 -1.000000 0.000000
v -0.103028 0.000000 0.000000
v -0.103028 2.000000 0.000000
v -1.036602 -1.000000 0.000000
v -1.036602 0.000000 0.000000
v -1.036601 1.059170 0.000000
v -1.036601 2.000000 0.000000
v 2.148010 1.059170 -0.342137
v -2.506541 1.059170 0.000000
v -3.643853 -1.000000 0.000000
v -3.643853 0.000000 0.000000
v -3.643853 1.059170 0.000000
v -1.881490 -1.000000 -0.830344
v -1.881490 0.000000 -0.830344
v -1.881490 0.932774 -0.830344
v 9.695653 -1.000000 -0.209660
v 1.240358 -2.000000 -0.342137
v 9.695653 1.059170 -0.209660
v -1.594942 0.000000 -0.415172
v 9.695652 -2.000000 -0.209660
v 2.148010 0.000000 -0.342137
v -1.594942 -1.000000 -0.415172
v 2.148009 -1.000000 -0.342137
v 2.208513 -1.500000 -0.684274
v 2.148009 -2.000000 -0.342137
v 8.565217 -2.000000 -0.209660
v 1.240359 1.059170 -0.342137
v 8.565217 1.059170 -0.209660
v 0.272205 1.529585 0.000000
v 0.272205 0.529585 0.000000
v 7.434783 0.529585 0.000000
v 7.434783 1.529585 0.000000
v 8.565218 1.059170 0.000000
v 6.869565 1.059170 0.000000
v 1.179856 1.059170 0.000000
v -0.103028 1.059170 0.000000
v 19.304350 -2.000000 1.500000
v 15.913046 -2.000000 0.500000
v 5.739131 3.500000 0.000000
v 6.869566 3.500000 0.000000
v 8.565217 -2.000000 0.500000
v -1.594942 -0.500000 -0.415172
v 10.826088 -2.000000 0.500000
v 13.086958 -2.000000 0.500000
v 19.304350 3.500000 0.000000
v 13.086959 -1.500000 0.000000
v 1.179856 -2.000000 2.500000
v 2.500275 -2.000000 2.500000
v 3.478261 -2.000000 2.500000
v 4.608696 -2.000000 2.500000
v 5.739131 -2.000000 2.500000
v 8.565218 -2.000000 1.500000
v 10.826088 -2.000000 1.500000
v 13.086958 -2.000000 1.500000
v 10.826087 1.529585 0.000000
v 15.913046 -2.000000 1.500000
v 10.826087 0.529585 0.000000
v 15.913046 1.529585 0.000000
v 2.148009 0.529585 -0.342137
v 15.913046 -0.500000 0.000000
v 10.826089 4.000000 1.500000
v 19.304350 4.000000 1.500000
v 15.913046 3.500000 0.000000
v 15.913046 2.500000 0.000000
v 15.913046 0.529585 0.000000
v 8.565218 4.000000 1.500000
v 8.942029 -2.000000 -0.139773
v 15.913046 4.000000 1.500000
v 19.304350 4.000000 0.500000
v -1.881490 -0.500000 -0.830344
v -1.881490 -1.500000 -0.830344
v 10.826087 -1.500000 0.000000
v 13.086960 4.000000 1.500000
v 13.086959 3.500000 0.000000
v 19.304350 -2.000000 0.500000
v 10.826088 2.500000 0.000000
v 10.826087 -0.500000 0.000000
v 13.086960 4.000000 0.500000
v 10.826089 4.000000 0.500000
v 8.565218 4.000000 0.500000
v -1.881490 0.466387 -0.830344
v 6.869565 -2.000000 0.500000
v 6.869565 -2.000000 1.500000
v 5.739130 -2.000000 0.500000
v 5.739130 -2.000000 1.500000
v 4.608695 -2.000000 0.500000
v 4.608696 -2.000000 1.500000
v 3.478261 -2.000000 0.500000
v 3.478261 -2.000000 1.500000
v 2.500274 -2.000000 0.500000
v 2.500275 -2.000000 1.500000
v 1.179855 -2.000000 0.500000
v 1.179856 -2.000000 1.500000
v 15.913046 4.000000 0.500000
v 10.826088 3.500000 0.000000
v 13.086959 -0.500000 0.000000
v 15.913046 -1.500000 0.000000
v 13.086959 0.529585 0.000000
v 13.086959 1.529585 0.000000
v 13.086959 2.500000 0.000000
v 19.304350 -1.500000 0.000000
v 19.304350 -0.500000 0.000000
v 19.304350 0.529585 0.000000
v 19.304350 1.529585 0.000000
v 19.304350 2.500000 0.000000
v -1.594942 0.497986 -0.415172
v 9.695651 0.529585 -0.209660
v 8.565217 1.529585 0.000000
v 8.565218 2.500000 0.000000
v 6.869565 -1.500000 0.000000
v 6.869565 -0.500000 0.000000
v 6.869565 0.529585 0.000000
v 6.869566 1.529585 0.000000
v 6.869566 2.500000 0.000000
v 5.739130 -1.500000 0.000000
v 5.739130 -0.500000 0.000000
v 5.739131 0.529585 0.000000
v 5.739131 1.529585 0.000000
v 5.739131 2.500000 0.000000
v 4.608695 -1.500000 0.000000
v 4.608696 -0.500000 0.000000
v 4.608696 0.529585 0.000000
v 4.608696 1.529585 0.000000
v 4.608696 2.500000 0.000000
v 3.478261 -1.500000 0.000000
v 3.478261 -0.500000 0.000000
v 3.478261 0.529585 0.000000
v 3.478261 1.529585 0.000000
v 3.478261 2.500000 0.000000
v 2.500274 -1.500000 0.000000
v 2.500275 -0.500000 0.000000
v 2.500275 0.529585 0.000000
v 2.500275 1.529585 0.000000
v 2.500275 2.500000 0.000000
v 1.522741 -2.000000 -0.228091
v 9.695653 -0.500000 -0.209660
v 1.179856 1.529585 0.000000
v 1.179856 2.500000 0.000000
v -0.103028 -1.500000 0.000000
v -0.103028 -0.500000 0.000000
v -0.103028 0.529585 0.000000
v -0.103028 1.529585 0.000000
v -1.036602 -1.500000 0.000000
v -1.036602 -0.500000 0.000000
v -1.036601 0.529585 0.000000
v -1.036601 1.529585 0.000000
v -2.194015 0.995972 -0.415172
v -2.506540 1.529585 0.000000
v -3.643852 -0.500000 0.000000
v -3.643852 0.529585 0.000000
v 8.565219 3.500000 0.000000
v 2.148010 -0.500000 -0.342137
v -1.594942 -1.500000 -0.415172
v 2.148009 -1.500000 -0.342137
v 9.695651 -1.500000 -0.209660
v 1.522741 1.059170 -0.228091
v 8.942029 1.059170 -0.139773
v 6.869566 3.884871 0.000000
v 7.574677 4.000000 0.500000
v 7.434784 4.000000 0.168198
v 7.785485 4.000000 1.000000
v 6.304349 3.753225 0.000000
v 7.363869 4.000000 0.000000
v 7.996293 4.000000 1.500000
v 5.739131 3.621579 0.000000
v 5.217141 3.500001 0.000000
v 5.173914 3.489933 0.000000
v 4.608696 3.358287 0.000000
v 4.043479 3.226640 0.000000
v 3.478261 3.094994 0.000000
v 3.070412 3.000000 0.000000
v 2.913044 2.963347 0.000000
v 2.500275 2.867208 0.000000
v 2.087507 2.771069 0.000000
v 1.179856 2.559666 0.000000
v 0.923685 2.500000 0.000000
v 0.272205 2.348263 0.000000
v -0.103028 2.260866 0.000000
v -0.478261 2.173470 0.000000
v -1.036601 2.043425 0.000000
v -1.223043 2.000000 0.000000
v -1.594942 1.913380 0.000000
v -2.506540 1.701057 0.000000
v -3.242750 1.529585 0.000000
v -3.418139 1.488735 0.000000
v -3.643853 1.436163 0.000000
v -3.869566 1.383592 0.000000
v -4.270692 1.290164 0.000000
v 8.207100 4.000000 2.000000
v 8.412258 4.000000 2.486597
v 9.695654 4.000000 2.460982
v 8.565219 4.000000 2.483544
v 19.304350 4.000000 2.269207
v 21.000004 4.000000 2.235365
v 17.608698 -2.000000 2.268263
v 19.304348 -2.000000 2.234421
v 21.000002 -2.000000 2.200579
v 17.608698 4.000000 2.303050
v 15.913046 4.000000 2.336893
v 14.217396 4.000000 2.370735
v 15.913046 -2.000000 2.302106
v 14.217395 -2.000000 2.335948
v 13.086960 4.000000 2.393297
v 11.956524 4.000000 2.415858
v 13.086960 -2.000000 2.358510
v 10.826088 4.000000 2.438420
v 11.956524 -2.000000 2.381072
v 10.826089 -2.000000 2.403633
v 9.695654 -2.000000 2.426195
v 8.565218 -2.000000 2.448757
v 7.434784 -2.000000 2.471318
v 6.869566 -2.000000 2.482599
v 6.304349 -2.000000 2.493880
v 5.997723 -2.000000 2.500000
v 5.739131 -2.000000 2.505161
v 5.173914 -2.000000 2.516442
v 4.608696 -2.000000 2.527723
v 4.043479 -2.000000 2.539004
v 3.478261 -2.000000 2.550285
v 2.913044 -2.000000 2.561566
v 2.500275 -2.000000 2.569804
v 2.087507 -2.000000 2.578042
v 1.179856 -2.000000 2.596157
v 0.860218 -2.000000 2.602536
v 0.658820 -2.000000 2.000000
v 0.825946 -2.000000 2.500000
v 0.324579 -2.000000 1.000000
v 0.272205 -2.000000 0.843310
v 0.491717 -2.000000 1.500000
v -0.103029 -1.975494 0.000000
v -0.009654 -2.000000 0.000000
v -1.036602 -1.730507 0.000000
v -0.478261 -1.877030 0.000000
v -1.594942 -1.583987 0.000000
v -1.881490 -1.581631 -0.830344
v -1.594942 -1.620402 -0.415172
v -1.594942 -1.656828 -0.830344
v -3.418139 -1.105545 0.000000
v -3.643853 -1.046314 0.000000
v -4.315187 -0.870152 -0.000000
v -3.820370 -1.000000 0.000000
v -3.869566 -0.987090 0.000000
v 0.157441 -2.000000 0.500000
v -2.168038 -1.506437 -0.830344
v -4.286357 0.529585 0.000000
v -4.297265 0.000000 0.000000
v -4.307563 -0.500000 0.000000
v -4.275449 1.059170 0.000000
vn -0.0000 1.0000 -0.0000
vn -0.0000 -0.0000 1.0000
vn -1.0000 -0.0000 -0.0000
vn -0.9847 -0.0000 -0.1741
vn -0.0000 -1.0000 -0.0000
vn -0.0000 -0.9886 0.1505
vt 0.901214 0.359393
vt 0.930581 0.358567
vt 0.934991 0.368374
vt 0.907305 0.369088
vt 0.959949 0.357741
vt 0.962677 0.367659
vt 0.965405 0.377577
vt 0.939401 0.378180
vt 0.913396 0.378783
vt 0.872685 0.360195
vt 0.862713 0.347743
vt 0.893289 0.346778
vt 0.844157 0.360997
vt 0.832136 0.348708
vt 0.820116 0.336419
vt 0.852740 0.335292
vt 0.885363 0.334164
vt 0.649503 0.961957
vt 0.666178 0.941639
vt 0.665953 0.976172
vt 0.649403 0.977143
vt 0.680120 0.924650
vt 0.679783 0.976998
vt 0.694062 0.907661
vt 0.693627 0.976175
vt 0.705892 0.893246
vt 0.705470 0.960512
vt 0.694525 0.976278
vt 0.717723 0.878830
vt 0.717322 0.943441
vt 0.717119 0.976163
vt 0.705368 0.976868
vt 0.727887 0.866444
vt 0.727505 0.928775
vt 0.738052 0.854059
vt 0.737687 0.914108
vt 0.737323 0.974158
vt 0.736043 0.976284
vt 0.727210 0.976753
vt 0.741683 0.256234
vt 0.787427 0.253664
vt 0.801013 0.270651
vt 0.757971 0.272886
vt 0.833172 0.251094
vt 0.844055 0.268416
vt 0.854939 0.285739
vt 0.814599 0.287639
vt 0.774260 0.289539
vt 0.402082 0.182078
vt 0.400969 0.317919
vt 0.327157 0.321165
vt 0.328306 0.188190
vt 0.399857 0.453759
vt 0.326009 0.454139
vt 0.252161 0.454520
vt 0.253346 0.324411
vt 0.254531 0.194303
vt 0.863393 0.299196
vt 0.825187 0.300869
vt 0.814599 0.287639
vt 0.871848 0.312653
vt 0.835774 0.314100
vt 0.799700 0.315547
vt 0.786980 0.302543
vt 0.878606 0.323408
vt 0.844257 0.324696
vt 0.835774 0.314100
vt 0.809908 0.325983
vt 0.860980 0.704268
vt 0.860807 0.736778
vt 0.851388 0.750344
vt 0.851574 0.715730
vt 0.860635 0.769287
vt 0.851202 0.784959
vt 0.841769 0.800631
vt 0.841968 0.763911
vt 0.842168 0.727192
vt 0.819882 0.378382
vt 0.809658 0.370242
vt 0.819648 0.420344
vt 0.809408 0.414501
vt 0.799168 0.408659
vt 0.799434 0.362103
vt 0.960908 0.038546
vt 0.977484 0.036755
vt 0.977461 0.087124
vt 0.965362 0.088267
vt 0.874717 0.047863
vt 0.887845 0.095590
vt 0.966903 0.105269
vt 0.892361 0.112009
vt 0.977309 0.104329
vt 0.977256 0.121514
vt 0.968444 0.122272
vt 0.896877 0.128428
vt 0.970214 0.141687
vt 0.902050 0.147239
vt 0.977069 0.141129
vt 0.977036 0.160716
vt 0.971984 0.161102
vt 0.907224 0.166050
vt 0.973453 0.177117
vt 0.911506 0.181615
vt 0.976888 0.176868
vt 0.976867 0.192999
vt 0.974922 0.193132
vt 0.915787 0.197181
vt 0.976161 0.206568
vt 0.919388 0.210275
vt 0.976747 0.206530
vt 0.976728 0.212715
vt 0.976733 0.220045
vt 0.922990 0.223368
vt 0.976634 0.231546
vt 0.926061 0.234535
vt 0.976626 0.243034
vt 0.929133 0.245702
vt 0.881152 0.248398
vt 0.889075 0.266078
vt 0.844056 0.268416
vt 0.934094 0.263739
vt 0.939055 0.281777
vt 0.896997 0.283758
vt 0.942888 0.295713
vt 0.903141 0.297454
vt 0.946721 0.309649
vt 0.909285 0.311151
vt 0.863394 0.299196
vt 0.949772 0.320740
vt 0.914189 0.322074
vt 0.952822 0.331831
vt 0.919093 0.332998
vt 0.798071 0.600731
vt 0.797820 0.644687
vt 0.784955 0.651946
vt 0.785226 0.605278
vt 0.797569 0.688642
vt 0.784685 0.698613
vt 0.771800 0.708584
vt 0.772090 0.659205
vt 0.772380 0.609825
vt 0.924837 0.345782
vt 0.956386 0.344786
vt 0.798636 0.501878
vt 0.798353 0.551305
vt 0.785529 0.552806
vt 0.785834 0.500333
vt 0.772706 0.554307
vt 0.773032 0.498789
vt 0.976351 0.308461
vt 0.976219 0.319749
vt 0.976267 0.331021
vt 0.818239 0.672646
vt 0.818460 0.633041
vt 0.830607 0.626188
vt 0.830403 0.663233
vt 0.818681 0.593436
vt 0.830811 0.589143
vt 0.842941 0.584849
vt 0.842754 0.619334
vt 0.842566 0.653819
vt 0.607741 0.478844
vt 0.607086 0.573704
vt 0.566494 0.572270
vt 0.567160 0.479023
vt 0.606432 0.668564
vt 0.565828 0.665517
vt 0.525223 0.662471
vt 0.525901 0.570837
vt 0.526580 0.479203
vt 0.819179 0.504357
vt 0.819413 0.462351
vt 0.831487 0.466520
vt 0.831270 0.505816
vt 0.831704 0.427224
vt 0.843760 0.434103
vt 0.843561 0.470689
vt 0.843362 0.507275
vt 0.851490 0.928291
vt 0.860168 0.905823
vt 0.900036 0.910213
vt 0.893683 0.933174
vt 0.868846 0.883354
vt 0.906389 0.887254
vt 0.943933 0.891153
vt 0.939904 0.914604
vt 0.935876 0.938056
vt 0.898950 0.805409
vt 0.905187 0.789259
vt 0.932932 0.791468
vt 0.928383 0.807868
vt 0.911425 0.773108
vt 0.937480 0.775069
vt 0.963536 0.777029
vt 0.960676 0.793678
vt 0.957816 0.810328
vt 0.976125 0.777976
vt 0.976036 0.794902
vt 0.976190 0.811863
vt 0.817298 0.841287
vt 0.817533 0.799105
vt 0.829751 0.781508
vt 0.829533 0.820959
vt 0.817769 0.756922
vt 0.829968 0.742057
vt 0.818004 0.714784
vt 0.830185 0.702645
vt 0.842367 0.690505
vt 0.818930 0.548897
vt 0.831041 0.547479
vt 0.843152 0.546062
vt 0.840308 0.957244
vt 0.885482 0.962842
vt 0.930657 0.968440
vt 0.741683 0.256234
vt 0.757971 0.272886
vt 0.752448 0.278953
vt 0.741542 0.273660
vt 0.774260 0.289539
vt 0.757831 0.290312
vt 0.741402 0.291086
vt 0.882706 0.847467
vt 0.890828 0.826438
vt 0.922453 0.829265
vt 0.916523 0.850662
vt 0.954078 0.832092
vt 0.950339 0.853857
vt 0.886030 0.771198
vt 0.878194 0.787109
vt 0.870359 0.803020
vt 0.191288 0.166325
vt 0.222909 0.180314
vt 0.221647 0.315891
vt 0.189947 0.307371
vt 0.220384 0.451468
vt 0.188607 0.448416
vt 0.224168 0.045194
vt 0.255712 0.064615
vt 0.192623 0.025773
vt 0.799434 0.362103
vt 0.786693 0.351960
vt 0.786980 0.302543
vt 0.786407 0.401377
vt 0.773646 0.394096
vt 0.773953 0.341817
vt 0.875776 0.865410
vt 0.911456 0.868958
vt 0.947136 0.872505
vt 0.976465 0.280015
vt 0.976295 0.294249
vt 0.807150 0.814059
vt 0.807402 0.769554
vt 0.806899 0.858563
vt 0.796500 0.875840
vt 0.796768 0.829013
vt 0.797035 0.782187
vt 0.880368 0.369783
vt 0.853431 0.370478
vt 0.888050 0.379371
vt 0.862704 0.379959
vt 0.797302 0.735414
vt 0.784397 0.748275
vt 0.784685 0.698613
vt 0.784109 0.797937
vt 0.771183 0.813687
vt 0.771492 0.761136
vt 0.798902 0.455268
vt 0.786120 0.450855
vt 0.786407 0.401377
vt 0.785834 0.500333
vt 0.773339 0.446442
vt 0.976232 0.875398
vt 0.976364 0.894521
vt 0.976281 0.856308
vt 0.841338 0.861987
vt 0.832673 0.879597
vt 0.850002 0.844377
vt 0.770566 0.918928
vt 0.783533 0.897384
vt 0.821851 0.901603
vt 0.811028 0.923609
vt 0.976307 0.918614
vt 0.976477 0.942754
vt 0.976408 0.974111
vt 0.976412 0.978358
vt 0.929003 0.978066
vt 0.753944 0.946543
vt 0.797126 0.951893
vt 0.784945 0.976677
vt 0.752764 0.976183
vt 0.220384 0.451468
vt 0.219202 0.578345
vt 0.187352 0.580428
vt 0.251052 0.576262
vt 0.249943 0.698004
vt 0.218020 0.705221
vt 0.186097 0.712439
vt 0.721708 0.235813
vt 0.770736 0.232782
vt 0.779081 0.243223
vt 0.731695 0.246023
vt 0.819763 0.229751
vt 0.826467 0.240422
vt 0.871376 0.226559
vt 0.876264 0.237479
vt 0.826468 0.240422
vt 0.698475 0.212060
vt 0.751290 0.208444
vt 0.761013 0.220613
vt 0.710091 0.223937
vt 0.804105 0.204828
vt 0.811934 0.217289
vt 0.770736 0.232782
vt 0.859946 0.201004
vt 0.865661 0.213782
vt 0.671113 0.184088
vt 0.728347 0.179715
vt 0.739818 0.194080
vt 0.684794 0.198074
vt 0.785580 0.175343
vt 0.794842 0.190085
vt 0.846402 0.170696
vt 0.853174 0.185850
vt 0.638417 0.150661
vt 0.700870 0.145289
vt 0.714608 0.162502
vt 0.654765 0.167375
vt 0.763322 0.139917
vt 0.774451 0.157630
vt 0.830099 0.134172
vt 0.838251 0.152434
vt 0.610203 0.121817
vt 0.677106 0.115497
vt 0.688988 0.130393
vt 0.624310 0.136239
vt 0.744009 0.109177
vt 0.753666 0.124547
vt 0.700870 0.145289
vt 0.815927 0.102383
vt 0.823013 0.118278
vt 0.753666 0.124547
vt 0.529866 0.039684
vt 0.609167 0.030230
vt 0.643137 0.072863
vt 0.570034 0.080751
vt 0.663617 0.023738
vt 0.690071 0.023326
vt 0.716239 0.064976
vt 0.795478 0.056419
vt 0.716239 0.064976
vt 0.860181 0.823698
vt 0.783821 0.847660
vt 0.770875 0.866307
vt 0.809157 0.458809
vt 0.808907 0.503118
vt 0.831920 0.387966
vt 0.843958 0.397550
vt 0.808642 0.550101
vt 0.808376 0.597084
vt 0.798353 0.551305
vt 0.808140 0.638864
vt 0.807904 0.680644
vt 0.797820 0.644687
vt 0.807653 0.725099
vt 0.862532 0.412338
vt 0.853245 0.404944
vt 0.862360 0.444716
vt 0.853060 0.439410
vt 0.862188 0.477121
vt 0.852874 0.473905
vt 0.862015 0.509526
vt 0.852689 0.508400
vt 0.861833 0.543877
vt 0.852492 0.544969
vt 0.861650 0.578227
vt 0.852296 0.581538
vt 0.861488 0.608764
vt 0.852121 0.614049
vt 0.861326 0.639302
vt 0.851946 0.646560
vt 0.861153 0.671785
vt 0.851760 0.681145
vt 0.398674 0.598140
vt 0.324863 0.587201
vt 0.397491 0.742520
vt 0.323717 0.720262
vt 0.251052 0.576262
vt 0.756257 0.553956
vt 0.756587 0.498674
vt 0.755927 0.609238
vt 0.739473 0.608650
vt 0.739808 0.553604
vt 0.740142 0.498559
vt 0.739465 0.621476
vt 0.755922 0.615650
vt 0.755606 0.668506
vt 0.739123 0.677807
vt 0.755290 0.721361
vt 0.738780 0.734138
vt 0.755290 0.721361
vt 0.754954 0.777617
vt 0.738416 0.794098
vt 0.754618 0.833873
vt 0.731316 0.307874
vt 0.721311 0.299910
vt 0.741321 0.315839
vt 0.740959 0.375444
vt 0.730936 0.369725
vt 0.720914 0.364006
vt 0.730936 0.369725
vt 0.730556 0.431671
vt 0.720516 0.428205
vt 0.740596 0.435138
vt 0.740234 0.494831
vt 0.730176 0.493617
vt 0.720118 0.492404
vt 0.730176 0.493617
vt 0.729772 0.559333
vt 0.719696 0.560513
vt 0.739849 0.558153
vt 0.729369 0.625049
vt 0.719274 0.628623
vt 0.729010 0.683513
vt 0.718898 0.689219
vt 0.728651 0.741977
vt 0.718522 0.749815
vt 0.728269 0.804211
vt 0.718123 0.814323
vt 0.709673 0.290645
vt 0.698035 0.281380
vt 0.721311 0.299910
vt 0.709254 0.357353
vt 0.697595 0.350700
vt 0.708835 0.424172
vt 0.697155 0.420140
vt 0.708416 0.490992
vt 0.696714 0.489580
vt 0.707971 0.561886
vt 0.696247 0.563259
vt 0.719696 0.560513
vt 0.707526 0.632781
vt 0.695779 0.636939
vt 0.707131 0.695859
vt 0.695364 0.702499
vt 0.718898 0.689219
vt 0.706735 0.758938
vt 0.694948 0.768060
vt 0.706314 0.826092
vt 0.694505 0.837861
vt 0.684328 0.270469
vt 0.670622 0.259558
vt 0.683863 0.342864
vt 0.670130 0.335028
vt 0.683396 0.415390
vt 0.669637 0.410641
vt 0.682929 0.487916
vt 0.669145 0.486253
vt 0.682434 0.564877
vt 0.668622 0.566495
vt 0.681939 0.641837
vt 0.668099 0.646736
vt 0.681499 0.710323
vt 0.667634 0.718147
vt 0.681058 0.778809
vt 0.667169 0.789558
vt 0.680589 0.851729
vt 0.666673 0.865598
vt 0.654241 0.246519
vt 0.637861 0.233479
vt 0.653717 0.325663
vt 0.637304 0.316298
vt 0.653192 0.404964
vt 0.636746 0.399287
vt 0.652667 0.484265
vt 0.636189 0.482276
vt 0.652109 0.568429
vt 0.635597 0.570363
vt 0.651552 0.652593
vt 0.635005 0.658450
vt 0.651056 0.727502
vt 0.634478 0.736857
vt 0.650560 0.802411
vt 0.633951 0.815264
vt 0.650031 0.882184
vt 0.633390 0.898770
vt 0.637471 0.976619
vt 0.632870 0.976154
vt 0.623724 0.222227
vt 0.609588 0.210974
vt 0.637861 0.233479
vt 0.623139 0.308215
vt 0.608973 0.300132
vt 0.623139 0.308215
vt 0.622552 0.394388
vt 0.608357 0.389488
vt 0.621965 0.480560
vt 0.621965 0.480560
vt 0.621342 0.572034
vt 0.620718 0.663507
vt 0.620164 0.744935
vt 0.605850 0.753013
vt 0.634478 0.736857
vt 0.619609 0.826363
vt 0.605267 0.837462
vt 0.619609 0.826363
vt 0.619018 0.913093
vt 0.604647 0.927417
vt 0.618584 0.976789
vt 0.604311 0.976185
vt 0.529865 0.039684
vt 0.570034 0.080751
vt 0.556400 0.098593
vt 0.529499 0.086982
vt 0.610203 0.121817
vt 0.569668 0.128048
vt 0.529132 0.134279
vt 0.756898 0.446550
vt 0.757209 0.394426
vt 0.740457 0.446657
vt 0.740772 0.394756
vt 0.524998 0.697388
vt 0.565715 0.682976
vt 0.565047 0.776040
vt 0.524245 0.799068
vt 0.564380 0.869105
vt 0.523493 0.900747
vt 0.564380 0.869105
vt 0.563669 0.968260
vt 0.552103 0.979787
vt 0.522934 0.976219
vt 0.563584 0.980092
vt 0.507220 0.129493
vt 0.529072 0.146886
vt 0.528279 0.254087
vt 0.506374 0.241588
vt 0.485368 0.112100
vt 0.484470 0.229090
vt 0.506374 0.241588
vt 0.505526 0.353998
vt 0.483570 0.346421
vt 0.527483 0.361575
vt 0.526688 0.469063
vt 0.504678 0.466408
vt 0.482669 0.463752
vt 0.504678 0.466408
vt 0.503778 0.585813
vt 0.481712 0.588400
vt 0.525843 0.583226
vt 0.502877 0.705218
vt 0.480756 0.713048
vt 0.502074 0.811581
vt 0.479903 0.824094
vt 0.501272 0.917943
vt 0.479051 0.935139
vt 0.501272 0.917943
vt 0.500826 0.977087
vt 0.478736 0.976205
vt 0.444279 0.079398
vt 0.443276 0.205584
vt 0.403191 0.046695
vt 0.442269 0.332170
vt 0.441263 0.458756
vt 0.440193 0.593270
vt 0.439124 0.727784
vt 0.438170 0.847649
vt 0.396437 0.871204
vt 0.479903 0.824094
vt 0.437217 0.967514
vt 0.423248 0.978325
vt 0.395578 0.976194
vt 0.437129 0.978613
vt 0.291293 0.780110
vt 0.254656 0.742666
vt 0.323717 0.720262
vt 0.185094 0.817700
vt 0.185596 0.765069
vt 0.291293 0.780110
vt 0.289940 0.931324
vt 0.203933 0.979876
vt 0.183586 0.976355
vt 0.396437 0.871205
vt 0.289447 0.986443
vt 0.153992 0.040516
vt 0.192273 0.062360
vt 0.190534 0.245326
vt 0.152123 0.232079
vt 0.188795 0.428292
vt 0.150254 0.423641
vt 0.113712 0.218831
vt 0.111713 0.418991
vt 0.150254 0.423641
vt 0.148265 0.627540
vt 0.109586 0.632085
vt 0.186945 0.622996
vt 0.146276 0.831440
vt 0.107458 0.845180
vt 0.144854 0.977287
vt 0.106149 0.976375
vt 0.754281 0.890208
vt 0.567788 0.391184
vt 0.568415 0.303344
vt 0.527218 0.392880
vt 0.527857 0.306556
vt 0.329451 0.055655
vt 0.255712 0.064615
vt 0.569041 0.215696
vt 0.569668 0.128048
vt 0.568415 0.303344
vt 0.528495 0.220418
vt 0.529132 0.134279
vt 0.757520 0.342369
vt 0.757831 0.290312
vt 0.757209 0.394426
vt 0.741087 0.342921
vt 0.741402 0.291086
vt 0.000000 0.000000
vt 0.007226 0.644125
vt 0.007106 0.406368
vt 0.109586 0.632085
vt 0.976399 0.261542
vt 0.959171 0.019159
vt 0.977684 0.018972
vt 0.224373 0.023134
vt 0.256083 0.023937
vt 0.006998 0.182040
vt 0.006937 0.014912
vt 0.115659 0.023841
vt 0.256083 0.023937
vt 0.329727 0.023740
vt 0.154164 0.022857
vt 0.192638 0.023913
vt 0.976077 0.834059
vt 0.976064 0.344165
vt 0.976175 0.357285
vt 0.403377 0.023955
vt 0.881355 0.977774
vt 0.867182 0.020465
vt 0.106149 0.976376
vt 0.007431 0.983931
vt 0.007368 0.880608
vt 0.124054 0.023433
vt 0.976023 0.367315
vt 0.976111 0.377328
vt 0.486045 0.023883
vt 0.508024 0.022892
vt 0.779975 0.021572
vt 0.444742 0.021224
vt 0.832595 0.977214
vt 0.513490 0.022943
vt 0.603502 0.023111
vt 0.192641 0.023963
s 0
f 50/1/1 198/2/1 389/3/1 234/4/1
f 198/2/1 49/5/1 235/6/1 389/3/1
f 389/3/1 235/6/1 29/7/1 182/8/1
f 234/4/1 389/3/1 182/8/1 30/9/1
f 50/1/1 177/10/1 390/11/1 236/12/1
f 177/10/1 4/13/1 139/14/1 390/11/1
f 390/11/1 139/14/1 6/15/1 175/16/1
f 236/12/1 390/11/1 175/16/1 48/17/1
f 346/18/2 87/19/2 521/20/2 522/21/2
f 87/19/2 341/22/2 520/23/2 521/20/2
f 341/22/2 92/24/2 519/25/2 520/23/2
f 92/24/2 336/26/2 391/27/2 518/28/2 519/25/2
f 336/26/2 97/29/2 157/30/2 391/27/2
f 391/27/2 157/30/2 514/31/2 517/32/2
f 97/29/2 331/33/2 392/34/2 157/30/2
f 331/33/2 101/35/2 158/36/2 392/34/2
f 392/34/2 158/36/2 18/37/2 515/38/2 510/39/2
f 157/30/2 392/34/2 510/39/2 514/31/2
f 9/40/1 172/41/1 393/42/1 143/43/1
f 172/41/1 42/44/1 243/45/1 393/42/1
f 393/42/1 243/45/1 44/46/1 173/47/1
f 143/43/1 393/42/1 173/47/1 8/48/1
f 65/49/3 215/50/3 394/51/3 374/52/3
f 215/50/3 66/53/3 371/54/3 394/51/3
f 394/51/3 371/54/3 126/55/3 281/56/3
f 374/52/3 394/51/3 281/56/3 128/57/3
f 44/46/1 240/58/1 395/59/1 173/60/1
f 240/58/1 46/61/1 174/62/1 395/59/1
f 395/59/1 174/62/1 7/63/1 141/64/1
f 173/60/1 395/59/1 141/64/1 8/48/1
f 46/61/1 238/65/1 396/66/1 174/67/1
f 238/65/1 48/17/1 175/16/1 396/66/1
f 396/66/1 175/16/1 6/15/1 140/68/1
f 174/67/1 396/66/1 140/68/1 7/63/1
f 64/69/2 219/70/2 397/71/2 321/72/2
f 219/70/2 1/73/2 156/74/2 397/71/2
f 397/71/2 156/74/2 24/75/2 163/76/2
f 321/72/2 397/71/2 163/76/2 125/77/2
f 6/15/2 292/78/2 398/79/2 140/68/2
f 292/78/2 116/80/2 312/81/2 398/79/2
f 398/79/2 312/81/2 111/82/2 287/83/2
f 140/68/2 398/79/2 287/83/2 7/63/2
f 399/84/1 575/85/1 574/86/1 183/87/1
f 256/88/1 399/84/1 183/87/1 31/89/1
f 31/89/1 183/87/1 400/90/1 254/91/1
f 183/87/1 574/86/1 573/92/1 400/90/1
f 400/90/1 573/92/1 572/93/1 185/94/1
f 254/91/1 400/90/1 185/94/1 33/95/1
f 33/95/1 185/94/1 401/96/1 252/97/1
f 185/94/1 572/93/1 571/98/1 401/96/1
f 401/96/1 571/98/1 570/99/1 187/100/1
f 252/97/1 401/96/1 187/100/1 35/101/1
f 35/101/1 187/100/1 402/102/1 250/103/1
f 187/100/1 570/99/1 569/104/1 402/102/1
f 402/102/1 569/104/1 568/105/1 189/106/1
f 250/103/1 402/102/1 189/106/1 37/107/1
f 37/107/1 189/106/1 403/108/1 248/109/1
f 189/106/1 568/105/1 567/110/1 403/108/1
f 403/108/1 567/110/1 566/111/1
f 248/109/1 403/108/1 566/111/1 565/112/1 39/113/1
f 39/113/1 565/112/1 564/114/1 246/115/1
f 246/115/1 564/114/1 563/116/1 41/117/1
f 42/44/1 192/118/1 404/119/1 243/120/1
f 192/118/1 41/117/1 244/121/1 404/119/1
f 404/119/1 244/121/1 43/122/1 194/123/1
f 243/120/1 404/119/1 194/123/1 44/46/1
f 43/122/1 241/124/1 405/125/1 194/123/1
f 241/124/1 45/126/1 195/127/1 405/125/1
f 405/125/1 195/127/1 46/61/1 240/128/1
f 194/123/1 405/125/1 240/128/1 44/46/1
f 45/126/1 239/129/1 406/130/1 195/127/1
f 239/129/1 47/131/1 196/132/1 406/130/1
f 406/130/1 196/132/1 48/17/1 238/65/1
f 195/127/1 406/130/1 238/65/1 46/61/1
f 113/133/2 290/134/2 407/135/2 309/136/2
f 290/134/2 114/137/2 310/138/2 407/135/2
f 407/135/2 310/138/2 109/139/2 285/140/2
f 309/136/2 407/135/2 285/140/2 108/141/2
f 49/5/1 198/2/1 408/142/1 237/143/1
f 198/2/1 50/1/1 236/12/1 408/142/1
f 408/142/1 236/12/1 48/17/1 196/132/1
f 237/143/1 408/142/1 196/132/1 47/131/1
f 112/144/2 289/145/2 409/146/2 308/147/2
f 289/145/2 113/133/2 309/136/2 409/146/2
f 409/146/2 309/136/2 108/141/2 284/148/2
f 308/147/2 409/146/2 284/148/2 107/149/2
f 45/126/1 559/150/1 557/151/1 239/129/1
f 239/129/1 557/151/1 554/152/1 47/131/1
f 119/153/2 295/154/2 410/155/2 303/156/2
f 295/154/2 118/157/2 304/158/2 410/155/2
f 410/155/2 304/158/2 123/159/2 300/160/2
f 303/156/2 410/155/2 300/160/2 124/161/2
f 76/162/4 165/163/4 411/164/4 373/165/4
f 165/163/4 77/166/4 360/167/4 411/164/4
f 411/164/4 360/167/4 19/168/4 225/169/4
f 373/165/4 411/164/4 225/169/4 26/170/4
f 117/171/2 293/172/2 412/173/2 305/174/2
f 293/172/2 116/80/2 306/175/2 412/173/2
f 412/173/2 306/175/2 121/176/2 298/177/2
f 305/174/2 412/173/2 298/177/2 122/178/2
f 59/179/5 221/180/5 413/181/5 213/182/5
f 221/180/5 51/183/5 204/184/5 413/181/5
f 413/181/5 204/184/5 52/185/5 222/186/5
f 213/182/5 413/181/5 222/186/5 60/187/5
f 57/188/5 223/189/5 414/190/5 211/191/5
f 223/189/5 27/192/5 181/193/5 414/190/5
f 414/190/5 181/193/5 28/194/5 224/195/5
f 211/191/5 414/190/5 224/195/5 58/196/5
f 28/194/5 546/197/5 545/198/5 224/195/5
f 224/195/5 545/198/5 550/199/5 58/196/5
f 22/200/2 161/201/2 415/202/2 154/203/2
f 161/201/2 120/204/2 302/205/2 415/202/2
f 415/202/2 302/205/2 125/77/2 163/76/2
f 154/203/2 415/202/2 163/76/2 24/75/2
f 120/204/2 296/206/2 416/207/2 302/205/2
f 296/206/2 119/153/2 303/156/2 416/207/2
f 416/207/2 303/156/2 124/161/2 301/208/2
f 302/205/2 416/207/2 301/208/2 125/77/2
f 118/157/2 294/209/2 417/210/2 304/158/2
f 294/209/2 117/171/2 305/174/2 417/210/2
f 417/210/2 305/174/2 122/178/2 299/211/2
f 304/158/2 417/210/2 299/211/2 123/159/2
f 228/212/5 59/179/5 213/182/5 418/213/5
f 418/213/5 213/182/5 60/187/5 229/214/5
f 9/215/1 143/216/1 419/217/1 378/218/1
f 8/219/1 372/220/1 419/217/1 143/216/1
f 102/221/1 378/218/1 419/217/1 372/220/1
f 53/222/5 230/223/5 420/224/5 206/225/5
f 230/223/5 57/188/5 211/191/5 420/224/5
f 420/224/5 211/191/5 58/196/5 231/226/5
f 206/225/5 420/224/5 231/226/5 54/227/5
f 1/73/5 180/228/5 421/229/5 156/74/5
f 180/228/5 27/192/5 223/189/5 421/229/5
f 421/229/5 223/189/5 57/188/5 210/230/5
f 156/74/5 421/229/5 210/230/5 24/75/5
f 103/231/2 365/232/2 422/233/2 322/234/2
f 365/232/2 128/57/2 281/56/2 422/233/2
f 422/233/2 281/56/2 126/55/2 366/235/2
f 322/234/2 422/233/2 366/235/2 105/236/2
f 423/237/2 280/238/2 128/57/2 365/232/2
f 226/239/2 423/237/2 365/232/2 103/231/2
f 7/63/2 287/240/2 424/241/2 141/242/2
f 287/240/2 111/82/2 307/243/2 424/241/2
f 424/241/2 307/243/2 106/244/2 282/245/2
f 141/242/2 424/241/2 282/245/2 8/48/2
f 51/183/5 232/246/5 425/247/5 204/184/5
f 232/246/5 53/222/5 206/225/5 425/247/5
f 425/247/5 206/225/5 54/227/5 233/248/5
f 204/184/5 425/247/5 233/248/5 52/185/5
f 43/122/1 561/249/1 560/250/1 241/124/1
f 241/124/1 560/250/1 559/150/1 45/126/1
f 120/204/2 161/201/2 426/251/2 316/252/2
f 161/201/2 22/200/2 152/253/2 426/251/2
f 426/251/2 152/253/2 21/254/2 160/255/2
f 316/252/2 426/251/2 160/255/2 115/256/2
f 4/13/1 177/10/1 427/257/1 137/258/1
f 177/10/1 50/1/1 234/4/1 427/257/1
f 427/257/1 234/4/1 30/9/1 135/259/1
f 137/258/1 427/257/1 135/259/1 2/260/1
f 114/137/2 291/261/2 428/262/2 310/263/2
f 291/261/2 115/256/2 311/264/2 428/262/2
f 428/262/2 311/264/2 110/265/2 286/266/2
f 310/263/2 428/262/2 286/266/2 109/139/2
f 111/82/2 288/267/2 429/268/2 307/269/2
f 288/267/2 112/144/2 308/270/2 429/268/2
f 429/268/2 308/270/2 107/149/2 283/271/2
f 307/269/2 429/268/2 283/271/2 106/244/2
f 52/185/5 233/248/5 555/272/5 556/273/5
f 233/248/5 54/227/5 552/274/5 555/272/5
f 21/254/5 152/253/5 430/275/5 203/276/5
f 152/253/5 22/200/5 205/277/5 430/275/5
f 430/275/5 205/277/5 53/222/5 232/246/5
f 203/276/5 430/275/5 232/246/5 51/183/5
f 20/278/5 151/279/5 431/280/5 212/281/5
f 151/279/5 21/254/5 203/276/5 431/280/5
f 431/280/5 203/276/5 51/183/5 221/180/5
f 212/281/5 431/280/5 221/180/5 59/179/5
f 52/185/5 556/273/5 558/282/5 222/186/5
f 222/186/5 558/282/5 543/283/5 60/187/5
f 60/187/5 543/283/5 544/284/5 229/214/5
f 229/214/5 544/284/5 542/285/5 541/286/5
f 18/37/5 150/287/5 432/288/5 511/289/5 512/290/5
f 150/287/5 20/278/5 212/281/5 432/288/5
f 432/288/5 212/281/5 59/179/5 228/212/5
f 105/236/2 366/291/2 433/292/2 323/293/2
f 366/291/2 126/55/2 142/294/2 433/292/2
f 433/292/2 142/294/2 127/295/2 367/296/2
f 323/293/2 433/292/2 367/296/2 104/297/2
f 10/298/1 171/299/1 434/300/1 144/301/1
f 171/299/1 40/302/1 245/303/1 434/300/1
f 434/300/1 245/303/1 42/44/1 172/41/1
f 144/301/1 434/300/1 172/41/1 9/40/1
f 40/302/1 191/304/1 435/305/1 245/306/1
f 191/304/1 39/113/1 246/115/1 435/305/1
f 435/305/1 246/115/1 41/117/1 192/118/1
f 245/306/1 435/305/1 192/118/1 42/44/1
f 11/307/1 170/308/1 436/309/1 145/310/1
f 170/308/1 38/311/1 247/312/1 436/309/1
f 436/309/1 247/312/1 40/302/1 171/313/1
f 145/310/1 436/309/1 171/313/1 10/298/1
f 38/311/1 190/314/1 437/315/1 247/312/1
f 190/314/1 37/107/1 248/109/1 437/315/1
f 437/315/1 248/109/1 39/113/1 191/304/1
f 247/312/1 437/315/1 191/304/1 40/302/1
f 12/316/1 169/317/1 438/318/1 146/319/1
f 169/317/1 36/320/1 249/321/1 438/318/1
f 438/318/1 249/321/1 38/311/1 170/308/1
f 146/319/1 438/318/1 170/308/1 11/307/1
f 36/320/1 188/322/1 439/323/1 249/321/1
f 188/322/1 35/101/1 250/103/1 439/323/1
f 439/323/1 250/103/1 37/107/1 190/314/1
f 249/321/1 439/323/1 190/314/1 38/311/1
f 13/324/1 168/325/1 440/326/1 147/327/1
f 168/325/1 34/328/1 251/329/1 440/326/1
f 440/326/1 251/329/1 36/320/1 169/317/1
f 147/327/1 440/326/1 169/317/1 12/316/1
f 34/328/1 186/330/1 441/331/1 251/329/1
f 186/330/1 33/95/1 252/97/1 441/331/1
f 441/331/1 252/97/1 35/101/1 188/322/1
f 251/329/1 441/331/1 188/322/1 36/320/1
f 14/332/1 167/333/1 442/334/1 148/335/1
f 167/333/1 32/336/1 253/337/1 442/334/1
f 442/334/1 253/337/1 34/328/1 168/338/1
f 148/335/1 442/334/1 168/338/1 13/324/1
f 32/336/1 184/339/1 443/340/1 253/341/1
f 184/339/1 31/89/1 254/91/1 443/340/1
f 443/340/1 254/91/1 33/95/1 186/330/1
f 253/341/1 443/340/1 186/330/1 34/328/1
f 15/342/1 166/343/1 444/344/1 149/345/1
f 166/343/1 580/346/1 579/347/1 255/348/1 444/344/1
f 444/344/1 255/348/1 32/336/1 167/333/1
f 149/345/1 444/344/1 167/333/1 14/332/1
f 445/349/1 256/88/1 31/89/1 184/339/1
f 255/350/1 445/349/1 184/339/1 32/336/1
f 22/200/5 154/203/5 446/351/5 205/277/5
f 154/203/5 24/75/5 210/230/5 446/351/5
f 446/351/5 210/230/5 57/188/5 230/223/5
f 205/277/5 446/351/5 230/223/5 53/222/5
f 115/256/2 160/255/2 447/352/2 311/264/2
f 160/255/2 21/254/2 151/279/2 447/352/2
f 447/352/2 151/279/2 20/278/2 159/353/2
f 311/264/2 447/352/2 159/353/2 110/265/2
f 116/80/2 293/172/2 448/354/2 312/81/2
f 293/172/2 117/171/2 313/355/2 448/354/2
f 448/354/2 313/355/2 112/144/2 288/267/2
f 312/81/2 448/354/2 288/267/2 111/82/2
f 116/80/2 292/78/2 449/356/2 306/175/2
f 292/78/2 6/15/2 139/14/2 449/356/2
f 449/356/2 139/14/2 4/13/2 297/357/2
f 306/175/2 449/356/2 297/357/2 121/176/2
f 117/171/2 294/209/2 450/358/2 313/355/2
f 294/209/2 118/157/2 314/359/2 450/358/2
f 450/358/2 314/359/2 113/133/2 289/360/2
f 313/355/2 450/358/2 289/360/2 112/144/2
f 118/157/2 295/154/2 451/361/2 314/359/2
f 295/154/2 119/153/2 315/362/2 451/361/2
f 451/361/2 315/362/2 114/137/2 290/363/2
f 314/359/2 451/361/2 290/363/2 113/133/2
f 119/153/2 296/206/2 452/364/2 315/362/2
f 296/206/2 120/204/2 316/252/2 452/364/2
f 452/364/2 316/252/2 115/256/2 291/261/2
f 315/362/2 452/364/2 291/261/2 114/137/2
f 2/260/2 134/365/2 453/366/2 137/258/2
f 134/365/2 55/367/2 317/368/2 453/366/2
f 453/366/2 317/368/2 121/176/2 297/357/2
f 137/258/2 453/366/2 297/357/2 4/13/2
f 55/367/2 227/369/2 454/370/2 317/368/2
f 227/369/2 61/371/2 318/372/2 454/370/2
f 454/370/2 318/372/2 122/178/2 298/177/2
f 317/368/2 454/370/2 298/177/2 121/176/2
f 61/371/2 217/373/2 455/374/2 318/372/2
f 217/373/2 62/375/2 319/376/2 455/374/2
f 455/374/2 319/376/2 123/159/2 299/211/2
f 318/372/2 455/374/2 299/211/2 122/178/2
f 62/375/2 218/377/2 456/378/2 319/376/2
f 218/377/2 63/379/2 320/380/2 456/378/2
f 456/378/2 320/380/2 124/161/2 300/160/2
f 319/376/2 456/378/2 300/160/2 123/159/2
f 63/379/2 220/381/2 457/382/2 320/380/2
f 220/381/2 64/69/2 321/72/2 457/382/2
f 457/382/2 321/72/2 125/77/2 301/208/2
f 320/380/2 457/382/2 301/208/2 124/161/2
f 66/53/3 214/383/3 458/384/3 371/54/3
f 214/383/3 67/385/3 325/386/3 458/384/3
f 458/384/3 325/386/3 127/295/3 142/387/3
f 371/54/3 458/384/3 142/387/3 126/55/3
f 107/149/3 284/148/3 459/388/3 324/389/3
f 284/148/3 108/141/3 370/390/3 459/388/3
f 459/388/3 370/390/3 131/391/3 193/392/3
f 324/389/3 459/388/3 193/392/3 130/393/3
f 133/394/2 385/395/2 460/396/2 384/397/2
f 385/395/2 108/141/2 285/140/2 460/396/2
f 460/396/2 285/140/2 109/139/2 326/398/2
f 384/397/2 460/396/2 326/398/2 100/399/2
f 100/399/2 326/400/2 461/401/2 279/402/2
f 326/400/2 109/139/2 286/266/2 461/401/2
f 461/401/2 286/266/2 110/265/2 327/403/2
f 279/402/2 461/401/2 327/403/2 101/35/2
f 10/298/2 144/301/2 462/404/2 272/405/2
f 144/301/2 9/40/2 277/406/2 462/404/2
f 462/404/2 277/406/2 98/407/2 328/408/2
f 272/405/2 462/404/2 328/408/2 93/409/2
f 93/409/2 328/410/2 463/411/2 273/412/2
f 328/410/2 98/407/2 278/413/2 463/411/2
f 463/411/2 278/413/2 99/414/2 329/415/2
f 273/412/2 463/411/2 329/415/2 94/416/2
f 94/416/2 329/417/2 464/418/2 274/419/2
f 329/417/2 99/414/2 383/420/2 464/418/2
f 464/418/2 383/420/2 133/394/2 386/421/2
f 274/419/2 464/418/2 386/421/2 95/422/2
f 95/422/2 386/421/2 465/423/2 275/424/2
f 386/421/2 133/394/2 384/397/2 465/423/2
f 465/423/2 384/397/2 100/399/2 330/425/2
f 275/424/2 465/423/2 330/425/2 96/426/2
f 96/426/2 330/425/2 466/427/2 276/428/2
f 330/425/2 100/399/2 279/402/2 466/427/2
f 466/427/2 279/402/2 101/35/2 331/33/2
f 276/428/2 466/427/2 331/33/2 97/29/2
f 11/307/2 145/310/2 467/429/2 267/430/2
f 145/310/2 10/298/2 272/431/2 467/429/2
f 467/429/2 272/431/2 93/409/2 332/432/2
f 267/430/2 467/429/2 332/432/2 88/433/2
f 88/433/2 332/432/2 468/434/2 268/435/2
f 332/432/2 93/409/2 273/412/2 468/434/2
f 468/434/2 273/412/2 94/416/2 333/436/2
f 268/435/2 468/434/2 333/436/2 89/437/2
f 89/437/2 333/436/2 469/438/2 269/439/2
f 333/436/2 94/416/2 274/440/2 469/438/2
f 469/438/2 274/440/2 95/422/2 334/441/2
f 269/439/2 469/438/2 334/441/2 90/442/2
f 90/442/2 334/441/2 470/443/2 270/444/2
f 334/441/2 95/422/2 275/445/2 470/443/2
f 470/443/2 275/445/2 96/426/2 335/446/2
f 270/444/2 470/443/2 335/446/2 91/447/2
f 91/447/2 335/446/2 471/448/2 271/449/2
f 335/446/2 96/426/2 276/428/2 471/448/2
f 471/448/2 276/428/2 97/29/2 336/26/2
f 271/449/2 471/448/2 336/26/2 92/24/2
f 12/316/2 146/319/2 472/450/2 262/451/2
f 146/319/2 11/307/2 267/430/2 472/450/2
f 472/450/2 267/430/2 88/433/2 337/452/2
f 262/451/2 472/450/2 337/452/2 83/453/2
f 83/453/2 337/452/2 473/454/2 263/455/2
f 337/452/2 88/433/2 268/435/2 473/454/2
f 473/454/2 268/435/2 89/437/2 338/456/2
f 263/455/2 473/454/2 338/456/2 84/457/2
f 84/457/2 338/456/2 474/458/2 264/459/2
f 338/456/2 89/437/2 269/439/2 474/458/2
f 474/458/2 269/439/2 90/442/2 339/460/2
f 264/459/2 474/458/2 339/460/2 85/461/2
f 85/461/2 339/460/2 475/462/2 265/463/2
f 339/460/2 90/442/2 270/444/2 475/462/2
f 475/462/2 270/444/2 91/447/2 340/464/2
f 265/463/2 475/462/2 340/464/2 86/465/2
f 86/465/2 340/464/2 476/466/2 266/467/2
f 340/464/2 91/447/2 271/449/2 476/466/2
f 476/466/2 271/449/2 92/24/2 341/22/2
f 266/467/2 476/466/2 341/22/2 87/19/2
f 13/324/2 147/327/2 477/468/2 257/469/2
f 147/327/2 12/316/2 262/451/2 477/468/2
f 477/468/2 262/451/2 83/453/2 342/470/2
f 257/469/2 477/468/2 342/470/2 79/471/2
f 79/471/2 342/470/2 478/472/2 258/473/2
f 342/470/2 83/453/2 263/455/2 478/472/2
f 478/472/2 263/455/2 84/457/2 343/474/2
f 258/473/2 478/472/2 343/474/2 80/475/2
f 80/475/2 343/474/2 479/476/2 259/477/2
f 343/474/2 84/457/2 264/459/2 479/476/2
f 479/476/2 264/459/2 85/461/2 344/478/2
f 259/477/2 479/476/2 344/478/2 81/479/2
f 81/479/2 344/478/2 480/480/2 260/481/2
f 344/478/2 85/461/2 265/463/2 480/480/2
f 480/480/2 265/463/2 86/465/2 345/482/2
f 260/481/2 480/480/2 345/482/2 82/483/2
f 82/483/2 345/482/2 481/484/2 261/485/2
f 345/482/2 86/465/2 266/467/2 481/484/2
f 481/484/2 266/467/2 87/19/2 346/18/2
f 261/485/2 481/484/2 346/18/2 523/486/2 524/487/2
f 14/332/2 148/335/2 482/488/2 178/489/2
f 148/335/2 13/324/2 257/490/2 482/488/2
f 482/488/2 257/490/2 79/471/2 347/491/2
f 178/489/2 482/488/2 347/491/2 75/492/2
f 75/492/2 347/493/2 483/494/2 176/495/2
f 347/493/2 79/471/2 258/473/2 483/494/2
f 483/494/2 258/473/2 80/475/2 348/496/2
f 176/495/2 483/494/2 348/496/2 76/162/2
f 76/162/2 348/497/2 484/498/2 165/163/2
f 348/497/2 80/475/2 259/477/2 484/498/2
f 484/498/2 259/477/2 81/479/2 349/499/2
f 165/163/2 484/498/2 349/499/2 77/166/2
f 77/166/2 349/499/2 485/500/2 164/501/2
f 349/499/2 81/479/2 260/502/2 485/500/2
f 485/500/2 260/502/2 82/483/2 350/503/2
f 164/501/2 485/500/2 350/503/2 78/504/2
f 78/504/2 350/505/2 486/506/2 162/507/2
f 350/505/2 82/483/2 261/485/2 486/506/2
f 486/506/2 261/485/2 524/487/2 525/508/2
f 162/507/2 486/506/2 525/508/2 526/509/2
f 15/510/1 149/511/1 487/512/1 369/513/1
f 14/514/1 377/515/1 487/512/1 149/511/1
f 56/516/1 369/513/1 487/512/1 377/515/1
f 106/244/3 283/271/3 488/517/3 368/518/3
f 283/271/3 107/149/3 324/389/3 488/517/3
f 488/517/3 324/389/3 130/393/3 208/519/3
f 368/518/3 488/517/3 208/519/3 129/520/3
f 132/521/2 387/522/2 489/523/2 381/524/2
f 387/522/2 77/166/2 164/501/2 489/523/2
f 489/523/2 164/501/2 78/504/2 352/525/2
f 381/524/2 489/523/2 352/525/2 74/526/2
f 74/526/2 352/527/2 490/528/2 528/529/2 529/530/2
f 352/527/2 78/504/2 162/507/2 490/528/2
f 490/528/2 162/507/2 526/509/2 527/531/2
f 491/532/2 197/533/2 72/534/2 353/535/2
f 202/536/2 491/532/2 353/535/2 68/537/2
f 68/537/2 353/538/2 492/539/2 201/540/2
f 353/538/2 72/534/2 179/541/2 492/539/2
f 492/539/2 179/541/2 73/542/2 354/543/2
f 201/540/2 492/539/2 354/543/2 69/544/2
f 69/544/2 354/545/2 493/546/2 200/547/2
f 354/545/2 73/542/2 382/548/2 493/546/2
f 493/546/2 382/548/2 132/521/2 388/549/2
f 200/547/2 493/546/2 388/549/2 70/550/2
f 70/550/2 388/549/2 494/551/2 199/552/2
f 388/549/2 132/521/2 381/524/2 494/551/2
f 494/551/2 381/524/2 74/526/2 355/553/2
f 199/552/2 494/551/2 355/553/2 71/554/2
f 71/554/2 355/555/2 530/556/2 531/557/2
f 355/555/2 74/526/2 529/530/2 530/556/2
f 495/558/2 202/536/2 68/537/2 356/559/2
f 216/560/2 495/558/2 356/559/2 65/49/2
f 65/49/2 356/559/2 496/561/2 215/50/2
f 356/559/2 68/537/2 201/540/2 496/561/2
f 496/561/2 201/540/2 69/544/2 357/562/2
f 215/50/2 496/561/2 357/562/2 66/53/2
f 66/53/2 357/562/2 497/563/2 214/383/2
f 357/562/2 69/544/2 200/547/2 497/563/2
f 497/563/2 200/547/2 70/550/2 358/564/2
f 214/383/2 497/563/2 358/564/2 67/385/2
f 67/385/2 358/564/2 498/565/2 207/566/2
f 358/564/2 70/550/2 199/567/2 498/565/2
f 498/565/2 199/567/2 71/554/2 359/568/2
f 207/566/2 498/565/2 359/568/2 533/569/2 534/570/2
f 359/568/2 71/554/2 531/557/2 532/571/2
f 67/385/6 361/572/6 499/573/6 325/574/6
f 361/572/6 3/575/6 351/576/6 499/573/6
f 499/573/6 351/576/6 104/297/6 367/296/6
f 325/574/6 499/573/6 367/296/6 127/295/6
f 3/575/2 361/577/2 500/578/2 536/579/2 537/580/2
f 361/577/2 67/385/2 207/581/2 500/578/2
f 500/578/2 207/581/2 534/570/2 535/582/2
f 362/583/2 17/584/2 138/585/2 501/586/2
f 501/586/2 138/585/2 5/587/2 363/588/2
f 155/589/2 501/586/2 363/588/2 25/590/2
f 25/590/2 363/591/2 502/592/2 153/593/2
f 363/591/2 5/587/2 136/594/2 502/592/2
f 502/592/2 136/594/2 3/575/2 364/595/2
f 153/593/2 502/592/2 364/595/2 23/596/2
f 23/596/2 364/595/2 538/597/2 539/598/2
f 364/595/2 3/575/2 537/580/2 538/597/2
f 110/265/2 159/353/2 503/599/2 327/403/2
f 159/353/2 20/278/2 150/287/2 503/599/2
f 503/599/2 150/287/2 18/37/2 158/36/2
f 327/403/2 503/599/2 158/36/2 101/35/2
f 75/492/4 176/495/4 504/600/4 375/601/4
f 176/495/4 76/162/4 373/165/4 504/600/4
f 504/600/4 373/165/4 26/170/4 242/602/4
f 375/601/4 504/600/4 242/602/4 16/603/4
f 216/560/3 65/49/3 374/52/3 505/604/3
f 505/604/3 374/52/3 128/57/3 280/605/3
f 14/332/4 178/489/4 506/606/4 377/607/4
f 178/489/4 75/492/4 375/608/4 506/606/4
f 506/606/4 375/608/4 16/603/4 376/609/4
f 377/607/4 506/606/4 376/609/4 56/610/4
f 8/48/3 282/245/3 507/611/3 372/612/3
f 282/245/3 106/244/3 368/613/3 507/611/3
f 507/611/3 368/613/3 129/520/3 209/614/3
f 372/612/3 507/611/3 209/614/3 102/615/3
f 132/616/5 379/616/5 508/616/5 387/616/5
f 19/616/5 360/616/5 508/616/5 379/616/5
f 77/616/5 387/616/5 508/616/5 360/616/5
f 133/616/5 380/616/5 509/616/5 385/616/5
f 131/616/5 370/616/5 509/616/5 380/616/5
f 108/616/5 385/616/5 509/616/5 370/616/5
f 597/617/2 598/618/2 25/590/2 153/619/2
f 563/116/1 562/620/1 244/121/1 41/117/1
f 578/621/1 576/622/1 575/85/1 399/84/1
f 587/623/2 589/624/2 280/238/2 423/237/2
f 512/290/5 515/38/5 18/37/5
f 599/625/2 592/626/2 594/627/2 155/589/2
f 589/628/3 588/629/3 505/604/3 280/605/3
f 591/630/2 590/631/2 17/584/2 362/583/2
f 551/632/5 552/274/5 54/227/5 231/226/5
f 553/633/1 547/634/1 49/5/1 237/143/1
f 588/629/3 586/635/3 216/560/3 505/604/3
f 541/286/5 516/636/5 418/213/5 229/214/5
f 562/620/1 561/249/1 43/122/1 244/121/1
f 577/637/1 578/621/1 399/84/1 256/88/1
f 535/582/2 536/579/2 500/578/2
f 539/638/2 540/639/2 600/640/2 23/596/2
f 554/152/1 553/633/1 237/143/1 47/131/1
f 593/641/2 591/630/2 362/583/2
f 548/642/1 549/643/1 29/7/1 235/6/1
f 598/618/2 599/625/2 155/589/2 25/590/2
f 527/531/2 528/529/2 490/528/2
f 585/644/2 582/645/2 491/532/2 202/536/2
f 581/646/1 577/637/1 256/88/1 445/349/1
f 532/571/2 533/569/2 359/568/2
f 600/640/2 597/617/2 153/619/2 23/596/2
f 517/32/2 518/28/2 391/27/2
f 586/635/2 584/647/2 495/558/2 216/560/2
f 513/648/5 511/289/5 432/288/5 228/212/5
f 579/347/1 581/646/1 445/349/1 255/350/1
f 594/627/2 593/641/2 362/583/2 501/586/2 155/589/2
f 584/647/2 585/644/2 202/536/2 495/558/2
f 582/645/2 583/649/2 15/342/2 197/533/2 491/532/2
f 595/650/1 580/346/1 166/343/1
f 516/636/5 513/648/5 228/212/5 418/213/5
f 547/634/1 548/642/1 235/6/1 49/5/1
f 550/199/5 551/632/5 231/226/5 58/196/5
f 583/649/1 595/650/1 166/343/1 15/342/1
f 522/21/2 523/486/2 346/18/2
f 596/651/2 587/623/2 423/237/2 226/239/2
o arch
v 21.000000 4.000000 0.000000
v 21.000000 -2.000000 0.000000
v 21.000000 4.000000 0.192892
v 21.000000 4.000000 2.000000
v 21.000000 -2.000000 0.192892
v 21.803408 3.065217 2.000000
v 21.803408 1.059170 0.192892
v 21.000000 -1.000000 0.000000
v 21.000000 0.000000 0.000000
v 21.000000 1.059170 0.000000
v 21.000000 3.065217 0.000000
v 21.000000 -1.000000 0.192892
v 21.000000 0.000000 0.192892
v 21.000000 1.059170 0.192892
v 21.803408 0.000000 0.192892
v 21.803408 -1.000000 0.192892
v 21.803408 -2.000000 0.192892
v 21.000000 3.065217 2.000000
v 21.803408 3.065217 1.635387
v 21.803408 1.622722 0.192892
v 21.803408 2.994617 1.189632
v 21.803408 2.789726 0.787510
v 21.803408 2.470600 0.468384
v 21.803408 2.068478 0.263492
v 21.000000 1.622722 0.192892
v 21.000000 3.065217 1.635387
v 21.000000 3.999950 0.192892
v 21.000000 3.065217 0.000050
v 21.000000 2.068477 0.263492
v 21.000000 2.470599 0.468384
v 21.000000 2.789725 0.787510
v 21.000000 2.994617 1.189632
v 58.000000 -2.000000 0.000000
v 58.000000 -2.000000 0.192892
v 58.803406 1.059170 0.192892
v 58.000000 -1.000000 0.000000
v 58.000000 0.000000 0.000000
v 58.000000 1.059170 0.000000
v 58.000000 -1.000000 0.192892
v 58.000000 0.000000 0.192892
v 58.000000 1.059170 0.192892
v 58.803406 0.000000 0.192892
v 58.803406 -1.000000 0.192892
v 58.803406 -2.000000 0.192892
v 58.803406 1.622722 0.192892
v 58.000000 1.622722 0.192892
v 58.000000 1.622722 0.000000
v 58.000000 4.000000 0.192892
v 58.000000 4.000000 0.000000
v 58.000000 3.065217 0.000000
v 58.000000 1.743697 0.192892
v 58.000000 3.999950 0.192892
v 58.000000 3.065217 0.000050
v 58.000000 2.404457 0.369942
v 58.000000 2.888167 0.853652
v 58.803406 1.743697 0.192892
v 58.803406 2.888167 0.853652
v 58.803406 2.404457 0.369942
v 98.000000 -2.000000 0.000000
v 98.000000 -2.000000 0.192892
v 98.803406 1.059170 0.192892
v 98.000000 -1.000000 0.000000
v 98.000000 0.000000 0.000000
v 98.000000 1.059170 0.000000
v 98.000000 -1.000000 0.192892
v 98.000000 0.000000 0.192892
v 98.000000 1.059170 0.192892
v 98.803406 0.000000 0.192892
v 98.803406 -1.000000 0.192892
v 98.803406 -2.000000 0.192892
v 98.803406 1.622722 0.192892
v 98.000000 1.622722 0.192892
v 98.000000 1.622722 0.000000
v 98.000000 4.000000 0.192892
v 98.000000 4.000000 0.000000
v 98.000000 3.065217 0.000000
v 98.000000 1.743697 0.192892
v 98.000000 3.999950 0.192892
v 98.000000 3.065217 0.000050
v 98.000000 2.404457 0.369942
v 98.803406 1.743697 0.192892
v 98.803406 2.404457 0.369942
v 98.000000 2.725694 0.691179
v 98.803406 2.709566 0.675051
v 98.000000 4.000000 0.698568
v 98.000000 3.643738 0.696502
v 98.000000 3.157329 0.693682
v 58.000000 3.059065 1.491449
v 58.803406 3.054761 1.475389
v 58.000000 3.081369 1.491578
v 58.000000 4.000000 1.496904
v 21.803406 3.065217 2.213911
v 21.000000 3.065217 2.229946
v 21.000000 4.000000 2.235365
vn -1.0000 -0.0000 -0.0000
vn -0.0000 -0.0000 1.0000
vn -0.0000 -0.1564 0.9877
vn -0.0000 -0.4540 0.8910
vn -0.0000 -0.7071 0.7071
vn -0.0000 -0.8910 0.4540
vn -0.0000 -0.9877 0.1564
vn -0.0000 -1.0000 -0.0000
vn -0.0000 -0.2588 0.9659
vn -0.0000 -0.9659 0.2588
vn -1.0000 -0.0000 -0.0001
vt 0.963828 0.714665
vt 0.976123 0.715401
vt 0.976125 0.777976
vt 0.963536 0.777029
vt 0.862360 0.444716
vt 0.872041 0.444650
vt 0.871699 0.509618
vt 0.862015 0.509526
vt 0.870331 0.770013
vt 0.944677 0.713519
vt 0.870331 0.770016
vt 0.872382 0.379735
vt 0.875925 0.383624
vt 0.875594 0.446825
vt 0.871338 0.578488
vt 0.861650 0.578227
vt 0.875263 0.510077
vt 0.874912 0.577125
vt 0.862704 0.379959
vt 0.871145 0.615155
vt 0.860960 0.708507
vt 0.860958 0.708507
vt 0.860634 0.769287
vt 0.874725 0.612822
vt 0.874551 0.644325
vt 0.884779 0.671051
vt 0.900926 0.692809
vt 0.921531 0.707473
vt 0.878045 0.641217
vt 0.888011 0.667225
vt 0.903741 0.688387
vt 0.923808 0.702635
vt 0.946343 0.708491
vt 0.964983 0.709583
vt 0.942349 0.490359
vt 0.946738 0.490379
vt 0.946600 0.519254
vt 0.942210 0.519203
vt 0.946876 0.461514
vt 0.947587 0.462294
vt 0.947450 0.490815
vt 0.946453 0.549849
vt 0.942062 0.549764
vt 0.947314 0.519346
vt 0.947169 0.549576
vt 0.942488 0.461525
vt 0.946375 0.566133
vt 0.947092 0.565666
vt 0.941984 0.566030
vt 0.947076 0.569120
vt 0.946359 0.569629
vt 0.941785 0.607680
vt 0.941783 0.607680
vt 0.946046 0.634858
vt 0.946046 0.634859
vt 0.941653 0.634682
vt 0.950307 0.588843
vt 0.961318 0.603199
vt 0.975997 0.608654
vt 0.975999 0.609299
vt 0.950977 0.588104
vt 0.961859 0.602286
vt 0.975998 0.607536
vt 0.966401 0.504083
vt 0.969160 0.504105
vt 0.969076 0.522146
vt 0.966317 0.522111
vt 0.969244 0.486069
vt 0.969523 0.486375
vt 0.969439 0.504276
vt 0.968987 0.541258
vt 0.966228 0.541211
vt 0.969356 0.522182
vt 0.969268 0.541151
vt 0.966486 0.486059
vt 0.968940 0.551429
vt 0.969221 0.551246
vt 0.966181 0.551375
vt 0.969211 0.553413
vt 0.968930 0.553612
vt 0.966060 0.577397
vt 0.966059 0.577397
vt 0.968741 0.594347
vt 0.968741 0.594348
vt 0.965981 0.594265
vt 0.971411 0.565598
vt 0.975997 0.571518
vt 0.976010 0.579317
vt 0.976014 0.588103
vt 0.971673 0.565309
vt 0.975997 0.570889
vt 0.976018 0.594567
vt 0.976019 0.636069
vt 0.976110 0.710235
s 0
f 618/652/7 693/653/7 694/654/7 604/655/7
f 608/656/7 612/657/7 613/658/7 609/659/7
f 627/660/7 626/661/7 618/652/7 604/655/7 603/662/7
f 612/657/8 605/663/8 617/664/8 616/665/8
f 609/659/7 613/658/7 614/666/7 610/667/7
f 614/666/8 613/658/8 615/668/8 607/669/8
f 602/670/7 605/663/7 612/657/7 608/656/7
f 610/667/7 614/666/7 625/671/7 628/672/7 611/673/7
f 613/658/8 612/657/8 616/665/8 615/668/8
f 611/673/7 628/672/7 627/660/7 603/662/7 601/674/7
f 625/671/8 614/666/8 607/669/8 620/675/8
f 625/671/7 629/676/7 630/677/7 631/678/7 632/679/7 626/661/7 627/660/7 628/672/7
f 625/671/9 620/675/9 624/680/9 629/676/9
f 629/676/10 624/680/10 623/681/10 630/677/10
f 630/677/11 623/681/11 622/682/11 631/678/11
f 631/678/12 622/682/12 621/683/12 632/679/12
f 632/679/13 621/683/13 619/684/13 626/661/13
f 618/652/14 626/661/14 619/684/14 606/685/14
f 636/686/7 639/687/7 640/688/7 637/689/7
f 639/687/8 634/690/8 644/691/8 643/692/8
f 637/689/7 640/688/7 641/693/7 638/694/7
f 641/693/8 640/688/8 642/695/8 635/696/8
f 633/697/7 634/690/7 639/687/7 636/686/7
f 640/688/8 639/687/8 643/692/8 642/695/8
f 646/698/8 641/693/8 635/696/8 645/699/8
f 638/694/7 641/693/7 646/698/7 647/700/7
f 656/701/8 651/702/8 646/698/8 645/699/8
f 647/700/7 646/698/7 651/702/7 653/703/7 650/704/7
f 650/704/7 653/703/7 652/705/7 648/706/7 649/707/7
f 651/702/7 654/708/7 655/709/7 688/710/7 690/711/7 652/705/7 653/703/7
f 651/702/15 656/701/15 658/712/15 654/708/15
f 654/708/11 658/712/11 657/713/11 655/709/11
f 655/709/16 657/713/16 689/714/16 688/710/16
f 662/715/7 665/716/7 666/717/7 663/718/7
f 665/716/8 660/719/8 670/720/8 669/721/8
f 663/718/7 666/717/7 667/722/7 664/723/7
f 667/722/8 666/717/8 668/724/8 661/725/8
f 659/726/7 660/719/7 665/716/7 662/715/7
f 666/717/8 665/716/8 669/721/8 668/724/8
f 672/727/8 667/722/8 661/725/8 671/728/8
f 664/723/7 667/722/7 672/727/7 673/729/7
f 681/730/8 677/731/8 672/727/8 671/728/8
f 673/729/7 672/727/7 677/731/7 679/732/7 676/733/7
f 676/733/17 679/732/17 678/734/17 674/735/17 675/736/17
f 677/731/7 680/737/7 683/738/7 687/739/7 686/740/7 678/734/7 679/732/7
f 677/731/15 681/730/15 682/741/15 680/737/15
f 680/737/11 682/741/11 684/742/11 683/738/11
f 686/740/7 685/743/7 674/735/7 678/734/7
f 690/711/7 691/744/7 648/706/7 652/705/7
f 692/745/14 693/653/14 618/652/14 606/685/14
o corridor-far
v -6.546257 0.488654 2.764786
v 225.358292 54.925682 -1.548044
v 21.000002 4.000000 0.000000
v 21.000002 -2.000000 0.000000
v 58.000008 4.000000 0.000000
v 58.000008 -2.000000 0.000000
v 98.000015 4.000000 0.000000
v 98.000015 -2.000000 0.000000
v 21.000002 1.000000 0.000000
v 58.000008 1.000000 0.000000
v 98.000015 1.000000 0.000000
v 21.000002 4.000000 1.500000
v 21.000002 -2.000000 1.500000
v 21.000002 -0.500000 0.000000
v 58.000008 -0.500000 0.000000
v 39.500004 4.000000 0.000000
v 39.500004 -2.000000 0.000000
v 98.000015 -0.500000 0.000000
v 78.000015 -2.000000 0.000000
v 78.000015 4.000000 0.000000
v 123.000015 -2.000000 0.000000
v 21.000002 2.500000 0.000000
v 58.000008 2.500000 0.000000
v 98.000015 2.500000 0.000000
v 78.000015 1.000000 0.000000
v 39.500004 1.000000 0.000000
v 123.000015 4.000000 0.000000
v 123.000015 1.000000 0.000000
v 39.500004 -2.000000 1.500000
v 39.500004 4.000000 1.500000
v 39.500004 2.500000 0.000000
v 78.000015 2.500000 0.000000
v 78.000015 -0.500000 0.000000
v 39.500004 -0.500000 0.000000
v 123.000000 -0.500000 0.000000
v 123.000000 2.500000 0.000000
v 133.001160 4.000000 0.000000
v 132.565430 2.500000 0.000000
v 123.000015 -2.000000 0.164820
v 132.129684 1.000000 0.000000
v 131.693939 -0.500000 0.000000
v 123.000008 4.000000 0.199607
v 131.258209 -2.000000 0.000000
v 98.000015 -2.000000 0.663781
v 98.000015 4.000000 0.698567
v 78.000015 4.000000 1.097736
v 78.000015 -2.000000 1.062949
v 58.000008 4.000000 1.496904
v 58.000008 -2.000000 1.462117
v 57.844872 4.000000 1.500000
v 56.101894 -2.000000 1.500000
v 39.500004 4.000000 1.866135
v 39.500004 -2.000000 1.831348
v 21.000002 -2.000000 2.200579
v 21.000002 4.000000 2.235365
vn -0.0000 1.0000 -0.0000
vn -0.0000 -1.0000 -0.0000
vn -0.0000 -0.0000 1.0000
vt 0.958954 0.419793
vt 0.975298 0.457164
vt 0.976290 0.461439
vt 0.942488 0.461525
vt 0.902596 0.420742
vt 0.940742 0.378149
vt 0.862704 0.379959
vt 0.860635 0.769287
vt 0.901144 0.701984
vt 0.957595 0.705627
vt 0.938828 0.775170
vt 0.941654 0.634682
vt 0.976291 0.636080
vt 0.976205 0.636666
vt 0.971375 0.706516
vt 0.977162 0.778054
vt 0.861671 0.574388
vt 0.901871 0.561222
vt 0.901507 0.631603
vt 0.861153 0.671837
vt 0.942071 0.548057
vt 0.941862 0.591369
vt 0.954152 0.544100
vt 0.953985 0.579287
vt 0.966233 0.540144
vt 0.966107 0.567204
vt 0.965981 0.594265
vt 0.953817 0.614473
vt 0.974450 0.615225
vt 0.976076 0.594569
vt 0.954487 0.473792
vt 0.954319 0.508946
vt 0.942279 0.504791
vt 0.966486 0.486059
vt 0.966359 0.513101
vt 0.902233 0.490982
vt 0.862187 0.477173
vt 0.972869 0.492585
vt 0.972764 0.515312
vt 0.974978 0.494741
vt 0.974991 0.516081
vt 0.975005 0.537271
vt 0.972658 0.538040
vt 0.972448 0.583520
vt 0.974871 0.583588
vt 0.975035 0.579222
vt 0.972553 0.560780
vt 0.966107 0.567204
vt 0.975019 0.558322
vt 0.977190 0.377303
vt 0.971404 0.419583
vt 0.974450 0.473788
vt 0.976073 0.486093
vt 0.974870 0.492595
s 0
f 723/746/18 745/747/18 743/748/18 700/749/18 711/750/18
f 707/751/18 723/746/18 711/750/18 698/752/18
f 697/753/19 710/754/19 724/755/19 706/756/19
f 710/754/19 699/757/19 742/758/19 744/759/19 724/755/19
f 724/755/19 744/759/19 746/760/19
f 706/756/19 724/755/19 746/760/19 749/761/19
f 703/762/20 720/763/20 725/764/20 716/765/20
f 720/763/20 704/766/20 717/767/20 725/764/20
f 725/764/20 717/767/20 699/757/20 710/754/20
f 716/765/20 725/764/20 710/754/20 697/753/20
f 704/766/20 719/768/20 726/769/20 717/767/20
f 719/768/20 705/770/20 718/771/20 726/769/20
f 726/769/20 718/771/20 701/772/20 714/773/20
f 717/767/20 726/769/20 714/773/20 699/757/20
f 699/757/19 714/773/19 740/774/19 742/758/19
f 714/773/19 701/772/19 739/775/19 740/774/19
f 700/749/20 713/776/20 727/777/20 709/778/20
f 713/776/20 702/779/20 712/780/20 727/777/20
f 727/777/20 712/780/20 705/770/20 719/768/20
f 709/778/20 727/777/20 719/768/20 704/766/20
f 698/752/20 711/750/20 728/781/20 708/782/20
f 711/750/20 700/749/20 709/778/20 728/781/20
f 728/781/20 709/778/20 704/766/20 720/763/20
f 708/782/20 728/781/20 720/763/20 703/762/20
f 702/779/20 715/783/20 729/784/20 712/780/20
f 715/783/20 737/785/20 735/786/20 729/784/20
f 729/784/20 735/786/20 734/787/20 722/788/20
f 712/780/20 729/784/20 722/788/20 705/770/20
f 701/772/19 721/789/19 736/790/19 739/775/19
f 721/789/19 731/791/19 736/790/19
f 705/770/20 722/788/20 730/792/20 718/793/20
f 722/788/20 734/787/20 732/794/20 730/792/20
f 730/792/20 732/794/20 731/791/20 721/789/20
f 718/793/20 730/792/20 721/789/20 701/772/20
f 748/795/18 747/796/18 723/746/18 707/751/18
f 747/796/18 745/747/18 723/746/18
f 741/797/18 738/798/18 702/779/18 713/776/18
f 738/798/18 733/799/18 715/783/18 702/779/18
f 743/748/18 741/797/18 713/776/18 700/749/18
f 733/799/18 737/785/18 715/783/18
l 749 695
l 731 696
